<svg xmlns="http://www.w3.org/2000/svg" viewBox="0 0 314.69 337"><defs><style>.cls-1{fill:#b0cfe0;}.cls-2{fill:#0f4263;}.cls-3{fill:#265787;}.cls-4{fill:none;stroke:#ad9e9e;stroke-miterlimit:10;}.cls-5{fill:#1f78b0;}.cls-6{fill:#80bde3;}</style></defs><title>businesswomanAsset 3</title><g id="Layer_2" data-name="Layer 2"><g id="Layer_1-2" data-name="Layer 1"><path class="cls-1" d="M67.21,328.31c-6.89-1.19-10.75-2.15-17.62-1.06-13.35,2.1-23.1,2.77-36.88,1.69-5.08-.4-8.18-2.22-12.71-2.86,2.61-1.91,11.69-7.56,15.71-8.44,4.72-1,9.23,1.36,13.6,2.09,5.87,1,12.23,1.75,18.25,2.4a131.39,131.39,0,0,0,23.8,0c7.78-.63,15.79.35,23.47-.89,7.49-1.21,13.7-1.94,21.64-.83,12.17,1.71,20.65,2.29,33.1.5,6.79-1,12.06-1.64,18.68.12,5.6,1.49,8.71,2.86,14.67,2.08s12-1.8,17.93-2.3a62.24,62.24,0,0,1,18.86.92c16.41,3.62,34.41,1.13,51.73,2.46,5.87.46,11.81.65,17.73,1.11,2.54.19,6.78,0,8.74,1.39,4,2.88-.66,4.64-4.79,5-5.52.52-11.52.37-17.16.82s-10.9,1.5-16.54,1.64a76.16,76.16,0,0,1-12.76-.63c-9.69-1.4-19.41-1.45-28.73,1a61.87,61.87,0,0,1-7.05,1.9c-9.07,1.32-19.56-.29-28.63-.86-9.56-.61-19.14-2-28.7-1.53-8.52.39-16.34,1.83-24.85.68-16.7-2.26-32.36-.41-48.84-3.48C75.4,330.47,71.6,329.07,67.21,328.31Z"/><path class="cls-2" d="M167.29,56.67c1.94,1.73,3.38,4.19,5.35,5.92a50.09,50.09,0,0,0,6.12,4.24A89.91,89.91,0,0,0,172.47,75a77.6,77.6,0,0,1,8.23,4.54c2.35,1.43,2.88,1.27,2.26,3.84a72.41,72.41,0,0,0-1.67,12.19c-2.44-1.07-4.17-7.07-5.22-9.18-2.45-4.89-5.3-9.57-7.84-14.41-.93-1.77-1.83-3.74-3.52-4.93C165.32,63.86,168.05,59.16,167.29,56.67Z"/><path class="cls-3" d="M26,319.94a6.59,6.59,0,0,0,1.35,5.14,9.19,9.19,0,0,0,2.19,1.86A12.63,12.63,0,0,0,34.46,328c4.5,0,8.4-4.19,8.47-8.68C43,315,38.21,312,34.46,312,30.37,312,26.57,315.88,26,319.94Z"/><path class="cls-4" d="M106.46,171.27c1.45-.15,2.39,1.49,2.66,2.91a4.93,4.93,0,0,1-.76,4.11,3.79,3.79,0,0,1-4.37.78,5.74,5.74,0,0,1-2.89-3.61,3.4,3.4,0,0,1,.12-2.71,3.12,3.12,0,0,1,1.7-1.25,5.66,5.66,0,0,1,5.08.68"/><path class="cls-5" d="M13.38,291.17,6,287.2c-1.48-.79-3-1.68-3.79-3.2-.88-1.79-.33-3.93.29-5.84C6.8,265.1,13.63,253,17.32,239.73A20.25,20.25,0,0,1,19.51,234a5.89,5.89,0,0,1,5.14-2.89,19.8,19.8,0,0,1,11.63,4.83"/><path class="cls-6" d="M202.93,42.38a21.9,21.9,0,0,0,1.27,7c.37,1.19.87,2.71-.48,3.42s-2.5.07-3.63-.75c-.69-.49-1.57-1.57-2.51-1.39-1.16.21-1.87,2.16-2.62,2.92-1.13,1.15-2.32,2.23-3.44,3.34-1.52,1.51-4.19,4.62-6.55,4.56a3.75,3.75,0,0,1-1.92-.77,50.33,50.33,0,0,1-5.27-3.92,2.71,2.71,0,0,0-1.53-.83,2.46,2.46,0,0,0-1.28.41,22.11,22.11,0,0,0-6.31,5.28c-4.91,6-14.92-5.07-19.07-8.53a2.57,2.57,0,0,1-1-1.23,2.64,2.64,0,0,1,.77-2.07A86.85,86.85,0,0,0,162.64,24.5c1.64-5,3-10.42,6.58-14.26,9-9.5,22.27-3.88,30.27,3.49,3,2.8,5.95,5.21,6.77,9.43.76,3.95-.32,7.78-1.47,11.54-.71,2.36-1.72,4.85-1.85,7.33C202.93,42.14,202.93,42.26,202.93,42.38Z"/><path class="cls-3" d="M153.86,14.55C159.8,8.41,165.63,1,174.77.11A38.75,38.75,0,0,1,183,.43c4.59.51,9.82,3.24,13.51,6,2.44,1.83,2.45,3.86,5.24,5,3.22,1.36,5.91,1.89,8,5.07a18.48,18.48,0,0,1,2.72,11.05c-.1,1.07-2.38,6.92-1.72,7.36Q201,28.38,190.7,22.75l-3.38,9.17a33.14,33.14,0,0,0-5.71-11.09A161.32,161.32,0,0,0,165,49.44c-9-4.4-18.35-9-24.82-16.7A91.91,91.91,0,0,1,153.86,14.55Z"/><path class="cls-6" d="M184.19,21.49a5.67,5.67,0,0,0-2.29-2.59,4.72,4.72,0,0,0-4.75.53,9.2,9.2,0,0,0-3,4,17.86,17.86,0,0,0-1.23,9.9A6,6,0,0,0,174,36a2.56,2.56,0,0,0,2.58,1,4.26,4.26,0,0,0,1.93-1.55C182.71,30.55,188.1,29.16,184.19,21.49Z"/><path class="cls-3" d="M198.62,36.22c-.08.74-2.24,5.61-3.05,4.53-.49-.65.73-2.6,1-3.25s.77-2,1.5-2.12C198.54,35.34,198.68,35.69,198.62,36.22Z"/><path class="cls-3" d="M191.43,57a10.82,10.82,0,0,1-1-1.29c-.73-1.1-4-5.29-3.25-6.24,1.28.5,2.09,2.32,2.92,3.33s1.58,2.08,2.51,3.07Z"/><path class="cls-3" d="M230.8,88.55c1.57-2,3.1-4.06,4.48-6,2.41-3.47,4.15-7.39,6.89-10.64a11.31,11.31,0,0,0,2.27,1.84,100.47,100.47,0,0,1-8.11,11.85c-2.3,3.12-4.64,6.26-7,9.32-.49.63-3.93,6.64-4.71,6.44-3.33-.83-1.13-3,0-4.67s2.13-3.24,3.42-4.73C229,90.84,229.89,89.71,230.8,88.55Z"/><path class="cls-6" d="M217.54,89.22c.17-.18.35-.34.52-.5l3.66-3.48c1.52-1.44,7.84-3.94,10.06-3.06,4.58,1.82-.91,5.46-2.89,6.52a3.77,3.77,0,0,0-2.29,2.94s6.14-2.92,6.77-3.44c1.82-1.53,2.91-3.41,5.16-4.54a5.26,5.26,0,0,1,.38,4.29,15.39,15.39,0,0,1-2,3.91c1.18-.14,2,1.28,1.92,2.47-.08,1.8-.22,3.72-2.11,4.22l-3.1.83c-.41,1.74.51,3.82-.6,5.21a4.25,4.25,0,0,1-1.31,1c-1.1.62-16.73,9-16.06,9.87-1.15-1.38-8.64-8.54-7-10.3,1.95-2.17,4.07-4.28,5.89-6.56,1.95-2.47,1.5-3.07,1.37-6A4.74,4.74,0,0,1,217.54,89.22Z"/><path class="cls-5" d="M136,122.46c-.73-9.31-4-18.22-6.48-27.22-2.47-8.85-3.23-19.11,1.22-27.45,4.17-7.79,12.08-13.66,14-22.29a2.7,2.7,0,0,1,.55-1.35c1.75-1.8,10.71,7,12.09,8.31a169.58,169.58,0,0,0,14,11.81,2.5,2.5,0,0,1,1.11,1.36,2.54,2.54,0,0,1-.48,1.66l-3,5.22c.85-1.49,14.54,17.23,15.09,19.23a38.83,38.83,0,0,1,1.17,14.55c-.24,2-1.27,10.64-2.91,11.81l27.41-19.26a115,115,0,0,1,15.3,20.1l-40.22,24.52a84.7,84.7,0,0,1,4.72,7.47c.64,1.23,7.1,16.58,6.26,16.58l-32.84.07c-13.07,0-26.18,0-39.15,1.69C130,154.91,137.25,138.21,136,122.46Z"/><path class="cls-2" d="M186.71,142.25c-1.13,1.4-3.13,1.29-4.69,2-2.07,1-4.07,2.71-6.17,3.84-1.32.7-4.81,2.72-6.34,2.34-2-.51-4.09-4.68-5-6.12-5.68-8.9-10.93-18.36-17.2-26.86-3.27-4.43-5.8-13.77-10.56-16.7a86.07,86.07,0,0,0,5.76,17.08c3.59,7.57,6.41,15.44,10.33,22.89,1.79,3.39,3.84,6.67,5.63,10.05,1,1.84,1.73,5.2,3.56,6.47,3.29,2.28,11.44-1.67,14.55-3.19s7.42-5.37,10.85-5.87a15.21,15.21,0,0,0-2.5-5.14C185,143.3,185.1,143.53,186.71,142.25Z"/><path class="cls-6" d="M266.57,290.85c2.27,1.4,4.74,4.76,6.56,6.28,2.57,2.14,5.45,3.77,5,7.56a10.73,10.73,0,0,1-4.53,7c-4.21,2.89-12.33,4.85-15.76,0-1.58-2.23-1.27-4.45-2.22-6.85-.7-1.74-2.79-4.1-2.58-6,.2-1.71,2.41-3.24,3.6-4.29,2.08-1.81,5.65-5,8.69-4.18A4.52,4.52,0,0,1,266.57,290.85Z"/><path class="cls-2" d="M266.83,289.12a15.35,15.35,0,0,1,3.21,5c-3.24,2.6-7.39,3.79-10.73,6.37a16.12,16.12,0,0,1-4.57,2.86A21.18,21.18,0,0,1,253,300c-.87-2.58,5.25-5.64,7.15-6.76S264.19,290.05,266.83,289.12Z"/><path class="cls-6" d="M92.56,290.73a36.43,36.43,0,0,1-1,6.33c-.82,4.11,2.67,8.5-2.22,11a10.74,10.74,0,0,1-8.31,0c-4.73-1.93-10.83-7.64-8.66-13.17,1-2.55,3-3.5,4.51-5.62,1.07-1.54,1.9-4.58,3.63-5.47,1.54-.77,4,.23,5.57.66C91.14,285.85,92.57,287.66,92.56,290.73Z"/><path class="cls-5" d="M164.64,200.16c-2.42-2.67-4.92-5.27-7.56-7.74-10.82-10.19-24.71-15.88-23.52-32.84-.11,1.54,20.57,2.47,22.36,2.36l24.83-1.86c1.94-.15,4-.27,5.7.69a9.11,9.11,0,0,1,3.12,3.58c3.1,5.32,4,11.3,6.62,16.66,2,4.13,5.89,7.72,8.49,11.58,9.8,14.5,17.29,30.22,27.33,44.52,7.39,8.31,13.23,18.83,19.63,27.94s13,17.24,19.73,25.88l-28.61,16.19c-3-5.58-4.74-11.52-7.25-17.22s-7.33-11.12-11.26-16.08q-17-21.47-34.5-42.59C181.27,221,173.56,210,164.64,200.16Z"/><path class="cls-2" d="M276.27,297.37a4.31,4.31,0,0,0-3.09.24c-1.56.92-1.58,3.32-.53,4.79a9.88,9.88,0,0,0,4.48,2.94,16.69,16.69,0,0,1-20.83,2.51,11.42,11.42,0,0,0,.94,9.62c1.29,2,3.28,3.51,4.85,5.34s1.74,4.49,3.07,6.51c.76-.79,8-4.17,7.87-4.42l-2.51-5.6a25.68,25.68,0,0,1,21.28-1.86l17.61-11.54a14.39,14.39,0,0,0,4.3-3.72,4.9,4.9,0,0,0,.31-5.37c-1.36-1.95-4.32-2-6.48-1.06s-3.86,2.76-5.82,4.1C292.26,306.29,285.36,299.19,276.27,297.37Z"/><path class="cls-2" d="M94.71,301a4.83,4.83,0,0,0-2.23-2.22c-1.68-.67-3.6.77-4.13,2.5a10,10,0,0,0,.4,5.35,16.7,16.7,0,0,1-14.66-15A11.44,11.44,0,0,0,67,298.25c-.83,2.26-.78,4.73-1.28,7.09s-2.51,4.12-3.31,6.4c1.09.13,8.17,3.8,8.3,3.56l2.92-5.4c.69-1.27,9.64,7.09,10.3,8a38.27,38.27,0,0,1,3.32,5.66c.48.89.39,1.56,1.2,2.07s3.47.33,4.47.45a86.08,86.08,0,0,0,10.41.48c3.54,0,7,1.56,10.53.22a4.4,4.4,0,0,0,3-3.4c.19-2-1.49-3.72-3.36-4.38a19.57,19.57,0,0,0-5.88-.58c-5.91-.16-8.48-5.38-10.35-10.42C96.59,306.21,95.93,303.16,94.71,301Z"/><path class="cls-2" d="M88.31,288.07c1.23.9,2.58,1.68,3.77,2.61.58.46.49.15.56.86a6.48,6.48,0,0,1-.19,1.3,7,7,0,0,1-.66,2.49,6,6,0,0,0-2.38-1.52,44.78,44.78,0,0,1-3.92-2.64c-1.27-.84-2.79-1.26-4-2.11a15.51,15.51,0,0,1-1.79-1.39c-.43-.4-.78-1-1.31-1.25a34.21,34.21,0,0,1,1.8-3.37c.21-.42.28-.95.79-1,.69-.05,3.17,2.74,3.53,3C85.72,286.11,87,287.13,88.31,288.07Z"/><path class="cls-5" d="M163.76,192a39.55,39.55,0,0,1,4-5.83c-4.38-3.3-7.67-7.3-11.29-11.45-5-5.77-11.47-10.13-17-15.12-3.07,2.7-4.9,8.79-6.62,12.57-3.39,7.44-7.22,14.58-10.72,22-3.86,8.13-7.62,16.18-11.32,24.46-3,6.74-6.26,13.35-9.19,20.11-2.82,6.5-5.44,13.35-9.15,19.45-1.09,1.79-14.52,25.58-14.26,25.73A249.56,249.56,0,0,1,102.73,301c1.9-5.44,4-11.62,7-16.48,3-4.71,7-8.67,9.65-13.61,2-3.8,3.29-8,5.13-11.89a58.06,58.06,0,0,1,3.58-7.14c2.19-3.33,5.2-6,7.31-9.42,2.71-4.39,5.13-9,7.45-13.63,3.86-7.65,9.3-14.55,13.44-22.11C158.84,202.06,161,196.77,163.76,192Z"/><path class="cls-6" d="M103.24,155.37a23,23,0,0,1,2.33-2.47,19.69,19.69,0,0,0,5.36,4c1,.44,2.92.65,3.62,1.54a1.08,1.08,0,0,0-.15.31c-.31.71-1,2.47-1,2.64-.41,1-1.09,1.84-1.11,3s.44,2.63.54,3.87.2,2.69.37,4c.21,1.65.32,3.3.45,4.94.13,1.48.69,2.31-.6,3.24-2,1.43-4.66,1.64-6.9,2.59a15,15,0,0,1-4.48,1.5c-2.55.2-2.79-2.58-3.33-4.36-1.35-.16-3-.2-4-1.19a3.91,3.91,0,0,1,.29-5.87c1.79-1.52,7.22-2.28,4.1-5.46C94.43,163.43,100.17,158.49,103.24,155.37Z"/><path class="cls-5" d="M100.06,150.29c2.9-7.21,13.92-24.82,15.18-27.09,5.79-10.45,10-21.25,15.41-31.9,3.25,10.22,6.18,19.47,7.91,30.08a13.46,13.46,0,0,1-.16,4.57,15.31,15.31,0,0,1-2.09,4.23A184.27,184.27,0,0,0,126,149.76c-2,4.33-4.37,9.3-6.8,13.34a96.78,96.78,0,0,1-19.66-9.81C99.17,153,99.4,151.93,100.06,150.29Z"/><path class="cls-1" d="M217.58,115.84a1.46,1.46,0,0,0-1.15-.25c-2,.36-2.63,4-.35,4.41S219,116.87,217.58,115.84Z"/><path class="cls-6" d="M38.32,315.93a4.43,4.43,0,0,0-3.07-1.79,6.53,6.53,0,0,0-1.91.16,8.43,8.43,0,0,0-2.82,1.82,6,6,0,0,0,.1,8.1c2,2.08,5.68,1.22,7.45-.55C40,321.74,40,318.12,38.32,315.93Z"/><path class="cls-5" d="M84,221c.21-1.33,1.4-3.22,2-4.65.71-1.67,1.45-3.33,2.17-5,1.58-3.67,3-7.29,4.77-10.9,3.17-6.5,5.87-13.06,8.7-19.7a45,45,0,0,0,2.12-5c.31-1.1.5-.66-.23-1.48a12.15,12.15,0,0,0-2.62-1.91c-.64,3.06-2.3,5.88-3.41,8.78-.83,2.21-1.86,4.24-2.86,6.35-2.12,4.47-3.43,9.26-5,13.93A81,81,0,0,1,85,211.13,87.54,87.54,0,0,0,80.57,221c.77-.25,1.84,1,2.61,1.28C83.55,221.42,84,220.66,84,221Z"/><path class="cls-3" d="M85.38,220.31c-2.54-3.19-7.24-3.31-11.08-4.69-3-1.08-5.6-3-8.29-4.74a59.19,59.19,0,0,0-10.76-5.4c-3.68-1.41-8.08-2.36-11.36-.18-2.36,1.57-3.52,4.39-4.55,7l-28.72,74A17.11,17.11,0,0,0,9,293.12c.22,5.41,5.26,9.22,10,11.88a121.3,121.3,0,0,0,24.76,10.58c.8.25,2.07.14,2-.7Z"/><path class="cls-3" d="M104.33,177.6c1.43-.12,2.7-4.15,3.11-5.32-1.39-1.11-4.73-4.13-6.48-2.68-1.3,1.09-1.78,3.71-2.33,5.25a9.58,9.58,0,0,0,3.7,2.28A7.73,7.73,0,0,0,104.33,177.6Z"/><path class="cls-2" d="M171.38,174.17h.22a50,50,0,0,0,5.48-.41c.86-.1,1.67,0,2.53-.15s1.45-.44,2.2-.52c1.73-.18,3.48,0,5.23-.13,1.09-.06,2.18-.11,3.28-.13.35,0,2.7-.24,2.86,0-1.09-1.73-1.48-3.69-2.24-5.58-1.45,0-2.9.27-4.37.27l-7.87,0-15.74,0c-6.36,0-12.71,0-19.06.22-1.66,0-3.31.12-5,.2a37.42,37.42,0,0,0-4.62.1c-.12,0-.65,2-.77,2.25a8.7,8.7,0,0,0-1,2.64c.67-.07,1.33.21,2,.17a8.73,8.73,0,0,1,1.69,0,33.27,33.27,0,0,0,5.18-.17,78.42,78.42,0,0,1,9.67.58,36,36,0,0,0,5.87-.18,13,13,0,0,1,3.41,0,50.92,50.92,0,0,0,8.16.8C169.48,174.21,170.43,174.18,171.38,174.17Z"/><path class="cls-2" d="M157.09,192.42q2.16,2,4.23,4.19a5.57,5.57,0,0,0-.68,1.61c-.15.38-.41.74-.59,1.12a16.25,16.25,0,0,1-1.1,2.21,1.72,1.72,0,0,1-1.09-.64c-.94-1.07-1.23-2.48-2.27-3.53-2.51-2.53-5.21-4.61-7.73-7.11-1.43-1.42-3-2.69-4.46-4.05-2.74-2.54-5.05-5.36-7.6-8.07-1.68-1.79-5-4.87-1.84-6.93,2.64-1.72,5.21.87,6.16,3.28a33.92,33.92,0,0,0,1.62,4.28,15.53,15.53,0,0,0,4.18,4.37C149.65,186.23,153.56,189.1,157.09,192.42Z"/><path class="cls-6" d="M61.65,221.36c-1.23,3.24-2.35,6.51-3.53,9.76q-1.23,3.4-2.48,6.81c-.76,2-1.32,4.67-3.29,5.91,1.87.78-.17,3.69-1,2a25,25,0,0,1,.47,6.42c-.06.83-.6,2.76-1.75,1.66-1.31-1.25.57-5.1.63-6.69,0-1.11-.43-1.84-.19-3,.42-2.1,1.75-3.84,2.23-5.91.58-2.51,1.92-4.92,2.85-7.33,2-5.17,3.75-10.44,6.16-15.44.51-1,.65-2.28,1.17-3.31a24.47,24.47,0,0,0,1.31-2.37c.65.2,1.14.84,1.82,1C65.06,214.51,63,217.85,61.65,221.36Z"/></g></g></svg>