<?xml version="1.0" encoding="utf-8"?>
<!-- Generator: Adobe Illustrator 24.1.0, SVG Export Plug-In . SVG Version: 6.00 Build 0)  -->
<svg version="1.1" id="Layer_1" xmlns="http://www.w3.org/2000/svg" xmlns:xlink="http://www.w3.org/1999/xlink" x="0px" y="0px"
	 viewBox="0 0 391 391" style="enable-background:new 0 0 391 391;" xml:space="preserve">
<style type="text/css">
	.st0{fill:#B0CFE0;}
	.st1{fill:#0F4263;}
	.st2{fill:#265787;}
	.st3{fill:none;stroke:#AD9E9E;stroke-miterlimit:10;}
	.st4{fill:#1F78B0;}
	.st5{fill:#80BDE3;}
</style>
<g id="Layer_2_1_">
	<g id="Layer_1-2">
		<path class="st0" d="M105.4,355.3c-6.9-1.2-10.8-2.1-17.6-1.1c-13.3,2.1-23.1,2.8-36.9,1.7c-5.1-0.4-8.2-2.2-12.7-2.9
			c2.6-1.9,11.7-7.6,15.7-8.4c4.7-1,9.2,1.4,13.6,2.1c5.9,1,12.2,1.8,18.2,2.4c7.9,0.7,15.9,0.7,23.8,0c7.8-0.6,15.8,0.4,23.5-0.9
			c7.5-1.2,13.7-1.9,21.6-0.8c12.2,1.7,20.6,2.3,33.1,0.5c6.8-1,12.1-1.6,18.7,0.1c5.6,1.5,8.7,2.9,14.7,2.1s12-1.8,17.9-2.3
			c6.3-0.7,12.7-0.3,18.9,0.9c16.4,3.6,34.4,1.1,51.7,2.5c5.9,0.5,11.8,0.6,17.7,1.1c2.5,0.2,6.8,0,8.7,1.4c4,2.9-0.7,4.6-4.8,5
			c-5.5,0.5-11.5,0.4-17.2,0.8s-10.9,1.5-16.5,1.6c-4.3,0.1-8.5-0.1-12.8-0.6c-9.7-1.4-19.4-1.5-28.7,1c-2.3,0.8-4.7,1.4-7.1,1.9
			c-9.1,1.3-19.6-0.3-28.6-0.9c-9.6-0.6-19.1-2-28.7-1.5c-8.5,0.4-16.3,1.8-24.9,0.7c-16.7-2.3-32.4-0.4-48.8-3.5
			C113.6,357.5,109.8,356.1,105.4,355.3z"/>
		<path class="st1" d="M205.4,83.7c1.9,1.7,3.4,4.2,5.4,5.9c1.9,1.6,4,3,6.1,4.2c-2.3,2.6-4.4,5.3-6.3,8.2c2.8,1.3,5.6,2.9,8.2,4.5
			c2.4,1.4,2.9,1.3,2.3,3.8c-0.9,4-1.5,8.1-1.7,12.2c-2.4-1.1-4.2-7.1-5.2-9.2c-2.4-4.9-5.3-9.6-7.8-14.4c-0.9-1.8-1.8-3.7-3.5-4.9
			C203.5,90.9,206.2,86.2,205.4,83.7z"/>
		<path class="st2" d="M64.2,346.9c-0.3,1.8,0.2,3.7,1.3,5.1c0.6,0.7,1.4,1.4,2.2,1.9c1.6,0.7,3.2,1,4.9,1.1c4.5,0,8.4-4.2,8.5-8.7
			c0.1-4.3-4.7-7.3-8.5-7.3C68.5,339,64.7,342.9,64.2,346.9z"/>
		<path class="st3" d="M144.6,198.3c1.5-0.1,2.4,1.5,2.7,2.9c0.4,1.4,0.1,2.9-0.8,4.1c-1.1,1.2-2.9,1.5-4.4,0.8
			c-1.4-0.7-2.5-2.1-2.9-3.6c-0.3-0.9-0.3-1.9,0.1-2.7c0.4-0.6,1-1,1.7-1.2c1.7-0.6,3.6-0.3,5.1,0.7"/>
		<path class="st4" d="M51.5,318.2l-7.4-4c-1.5-0.8-3-1.7-3.8-3.2c-0.9-1.8-0.3-3.9,0.3-5.8c4.3-13.1,11.1-25.2,14.8-38.4
			c0.4-2,1.2-3.9,2.2-5.7c1.1-1.8,3-2.9,5.1-2.9c4.3,0.3,8.4,2,11.6,4.8"/>
		<path class="st5" d="M241.1,69.4c0,2.4,0.5,4.8,1.3,7c0.4,1.2,0.9,2.7-0.5,3.4s-2.5,0.1-3.6-0.8c-0.7-0.5-1.6-1.6-2.5-1.4
			c-1.2,0.2-1.9,2.2-2.6,2.9c-1.1,1.2-2.3,2.2-3.4,3.3c-1.5,1.5-4.2,4.6-6.6,4.6c-0.7-0.1-1.4-0.3-1.9-0.8c-1.8-1.2-3.6-2.5-5.3-3.9
			c-0.4-0.4-0.9-0.7-1.5-0.8c-0.5,0-0.9,0.2-1.3,0.4c-2.4,1.3-4.6,3.1-6.3,5.3c-4.9,6-14.9-5.1-19.1-8.5c-0.5-0.3-0.8-0.7-1-1.2
			c-0.1-0.8,0.2-1.5,0.8-2.1c5.8-7.6,10.3-16.2,13.3-25.3c1.6-5,3-10.4,6.6-14.3c9-9.5,22.3-3.9,30.3,3.5c3,2.8,5.9,5.2,6.8,9.4
			c0.8,4-0.3,7.8-1.5,11.5c-0.7,2.4-1.7,4.9-1.9,7.3C241.1,69.1,241.1,69.3,241.1,69.4z"/>
		<path class="st2" d="M192,41.5c5.9-6.1,11.8-13.5,20.9-14.4c2.7-0.2,5.5-0.1,8.2,0.3c4.6,0.5,9.8,3.2,13.5,6
			c2.4,1.8,2.4,3.9,5.2,5c3.2,1.4,5.9,1.9,8,5.1c2,3.3,3,7.2,2.7,11c-0.1,1.1-2.4,6.9-1.7,7.4c-6.5-4.4-13.2-8.4-20.1-12.2l-3.4,9.2
			c-1.2-4-3.1-7.8-5.7-11.1c-6.5,8.9-12.1,18.5-16.6,28.6c-9-4.4-18.4-9-24.8-16.7C182.1,53.1,186.7,47,192,41.5z"/>
		<path class="st5" d="M222.3,48.5c-0.5-1.1-1.3-2-2.3-2.6c-1.6-0.7-3.4-0.5-4.8,0.5c-1.4,1-2.4,2.4-3,4c-1.3,3.1-1.8,6.6-1.2,9.9
			c0.1,1,0.5,1.9,1.1,2.7c0.6,0.8,1.6,1.2,2.6,1c0.8-0.3,1.5-0.9,1.9-1.5C220.9,57.5,226.3,56.2,222.3,48.5z"/>
		<path class="st2" d="M236.8,63.2c-0.1,0.7-2.2,5.6-3.1,4.5c-0.5-0.7,0.7-2.6,1-3.2s0.8-2,1.5-2.1
			C236.7,62.3,236.8,62.7,236.8,63.2z"/>
		<path class="st2" d="M229.6,84c-0.4-0.4-0.7-0.8-1-1.3c-0.7-1.1-4-5.3-3.2-6.2c1.3,0.5,2.1,2.3,2.9,3.3s1.6,2.1,2.5,3.1L229.6,84z
			"/>
		<path class="st2" d="M269,115.6c1.6-2,3.1-4.1,4.5-6c2.4-3.5,4.1-7.4,6.9-10.6c0.7,0.7,1.4,1.3,2.3,1.8c-2.4,4.1-5.1,8.1-8.1,11.8
			c-2.3,3.1-4.6,6.3-7,9.3c-0.5,0.6-3.9,6.6-4.7,6.4c-3.3-0.8-1.1-3,0-4.7s2.1-3.2,3.4-4.7C267.2,117.8,268,116.7,269,115.6z"/>
		<path class="st5" d="M255.7,116.2c0.2-0.2,0.3-0.3,0.5-0.5l3.7-3.5c1.5-1.4,7.8-3.9,10.1-3.1c4.6,1.8-0.9,5.5-2.9,6.5
			c-1.2,0.5-2.1,1.6-2.3,2.9c0,0,6.1-2.9,6.8-3.4c1.8-1.5,2.9-3.4,5.2-4.5c0.7,1.3,0.9,2.9,0.4,4.3c-0.5,1.4-1.1,2.7-2,3.9
			c1.2-0.1,2,1.3,1.9,2.5c-0.1,1.8-0.2,3.7-2.1,4.2l-3.1,0.8c-0.4,1.7,0.5,3.8-0.6,5.2c-0.4,0.4-0.8,0.8-1.3,1
			c-1.1,0.6-16.7,9-16.1,9.9c-1.1-1.4-8.6-8.5-7-10.3c1.9-2.2,4.1-4.3,5.9-6.6c1.9-2.5,1.5-3.1,1.4-6
			C254.1,118.3,254.7,117.1,255.7,116.2z"/>
		<path class="st4" d="M174.2,149.5c-0.7-9.3-4-18.2-6.5-27.2c-2.5-8.8-3.2-19.1,1.2-27.5c4.2-7.8,12.1-13.7,14-22.3
			c0.1-0.5,0.2-1,0.6-1.3c1.8-1.8,10.7,7,12.1,8.3c4.5,4.2,9.1,8.1,14,11.8c0.5,0.3,0.9,0.8,1.1,1.4c0,0.6-0.1,1.2-0.5,1.7l-3,5.2
			c0.9-1.5,14.5,17.2,15.1,19.2c1.3,4.7,1.7,9.7,1.2,14.6c-0.2,2-1.3,10.6-2.9,11.8l27.4-19.3c5.8,6.1,11,12.9,15.3,20.1L223,170.5
			c1.7,2.4,3.3,4.9,4.7,7.5c0.6,1.2,7.1,16.6,6.3,16.6l-32.8,0.1c-13.1,0-26.2,0-39.2,1.7C168.2,181.9,175.4,165.2,174.2,149.5z"/>
		<path class="st1" d="M224.9,169.2c-1.1,1.4-3.1,1.3-4.7,2c-2.1,1-4.1,2.7-6.2,3.8c-1.3,0.7-4.8,2.7-6.3,2.3c-2-0.5-4.1-4.7-5-6.1
			c-5.7-8.9-10.9-18.4-17.2-26.9c-3.3-4.4-5.8-13.8-10.6-16.7c1.3,5.9,3.2,11.6,5.8,17.1c3.6,7.6,6.4,15.4,10.3,22.9
			c1.8,3.4,3.8,6.7,5.6,10.1c1,1.8,1.7,5.2,3.6,6.5c3.3,2.3,11.4-1.7,14.6-3.2s7.4-5.4,10.9-5.9c-0.5-1.9-1.3-3.6-2.5-5.1
			C223.2,170.3,223.3,170.5,224.9,169.2z"/>
		<path class="st5" d="M304.7,317.9c2.3,1.4,4.7,4.8,6.6,6.3c2.6,2.1,5.5,3.8,5,7.6c-0.5,2.8-2.1,5.4-4.5,7
			c-4.2,2.9-12.3,4.9-15.8,0c-1.6-2.2-1.3-4.5-2.2-6.9c-0.7-1.7-2.8-4.1-2.6-6c0.2-1.7,2.4-3.2,3.6-4.3c2.1-1.8,5.6-5,8.7-4.2
			C303.9,317.5,304.3,317.6,304.7,317.9z"/>
		<path class="st1" d="M305,316.1c1.4,1.4,2.5,3.1,3.2,5c-3.2,2.6-7.4,3.8-10.7,6.4c-1.4,1.2-2.9,2.2-4.6,2.9
			c-0.7-1.1-1.3-2.2-1.7-3.3c-0.9-2.6,5.2-5.6,7.1-6.8S302.3,317,305,316.1z"/>
		<path class="st5" d="M130.7,317.7c-0.1,2.1-0.5,4.3-1,6.3c-0.8,4.1,2.7,8.5-2.2,11c-2.7,1.1-5.7,1.1-8.3,0
			c-4.7-1.9-10.8-7.6-8.7-13.2c1-2.5,3-3.5,4.5-5.6c1.1-1.5,1.9-4.6,3.6-5.5c1.5-0.8,4,0.2,5.6,0.7
			C129.3,312.9,130.7,314.7,130.7,317.7z"/>
		<path class="st4" d="M202.8,227.2c-2.4-2.7-4.9-5.3-7.6-7.7c-10.8-10.2-24.7-15.9-23.5-32.8c-0.1,1.5,20.6,2.5,22.4,2.4l24.8-1.9
			c1.9-0.1,4-0.3,5.7,0.7c1.3,0.9,2.4,2.1,3.1,3.6c3.1,5.3,4,11.3,6.6,16.7c2,4.1,5.9,7.7,8.5,11.6c9.8,14.5,17.3,30.2,27.3,44.5
			c7.4,8.3,13.2,18.8,19.6,27.9c6.4,9.1,13,17.2,19.7,25.9l-28.6,16.2c-3-5.6-4.7-11.5-7.2-17.2c-2.5-5.7-7.3-11.1-11.3-16.1
			c-11.3-14.3-22.8-28.5-34.5-42.6C219.4,248,211.7,237,202.8,227.2z"/>
		<path class="st1" d="M314.4,324.4c-1-0.3-2.1-0.2-3.1,0.2c-1.6,0.9-1.6,3.3-0.5,4.8c1.2,1.4,2.7,2.4,4.5,2.9
			c-5.5,5.6-14.2,6.7-20.8,2.5c-1.1,3.2-0.8,6.7,0.9,9.6c1.3,2,3.3,3.5,4.9,5.3s1.7,4.5,3.1,6.5c0.8-0.8,8-4.2,7.9-4.4l-2.5-5.6
			c6.5-3.7,14.3-4.4,21.3-1.9l17.6-11.5c1.7-0.9,3.1-2.2,4.3-3.7c1.2-1.6,1.3-3.7,0.3-5.4c-1.4-2-4.3-2-6.5-1.1s-3.9,2.8-5.8,4.1
			C330.4,333.3,323.5,326.2,314.4,324.4z"/>
		<path class="st1" d="M132.9,328c-0.5-1-1.3-1.7-2.2-2.2c-1.7-0.7-3.6,0.8-4.1,2.5c-0.4,1.8-0.2,3.6,0.4,5.4
			c-7.8-0.9-13.9-7.2-14.7-15c-3.2,1-5.8,3.5-7.1,6.6c-0.8,2.3-0.8,4.7-1.3,7.1s-2.5,4.1-3.3,6.4c1.1,0.1,8.2,3.8,8.3,3.6l2.9-5.4
			c0.7-1.3,9.6,7.1,10.3,8c1.3,1.8,2.4,3.7,3.3,5.7c0.5,0.9,0.4,1.6,1.2,2.1s3.5,0.3,4.5,0.5c3.5,0.4,6.9,0.5,10.4,0.5
			c3.5,0,7,1.6,10.5,0.2c1.6-0.5,2.7-1.8,3-3.4c0.2-2-1.5-3.7-3.4-4.4c-1.9-0.5-3.9-0.7-5.9-0.6c-5.9-0.2-8.5-5.4-10.3-10.4
			C134.7,333.2,134.1,330.2,132.9,328z"/>
		<path class="st1" d="M126.5,315.1c1.2,0.9,2.6,1.7,3.8,2.6c0.6,0.5,0.5,0.1,0.6,0.9c0,0.4-0.1,0.9-0.2,1.3
			c-0.1,0.9-0.3,1.7-0.7,2.5c-0.7-0.7-1.5-1.2-2.4-1.5c-1.4-0.8-2.7-1.7-3.9-2.6c-1.3-0.8-2.8-1.3-4-2.1c-0.6-0.4-1.2-0.9-1.8-1.4
			c-0.4-0.4-0.8-1-1.3-1.2c0.5-1.2,1.1-2.3,1.8-3.4c0.2-0.4,0.3-1,0.8-1c0.7,0,3.2,2.7,3.5,3C123.9,313.1,125.2,314.1,126.5,315.1z"
			/>
		<path class="st4" d="M201.9,219c1.2-2.1,2.5-4,4-5.8c-4.4-3.3-7.7-7.3-11.3-11.4c-5-5.8-11.5-10.1-17-15.1
			c-3.1,2.7-4.9,8.8-6.6,12.6c-3.4,7.4-7.2,14.6-10.7,22c-3.9,8.1-7.6,16.2-11.3,24.5c-3,6.7-6.3,13.4-9.2,20.1
			c-2.8,6.5-5.4,13.4-9.1,19.5c-1.1,1.8-14.5,25.6-14.3,25.7c8.5,5.2,16.7,10.9,24.5,17.1c1.9-5.4,4-11.6,7-16.5
			c3-4.7,7-8.7,9.6-13.6c2-3.8,3.3-8,5.1-11.9c1-2.5,2.2-4.8,3.6-7.1c2.2-3.3,5.2-6,7.3-9.4c2.7-4.4,5.1-9,7.4-13.6
			c3.9-7.6,9.3-14.6,13.4-22.1C197,229.1,199.2,223.8,201.9,219z"/>
		<path class="st5" d="M141.4,182.4c0.7-0.9,1.5-1.7,2.3-2.5c1.5,1.6,3.4,3,5.4,4c1,0.4,2.9,0.6,3.6,1.5c-0.1,0.1-0.1,0.2-0.2,0.3
			c-0.3,0.7-1,2.5-1,2.6c-0.4,1-1.1,1.8-1.1,3c0,1.2,0.4,2.6,0.5,3.9s0.2,2.7,0.4,4c0.2,1.6,0.3,3.3,0.4,4.9
			c0.1,1.5,0.7,2.3-0.6,3.2c-2,1.4-4.7,1.6-6.9,2.6c-1.4,0.7-2.9,1.2-4.5,1.5c-2.6,0.2-2.8-2.6-3.3-4.4c-1.4-0.2-3-0.2-4-1.2
			c-1.6-1.5-1.6-4-0.1-5.5c0.1-0.1,0.2-0.2,0.4-0.3c1.8-1.5,7.2-2.3,4.1-5.5C132.6,190.4,138.3,185.5,141.4,182.4z"/>
		<path class="st4" d="M138.2,177.3c2.9-7.2,13.9-24.8,15.2-27.1c5.8-10.4,10-21.2,15.4-31.9c3.2,10.2,6.2,19.5,7.9,30.1
			c0.2,1.5,0.2,3.1-0.2,4.6c-0.5,1.5-1.2,2.9-2.1,4.2c-3.8,6.3-7.3,12.9-10.3,19.6c-2,4.3-4.4,9.3-6.8,13.3
			c-6.9-2.5-13.5-5.8-19.7-9.8C137.3,180,137.6,178.9,138.2,177.3z"/>
		<path class="st0" d="M255.7,142.8c-0.3-0.2-0.7-0.3-1.1-0.2c-2,0.4-2.6,4-0.4,4.4C256.5,147.4,257.2,143.9,255.7,142.8z"/>
		<path class="st5" d="M76.5,342.9c-0.7-1-1.8-1.6-3.1-1.8c-0.6,0-1.3,0-1.9,0.2c-1.1,0.4-2,1-2.8,1.8c-2.1,2.3-2,5.8,0.1,8.1
			c2,2.1,5.7,1.2,7.4-0.5C78.2,348.7,78.2,345.1,76.5,342.9z"/>
		<path class="st4" d="M122.2,248c0.2-1.3,1.4-3.2,2-4.6c0.7-1.7,1.4-3.3,2.2-5c1.6-3.7,3-7.3,4.8-10.9c3.2-6.5,5.9-13.1,8.7-19.7
			c0.8-1.6,1.5-3.3,2.1-5c0.3-1.1,0.5-0.7-0.2-1.5c-0.8-0.8-1.7-1.4-2.6-1.9c-0.6,3.1-2.3,5.9-3.4,8.8c-0.8,2.2-1.9,4.2-2.9,6.4
			c-2.1,4.5-3.4,9.3-5,13.9c-1.3,3.3-2.9,6.6-4.6,9.7c-1.7,3.2-3.2,6.5-4.4,9.9c0.8-0.2,1.8,1,2.6,1.3
			C121.7,248.4,122.2,247.7,122.2,248z"/>
		<path class="st2" d="M123.5,247.3c-2.5-3.2-7.2-3.3-11.1-4.7c-3-1.1-5.6-3-8.3-4.7c-3.4-2.2-7-4-10.8-5.4
			c-3.7-1.4-8.1-2.4-11.4-0.2c-2.4,1.6-3.5,4.4-4.5,7l-28.7,74c-1,2.1-1.6,4.5-1.6,6.8c0.2,5.4,5.3,9.2,10,11.9
			c7.8,4.4,16.1,8,24.8,10.6c0.8,0.2,2.1,0.1,2-0.7L123.5,247.3z"/>
		<path class="st2" d="M142.5,204.6c1.4-0.1,2.7-4.1,3.1-5.3c-1.4-1.1-4.7-4.1-6.5-2.7c-1.3,1.1-1.8,3.7-2.3,5.2
			c1,1,2.3,1.8,3.7,2.3C141.1,204.4,141.8,204.5,142.5,204.6z"/>
		<path class="st1" d="M209.5,201.2h0.2c1.8,0,3.7-0.2,5.5-0.4c0.9-0.1,1.7,0,2.5-0.1s1.4-0.4,2.2-0.5c1.7-0.2,3.5,0,5.2-0.1
			c1.1-0.1,2.2-0.1,3.3-0.1c0.4,0,2.7-0.2,2.9,0c-1.1-1.7-1.5-3.7-2.2-5.6c-1.4,0-2.9,0.3-4.4,0.3h-7.9h-15.7
			c-6.4,0-12.7,0-19.1,0.2c-1.7,0-3.3,0.1-5,0.2c-1.5-0.1-3.1,0-4.6,0.1c-0.1,0-0.6,2-0.8,2.2c-0.5,0.8-0.8,1.7-1,2.6
			c0.7-0.1,1.3,0.2,2,0.2c0.6-0.1,1.1-0.1,1.7,0c1.7,0.1,3.5,0,5.2-0.2c3.2,0,6.5,0.2,9.7,0.6c2,0.1,3.9,0,5.9-0.2
			c1.1-0.1,2.3-0.1,3.4,0c2.7,0.5,5.4,0.8,8.2,0.8C207.6,201.2,208.6,201.2,209.5,201.2z"/>
		<path class="st1" d="M195.2,219.4c1.4,1.3,2.9,2.7,4.2,4.2c-0.3,0.5-0.5,1-0.7,1.6c-0.1,0.4-0.4,0.7-0.6,1.1
			c-0.3,0.8-0.7,1.5-1.1,2.2c-0.4-0.1-0.8-0.3-1.1-0.6c-0.9-1.1-1.2-2.5-2.3-3.5c-2.5-2.5-5.2-4.6-7.7-7.1c-1.4-1.4-3-2.7-4.5-4.1
			c-2.7-2.5-5.1-5.4-7.6-8.1c-1.7-1.8-5-4.9-1.8-6.9c2.6-1.7,5.2,0.9,6.2,3.3c0.4,1.5,1,2.9,1.6,4.3c1.1,1.7,2.5,3.2,4.2,4.4
			C187.8,213.2,191.7,216.1,195.2,219.4z"/>
		<path class="st5" d="M99.8,248.4c-1.2,3.2-2.3,6.5-3.5,9.8c-0.8,2.3-1.6,4.5-2.5,6.8c-0.8,2-1.3,4.7-3.3,5.9c1.9,0.8-0.2,3.7-1,2
			c0.4,2.1,0.6,4.3,0.5,6.4c-0.1,0.8-0.6,2.8-1.8,1.7c-1.3-1.2,0.6-5.1,0.6-6.7c0-1.1-0.4-1.8-0.2-3c0.4-2.1,1.8-3.8,2.2-5.9
			c0.6-2.5,1.9-4.9,2.8-7.3c2-5.2,3.8-10.4,6.2-15.4c0.5-1,0.7-2.3,1.2-3.3c0.5-0.8,0.9-1.6,1.3-2.4c0.7,0.2,1.1,0.8,1.8,1
			C103.2,241.5,101.2,244.9,99.8,248.4z"/>
	</g>
</g>
</svg>
