<svg xmlns="http://www.w3.org/2000/svg" viewBox="0 0 391 391"><defs><style>.cls-1{fill:#fff;}.cls-2{fill:#b0cfe0;}.cls-3{fill:#388cc7;}.cls-4{fill:#80bde3;}.cls-5{fill:#0f4263;}.cls-6{fill:#265787;}.cls-7{fill:#1f78b0;}</style></defs><title>familyAsset 18</title><g id="Layer_2" data-name="Layer 2"><g id="Layer_1-2" data-name="Layer 1"><rect class="cls-1" width="391" height="391"/><path class="cls-2" d="M348.73,361.85c-12.58-2.41-25.72,1.52-38.06-.89-12-2.34-22.68-1.5-34.63-1.38a44.63,44.63,0,0,1-5.64-.31c0-.18,0-.37,0-.55-11.06-1.14-22.34-.18-33.38-1.37-9.66-1.05-19.13-2.34-29.13-2.35-6.35,0-11.89,1.93-18.2,1.74-3.52-.11-10.18,1.55-13.28-.39,2.47-5.68,13.42-5.25,18.54-6.7,1.3-.36,5.61-1.07,6.1-2.65,1.09-3.51-7-2.4-8.82-2.31-6.35.34-12.27,1.22-18.56.54a133.35,133.35,0,0,0-22.52-.17c-.11.45-.34.75-.45,1.21-6.89-.66-14-.88-21-2-12.79-2.05-27.06-1.58-40-1.23-4.38.12-8.92.75-13.27,0-2.24-.4-4.31-1.39-6.58-1.67-5.21-.64-9.69,1.19-14.64,1.25-4.77.06-9.7-1.95-14.66-1.95-1.64,0-5.83-.74-7.29.16-4.88,3,0,6.65-1.48,10-1.92,4.52-10.3,5.48-9.71,11.14s7.12,4.54,11,4.37c8.5-.38,18.54,2,26.67-.6,4.62,6.85,10.69,6.8,18,8.75a27.88,27.88,0,0,0,11,.92c2.81-.35,9.89-.79,11.16-3.73,4.76-.16,9.57-.32,14.33-.37,5.94-.06,11,1.19,16.71,2A175.47,175.47,0,0,0,149,375c2.46.09,4.91.14,7.37.25,6.08.27,11.74-1.58,17.74-1.59,3,0,4,1.36,6.3,2,3.73,1,8.31.67,12.17,1,4.4.4,8.75.79,13.13,1,3.46.19,7.43-.32,10.8.39,2.95.62,5.64,2.19,8.69,2.72,7.39,1.29,14.27-1,20.95-4,8.38-3.7,17.4-1.49,26-3.56,11.12-2.68,20.13-.74,31.12-.34,9.12.33,18.43-.62,27.51-1.32,7.61-.6,15.49,1.18,23-.06,3.31-.54,8-3.46,4.47-7.43-1.2-1.37-7.72-1.88-9.42-2.22Zm-224.34-7.72c-2,1.86-13.06,1.09-15.87.85-3.51-.31-6.7-.65-10.31-.65-11.72,0-23.89,2-35.34-.3-4.67-.94-10.16.83-9.76-5.31,3.45-1.91,10.22-.9,14.1-1.07,8.21-.37,16.34-1.36,24.47-1.65,5.88-.22,11.11.73,16.76,1.32,3.58.38,10.65.12,10.61,1.68C121.69,349,128.43,350.28,124.39,354.13Z"/><path class="cls-3" d="M159.19,264.84a8.73,8.73,0,0,0,1.25-.07c3-.29,5.42-4.35,6.9-6.67a68.67,68.67,0,0,1,4.26-5.85,54.14,54.14,0,0,0,4.11-6.72c1.29-2.22,2.93-4.22,4.32-6.38,2.89-4.52,5.4-9.26,8.14-13.88,1.78-3,3.94-5.77,6-8.61,1.68-2.34,4.81-5.89,4.94-8.89-.91-.05-1.62-.17-2.23.41a13.61,13.61,0,0,0-1.76,3,36.31,36.31,0,0,1-5,7.56c-2.35,2.56-4,6.38-5.78,9.34-4.17,6.82-8.36,13.63-12.69,20.34-1.82,2.82-4.06,5.33-5.85,8.13a37.11,37.11,0,0,1-2.6,4,7.66,7.66,0,0,1-2.64,1.89,5.4,5.4,0,0,1-1.25.35c-.41.09-.39-.1-.5-.44s-.46-.35-.72-.12c-.57.52-1.05,1.92-.23,2.43a2.64,2.64,0,0,0,1.21.23Z"/><path class="cls-4" d="M193.71,168.42a107,107,0,0,0-3.16,11.65c-.6,3.08-.93,7-3.62,9a8,8,0,0,0-1.5,1.27,18.2,18.2,0,0,0-2.09,5,44.15,44.15,0,0,0-1.32,5.21c-.28,1.38-.44,5.08,1.57,5.38s3.62-2.39,4.15-3.84c0,1.86-.72,5,1.15,6.09,3.26,2,3.83-3.56,4.53-5.79-.52,2.8-2.25,6,.29,8,1.82,1.47,3.09,1.06,4.43-.4,1.19-1.29.52-3.08,1.56-4.26.49.87,2.4.93,3.21.5,3.93-2.11.81-8.06.66-11.11-.12-2.49.88-4.62,1.49-7a41.71,41.71,0,0,0,1.32-11.06c-.16-7.58,5.7-13.74,8-20.81a158.11,158.11,0,0,0,4-16.31c.37-1.81,1.13-3.29.52-4.81-.7-1.76-6.71-6.15-8.71-5.42-1,.37-2.6,4.63-3.24,5.71-1.43,2.44-3.42,4.6-4.48,7.24-2.71,6.72-4.79,14-7.09,20.91Q194.51,166,193.71,168.42Z"/><path class="cls-4" d="M290,271.57c1.48,3.69,1.39,7.49,3.32,11.11,3.29,6.19,6.85,12.21,10.43,18.21,3.34,5.6,5.93,11.94,9.11,17.71,1.95,3.56,3.71,7.32,5.94,10.68,3.11,4.69,8.25,9.52,14.13,10,7.12.6,13.68-4.19,20-6.71a16.27,16.27,0,0,0,4.1-1.95c1.1-.83,2.17-2.25,3.63-2.5,2.81-.47,4.19,2.62,3.88,5-.55,4.29-6.36,7.05-9.73,8.9-2.47,1.37-4.52,3.34-6.75,5a22.75,22.75,0,0,1-6.31,3.11c-5.45,2.17-10.49,7.2-15.43,10.38-3.77,2.44-9.26,5.08-12.86,1a11.42,11.42,0,0,1-2.63-6.06c-.47-2.71-.19-5.55-1-8.21-.94-3.25-2.73-5.89-4.51-8.74-3.87-6.16-8.21-12.08-12.2-18.15a29.32,29.32,0,0,0-8.45-8.23,65.56,65.56,0,0,1-11.95-10.39c-4.3-4.69-7.77-11.19-10.26-17-1.11-2.61-2.22-5.18-3.25-7.82-.87-2.22-1.27-4.53-2.06-6.78,1.88-1.8,4.74-3.13,6.93-4.59,2.67-1.78,5.45-3,8.1-4.86,1.91-1.33,4.07-2,5.92-3.45,1.13-.86,2.33-1.65,3.41-2.49,1,1.51,1.38,3.36,2.15,5,.94,2,2.63,3.67,3.64,5.66S289.12,269.49,290,271.57Z"/><path class="cls-4" d="M143.69,233.85a53.33,53.33,0,0,1,5,8.86c1.1,3.34,1,7.11,2,10.49.66,2.34,1.92,4.45,2.77,6.7,6.11,16.23,14.21,32.11,22.07,47.59,2.26,4.43,5.05,11.09,8.33,14.84,3.13,3.57,9.66,2.44,14,1.88a34.49,34.49,0,0,0,12.78-4.07c2.06-1.25,3.79-4.23,6.44-2.6,3.42,2.1.94,5.88-1.35,7.77-1.59,1.33-2.68,2.9-4.55,3.87-2.59,1.34-5.17,2.68-7.75,4-5.13,2.69-10.24,5.42-15.26,8.31-2.46,1.42-4.95,3.09-7.69,4-2.51.8-5.35,1.41-7.49-.41s-3.07-4.55-3.85-7.09a45.12,45.12,0,0,1-2.12-7.62,44.24,44.24,0,0,0-1.77-7.46,57.09,57.09,0,0,0-6.53-13.7c-5.52-8.58-12-16-18.16-24a60.18,60.18,0,0,1-10.45-21.36,56,56,0,0,0-4.31-10.59c-1.12-2.19-4.51-7-4.52-9.47,0-4.05,8.11-7.41,11.12-10.09,1.24-1.1,4-5.37,5.78-5.36C139.52,228.37,141.67,230.89,143.69,233.85Z"/><path class="cls-3" d="M153.86,275.4c-.63-11.49-21-9.56-28.75-9.73-11.91-.27-24,1.37-35.75.67-6.49-.38-13-.44-19.5-.4l-7.4.06c-5.39.06-10.75-.36-16.15-.19-4.13.12-9.35-1.52-13,1.16a9.36,9.36,0,0,0-3.46,6.62c-.48,4.16-.22,8.21-.69,12.43-1.61,14.37.26,29.35.26,43.81,0,5.58-2.9,13.52,2.72,17.31,3.21,2.17,7.33,2.31,11.21,2.38,32.78.62,65.22.1,98,0,3.51,0,7.43-.19,9.84-2.74,2.25-2.38,2.39-6,2.4-9.27C153.6,316.92,155,295.88,153.86,275.4Z"/><path class="cls-4" d="M142,347.17c-3.69-2.56-8.22-6.63-5.79-11.52a11.34,11.34,0,0,1,4.6-4.74c2.32-1.47,5.06-2.3,7.23-4,2.64-2.11,4.4-4.77,6.36-7.51,4.22-5.91,8-12.19,12.13-18.19a29.35,29.35,0,0,0,4.39-10.95,65.42,65.42,0,0,1,5-15c2.7-5.76,7.39-11.46,11.84-16,2.5-2.55,7.51-8.78,11.22-8.23,4.25.63,9.49,3.94,12.89,6.44a49.21,49.21,0,0,1,6.53,5c4.82,5-4.43,13.77-8,17.21-2.85,2.77-6.39,4.14-9,7.3-4.47,5.4-8.68,11-12.86,16.58-3.9,5.22-8.77,10-12.9,15.17-2.54,3.16-5.36,6.22-7.61,9.56-3.54,5.24-5.33,10.43-2.27,16.35,2.43,4.71,7.33,9.24,12.79,9.82,2.7.28,8.28-.45,10.13,1.85,2.18,2.71.22,6.1-2.78,6.93-3.47,1-7.62,0-11.15-.13-2.71-.12-5.24.11-7.92.22-1.77.07-4,.38-5.48-.62-3.08-2.1-3.69-6.08-6.83-8.1C150.44,352,146,350,142,347.17Z"/><path class="cls-5" d="M132.74,189.32c1.2,4.86,4.28,14.89,4.5,15.86,1.22,5.57,3.44,10.77,5.15,16.24q1.7,5.4,3.21,10.86c.46,1.69.86,3.41,1.41,5.06s1.25,3.18,1.71,4.82c.1.36.19.72.28,1.08a10.27,10.27,0,0,0,.82,2.27c.11.2.47.84.37,1s-.41.23-.56.28a4.34,4.34,0,0,0,.12.88c.07.51.15,1,.2,1.52a4.47,4.47,0,0,0-2.66-.08,4.79,4.79,0,0,0-.88.36,10.31,10.31,0,0,1-1.29.45,29.3,29.3,0,0,1-4.27,1.72c-1.07.24-2.19.73-3.27.86a35.61,35.61,0,0,0-3.85.39,14,14,0,0,0-3,.61c-.6.28-1.12.68-1.71,1a5.81,5.81,0,0,1-1.63.5,1.36,1.36,0,0,0-.6.3c-.11-.23-.29-.42-.41-.64s-.14-.39-.23-.58a14.86,14.86,0,0,0-.74-1.43c-.35.07-.73.17-1.08.27-2.6.79-5.55.79-8.22,1.69-3.94-6.07-4.54-14.7-7.31-21.28-2.77,5.52-2.62,12-5,17.59-1.63,3.8-6,2.81-10.25,2.21-8.53-1.23-17.75-6-26.13-4.2,1.74-9.62,5-19.48,7.17-29.11,1.1-4.86,2.71-9.56,3.72-14.44.92-4.41,1.53-10,3.68-14,1.89-3.55,5.42-2.5,9.55-3,4.42-.58,8.68.15,13.09,0,5.65-.21,11.58-1.3,17.27-1.66,1.71-.11,2.81.81,4.35.91,2.1.15,4-.61,6.08-.86C132.17,186.74,132.35,187.76,132.74,189.32Z"/><path class="cls-3" d="M106.92,83.21a3.26,3.26,0,0,1-.64-.76c-2.12-3.25-1.35-4.52-5.36-3.27-3.2,1-6.55,3.23-9.66,3.84-1,3.71-1.12,7.47-2.16,11.23-1.55,5.59-1.85,11.63-3.9,17.07-1.93,5.13-1.41,10.64-1.89,16.13C82,142.75,81,158.23,80.06,173.52c-.39,6.43-1.17,15.44-4.72,21,5.11-1.27,10.79.11,16-.9,2.11-.4,4-2.24,6.19-2.33,3.26-.14,6.71,2.62,10,3,5.17.65,10-1.33,15-2.64a62.12,62.12,0,0,1,10.25-2.09,39.06,39.06,0,0,0,5.18-.56c5.49-1.26,3.48-3.81,4.62-7.82.69-2.45,2-3.82,2.07-6.61.45-10.58-2-20.33-3.75-30.65a63.06,63.06,0,0,1-1.12-12.26c.16-4.69.77-9.42-1.13-13.88-1.55-3.61-4.33-6.56-5.93-10.15-1.69-3.77-1-7.66-1.08-11.68-.08-3-.5-6.7-3.32-8.47-1.78-1.11-3.7-.47-5.58-1-1.34.23-5.62-2-7.5-2.49C112.43,83.25,109,85.13,106.92,83.21Z"/><path class="cls-5" d="M116.19,138.59a10.69,10.69,0,0,0-1.55-2c-.42-.39-.7-.92-1.13-1.3-.6-.54-1-.31-.76.56a6.35,6.35,0,0,0,.78,1.34c.38.64.65,1.37,1,2a29.52,29.52,0,0,1,1.59,2.71c.28.65.42,1.39.66,2.07s.36,1.15.61,1.71a33.44,33.44,0,0,0,2.41,4.64A8.4,8.4,0,0,0,122,153c.56.37.94.85,1.47,1.24a10.05,10.05,0,0,0,2.17,1.51,5.92,5.92,0,0,1,1.49.7,9.27,9.27,0,0,0,2.09,1c1.24.47,2.49.9,3.74,1.34.77.27,1.49.72,2.26,1,.45.14.9.19,1.34.36a10.65,10.65,0,0,0,3,1,6.73,6.73,0,0,0,1.62,0,4,4,0,0,1,1-.16c-.07-.36-.19-1.46-.47-1.68a4.43,4.43,0,0,0-.91-.15c-.5-.08-.89.14-1.39.09a9.08,9.08,0,0,1-2-.44,25.61,25.61,0,0,1-3-1.07,10.88,10.88,0,0,0-1.41-.7c-.73-.24-1.41-.58-2.14-.83a8.37,8.37,0,0,1-1.78-.68c-1.09-.65-2.18-1.24-3.28-1.87-.85-.49-1.79-.81-2.62-1.33a4.91,4.91,0,0,1-1.64-2.09c-1.24-2.59-2-5.41-3.17-8a19.51,19.51,0,0,0-1.89-3Z"/><path class="cls-4" d="M134.35,148l-.37-.2a29.06,29.06,0,0,1-7.93-6.63c-1-1.15-2-2-2.27-3.61a17.26,17.26,0,0,1,.26-4.36c.13-1.26-.78-8.07-2.7-6.19-1.41,1.38.51,3.91,0,5.59-.45,1.43-1.17,0-1.49-.65-.59-1.29-1.61-2.69-1.52-4.15.06-.87.57-1.45.34-2.37-.75-3-2.27,1.34-2.38,2.37s.07,2.39,0,3.56c-.49-.9-1.49-6.42-2.63-6.23-1.57.26,0,6.47.22,7.43a33,33,0,0,1-1.15-4.12c-.29-.92-1.51-3-1.86-.89-.27,1.64.75,3.88,1.15,5.5.33,1.31.55,2.71,1.52,3.64a17.92,17.92,0,0,1,2,2.47,10.57,10.57,0,0,1,1.78,2.64,51.81,51.81,0,0,0,4,8.93c1.06,1.84,2.9,2.85,4.73,3.78s3.66,1.87,5.57,2.65c3.53,1.45,8.25,3.34,12.09,2.1-.35-2-1.06-3.84-.69-5.86.15-.84,1.57-2.72,1.22-3.55C143.52,148.1,136.36,149,134.35,148Z"/><path class="cls-6" d="M162.39,139a47.24,47.24,0,0,1,12.32,23c1.46,7.58-.3,18.87-5.86,24.79-11.85,12.59-27.13,10.46-39.72,1.79-3.15-2.17-6.62-5.13-5.74-9.59.94-4.79,7.4-4.29,11.33-5,2.79-.51,5.48-1.62,8.28-2,.27-7.16-2.5-15.59-3.54-22.62-.2-1.4-.76-3.66-.4-5,.67-2.55,1.84-2,4.62-2.57C147.56,141,157.91,133.58,162.39,139Z"/><path class="cls-5" d="M170.62,160.27a5.35,5.35,0,0,1-2.82,3.08,3,3,0,0,1-1.25.24,5.14,5.14,0,0,1-1.61.13c-1-.24.08-1.07.45-1.45.71-.71,1.56-1.35,2.31-2a7.41,7.41,0,0,0,1.17-1.27c.33-.48.64-1.46,1.35-.94A2,2,0,0,1,170.62,160.27Z"/><path class="cls-5" d="M172.91,180.19c-.46.58-.45,1.4-.89,2s-1.23.11-1.8,0a15.44,15.44,0,0,1-2.46-.82,21.44,21.44,0,0,0-4.88-1.53c-.81-.17-1.66-.22-2.46-.44s-1.36-.49-2-.72-1.55-.62-2.31-.94a41.18,41.18,0,0,0-4.43-1.62,5.93,5.93,0,0,0-2.22,0c-1.4.16-2.86-.09-4.24.15a15.27,15.27,0,0,1-2.62.09c-.7,0-1.42,0-2.11.12a11.92,11.92,0,0,1-1.49.3c-.21,0-1.23-.27-1.25-.5,0-.45,1.88-.54,2.26-.76a14,14,0,0,1,2.44-1.38c1-.36,2.11-.48,3.14-.91a6.31,6.31,0,0,1,2.11-.65c1.74-.06,3.47.92,5.06,1.51a41.5,41.5,0,0,0,7.27,2.12,53.29,53.29,0,0,1,7.64,1.89c1.2.4,2.31.85,3.46,1.3C171.64,179.59,172.3,179.5,172.91,180.19Z"/><path class="cls-4" d="M123.26,178.33c-4.8.53-9.68,1-14.47,1.33-3.29.2-7.59,2.12-10.74,1.68-7.52-1.07-6.21-9.92-6.53-15.1-.14-2.24-.94-24.57.25-24.83a71.1,71.1,0,0,1,17.9-1c-.09,0-.16.18-.22.52-.75,4.51-2.3,17.46,2.63,20.36,1.28.75,7,1,8.67,1.1s3.57-.35,5.3-.38a106.92,106.92,0,0,0,10.68-1.06c4.21-.52,8.75.4,12.92-.49,5-1.07,10.23.2,14.82-2.69,1.11-.7,3.1-3.43,4.51-3.12,2.43.52,1.25,4.86.34,6.1s-2.77,2-4.19,2.62c.83-.34,2.73,0,3.65-.07a18.89,18.89,0,0,1,4.69.22,4.36,4.36,0,0,1,3.22,2.19c.95,1.88-.62,3.06-2.36,3.69,1.59.68,3.25,1,3,3.19s-1.56,2.17-3.23,2.65c1.73.78,3.85,3.31,1.43,4.85-2,1.31-5.57-.09-7.69-.69-1.48-.41-3.08-.71-4.57-1-1.87-.36-3.58-1.14-5.43-1.52a21.8,21.8,0,0,1-4-1.15c-1.15-.48-2.29-1.23-3.6-1-2.21.47-4.42.47-6.62.8s-4.19.89-6.3,1.19C132.63,177.41,127.94,177.82,123.26,178.33Z"/><path class="cls-4" d="M94.72,230.33c.19,6.68,1.68,12.9,2.33,19.5.39,3.86.56,5.09,5,5.52,2.33.23,7.16.7,8.75-1-4-6.71-4.24-16.72-5.42-24.32C102.72,231,96.67,229.52,94.72,230.33Z"/><path class="cls-4" d="M131,209a10.62,10.62,0,0,1,3,.05,52.62,52.62,0,0,0,9,.88,75.71,75.71,0,0,0,8.12-.09c1.2-.13,4.49-1.46,5.26.12,1.13,2.28-1.8,2.77-3.39,3-.91.12-2.52,0-3.33.44-1.37.72-.84,2.49-1.56,4.11a5.37,5.37,0,0,1-1.37,2c-.7.5-1.62.11-2.19.48s-.24,1.77-1.26,2.16-2-.79-2.55-1.49a5,5,0,0,0-2.92-1.78c-1.54-.54-2.54-1.11-3.11-2.69-2.51.85-5.17.75-7.82,1.12-1.11.15-2.11.28-3.24.35-2,.14-4,.76-6,1-.54.07-6.81,1-6.73,1.13-.94-1.66-1.83-5-.89-6.66.66-1.19,1.69-1.26,2.79-1.65a5.47,5.47,0,0,0,1.91-1.12c1.65-1.17,4.52-1.06,6.74-1.25a36.17,36.17,0,0,1,5.8.06A24.17,24.17,0,0,0,131,209Z"/><path class="cls-5" d="M263.69,269.64a13.4,13.4,0,0,1-2.47,1.27,15.86,15.86,0,0,0-2,1c-.93.53-1.38.74-1.17,1.94a12.94,12.94,0,0,0,.91,2.48c.29.72.2,2,1,1.45s1.6-.88,2.35-1.41a25,25,0,0,1,3.54-2.39c3.08-1.43,5.37-4.07,8.19-5.89,2.43-1.57,4.54-3.5,7.07-4.94.49-.27,3.58-1.11,3.35-1.82a5.1,5.1,0,0,0-.33-.53,21.54,21.54,0,0,1-.88-2c-.43.07-.81.34-1.25.46a11.66,11.66,0,0,1-1.55.26,18.57,18.57,0,0,0-3.05.46,14.83,14.83,0,0,0-4.59,2.09c-1.81,1.38-3.08,3.34-4.84,4.77C266.65,268,265.09,268.7,263.69,269.64Z"/><path class="cls-5" d="M207,134.58c-.24.95-1,1.78-1.34,2.68,0,0,.87.71.94.77.36.29.79.45,1.17.72a10.29,10.29,0,0,0,2,1c.89.39,1.71,1,2.58,1.38a16.27,16.27,0,0,0,3.11.5,9.71,9.71,0,0,0,0-4.61c-1.39.24-3.12-1.13-4.36-1.56a24.38,24.38,0,0,1-2.73-.75,6.83,6.83,0,0,0-1.29-.66A2.07,2.07,0,0,1,207,134.58Z"/><path class="cls-5" d="M187.65,259.4c-.62.73-1.23,1.4-1.34,1.32,2.19,1.5,4.29,3.16,6.38,4.83,2.59,2.05,5,4.32,7.65,6.3,3.45,2.56,7.23,4.42,9.82,8,1.74-1.45,3-3.41,4.8-4.8a20.65,20.65,0,0,1-2.35-1.64,44.83,44.83,0,0,1-3.88-2.84c-2.82-2.26-5.45-4.82-8.68-6.51-2.68-1.41-5.47-2.61-8.14-4a6,6,0,0,1-1.78-1.21c-.37-.42-.45-.91-1-1.19C189,257.74,188.32,258.61,187.65,259.4Z"/><path class="cls-2" d="M201,268.16c-.76-.41-1.53-.8-2.3-1.18-4.8-2.37-8.33-6-13.29-8.06-1.82-.77-4.13-1.47-4-3.42.07-1.44,3-4.41,3.8-5.66,5.16-8.15,11.18-16,14.57-25.1a69.15,69.15,0,0,0,3.53-11.49c.69-4.07-2.28-7.77-2.56-11.75a33.5,33.5,0,0,1,.49-9.11c.48-2.26,1-6.4,2.26-8.28,1-1.49,2.92-1.43,4.69-1.61a35.07,35.07,0,0,1,7.66-.22c2.65.35,4.29,1.5,7.15,1.34,10.07-.56,19.94,2.53,30,2.63,2.66,0,7.85-.59,9.69,1.79,1.21,1.56,1.5,5.33,1.87,7.28,1.48,7.83,4.54,16.07,7.57,23.46,1.24,3,2.31,6.18,3.37,9.26a68.08,68.08,0,0,0,7.16,14.08c3,4.81,4.26,10.85,7,15.9-1.8-.11-3.89,1.32-5.43,2.09-3.62,1.82-7.36,2.78-10.84,4.9-3.67,2.23-6.3,5.65-10.39,7.31-3.49,1.41-6.65,2-9.94,3.93-3-7.33-7.44-14-10.88-21.14C240,250.61,238.78,244,235.8,240c-2.42,5.41-5.33,10.79-8.29,16-1.67,2.92-3.59,5.67-5.21,8.71-2,3.74-2.81,8.5-5.25,11.94C211.59,274.3,206.36,271,201,268.16Z"/><path class="cls-5" d="M201.33,191.44c-.06.33-.06.67-.13,1a10.67,10.67,0,0,0-.26,1.37,9.69,9.69,0,0,1,1.11,0c.49-.05,1-.09,1.47-.11a20.58,20.58,0,0,1,2.83.07c4.08.36,8.26,1.13,12.36,1,2.27-.06,4.56.16,6.82,0a55.51,55.51,0,0,1,6.32-.15,46.75,46.75,0,0,1,4.87.52,44.23,44.23,0,0,0,5.87.07c1.06,0,2,.45,3,.51.78,0,1.55,0,2.33.06a12.83,12.83,0,0,1,3.26.27,12.29,12.29,0,0,0,3.61.59,5.68,5.68,0,0,0,2.1-.67,14,14,0,0,1,5.54-.6,6,6,0,0,1,2.21.36,17.8,17.8,0,0,1-.45-2,23,23,0,0,1-3.09-1.65c-1-.46-2-.75-3-1.21a12,12,0,0,0-4.37-1.48c-2.27-.14-4.46.12-6.74-.2-3-.42-5.88-1-8.9-1.23-2.85-.17-5.72,0-8.55-.33-2.29-.27-4.58-.46-6.87-.7a26.1,26.1,0,0,0-5.15-.15c-1.51.13-3,.53-4.49.65a38.61,38.61,0,0,0-4.68.24c-1.12.23-2.23.53-3.36.75-.84.17-2,.19-2.52.84a5.44,5.44,0,0,0-1.06,1.91A1.31,1.31,0,0,0,201.33,191.44Z"/><path class="cls-6" d="M269.24,158c.11,5.48.28,10.94.56,16.37.18,3.45.55,7.06.5,10.48s-1.26,6.7-.94,10.19c-2.74-1.11-5.91-.72-8.8-1.45-2.21-.55-3.06-.33-5.27.19-4.29,1-8.51-.06-12.78-.84a111.83,111.83,0,0,0-16.86-1.31,119.15,119.15,0,0,0-12.39.36c-3.29.27-6.68.14-10,.14-1.32,0-3.42-.74-4.46.32.38-2.5,1.16-4.89,1.51-7.41,1-7.13,4.71-13.48,7.64-19.93a93.2,93.2,0,0,0,7.24-26.25c-2.79-.91-6.34-1.95-8.73-3.84-.68-.54-1.24-.3-1.5-1.17-.4-1.29,1.5-4.49,2.06-5.71,1.57-3.41,3.34-6.67,4.73-10.19,1.74-4.41,4.16-8.46,6.19-12.69,2.28-4.78,3.46-10,5.91-14.69,3.14-6,12.36-15.35,19.8-15.86,1.51-.11,2.31.9,3.64,1.33,6.83,2.17,16.92,6.65,20.52,13.47,2.85,5.4,1.3,13.7,1.63,19.61.34,6.13,0,13-.32,19.23-.21,4.31-.07,8.68-.06,13Q269.1,149.66,269.24,158Z"/><path class="cls-5" d="M320,199.18c-1.76-2.52-3.94-4.82-5.73-7.37a21.34,21.34,0,0,0-3-3.76c-2.05-1.84-3.84,1.18-5.16,2.38-1.76,1.61-3.86,3-5.46,4.72-.88.94-1.6,2.4-2.8,3-.55.27-3.23,2.4-3,3.47s1.64,2.29,2.25,3.07c.88,1.12,1.66,2.37,2.46,3.59,1.42,2.16,3.38,8.32,6.14,7s4.71-3.9,6.93-6c1.4-1.34,2.91-2.56,4.28-3.94C318.8,203.52,322.17,202.25,320,199.18Zm-10.37-4.07a1.5,1.5,0,0,1-1.21-1.18c-.41-1.69,1.86-3.11,3-1.55C312.64,194.11,311,195.34,309.67,195.11Z"/><path class="cls-5" d="M237.25,141.32c-.33.26-.61.58-.93.86a5.07,5.07,0,0,1-1.23.69,3.64,3.64,0,0,1-2.08.61c-.88-.2-.71-.95-.91-1.75-.78-3.09-1.6-6.17-2.38-9.27-1.1-4.38-1.67-8.88-2.67-13.28a76.28,76.28,0,0,0,1.2,12.43c.56,3.64.71,7.13,1.62,10.78.12.48,1.43,5.88,1,6.06,1.67-.64,3.4-1.35,5.11-2.06.63,2.29.64,4.81,1.15,7.15.33,1.55.15,3.13,1,4.49a18.28,18.28,0,0,1,1.84,3.12,19.24,19.24,0,0,0,2,3.49c1,1.56,1.87,3.17,3,4.66,1,1.31,2.22,2.46,3.3,3.71,2.75,3.21,5.34,6.53,8,9.8,2.27,2.77,5,5.27,7.46,7.87a6.15,6.15,0,0,0,1.42,1.28,10.34,10.34,0,0,1,1.74,1.57c.33.32.6.79,1,1a3.9,3.9,0,0,0,1.58.53,10.07,10.07,0,0,1,.06-3.42c0-.34.06-.63.1-1s.06-.2-.09-.47c-.24-.44-.45-.89-.68-1.34a8,8,0,0,0-.74-1c-2-2.94-3.91-5.91-5.89-8.85-3.82-5.67-8.2-11-12.2-16.52q-4.38-6.07-8.89-12a28.85,28.85,0,0,1-2.5-3.18c-.79-1.42-1.34-3.1.27-4.25,2.16-1.53,5.09-1.36,7.54-2,1.4-.38,2.8-.69,4.23-1a11.41,11.41,0,0,1,2.95-.46,3.47,3.47,0,0,1,1.66.54c.37.22.79.83,1.17.94s.82-.21,1.15-.41a10.59,10.59,0,0,0,2.93-2.17,10.78,10.78,0,0,0-5.1-.63c-1.28.13-2.59,0-3.89.07s-2.14.34-3.36.34a17.09,17.09,0,0,0-7,1.55c-1.12.51-2.4.62-3.47,1.24A2.78,2.78,0,0,0,237.25,141.32Z"/><path class="cls-4" d="M256.6,140.23c1.09,4.77,5.87,10.32,8.4,14.5,3,5,6,10,8.83,15.15a110.22,110.22,0,0,0,9.73,14.34,53.36,53.36,0,0,0,5.2,6.47c1.75,1.62,3.74,1.85,6,2.24a15.58,15.58,0,0,1,2.67.75,7.72,7.72,0,0,1,1.75.87c.26.18,1.08.73,1.07,1.07s-.52.68-.74,1a1.67,1.67,0,0,0-.38,1.43,4.54,4.54,0,0,0,.23.74c.24.45.65.82.88,1.29.12.24.25.48.38.72a21,21,0,0,0,2,2.36c.7.95,1.3,2,2,2.88,1.34,1.67,3.26,3.37,4.07,5.37.68,1.69.8,4.23-.64,5.75-2,2.09-3.21.51-5.32,0-.36,1.53.42,3.68-1.28,4.71s-2.43-.56-4-1c-.9,2.27-1.21,5.09-4.06,5.23-3.14.14-4.53-3.21-5.81-5.42-1.56-2.7-3.69-5.06-5.09-7.92a15.9,15.9,0,0,1-1.51-3.6c-.32-1.55,0-3.17-.58-4.66s-1.84-2-3-3.13c-3.35-3.28-4.9-7.49-8.18-10.74a139.48,139.48,0,0,1-11-11.43c-3.53-4.39-7.1-8.75-10.63-13.06-2.15-2.63-5.3-5.63-7.08-8.41-1.37-2.13-4-12-2.84-14.51s8.44-2.85,11.26-3.16C252.56,139.57,256.22,138.56,256.6,140.23Z"/><path class="cls-5" d="M116.66,265.63c.54,0,1.11,0,1.12,0a30.37,30.37,0,0,1-1.62,5.73,16.16,16.16,0,0,1-2.14,4.2c-.85,1.05-1.75,2-2.64,3s-1.68,2.47-2.86,3.17-2,1.23-3,1.93c-2.07,1.46-4,3.05-5.9,4.69a6.52,6.52,0,0,1-.89.5,13.89,13.89,0,0,0-1.25,1.05,14.53,14.53,0,0,1-2.11,1.35,21.17,21.17,0,0,0-2.51,1c-.6.47,0,.84-.34,1.48s-1.66,1.27-2.15,2c-1.82,2.82-.27,6.7.62,9.58a20.37,20.37,0,0,1,.7,3.88,5.78,5.78,0,0,1-.94,3.6c-.27.41-.78.83-1,1.23s0,.34-.06.78-.06.57-.7.85-1.13.45-1.68.72c-.26.12-.7.49-1,.49-.74,0-1.66-1.61-2.12-2.13-.81-.93-1.71-1.74-2.53-2.64a20.39,20.39,0,0,0-2.31-2.68c-.88-.68-1-1.74-1.74-2.49s-1.54-.9-2-1.69c-.15-.28-.13-.6-.31-.87s-.75-.55-1.07-.88c-.53-.56-.88-1.17-1.46-1.71a11.2,11.2,0,0,1-2.32-3.07,12.09,12.09,0,0,1,2.86-2.09c1-.53,1.3.32,1.73,1.06.67,1.14,1.47,2.18,2.08,3.36A46.4,46.4,0,0,0,80,306a57.31,57.31,0,0,0,3.65,4.7c.37.45,1.46,1.8,2.09,1.8.34,0,1-.79,1.23-1a12.51,12.51,0,0,0,1.63-1.94c1.16-1.76.28-3.51-.39-5.26a19.15,19.15,0,0,1-1.65-5,8.18,8.18,0,0,1,1.74-5.5c.52-.73.9-1.5,1.39-2.23a21.81,21.81,0,0,1,2.51-2.67c1.9-2,4.25-3.55,6.28-5.39a19.52,19.52,0,0,1,3.57-2.85,15.35,15.35,0,0,0,3.07-2.08c.93-.87,1.68-1.93,2.53-2.87a21,21,0,0,1,2.24-1.89A18.59,18.59,0,0,0,112,271a18.51,18.51,0,0,0,1.68-2.5,8.26,8.26,0,0,1,1.12-1.69c.26-.27.68-.93,1-1.09A3.46,3.46,0,0,1,116.66,265.63Z"/><path class="cls-5" d="M92.82,272a20.42,20.42,0,0,0-2.7.07,24.14,24.14,0,0,1-3.66.23c-1.69,0-3.24-.57-4.92-.63-2.12-.07-4.25.21-6.32-.31-2.78-.7-4.66-.79-7.25.5a14.36,14.36,0,0,1-6.62,1.56c-2.29,0-4.93.71-7.15.06A13.68,13.68,0,0,1,51.66,272a21.16,21.16,0,0,1-2.84-2,11.72,11.72,0,0,1-3.6-4.28c1.29-.05,2.62-.1,3.91-.1a27.18,27.18,0,0,1,5,.27c2.24.45,4.49-.07,6.76.1,1,.08,2,.55,3.08.59a29.26,29.26,0,0,0,3.11-.53c.86,0,1.7.33,2.56.28s1.57-.51,2.42-.61a22.53,22.53,0,0,1,8.8.79c1.38.4,1.34,0,2.64-.34a4.07,4.07,0,0,1,1.9,0c1.24.09,2.35-.18,3.57-.2,1.7,0,3.3-.38,5-.29,1.48.08,3.25-.42,4.63,0-.81,1.8-1.65,4.19-3.26,5.44A4.15,4.15,0,0,1,92.82,272Z"/><path class="cls-4" d="M92.35,271.65c1.24-1.89,3.19-3.1,4.53-4.86a32,32,0,0,0-5.53.27c-4.7.49-1.47-4.84.05-6.76a34.41,34.41,0,0,0,4.14-6.7c2.71-5.69,9.66-1.35,13.69.11,3.75,1.36,7,3.15,7.91,6.53a8.73,8.73,0,0,1,0,4c-1.46,6.9-8.77,14.46-14.34,18.46-1.4,1-17,12.87-16.23,13.67-2.43-2.56-5.26-5.36-6.76-8.48,3-3.54,6.38-6.86,9.32-10.52C90.54,275.58,91.16,273.45,92.35,271.65Z"/><path class="cls-6" d="M91,292a1.6,1.6,0,0,1,.35,1c-.08.33-.77.61-1,.85-2.42,2.85-2.48,6.54-1.29,10,.68,2,2.06,3.85,1.31,6-.51,1.46-1.71,3.43-3.52,3.13s-2.46-2.3-3.39-3.57c-2-2.8-4.49-5.51-6.24-8.49-.37-.63-4.67-7.28-4.59-7.36,1.17-1.11,2.26-2.12,3.39-3.25,1-1,2-2,3.06-2.88a28.24,28.24,0,0,0,5-5.27c1.94,2.56,3.78,5.39,5.65,8.09C89.94,290.6,90.56,291.31,91,292Z"/><path class="cls-5" d="M116.17,209.66l.78-.16c-.06,1-.14,2-.27,2.94a34.39,34.39,0,0,1-.44,4.19A11.88,11.88,0,0,0,116,219a2,2,0,0,0-.49.1c-.22,0-.42,0-.63.06l-.94.15a10.52,10.52,0,0,1-1.12.07c0-.44.32-.78.44-1.17s.28-.93.46-1.37c.38-.95.74-1.94,1-2.92s.56-1.69.8-2.55c.16-.57.38-1.12.54-1.7Z"/><path class="cls-2" d="M102.17,209.24c0-3,.19-6,1.38-6.25s2.69,1.8,3.47,2.48a23.86,23.86,0,0,0,3.41,2.82c1.67.93,3.93.16,5.73.6.83.21-3.32,11-3.93,12.09a47.14,47.14,0,0,1-6.26-1.84,7.52,7.52,0,0,1-3.07-1.56c-.66-.77-.51-1.5-.51-2.62S102.2,211.59,102.17,209.24Z"/><path class="cls-4" d="M112.14,168.8a13.92,13.92,0,0,1,7,2.4c1.93,1.29,4.68,3.35,6,5.32,1.15,1.72.93,6,2.73,7.13,1.34.81,3.59-1.39,4.83-.67,2.78,1.64-1.4,6-2,8-1.06,3.33-1,3.51-4.56,2.83-2.81-.54-5.36-1.76-8.29-1.43,1.64,4.65,4.47,7.72,9.44,8.64-.39-.07-7,5.86-8.58,6.38-4.37,1.46-6.84-.28-10.88-1.07-5.64-1.1-6.22,5.44-10.77,7.7-4-3.59-6.24-8.91-10-12.62,1.49-1.23,2.9-2.34,4.28-3.67,3.17-3,.3-6.9.71-10.8.62-5.84,4.65-10.63,9-14.24A16.12,16.12,0,0,1,112.14,168.8Z"/><path class="cls-5" d="M111.12,162.56c.79-1.52,1.67-3.86,2.92-4.28,1-.33,1.37,5.63,1.14,6.34,2.66-.12,3.41-6.45,6.63-4.73,2.85,1.52.21,5.87-.75,7.39,2.74.67,4.62-2.5,7-.28s.39,5.69-2,6.62c5.19-2.61,4.17,7-1.88,4.16-3-1.41-3.54-4.67-7.43-3.06-.34,3.21-3.92,5.46-5.42,1.37,1.52,2.57,1,8.24-3.2,6.27,1.28,1.14,4.34,6.35,1,6.62-1.08-3.27-3.3-8.17-7.43-5.66-4.38,2.67-.74,8-.36,11.29-.87,0-1.63.57-2.56.43-.56,1.91.19,4.67-2.4,5.31s-3.74-3-4.32-5.28c-.63,2.78-2.84,2.06-3.75.15-1.31-2.74,1-5.69,2.63-7.58-5.85.81-4.4-10.4,1-10.69-2.26-4.74,4.52-11.85,6.71-6.64a4.53,4.53,0,0,1,6.29-3.48c.43-2.06-.11-6.81,3.39-6.45C109.42,165,110.21,164.32,111.12,162.56Z"/><path class="cls-5" d="M122.7,184.48c-.11-.6-.62-2.8.36-3,.61-.15,1,3.92.79,4.62a1.21,1.21,0,0,1-.38.69A5.44,5.44,0,0,1,122.7,184.48Z"/><path class="cls-6" d="M125.74,88.07c2.28,2,3.8,5.74,5.14,7.94,2.74,4.5,5.48,9,8.54,13.32.64.9,2.73,3.06,2.44,4.16a5.76,5.76,0,0,1-1.66,1.64c-.82.31-.7.11-1.33-.39-1.94-1.52-3.31-4.32-4.57-6.41s-2.36-4-3.49-6c-2-3.74-3.18-8.48-6.46-11.41-.5-.44-1.69-1.12-1.89-1.71a6.32,6.32,0,0,1,.18-2.66A8.93,8.93,0,0,1,125.74,88.07Z"/><path class="cls-4" d="M124.88,33.93a20.83,20.83,0,0,0-19.09,3.31C98.9,42.71,94.68,52.79,98.55,61c2.17,4.58,6.92,8.44,7.43,13.69.14,1.49-3.12,15.44-5.23,14.37,4.17,2.13,11.31,1.1,14.57,5.06,2.81,3.42,4.34,9,6.59,12.87,1.91,3.29,3.66,6.63,5.45,10,6.06,11.38,2.77-4.88,1.78-8.7-1.68-6.46-3.53-13.22-4.68-19.68-.56-3.17-1.17-11.57,3.11-12.25,4-.63,7.15,3.72,11.82,1.68,3.89-1.71,5.2-6.41,5.33-10.34.08-2.5-1.63-4.89-.34-7s4.89-2.34,5.09-5.68c.17-3-1.33-2.46-3.75-2.26-3,.25-3.24,1-4.82-1.92-1.87-3.43-2-7.35-4.66-10.28a25.45,25.45,0,0,0-9.41-5.94C126.19,34.35,125.54,34.13,124.88,33.93Z"/><path class="cls-5" d="M144.75,67.54c-3.55-.88-11.05-2.1-11.55-6.45,1.39.77,2.86,2,4.26,2.66a25.22,25.22,0,0,0,7,1.91Z"/><path class="cls-1" d="M85.89,310.07c-2.5-3.32-5.28-6.36-7.62-9.82-1-1.44-1.72-3-2.61-4.54a19.09,19.09,0,0,0-2.48-3.28c-.52.53-1,1.09-1.54,1.6s-.33,1.19.15,1.79A14.76,14.76,0,0,1,73.41,298c.9,1.62,1.84,3.24,2.89,4.75,2.24,3.18,4.64,6.23,7.07,9.29a14.26,14.26,0,0,0,2.54,2.55,11,11,0,0,1,2.35-1.49A25.46,25.46,0,0,1,85.89,310.07Z"/><path class="cls-5" d="M90.17,41.74c.92-.76,1-2.26,1.35-3.58,2-7.55,5.34-18.65,13.3-21.88,10.06-4.09,6.85,6.7,3.54,12.28,1.79-2.93,8.71-9,12.42-5.56,1.77,1.62,1,2.43-.61,4.27,3.75,1.86,6.82-.06,10.73-.28,4.25-.22,7.43,3.82,2.92,7,5.44-2.28,18.12-11.45,19.53-.28.4,3.16-3.72,8.44-6.78,9.6-4.34,1.63-11.39-1-15.46-2.32-.46,6.24-1.79,9-7.05,4.39.85,1.45,4.2,6.55.67,6.93-1.7.18-2.58-1.82-3.33-3-1.83-2.78-3.33-8.66-7.68-8.39-2.91.18-4.1,3.61-4.67,6.11-.64,2.79-.51,6.46,1.25,8.89,1.08,1.51,2.66,1.69,3.67,3.08,4.43,6.1-2.73,14.37-9.22,8.68,1.28,4,3.07,7.95,2.48,12.21a22.2,22.2,0,0,1-4.9,10.94c-1.67,2-4.06,3.46-6.78,3.09-1.81-.25-2.64-1.38-4-2.49.65.54.64,4.11.73,5a41.54,41.54,0,0,1,.26,5.68,27,27,0,0,1-2,10c-1.77,3.77-8.84,9.11-11.87,3.85-.15,5.12-.92,11.35-5.64,14.12-4.53,2.66-6.94.37-11.52-.2s-7.13,4.47-11.15,5.35c-5.29,1.16-9.15-6.23-8.27-10.61.53-2.62,2.43-4.58,1.92-7.44-.57-3.18-3.68-4.61-5.33-7.14-3.89-5.94-4.35-14.6,1.55-19.52,3.65-3,13.07.51,13.47-6,.17-2.71-1.47-2.79-2.58-4.72-4.23-7.32,2.91-13.49,9-16,2.67-1.08,5-2.49,7.74-3.28,2.51-.71,3.86-1,5.4-3.2-5-1.08-13.62-.69-10.92-8.42,2.28-6.53,8.77-9.29,15.3-9.69a25.7,25.7,0,0,1,9.23,1.43c.32.1,2.4,1.46,2.84,1.26A2,2,0,0,0,90.17,41.74Z"/><path class="cls-5" d="M105.78,233.55h.07c0,.36.07.7.11,1.07a5.06,5.06,0,0,0,.08.52c0,.11,0,.12-.08.16l-.2.09-.62.42a2.28,2.28,0,0,1-.81.23,4.54,4.54,0,0,1-2.21-.32,5.55,5.55,0,0,0-1.32-.28,4.63,4.63,0,0,0-.52-.07,3.75,3.75,0,0,0-.55.15,9.52,9.52,0,0,0-2.51.62,6.55,6.55,0,0,1-1,.37c-.19.06-.4.1-.58.17a2.27,2.27,0,0,0-.36.29,1.73,1.73,0,0,1-.09-.56c0-.23,0-.47-.07-.71S95,235.25,95,235c0-.49.62-.68,1-.73s.65-.2,1-.21a3.4,3.4,0,0,0,1.09-.21c.37-.13.69-.34,1-.48a8,8,0,0,1,1.1-.25c.64-.13,1.23.31,1.86.36.43,0,.85.26,1.29.25a7.36,7.36,0,0,0,1.16-.15,1.66,1.66,0,0,1,.65-.1A2.65,2.65,0,0,0,105.78,233.55Z"/><path class="cls-2" d="M104,206.89a4.83,4.83,0,0,1,.72-.36c.13,0,.47-.21.61-.16.49.21.06,1.41-.13,1.76-.57,1.06-.26,2.25-.18,3.4.11,1.52.08,3,.11,4.56,0,1.82.68,3.48.86,5.26.15,1.57.31,3.28.38,4.89a16.37,16.37,0,0,0,.34,3.12,44.75,44.75,0,0,0,1,4.4c-1.31-.13-2.55.69-3.86.59s-2.19-.87-3.48-.44a30.21,30.21,0,0,1-6.13,1.14,13.16,13.16,0,0,0-1-4.74c-.53-1.27-.81-2.74-1.43-4-.28,1.54-.56,3.1-.87,4.64a5.79,5.79,0,0,1-1.54,2.84,5.16,5.16,0,0,0-1.56,3.32,14,14,0,0,1-.75,3.52c-.48,1.67.49,3.39.39,5.14-2,.13-4.1-.58-6.21-.48-4.24.2-8.11,1.52-12.37,1.64-4.51.14-9-.13-13.53,0-4.31.15-8.06-.16-12.17,1.16a28.13,28.13,0,0,1-9.1,1.53c8.75-7.51,13.59-19.44,21.74-27.86,3.09-3.19,6.39-4.87,9.83-7.48,8.57-6.52,13.74-16.33,25-18.51,3.15-.61,3.44,2.46,4.74,5,.9,1.8,1.38,4.13,2.76,5.64a4.54,4.54,0,0,0,1.77,1,3.73,3.73,0,0,0,3.29-.2C103.56,207.19,103.78,207,104,206.89Z"/><path class="cls-5" d="M105.38,248.65l.2,0c.15.36-.19,3.37-.43,3.3s-.81-.29-1.17-.43a12.41,12.41,0,0,1-2.17,4.84c-1.08,1.62-2,3.31-3,5-.77,1.34-1.63,2.68-2.28,4.1-.28.61-.8,1.95-1.37,2.07a4.43,4.43,0,0,1-1.93-.4,40.15,40.15,0,0,1,3-5.74c1.42-2.18,3.17-4.23,4.4-6.53.45-.84,1-1.53,1.54-2.34a19,19,0,0,1,1.49-2.28C104,249.82,104.74,248.82,105.38,248.65Z"/><path class="cls-6" d="M58.32,268.54A38.84,38.84,0,0,0,70,267.78a16.45,16.45,0,0,1,5.77,0,69,69,0,0,0,8.26.38c2.59,0,4.26,1.2,6.7,1.76,1,.23.68.43,1.37-.46.37-.49.68-1.21,1-1.74.78-1.32,1.51-2.54,2.34-3.83s1.4-2.29,2.22-3.43a28.88,28.88,0,0,0,2.44-3.77c1.48-2.88,3.66-5.34,5.49-8-5.94-1.4-11.54-4.16-17.75-4.13-2.29,0-4.37.56-6.66-.08-2.68-.75-3.5-2.43-5.63-3.95-5.44-3.87-4.41,4.06-8.83,6C63.8,247.74,59.07,245,56,244.65c-2.73-.32-6.79-.39-9.27.4-.59.18-.68,5.55-.72,6.22a42.31,42.31,0,0,0,.11,6.66,10.63,10.63,0,0,0,6.65,9.17A19,19,0,0,0,58.32,268.54Z"/><path class="cls-5" d="M324.15,365.34a47.39,47.39,0,0,0-7.35,4.57,13.07,13.07,0,0,1-1.57-3.73c1-.68,2.09-1.32,3.14-2a29.7,29.7,0,0,1,3-2,40,40,0,0,0,6-3c2.11-1.43,4.4-2.82,6.38-4.44,1.37-1.11,3-1.79,4.41-2.83.93-.68,1.86-1.45,2.85-2,.45-.26,1-.36,1.44-.57a10.27,10.27,0,0,0,1.74-1.15c1.41-1,3-1.75,4.51-2.67,1.85-1.16,3.59-2.49,5.36-3.77,1.53-1.1,3.58-1.81,4.89-3.16a7.88,7.88,0,0,1,1.6-1.39c.76-.49,1.25-1.2,2-1.67l.06,0a9.19,9.19,0,0,0,2.3-2.14,7.37,7.37,0,0,1,2.24-1.64,13.12,13.12,0,0,1,1.56,3.19c.35.79.3.62-.14,1.17a7.72,7.72,0,0,1-2.89,2.16c-1.19.6-2.14,1.92-3.12,2.82a69.06,69.06,0,0,1-7,5.64,108.71,108.71,0,0,1-15.59,9l-2.12,1c-2.79,1.31-5.21,3.44-7.71,5.21A40,40,0,0,1,324.15,365.34Z"/><path class="cls-5" d="M356.88,331.56a3.06,3.06,0,0,1-.73,1.15c-.54.46-1.17.35-1.78.58s-1,.57-1.51.79c-1.67.72-3.44,1.25-5.13,1.91-1.9.74-4.18,1.58-5.47,3.23-2.2,2.8-1.91,7.48-2,10.86,0,1.16.45,2.1-.41,2.91a16.35,16.35,0,0,1-2.18,1.31c.09-3.28-.12-6.41.45-9.68.47-2.71.86-6.2,2.92-8.24a16.46,16.46,0,0,1,5.66-3.71,26.06,26.06,0,0,1,7-1.92,7.81,7.81,0,0,1,3.24.6Z"/><path class="cls-2" d="M186.2,331a14.36,14.36,0,0,1-2.66.92c-1,.25-2,.45-3,.72a4.41,4.41,0,0,1-1.89.39c-.64-.06-1.21-.31-1.87-.33-2-.06-3.83.5-5.78.51a4.64,4.64,0,0,0-1.65.3,12,12,0,0,0-1.34.28c-.64.48-.16,2.42,0,3.08a26.28,26.28,0,0,0,2.21,6c.53,1.15,1.27,4.67,2.66,5,.55.15,1.84-.6,2.39-.74.79-.2,1.58-.3,2.38-.45a24.7,24.7,0,0,0,8.66-3.3,11.51,11.51,0,0,1,2.47-1.43,23.89,23.89,0,0,0,2.87-1.31c1.62-.81,2.94-2.06,4.46-3a51.19,51.19,0,0,1,5.12-2.73c.7-.33,1.29-.82,2-1.18s1.17-.44,1.76-.73c.92-.45,1.67-1.17,2.56-1.66s1.81-.64,2.7-1.13a46.25,46.25,0,0,0,5.84-4c2.21-1.75,5.17-3,7.09-5-2.37-3.8-4.76-7.52-10-5.35-.87.36-1.66.85-2.54,1.19-1.08.42-2.25.61-3.3,1.11-3.12,1.46-5.48,3.1-9,3.28a9.87,9.87,0,0,0-3.9.5c.19-.09,2.37,4.53,2.47,4.88a23.18,23.18,0,0,1-6.82,2.76,14.56,14.56,0,0,0-3.38,1.17Z"/><path class="cls-5" d="M135.56,365.77a47.15,47.15,0,0,0-8.65-.28,13.23,13.23,0,0,1,.76-4c1.24,0,2.47.06,3.71.09a29.16,29.16,0,0,1,3.62,0,41.5,41.5,0,0,0,6.69.86c2.54,0,5.23.08,7.76-.16,1.77-.17,3.48.17,5.25.09,1.15-.05,2.35-.17,3.5-.11a13.12,13.12,0,0,1,1.51.33,9.73,9.73,0,0,0,2.09,0c1.74-.07,3.5.24,5.23.29,2.19.06,4.37-.09,6.55-.17,1.89-.06,4,.49,5.82.09a7.45,7.45,0,0,1,2.11-.27c.9,0,1.7-.31,2.59-.27h.08a9.33,9.33,0,0,0,3.1-.51,7.18,7.18,0,0,1,2.78-.12,13.63,13.63,0,0,1-.48,3.52c-.15.85-.09.68-.77.89a7.86,7.86,0,0,1-3.6.2c-1.33-.16-2.85.41-4.16.61a68.74,68.74,0,0,1-9,.81,107.9,107.9,0,0,1-18-1.17l-2.32-.34c-3-.46-6.24,0-9.3.05A39.34,39.34,0,0,1,135.56,365.77Z"/><path class="cls-5" d="M182.08,355a3,3,0,0,1-1.25.55c-.69.09-1.16-.36-1.8-.51s-1.12-.07-1.69-.17c-1.79-.33-3.55-.87-5.33-1.26-2-.43-4.35-1-6.34-.35-3.38,1.11-5.74,5.16-7.65,7.95-.66,1-.8,2-2,2.19a16.45,16.45,0,0,1-2.54-.11c1.9-2.69,3.46-5.4,5.74-7.81,1.9-2,4.16-4.68,7-5.23a16.55,16.55,0,0,1,6.76,0,26.88,26.88,0,0,1,6.88,2.28,8.21,8.21,0,0,1,2.36,2.3Z"/><path class="cls-5" d="M173,348.22a4.49,4.49,0,0,1,.8-.1,11.88,11.88,0,0,0,2.07-.31c.6-.22,1.15-.54,1.74-.76a16.22,16.22,0,0,1,1.75-.68,24.58,24.58,0,0,0,7-2.94,11.51,11.51,0,0,1,2.47-1.43,23.89,23.89,0,0,0,2.87-1.31c1.62-.81,2.94-2.06,4.46-3a51.19,51.19,0,0,1,5.12-2.73c.7-.33,1.29-.82,2-1.18s1.17-.44,1.76-.73c.92-.45,1.67-1.17,2.56-1.66s1.81-.64,2.7-1.13a46.25,46.25,0,0,0,5.84-4c2.21-1.75,5.17-3,7.09-5a10.91,10.91,0,0,1-1.2-1.7c-.88.71-1.88,1.37-2.81,2.05s-2,1.69-3.13,2.4c-2.79,1.83-5.74,3.4-8.45,5.38-3.87,2.83-8.6,4.29-12.51,7.08a35.26,35.26,0,0,1-3.75,2,25.32,25.32,0,0,1-3.8,1.88c-1.25.44-2.51.8-3.75,1.25-.64.23-1.2.64-1.84.82a13.06,13.06,0,0,0-1.93.6,23.59,23.59,0,0,0-2.07,1.19,9.7,9.7,0,0,1-1.78.56c-.31.09-.61.19-.93.25s-.74,0-1.09.12a29.94,29.94,0,0,1-2.84,1.22,10.16,10.16,0,0,0,1.52,1.94Z"/><path class="cls-5" d="M160.57,261.13c-1.37-2-3.56-2-5.36-.55a10.54,10.54,0,0,0-2.11,2.36c-.15.25-1.35,3.46-.52,3.41-2,.11-3.89-.86-5.82-.72a23.63,23.63,0,0,1-5-.24c.18,1.75.8,3.46,1.11,5.16a12.77,12.77,0,0,0,1.75,4.73,9.85,9.85,0,0,0,4.75,4.09c1.56.63,3.54,1.9,5.23,1.11.7-3.11.13-6.36.48-9.49.17-1.57.32-1.28,1.64-1.31a4.56,4.56,0,0,0,2.27-.43C161.78,267.77,162.27,263.6,160.57,261.13ZM157.3,266a1.94,1.94,0,0,1-1.49-2.58,2.13,2.13,0,0,1,1.24-1.55,1.76,1.76,0,0,1,1.14.29C159.81,263,159.31,266.35,157.3,266Z"/><path class="cls-3" d="M158.2,264.71c-2.95-.74-.46-6.07.24-8,1.71-4.62,3.24-9.24,4.66-14a228,228,0,0,1,8.32-24.25c1.79-4.21,2.59-8.8,4.19-13.08,1.18-3.16,4-8.77,8-8.83a3.85,3.85,0,0,1,.67.05c-.36,1.88-.48,2.33-2.17,2.91a6.22,6.22,0,0,0-2.92,2.94,40.73,40.73,0,0,0-3.33,8.48q-1.69,5.11-3.29,10.27c-1.62,5.22-3.77,10.14-5.55,15.33-1.94,5.66-3.85,11.33-5.79,17-.93,2.72-2.3,6.15-2.42,8.92"/><path class="cls-5" d="M123.65,119.93l.91,1.35c2.76,4,5.78,7.9,8.87,11.71,1.54,1.9,3.09,3.79,4.64,5.69,1.42,1.75,3.14,3.24,4.36,5.17.43.69,1.21,1.54,1,2.34a6.51,6.51,0,0,1-1,1.53c-.15.22-.67,1.12-1,1.16s-1.1-1-1.37-1.39c-1.5-2-3.13-3.93-4.71-5.89-1-1.3-2.16-2.54-3.22-3.83-1.87-2.3-3.8-4.55-5.73-6.81-3.87-4.5-6.51-10.15-10.14-14.87-2.68-3.48-4.69-7.39-7.2-10.91-3.17-4.45-4.75-8.82-11-9.51-1.84-.21-3.64-.52-5.49-.67-.56,0-2.19.06-2.63-.35-1.41-1.29.4-3.36,1.61-3.81,1.64-.62,4.09-.36,5.84-.34a16.57,16.57,0,0,1,5.33.71c6.06,2.07,8.25,8.43,11.63,13.41S120.36,115,123.65,119.93Z"/><path class="cls-4" d="M133,135a15.79,15.79,0,0,0,11.05,10.63c5.44,1.65,11.24.14,16-2.72,1.88-1.14,3.42-2.13,4.37-4,.35-.68,1.33-7.53,1.37-7.53,4.29-.42,6.69-6.5,4.66-10.15-2.13-3.84-7-1.48-6.38,2.66-.63-4-.39-7.53-3.78-10.26a16,16,0,0,0-9.09-3.3,18,18,0,0,0-18.46,14.4A20.91,20.91,0,0,0,133,135Z"/><path class="cls-5" d="M148.3,129.38c-.71-.23-.43-2.59-.38-3.12.13-1.42,1.35-2.1,1.55-.28C149.54,126.58,149.46,129.76,148.3,129.38Z"/><path class="cls-5" d="M137.82,124.5a.61.61,0,0,1,.26.1c.8.51,0,2.86-.11,3.52-.2.9-.71,1.31-1,.24a6.32,6.32,0,0,1-.12-2.56C136.87,125.33,137.26,124.44,137.82,124.5Z"/><path class="cls-5" d="M142.72,132c-1.47.76-3.14.07-4.67.1.59.66,1.43,2.25,2.9,1.89C141.81,133.78,142.24,132.6,142.72,132Z"/><path class="cls-5" d="M146.12,135.43c-1.68.44-2.85,1.39-4.66,1.36a14.64,14.64,0,0,1-1.48,0c-.39-.05-1-.54-1.42-.35-.54.25-.18.72.23,1a6.5,6.5,0,0,0,3.65,1C143.9,138.34,146.2,137.14,146.12,135.43Z"/><path class="cls-7" d="M151.05,109.25a25.58,25.58,0,0,1,3.71.58,17.82,17.82,0,0,1,3.23,1.48,12.48,12.48,0,0,1,5.82,8.52,10.74,10.74,0,0,1,.15,4.07s-1.89-.74-2-.8c-1.73-.65-3.44-1.45-5.24-2-1.59-.45-3.11-1.11-4.69-1.62a2.08,2.08,0,0,1-1.44-1c-.39-.67-.62-1.41-1-2.09a17,17,0,0,0-1.74-2.45c-.75-.91-3.11-1.57-3.27-2.89-.11-.93,1.5-1.19,2.2-1.44A8.13,8.13,0,0,1,151.05,109.25Z"/><path class="cls-5" d="M146.6,118.1c.32.06.64.14,1,.23a14,14,0,0,0,3.56,1c-.53-2.58-2.1-4.61-3.49-6.75a7.21,7.21,0,0,0-5.58-3.66c-3.85-.19-6.66,2.46-8.26,5.7a11.4,11.4,0,0,0-1,4.53c0,.79,0,1.57,0,2.36a9.59,9.59,0,0,1,.14,2.16c1.73-3.2,6.56-5.45,10.11-5.73A13.38,13.38,0,0,1,146.6,118.1Z"/><path class="cls-5" d="M51.91,358.81c-5.22,1.12-9.1-3-7.19-8.24,1.47-4.05,7.51-6.74,10.9-3.17S56.61,357.79,51.91,358.81Z"/><path class="cls-5" d="M129.91,358.81c-5.22,1.12-9.1-3-7.19-8.24,1.47-4.05,7.51-6.74,10.9-3.17S134.61,357.79,129.91,358.81Z"/><path class="cls-5" d="M188.21,194.58c1.08,1,1.08,3.08.67,4.4.42-1.2,1.8-3.51,3.37-3.4,1.91.13,1.43,3.24,1.38,4.49.18-1,.77-2.75,2-2.83a2.64,2.64,0,0,1,2.09,1.18c.75,1.08.68,2.82.95,4a3.56,3.56,0,0,1,.1-1.29,7,7,0,0,0-.31-2.41c-.53-1.88-1.2-2.37-2.88-3.14-1-.45-2.68-1.12-2.57-2.48-.62-.13-1.11.43-1.82.32s-1-.51-1.54-.59a9.24,9.24,0,0,0-2.08.18c-1.5.16-2.22,1.38-2.85,2.72C185.21,194.75,187.39,193.79,188.21,194.58Z"/><path class="cls-5" d="M133.83,49.45c.1-.36.28-.65.64-.57.62.13.21,2.57.31,3.09.16.79.29,3.49-.88,1.64-.49-.77-.25-2.3-.19-3.17A6.23,6.23,0,0,1,133.83,49.45Z"/><path class="cls-5" d="M267.28,81.28c2.69-1.32,5.4,11.61,4.6,14-1.12.23-3.73-3.22-4-4.34-1,2-.56,4.3-.41,6.41a10.28,10.28,0,0,1-1.26,5.6c-1.81-.8-2.64-3.28-3.86-4.72-1-1.17-2-2.3-3-3.46-3.39-3.85-6.65-7.53-10.25-11.21-1.49-1.52-3.17-2.45-4.76-3.86a26.27,26.27,0,0,0-3.46-2.34c-.88-.59-1.2-1.31-2.35-1.08a3.32,3.32,0,0,0,1.3-.9c.33-.32.51-1,1-1.2.73-.28,1.36.34,2,.74,1.13.71,2.28,1.19,3.4,1.82,2.22,1.24,4.16,3.51,6.14,5.07A35.34,35.34,0,0,1,260,89.67c1,1.4,3.58,6,5.52,6.3.74-2.71,0-5.67,1.21-8.25.49-1.1.69-3.4-1.3-3.55A3.15,3.15,0,0,1,267.28,81.28Z"/><path class="cls-4" d="M294.71,46.19c.25.53.49,1.07.72,1.61.75,1.79,2.27,4.42.5,5.91-2.11,1.77-4.87-.48-7.07-.33-.31,0-.62,7.26-.79,8a13,13,0,0,1-4.68-.61,16.23,16.23,0,0,1-4.24-2.6c1.09,2.07,2.21,4.14,4.17,5.49a12.35,12.35,0,0,0,4.14,1.63,30.67,30.67,0,0,1-.33,5.51A3.51,3.51,0,0,1,284.57,74a13.55,13.55,0,0,1-6.51.33c-3.07-.72-5.19-1.12-7.26,1.79s-3.43,7-6.26,9.47c-4.1,3.65-6.76-.43-10.8-2.3A38.52,38.52,0,0,1,244,76.86c-2.94-2.85-1.1-4.72-.05-8.5,2-7.34,2.21-15,2.21-22.5s.52-17.11,6.62-22.51c7.14-6.33,20.69-6.92,28.36-1.23,3.79,2.82,5.46,7,7.1,11.17C290,37.77,292.66,41.82,294.71,46.19Z"/><path class="cls-7" d="M273,10.33c3.4-1,6.26-.75,5.65,3.25,3.78-.9,7.47-5.25,11.37-1.72,2.59,2.35,2.38,6.84-1.41,7.83,1.44,2.86,4.87,4.89,4,8.61-1,4.28-3.21,2.38-5.21.17-3.85-4.26-6.51-1.52-11,.17-2.57,1-6.3-1.14-6.13,2.74.09,2,2.17,2.36,1.65,4.55s-2.29,3-4.05,1.49c-1.26,2.85,1.61,3.47,1.73,5.55.32,5.49-3.45-1-4.13-2.43-1.49-3.14-3.1-7.59-7.42-6.56-2.86.68-4,4.28-4.12,7s2.68,7.35,1.91,9.26c-.69,1.72-2.5,1.09-3.68,2-1.38,1.07-1.39,1.63-2.25,3.27-1,1.95-2.4,2.56-3.42,4s-.21,3.28-2.23,4.14c-1.74-1.61-.89-5-1.59-7.06-.78-2.31-2.24-4.59-3-7-1.28-4,.87-7.81,1.6-11.62,1.35-7.11,1.52-13.18,6.18-19.25,4-5.22,10.61-9.07,16.45-4.07A40.75,40.75,0,0,1,273,10.33Z"/><path class="cls-5" d="M283.06,40.11a4,4,0,0,1,.26.6,8.28,8.28,0,0,1,0,3.47c-.05.61-.1,2.42-1,1.58-.53-.5-.5-2-.48-2.6a8.62,8.62,0,0,1,.29-2.89C282.51,39.55,282.82,39.72,283.06,40.11Z"/><path class="cls-6" d="M259.88,79c.94.54,1.89,1.06,2.84,1.55,2.11,1.11,4.29,3.11,6.47,3.82-.53,5.15-1.51,10.32-2,15.45-1.36.1-2.79-2-3.8-2.8A41.12,41.12,0,0,1,257,89.92c-2.31-3-5.55-5.5-8.28-8.12-.69-.66-1.23-1.47-2-2.07s-1.6-1.15-2.39-1.72L243,77A15.09,15.09,0,0,0,241.6,76c-.76-.41-1.79,0-2.54-.62.8-1.38,1.75-2.7,2.52-4.1.62-1.13.58-3.92,2.3-3.71,1,.12,3.29,2.06,4.09,2.73,1.49,1.25,2.75,2.88,4.34,4C254.7,75.93,257.28,77.53,259.88,79Z"/><path class="cls-5" d="M109.54,139.88a2.36,2.36,0,0,0,1,.38,11.28,11.28,0,0,0,.38-2.63c.44.14.48,1.94.52,2.3s0,3.64,0,3.65a3.08,3.08,0,0,0-1,0,5.36,5.36,0,0,1-.7.09,6.21,6.21,0,0,0-.62-.14c0-.49.18-1,.11-1.49a3.74,3.74,0,0,1-1.45-.05c-.61,0-1.19-.11-1.79-.16a15.63,15.63,0,0,0-2.37,0c-.67,0-1.29-.32-2-.34s-1.46.25-2.2.26-1.29.06-1.94.08-1.48.06-2.25.14l-1.47.2a7,7,0,0,0-1.27.34c-.39.12-.78.2-1.16.33,0,.46,0,.95,0,1.42,0,.13,0,.24,0,.37a.8.8,0,0,1,0,.31c-.09.15-.37.07-.51,0s-.49,0-.74,0c-.87-.09-1.69,0-2-1a6.62,6.62,0,0,1,.14-2.34c.07-.73.17-1.46.25-2.19.06-.47,0-1.31.41-1.62.39,1-.07,2.65,0,3.74,1.39-.35,2.71-.43,4.08-.82a34,34,0,0,1,5.7-1.37,29.35,29.35,0,0,1,4.08.2c1.28,0,2.57-.13,3.86-.13a5.89,5.89,0,0,1,2.54.29Z"/><path class="cls-5" d="M58.94,245.32l-.49-.21a8.16,8.16,0,0,0-2.86-.77,26.46,26.46,0,0,1-3.21-.18,10.59,10.59,0,0,0-3.41.22,17.63,17.63,0,0,0-1.76.49,9,9,0,0,0-1.59.53c-1.1.51-2.18,1-3.25,1.59l-.14.08c-.29.15-.57.31-.85.49a15.13,15.13,0,0,1-1.43.63,16.24,16.24,0,0,1-2.66.78,5.4,5.4,0,0,1-.89.18,8.51,8.51,0,0,0-.86.13.9.9,0,0,0-.23.08,1.39,1.39,0,0,0-.19.06,1.4,1.4,0,0,1-.17.09,2.07,2.07,0,0,1-.33.1.79.79,0,0,0-.22,0,.45.45,0,0,1-.16,0s-.07,0-.1,0l.06.1a.05.05,0,0,1,0,0,.61.61,0,0,0,.34.17,4.35,4.35,0,0,0,.71.18,10,10,0,0,0,1.1.08,17.21,17.21,0,0,0,3.36.13,31.64,31.64,0,0,0,3.22-.65q1-.27,2.13-.51a5.47,5.47,0,0,1,1.14-.22,4.31,4.31,0,0,1,.06-1.29,5.08,5.08,0,0,1,0-.89c.69-.19,1.37-.56,2.08-.76a10.61,10.61,0,0,1,1.93-.37c.47-.05.85-.2,1.3-.26a26.33,26.33,0,0,1,3.2.11c.57,0,1.14.06,1.71.06a6.37,6.37,0,0,1,1.45,0,3.26,3.26,0,0,0,1.78.07Z"/></g></g></svg>