<svg xmlns="http://www.w3.org/2000/svg" xmlns:xlink="http://www.w3.org/1999/xlink" viewBox="0 0 401.9 391"><defs><style>.cls-1,.cls-7{fill:none;}.cls-2{fill:#fff;}.cls-3{fill:#b0cfe0;}.cls-4{fill:#80bde3;}.cls-5{fill:#0f4263;}.cls-6{clip-path:url(#clip-path);}.cls-7{stroke:#0f4263;stroke-miterlimit:10;stroke-width:3px;}.cls-8{fill:#1f78b0;}.cls-9{clip-path:url(#clip-path-2);}</style><clipPath id="clip-path"><path class="cls-1" d="M33.1,165.39c-1.48-1.51-3-2-4.46-3.45a3.76,3.76,0,0,1-1.11-1.48,2.41,2.41,0,0,1,.76-2.35,23.41,23.41,0,0,1,5.39-3.46,105,105,0,0,1,21.45-8.26c1.76-.49,3.52-1,5.28-1.51q9.59-3.6,19.51-6.33c7.44-2,14.67-5,22.09-6.71a364.62,364.62,0,0,1,56.86-8.13c20.95-1.38,41.93-.88,62.83-.43A239.41,239.41,0,0,1,326,149.77a223.13,223.13,0,0,1,22.45,13.35c1.94,1.32,3.68,2.71,5.49,4.16.55.43,1.16.8,1.75,1.19a44.07,44.07,0,0,1,7.88,6.45c-1.16,1-2.19,2.17-3.43,3.12a22.71,22.71,0,0,1-4,2.83c-2.63,1.75-5.09,3.75-7.72,5.54A221.18,221.18,0,0,1,326,199.75a236.24,236.24,0,0,1-48.78,18.71,239.6,239.6,0,0,1-55.53,7.79c-20.9.44-41.88.95-62.83-.44A363.43,363.43,0,0,1,102,217.68C94.59,216,87.36,213,79.92,211q-9.92-2.72-19.51-6.32l-5.28-1.52c-7.05-2-14.21-3.84-20.78-7-2.48-1.18-5.86-2.49-6.76-5.19s1.81-4.75,3.78-6a49.28,49.28,0,0,0,4.28-3.35c.7-.55,7.9-7.54,8.1-7.38A90.48,90.48,0,0,1,33.1,165.39Z"/></clipPath><clipPath id="clip-path-2"><path class="cls-1" d="M215,190.56c-.11-4.77-.12-9.66-.58-14.4-.83-8.56-2.88-17.18-4.07-25.67-1.17-8.31-3.45-16.49-4.95-24.75-.85-4.74-1.1-9.52-2.35-14.26a43.42,43.42,0,0,0-3.48-9.89c.75.49,1.49,1,2.21,1.53a63.81,63.81,0,0,0-1-9.86c-.21-1.3-4.43-2.16-5.46-2.92a11.27,11.27,0,0,0-2.87-1.28,57.34,57.34,0,0,1-9.72-5.25c-1.68-1.08-3.29-2.27-5-3.35a23.34,23.34,0,0,0-3.53-2.11,3.44,3.44,0,0,0-1.34-.3c-1.49,0-1.84,1.69-2.31,2.86-.23.56-2.17,5.18-1.67,5.52l.26.16a6,6,0,0,0-.53.49c-7.12,7.86-9.93,22-11.15,32.18-1.18,9.83-4.67,19.48-4.85,29.39-.24,13.47-1.75,27-3,40.42-.77,8.34-2,16.84-3.3,25,5.71-1.74,12.4.68,18.42.38,7.35-.37,13.27-1.48,20.66-.26,5.67.94,10.47-2.11,16.22-1.5,2.58.28,5.29,1.22,7.89,1,2.22-.18,4.19-1.52,6.38-1.61C216.51,205.17,215.17,197.57,215,190.56Z"/></clipPath></defs><title>surferAsset 16</title><g id="Layer_2" data-name="Layer 2"><g id="Layer_1-2" data-name="Layer 1"><rect class="cls-2" width="391" height="391"/><path class="cls-3" d="M70.15,356.34c4.67-.26,9.89,1.68,13.77-1.11C85.56,354,86,351,87.86,350c3.93-2,14.09.06,18.26.81,6.55,1.17,13,3.17,19.72,2.65,11.33-.87,22.71-2.38,34.08-2.73,9.09-.27,13.83-5.71,22.55-7.35s11.46,3.53,19.28,5.49c5.88,1.47,12.57,2.27,18.72,3.28,14.28,2.34,27.12.68,41.46,2.31,5.47.62,11.45,3.74,16.21,6.38,6.85,3.8,14.81,2.69,22.5,1.94,9.13-.88,32.08-4.87,38.71,2.61,2.47,2.78-10.19,1.38-10.46,1.37-7.16-.35-14.71,1.44-21.92,1.58-6.31.13-12.16.76-18.43.48a158.54,158.54,0,0,0-28.61,1.9c-9.19,1.34-1.62,4.67-5.21,9.65-4.1,5.67-19.61-1.39-26.16-.52-6.91.93-12.75-.13-19.5-.37-7.79-.27-15.6,1.24-23.43.87-9.72-.45-19.33-1.17-29-1.37-5-.11-10-.4-15-.26-3.48.1-9.88,2.42-12.89,1.83-6.87-1.35-5.46-10.92-10.71-14.26-3.85-2.44-10-.87-14.32-.75-8.31.24-16.82,0-24.93-1.95A56.33,56.33,0,0,0,62,361.84c-2.49.1-6.93,1.46-8.85-.89C47.91,354.63,67.77,356.47,70.15,356.34Z"/><path class="cls-4" d="M33.1,165.39c-1.48-1.51-3-2-4.46-3.45a3.76,3.76,0,0,1-1.11-1.48,2.41,2.41,0,0,1,.76-2.35,23.41,23.41,0,0,1,5.39-3.46,105,105,0,0,1,21.45-8.26c1.76-.49,3.52-1,5.28-1.51q9.59-3.6,19.51-6.33c7.44-2,14.67-5,22.09-6.71a364.62,364.62,0,0,1,56.86-8.13c20.95-1.38,41.93-.88,62.83-.43A239.41,239.41,0,0,1,326,149.77a223.13,223.13,0,0,1,22.45,13.35c1.94,1.32,3.68,2.71,5.49,4.16.55.43,1.16.8,1.75,1.19a44.11,44.11,0,0,1,4.66,3.44c.8.67,2.81,1.73,2.9,2.91.09,1-2.34,2.63-3.11,3.22a22.71,22.71,0,0,1-4,2.83c-2.63,1.75-5.09,3.75-7.72,5.54A221.18,221.18,0,0,1,326,199.75a236.24,236.24,0,0,1-48.78,18.71,239.6,239.6,0,0,1-55.53,7.79c-20.9.44-41.88.95-62.83-.44A363.43,363.43,0,0,1,102,217.68C94.59,216,87.36,213,79.92,211q-9.92-2.72-19.51-6.32l-5.28-1.52c-7.05-2-14.21-3.84-20.78-7-2.48-1.18-5.86-2.49-6.76-5.19s1.81-4.75,3.78-6a49.28,49.28,0,0,0,4.28-3.35c.7-.55,7.9-7.54,8.1-7.38A90.48,90.48,0,0,1,33.1,165.39Z"/><path class="cls-5" d="M202.06,92.84a88.9,88.9,0,0,1,1.08,8.88c0-.57-3.95-3.4-4.53-4-2.83-3.1-5-6.76-7.39-10.23L202,92C202,92.31,202,92.57,202.06,92.84Z"/><path class="cls-4" d="M209,41.05a12.61,12.61,0,0,1,3,6.43,31.65,31.65,0,0,1,.5,3.36,25.81,25.81,0,0,0,.28,3.84,9.22,9.22,0,0,0,1,2.28c1.25,2.23,2.89,4.14,4.2,6.33.59,1,2,3.19,1.3,4.2-1.12,1.55-4.85,1.43-6.51,2.22-.31,3.2-1,6.12-1.45,9.23-.37,2.43-1,4.94-4,4.64-3.35-.34-5.78-1-8.94.93-2.64,1.62-3,4.71-3.9,7.41-.47,1.5-.52,2.68-2.37,2.8-1.26.07-2.94-1-4.08-1.58-4.39-2.43-9-6.66-13.95-8,1.9-1.84,2.43-5.28,2.93-7.8a17.26,17.26,0,0,0,.54-4.74c-.55-5.64-4.7-10.6-4.47-16.45.4-10.29,9-18.13,18.83-18.64,5.76-.3,11.59-1.19,16.34,2.89A9.58,9.58,0,0,1,209,41.05Z"/><path class="cls-5" d="M212.7,52a1.79,1.79,0,0,1,.46,0c.54,0,1.18.08,1.41.56a1.28,1.28,0,0,1,.09.55c0,.89.06,1.77.06,2.66a13.38,13.38,0,0,1,0,2.61c-.38-.12-.57-.65-.77-1a9.53,9.53,0,0,1-.75-1.41,10,10,0,0,1-.64-2.19c-.08-.43-.41-1.53.12-1.75Z"/><path class="cls-5" d="M205,53c0-.29,0-.57,0-.85,1.15-.47,1.95,0,3.09-.08a10.43,10.43,0,0,0,2.58-.14c.54-.24.42,4.25.42,4.58a20.76,20.76,0,0,1-.69,6.33c-.77,2.49-4.24,3.51-5.13.48-.5-1.67-.19-4.06-.19-5.82C205.16,56,205,54.43,205,53Z"/><path class="cls-5" d="M212.06,74.94l-1.32-.22a13.17,13.17,0,0,1-2.74-.78,8.18,8.18,0,0,1-2.57-1.58,7.3,7.3,0,0,1-1.57-2.21,1.31,1.31,0,0,1-.15-.5.43.43,0,0,1,.27-.42,5.21,5.21,0,0,0,.77.86c.21.19.38.41.6.6a11.71,11.71,0,0,0,1.29.93,14.83,14.83,0,0,0,1.66.91c.53.26,1.08.54,1.63.76l.43.14a9,9,0,0,0,.93.16,5.14,5.14,0,0,0,1,.12,1.89,1.89,0,0,1-.08.53Z"/><path class="cls-5" d="M212.26,54c.61,0,1.23.37,1.24.82a.31.31,0,0,1-.27.31c-.17,0-.31-.1-.45-.17a1.21,1.21,0,0,0-.86,0,1.82,1.82,0,0,0-.67.42.65.65,0,0,1-.22.18.37.37,0,0,1-.31,0c-.32-.14-.17-.91,0-1.11A2.43,2.43,0,0,1,212.26,54Z"/><g class="cls-6"><path class="cls-7" d="M400.57,181.22H353.41c-7.31,0-14.63-.28-21.94-.45-3.74-.09-7.48-.15-11.22-.14-2.71,0-5.2.58-7.89.59-6.83,0-13.32-.05-20.09-.63-13.46-1.15-27-.19-40.4.75-5.88.41-11.92-.12-17.87-.12H115.44c-5.74,0-11.36-.18-17.15-.05s-11.44.14-17.16.21-11.85.91-17.57.58A214.15,214.15,0,0,0,41,181.54c-3.38.16-7,1-10.36.56a88.49,88.49,0,0,0-10.93-.88H15"/><path class="cls-7" d="M401.9,168.22H325.48c-5.07,0-10.3-.38-15.27.45s-10.33-.24-15.24-.38c-11.44-.33-22.88-.07-34.31-.07H157.25c-12.1,0-24.24.1-36.29-.23-6-.16-12.25.69-18.31.77s-12.28,0-18.41-.37c-9.17-.46-18.35-.56-27.53-.74-13.54-.27-26.95.57-40.43.57"/></g><path class="cls-4" d="M188.62,75.25h-.21"/><path class="cls-8" d="M215,190.91c-.11-4.76-.12-9.66-.58-14.39-.84-8.57-2.88-17.18-4.08-25.68-1.17-8.3-3.45-16.48-4.94-24.74-.86-4.74-1.1-9.52-2.35-14.26a44,44,0,0,0-3.49-9.9c.75.49,1.49,1,2.21,1.54a63.93,63.93,0,0,0-.95-9.87c-.21-1.29-4.43-2.15-5.46-2.91a11.82,11.82,0,0,0-2.87-1.29,56.64,56.64,0,0,1-9.72-5.25c-1.69-1.07-3.3-2.27-5-3.34a23.21,23.21,0,0,0-3.52-2.12,3.67,3.67,0,0,0-1.34-.3c-1.5,0-1.84,1.69-2.31,2.87-.23.56-2.17,5.18-1.67,5.51l.25.16c-.17.16-.35.31-.52.5-7.13,7.86-9.94,22-11.16,32.17-1.18,9.84-4.66,19.48-4.84,29.39-.11,6-1.18,11.62-1.79,17.54-.78,7.62-.62,15.27-1.21,22.88-.77,8.35-2,16.85-3.29,25,5.71-1.74,12.4.68,18.41.38,7.36-.36,13.27-1.48,20.67-.25,5.67.94,10.46-2.11,16.21-1.5,2.59.27,5.3,1.22,7.9,1,2.22-.18,4.19-1.51,6.38-1.61C216.53,205.52,215.19,197.93,215,190.91Z"/><g class="cls-9"><path class="cls-3" d="M132.76,165.56a7.34,7.34,0,0,1-1.74-2.31l.53,4.81a16,16,0,0,1-4.16-1.44,1.39,1.39,0,0,1-.63-.51,1.24,1.24,0,0,1,0-.91,9.15,9.15,0,0,1,1.65-3.3l-3.64,1.26a1,1,0,0,1-.9,0,1.07,1.07,0,0,1-.33-.56l-.84-2.5a1.71,1.71,0,0,1-.1-1.15c.23-.55,1-.63,1.57-.64l4.53,0a40.09,40.09,0,0,1-3.54-4,23.6,23.6,0,0,1,4.22-1.27l1.65,3.41a22.56,22.56,0,0,1,.8-4.26l3.73,1.4a1.09,1.09,0,0,1,.5.31c.23.32,0,.73-.19,1L133.77,158a20.35,20.35,0,0,1,5.18-.25c.12.87,1,2.62.42,3.39-.94,1.28-4.29.4-5.65.5,1.68.66,2.8,2.52,3.95,3.85.26.3-2.28,2-3.3,1.48A10.16,10.16,0,0,1,132.76,165.56Z"/><path class="cls-3" d="M106.29,158.61a7.19,7.19,0,0,1-.93,2.74l3.68-3.16a15.84,15.84,0,0,1,1.16,4.25,1.39,1.39,0,0,1-.07.81,1.24,1.24,0,0,1-.74.52,9,9,0,0,1-3.66.5l3.1,2.3a1,1,0,0,1,.51.74,1.07,1.07,0,0,1-.27.58l-1.59,2.1a1.68,1.68,0,0,1-.89.74c-.58.12-1.06-.43-1.41-.93l-2.61-3.71a38.29,38.29,0,0,1-1.26,5.15,23.9,23.9,0,0,1-3.43-2.77l1.89-3.29a22.2,22.2,0,0,1-4,1.75l-1-3.86a1.08,1.08,0,0,1,0-.59c.13-.37.59-.43,1-.43H99.5a20.84,20.84,0,0,1-3.14-4.13c.65-.6,1.61-2.29,2.57-2.27,1.59.05,2.75,3.31,3.6,4.38-.4-1.76.5-3.74,1-5.44.1-.37,3,.74,3.08,1.89A10.5,10.5,0,0,1,106.29,158.61Z"/><path class="cls-3" d="M122.77,137.05a7.11,7.11,0,0,1,.19-2.88l-2.74,4a16.06,16.06,0,0,1-2.21-3.81,1.27,1.27,0,0,1-.14-.8,1.23,1.23,0,0,1,.58-.69,9.15,9.15,0,0,1,3.41-1.43L118.27,130c-.29-.11-.61-.27-.69-.58a1.08,1.08,0,0,1,.12-.63l1-2.45a1.68,1.68,0,0,1,.67-.94c.53-.26,1.14.15,1.6.54l3.47,2.92a40.93,40.93,0,0,1-.1-5.31,24.09,24.09,0,0,1,4,1.8l-1,3.66a23.07,23.07,0,0,1,3.38-2.71l1.92,3.49a1.08,1.08,0,0,1,.17.57c0,.39-.46.56-.81.66l-3.6,1a20.16,20.16,0,0,1,4.09,3.18c-.47.75-1,2.63-1.89,2.85-1.55.36-3.51-2.49-4.61-3.31.84,1.6.48,3.74.48,5.5,0,.39-3,0-3.46-1A9.27,9.27,0,0,1,122.77,137.05Z"/><path class="cls-3" d="M157.81,143.94a7.19,7.19,0,0,1-1.74-2.32l.53,4.82a16.07,16.07,0,0,1-4.16-1.45,1.33,1.33,0,0,1-.63-.51,1.22,1.22,0,0,1,0-.9,9.2,9.2,0,0,1,1.65-3.31l-3.65,1.26a.94.94,0,0,1-.89,0,1.08,1.08,0,0,1-.33-.55l-.84-2.5a1.74,1.74,0,0,1-.1-1.16c.23-.55,1-.63,1.56-.64l4.54-.05a40.09,40.09,0,0,1-3.54-3.95,24.19,24.19,0,0,1,4.22-1.27l1.65,3.41a21.79,21.79,0,0,1,.8-4.26l3.73,1.4a1.09,1.09,0,0,1,.5.31c.22.32,0,.73-.19,1l-2.1,3.09a20,20,0,0,1,5.18-.26c.13.87,1,2.62.43,3.39-.94,1.29-4.29.4-5.65.5,1.67.67,2.8,2.53,3.95,3.86.25.29-2.28,2-3.3,1.47A10,10,0,0,1,157.81,143.94Z"/><path class="cls-3" d="M143.94,189.06a7,7,0,0,1,1.48-2.48l-4.25,2.31a15.78,15.78,0,0,1-.25-4.4,1.41,1.41,0,0,1,.24-.78,1.25,1.25,0,0,1,.83-.35,9.18,9.18,0,0,1,3.69.28l-2.56-2.9a1,1,0,0,1-.34-.82,1,1,0,0,1,.39-.52l2-1.72a1.71,1.71,0,0,1,1-.54c.59,0,.95.65,1.18,1.21l1.77,4.18a39.76,39.76,0,0,1,2.32-4.78,24.16,24.16,0,0,1,2.77,3.43L151.7,184a22.14,22.14,0,0,1,4.25-.88l.12,4a1,1,0,0,1-.1.58c-.21.33-.67.3-1,.22l-3.64-.77a20.6,20.6,0,0,1,2.2,4.7c-.76.45-2.05,1.9-3,1.67-1.54-.38-2-3.81-2.61-5,0,1.8-1.27,3.55-2.06,5.12-.18.34-2.74-1.35-2.62-2.5A9.88,9.88,0,0,1,143.94,189.06Z"/><path class="cls-3" d="M158.88,165a7.18,7.18,0,0,1,2.31-1.74l-4.81.52a15.71,15.71,0,0,1,1.45-4.16,1.4,1.4,0,0,1,.52-.63,1.27,1.27,0,0,1,.9,0,9.42,9.42,0,0,1,3.3,1.66L161.29,157a1,1,0,0,1,0-.89,1.08,1.08,0,0,1,.55-.33l2.5-.83a1.72,1.72,0,0,1,1.15-.11c.56.23.64,1,.64,1.57l.05,4.54a39.09,39.09,0,0,1,4-3.54,24.5,24.5,0,0,1,1.25,4.23L168,163.26a21.81,21.81,0,0,1,4.26.81l-1.4,3.72a1,1,0,0,1-.32.51c-.31.22-.72,0-1-.19L166.41,166a20,20,0,0,1,.25,5.19c-.87.12-2.62,1-3.39.41-1.28-.94-.4-4.28-.49-5.65-.67,1.68-2.53,2.8-3.86,4-.3.25-2-2.29-1.47-3.31A9.79,9.79,0,0,1,158.88,165Z"/><path class="cls-3" d="M173.62,115.15a7.21,7.21,0,0,1-1.73-2.31l.53,4.81a16,16,0,0,1-4.17-1.44,1.47,1.47,0,0,1-.63-.52,1.22,1.22,0,0,1,0-.9,9.22,9.22,0,0,1,1.66-3.31l-3.65,1.27a1,1,0,0,1-.9,0,1,1,0,0,1-.33-.55l-.83-2.5a1.66,1.66,0,0,1-.11-1.15c.23-.55,1-.64,1.57-.64l4.53,0a40.34,40.34,0,0,1-3.54-4,23.57,23.57,0,0,1,4.22-1.26l1.65,3.41a22.56,22.56,0,0,1,.8-4.26l3.73,1.39a1,1,0,0,1,.5.32c.23.31,0,.72-.18,1l-2.1,3.08a20.37,20.37,0,0,1,5.18-.26c.13.88,1,2.62.42,3.4-.94,1.28-4.28.4-5.65.5,1.68.66,2.8,2.52,3.95,3.85.26.29-2.28,2-3.3,1.48A10.72,10.72,0,0,1,173.62,115.15Z"/><path class="cls-3" d="M147.15,108.19a7.33,7.33,0,0,1-.92,2.74l3.67-3.15a15.84,15.84,0,0,1,1.16,4.25,1.31,1.31,0,0,1-.07.81,1.25,1.25,0,0,1-.74.52,9.33,9.33,0,0,1-3.66.5l3.11,2.29c.24.19.52.42.51.74a1,1,0,0,1-.28.58l-1.59,2.11a1.63,1.63,0,0,1-.88.73c-.59.13-1.07-.43-1.42-.93l-2.6-3.71a41.3,41.3,0,0,1-1.26,5.16,23.9,23.9,0,0,1-3.43-2.77l1.88-3.29a22.6,22.6,0,0,1-4,1.75l-.95-3.87a1,1,0,0,1,0-.59c.13-.36.59-.43,1-.43h3.73a19.92,19.92,0,0,1-3.14-4.13c.65-.6,1.61-2.29,2.56-2.26,1.59,0,2.75,3.3,3.6,4.38-.4-1.76.5-3.74,1-5.44.1-.38,3,.74,3.08,1.89A9.68,9.68,0,0,1,147.15,108.19Z"/><path class="cls-3" d="M164.63,88.64a7.38,7.38,0,0,1,.19-2.89l-2.74,4a15.93,15.93,0,0,1-2.21-3.82,1.4,1.4,0,0,1-.14-.8,1.23,1.23,0,0,1,.58-.69A9.13,9.13,0,0,1,163.72,83l-3.59-1.42c-.28-.12-.61-.27-.68-.59a1.07,1.07,0,0,1,.11-.63l1-2.44a1.69,1.69,0,0,1,.67-.94c.53-.27,1.14.14,1.61.54l3.46,2.91a40.74,40.74,0,0,1-.1-5.3,23.4,23.4,0,0,1,4,1.8l-1,3.66a21.44,21.44,0,0,1,3.39-2.71l1.91,3.49a1,1,0,0,1,.18.57c0,.38-.46.56-.82.66l-3.6,1a20.93,20.93,0,0,1,4.1,3.19c-.48.74-1,2.62-1.9,2.85-1.55.36-3.51-2.5-4.61-3.31.84,1.59.48,3.74.48,5.5,0,.38-3,0-3.46-1A10,10,0,0,1,164.63,88.64Z"/><path class="cls-3" d="M198.67,94.52a7.34,7.34,0,0,1-1.74-2.31l.53,4.81a16,16,0,0,1-4.16-1.44,1.4,1.4,0,0,1-.63-.52,1.22,1.22,0,0,1,0-.9,9.2,9.2,0,0,1,1.65-3.31l-3.64,1.27a1,1,0,0,1-.9,0,1.07,1.07,0,0,1-.33-.56l-.83-2.5a1.66,1.66,0,0,1-.11-1.15c.23-.55,1-.63,1.57-.64l4.53,0a39.09,39.09,0,0,1-3.54-4A24.42,24.42,0,0,1,195.28,82l1.65,3.41a22.56,22.56,0,0,1,.8-4.26l3.73,1.39a1,1,0,0,1,.5.32c.23.31,0,.73-.19,1L199.68,87a20.84,20.84,0,0,1,5.18-.26c.12.88,1,2.63.42,3.4-.94,1.28-4.28.4-5.65.5,1.68.66,2.8,2.52,4,3.85.26.3-2.28,2-3.3,1.48A10.72,10.72,0,0,1,198.67,94.52Z"/><path class="cls-3" d="M184.8,140.65a7.55,7.55,0,0,1,1.48-2.49L182,140.48a15.8,15.8,0,0,1-.24-4.4,1.38,1.38,0,0,1,.23-.78,1.27,1.27,0,0,1,.83-.35,9.15,9.15,0,0,1,3.69.27L184,132.33a1,1,0,0,1-.35-.83A1.08,1.08,0,0,1,184,131l2-1.72a1.66,1.66,0,0,1,1-.54c.6,0,.95.65,1.19,1.21l1.77,4.17a38.12,38.12,0,0,1,2.31-4.77,23.53,23.53,0,0,1,2.77,3.42l-2.53,2.82a23.09,23.09,0,0,1,4.25-.88l.12,4a1,1,0,0,1-.1.59c-.2.33-.66.29-1,.22l-3.65-.77a20.31,20.31,0,0,1,2.2,4.69c-.76.45-2.05,1.9-3,1.68-1.54-.38-2-3.81-2.6-5,0,1.81-1.27,3.55-2.07,5.12-.17.35-2.73-1.34-2.62-2.49A10.56,10.56,0,0,1,184.8,140.65Z"/><path class="cls-3" d="M197.74,117.57a7.27,7.27,0,0,1,2.32-1.73l-4.82.52a16.07,16.07,0,0,1,1.45-4.16,1.41,1.41,0,0,1,.52-.63,1.22,1.22,0,0,1,.9,0,9.09,9.09,0,0,1,3.3,1.66l-1.26-3.65a1,1,0,0,1,0-.9,1.12,1.12,0,0,1,.56-.32l2.5-.84a1.71,1.71,0,0,1,1.15-.1c.55.23.63,1,.64,1.57l0,4.53a40.24,40.24,0,0,1,4-3.53,23.57,23.57,0,0,1,1.26,4.22l-3.42,1.65a22.56,22.56,0,0,1,4.26.8l-1.4,3.73a1,1,0,0,1-.31.5c-.32.23-.73,0-1-.19l-3.08-2.1a20.84,20.84,0,0,1,.25,5.18c-.88.13-2.63,1-3.4.42-1.28-.94-.39-4.29-.49-5.65-.67,1.67-2.53,2.79-3.86,3.94-.29.26-2-2.28-1.47-3.3A10.24,10.24,0,0,1,197.74,117.57Z"/><path class="cls-3" d="M180,223.31a7.34,7.34,0,0,1-1.74-2.31l.53,4.81a16,16,0,0,1-4.16-1.44,1.4,1.4,0,0,1-.63-.52,1.22,1.22,0,0,1,0-.9,9.2,9.2,0,0,1,1.65-3.31L172,220.91a1,1,0,0,1-.9,0,1.07,1.07,0,0,1-.33-.56l-.83-2.5a1.66,1.66,0,0,1-.11-1.15c.23-.55,1-.63,1.57-.64l4.53,0a39.09,39.09,0,0,1-3.54-4,24.42,24.42,0,0,1,4.22-1.26l1.65,3.41A22.56,22.56,0,0,1,179,210l3.73,1.39a1,1,0,0,1,.5.32c.23.31,0,.72-.19,1L181,215.77a20.84,20.84,0,0,1,5.18-.26c.13.88,1,2.63.42,3.4-.94,1.28-4.28.4-5.65.5,1.68.66,2.8,2.52,3.95,3.85.26.29-2.28,2-3.3,1.48A10.72,10.72,0,0,1,180,223.31Z"/><path class="cls-3" d="M153.5,216.35a7.33,7.33,0,0,1-.92,2.74l3.67-3.15a15.84,15.84,0,0,1,1.16,4.25,1.39,1.39,0,0,1-.07.81,1.24,1.24,0,0,1-.74.52,9.33,9.33,0,0,1-3.66.5l3.1,2.3a1,1,0,0,1,.52.73,1.09,1.09,0,0,1-.28.58l-1.59,2.11a1.68,1.68,0,0,1-.89.74c-.58.12-1.06-.44-1.41-.94l-2.61-3.71a38.06,38.06,0,0,1-1.26,5.16,23.9,23.9,0,0,1-3.43-2.77l1.89-3.29a22.6,22.6,0,0,1-4,1.75l-1-3.87a1.08,1.08,0,0,1,0-.59c.13-.36.59-.42,1-.43h3.72a20.64,20.64,0,0,1-3.14-4.13c.65-.6,1.61-2.29,2.57-2.26,1.59.05,2.75,3.31,3.6,4.38-.4-1.76.5-3.74.95-5.44.1-.38,2.95.74,3.08,1.89A9.68,9.68,0,0,1,153.5,216.35Z"/><path class="cls-3" d="M170,194.8a7.19,7.19,0,0,1,.19-2.89l-2.74,4a15.93,15.93,0,0,1-2.21-3.82,1.32,1.32,0,0,1-.14-.8,1.24,1.24,0,0,1,.58-.68,9,9,0,0,1,3.41-1.43l-3.59-1.42c-.29-.12-.61-.27-.68-.58a1,1,0,0,1,.11-.64l1-2.44a1.69,1.69,0,0,1,.67-.94c.53-.27,1.14.15,1.6.54l3.47,2.92a40.93,40.93,0,0,1-.1-5.31,23.3,23.3,0,0,1,4,1.8l-1,3.66a22,22,0,0,1,3.39-2.71l1.91,3.49a1.09,1.09,0,0,1,.18.57c0,.38-.47.56-.82.66l-3.6,1a20.57,20.57,0,0,1,4.09,3.19c-.47.75-1,2.63-1.89,2.85-1.55.36-3.51-2.49-4.61-3.31.84,1.6.48,3.74.48,5.5,0,.39-3,0-3.46-1A10,10,0,0,1,170,194.8Z"/><path class="cls-3" d="M202,183.68a7.18,7.18,0,0,1-1.74-2.31l.53,4.81a16,16,0,0,1-4.16-1.44,1.35,1.35,0,0,1-.63-.52,1.22,1.22,0,0,1,0-.9,9.07,9.07,0,0,1,1.65-3.3L194,181.28a1,1,0,0,1-.89,0,1.07,1.07,0,0,1-.33-.56l-.84-2.5a1.71,1.71,0,0,1-.1-1.15c.23-.55,1-.63,1.57-.64l4.53-.05a40.09,40.09,0,0,1-3.54-3.95,23.36,23.36,0,0,1,4.22-1.27l1.65,3.41a22.56,22.56,0,0,1,.8-4.26l3.73,1.4a1,1,0,0,1,.5.31c.22.32,0,.73-.19,1l-2.1,3.08a20.92,20.92,0,0,1,5.19-.26c.12.88,1,2.63.42,3.4-.94,1.28-4.29.4-5.65.5,1.67.66,2.8,2.52,4,3.85.25.3-2.28,2-3.3,1.48A9.73,9.73,0,0,1,202,183.68Z"/><path class="cls-3" d="M187.15,246.81a7.22,7.22,0,0,1,1.48-2.49l-4.25,2.32a15.78,15.78,0,0,1-.25-4.4,1.49,1.49,0,0,1,.24-.78,1.25,1.25,0,0,1,.83-.35,9.18,9.18,0,0,1,3.69.27l-2.56-2.89a1,1,0,0,1-.34-.83,1,1,0,0,1,.39-.51l2-1.72a1.73,1.73,0,0,1,1-.54c.59,0,.95.65,1.19,1.21l1.76,4.17a39.62,39.62,0,0,1,2.32-4.77,24.08,24.08,0,0,1,2.77,3.42l-2.53,2.83a21.55,21.55,0,0,1,4.25-.88l.12,4a1,1,0,0,1-.1.58c-.21.33-.67.29-1,.22l-3.65-.77a20.31,20.31,0,0,1,2.2,4.69c-.76.45-2.05,1.9-3,1.68-1.54-.38-2-3.81-2.6-5,0,1.81-1.28,3.55-2.07,5.12-.18.35-2.74-1.34-2.62-2.49A9.88,9.88,0,0,1,187.15,246.81Z"/><path class="cls-3" d="M200.09,217.73A7.37,7.37,0,0,1,202.4,216l-4.81.52a15.71,15.71,0,0,1,1.45-4.16,1.35,1.35,0,0,1,.52-.63,1.22,1.22,0,0,1,.9,0,9.34,9.34,0,0,1,3.3,1.66l-1.26-3.65a1,1,0,0,1,0-.9,1.13,1.13,0,0,1,.55-.32l2.51-.83a1.65,1.65,0,0,1,1.15-.11c.55.23.63,1,.63,1.57l0,4.53a40.24,40.24,0,0,1,4-3.53,25.33,25.33,0,0,1,1.26,4.22L209.19,216a21.81,21.81,0,0,1,4.26.81l-1.4,3.72a1,1,0,0,1-.31.5c-.32.23-.73,0-1-.19l-3.08-2.1a19.94,19.94,0,0,1,.25,5.18c-.87.13-2.62,1-3.39.42-1.28-.94-.4-4.29-.49-5.65-.67,1.67-2.53,2.8-3.86,3.94-.3.26-2-2.28-1.47-3.3A10.16,10.16,0,0,1,200.09,217.73Z"/><path class="cls-3" d="M212.84,165.9a7,7,0,0,1-1.74-2.32l.53,4.82a15.65,15.65,0,0,1-4.17-1.45,1.38,1.38,0,0,1-.63-.51,1.22,1.22,0,0,1,0-.9,9.22,9.22,0,0,1,1.66-3.31l-3.65,1.27a1,1,0,0,1-.9,0,1,1,0,0,1-.32-.55l-.84-2.5a1.72,1.72,0,0,1-.11-1.15c.23-.56,1-.64,1.57-.65l4.53-.05a41.41,41.41,0,0,1-3.54-3.95,24.45,24.45,0,0,1,4.22-1.27l1.66,3.42a22,22,0,0,1,.79-4.27l3.73,1.4a1,1,0,0,1,.5.31c.23.32,0,.73-.18,1l-2.1,3.09a19.92,19.92,0,0,1,5.18-.26c.13.87,1,2.62.42,3.39-.94,1.29-4.28.41-5.65.5,1.68.67,2.81,2.53,4,3.86.25.29-2.29,2-3.31,1.47A10.09,10.09,0,0,1,212.84,165.9Z"/><path class="cls-3" d="M190.37,156.94a7.3,7.3,0,0,1-.93,2.74l3.67-3.16a15.91,15.91,0,0,1,1.16,4.26,1.32,1.32,0,0,1-.07.81,1.2,1.2,0,0,1-.73.51,9.23,9.23,0,0,1-3.67.51l3.11,2.29c.24.18.52.42.51.74a1.07,1.07,0,0,1-.27.58l-1.59,2.1a1.76,1.76,0,0,1-.89.74c-.59.12-1.07-.43-1.42-.93l-2.6-3.71a41.15,41.15,0,0,1-1.26,5.15,23.83,23.83,0,0,1-3.43-2.76l1.88-3.29a22.6,22.6,0,0,1-4,1.75l-1-3.87a1,1,0,0,1,0-.59c.14-.37.59-.43,1-.43h3.73a20.47,20.47,0,0,1-3.14-4.13c.65-.6,1.61-2.29,2.56-2.27,1.59.05,2.75,3.31,3.6,4.38-.39-1.76.5-3.73,1-5.43.1-.38,3,.74,3.08,1.89A10.2,10.2,0,0,1,190.37,156.94Z"/><path class="cls-3" d="M210.84,144.39a7.38,7.38,0,0,1,.19-2.89l-2.74,4a16.06,16.06,0,0,1-2.21-3.81,1.4,1.4,0,0,1-.14-.8,1.23,1.23,0,0,1,.58-.69,9.32,9.32,0,0,1,3.41-1.43l-3.59-1.42c-.28-.11-.61-.27-.68-.58a1.07,1.07,0,0,1,.11-.63l1-2.44a1.69,1.69,0,0,1,.67-.94c.53-.27,1.14.14,1.61.53l3.47,2.92a39.08,39.08,0,0,1-.11-5.3,24.14,24.14,0,0,1,4,1.79l-1,3.67a21.9,21.9,0,0,1,3.39-2.71l1.91,3.49a1,1,0,0,1,.18.56c0,.39-.46.57-.82.66l-3.6,1a20.55,20.55,0,0,1,4.1,3.19c-.48.74-1,2.62-1.9,2.84-1.55.36-3.51-2.49-4.61-3.31.84,1.6.48,3.75.48,5.5,0,.39-3,0-3.46-1A10,10,0,0,1,210.84,144.39Z"/><path class="cls-3" d="M245.88,151.27a7.21,7.21,0,0,1-1.73-2.31l.53,4.81a15.65,15.65,0,0,1-4.17-1.45,1.38,1.38,0,0,1-.63-.51,1.22,1.22,0,0,1,0-.9,9.36,9.36,0,0,1,1.65-3.31l-3.64,1.27a1,1,0,0,1-.9,0,1,1,0,0,1-.33-.55l-.83-2.5a1.66,1.66,0,0,1-.11-1.15c.23-.55,1-.64,1.57-.64l4.53-.06a39,39,0,0,1-3.54-3.95,23.57,23.57,0,0,1,4.22-1.26l1.65,3.41a22.81,22.81,0,0,1,.8-4.27l3.73,1.4a1,1,0,0,1,.5.31c.23.32,0,.73-.19,1l-2.09,3.08a20.37,20.37,0,0,1,5.18-.26c.13.88,1,2.62.42,3.39-.94,1.29-4.28.41-5.65.51,1.68.66,2.8,2.52,3.95,3.85.26.29-2.28,2-3.3,1.47A10.48,10.48,0,0,1,245.88,151.27Z"/><path class="cls-3" d="M228,196.4a7.44,7.44,0,0,1,1.48-2.49l-4.25,2.32a15.87,15.87,0,0,1-.24-4.41,1.37,1.37,0,0,1,.23-.77,1.18,1.18,0,0,1,.83-.35,9.15,9.15,0,0,1,3.69.27l-2.55-2.89a1,1,0,0,1-.35-.83,1.08,1.08,0,0,1,.39-.51l2-1.73a1.69,1.69,0,0,1,1-.53c.6,0,1,.64,1.19,1.21l1.77,4.17a40.44,40.44,0,0,1,2.31-4.78,24.16,24.16,0,0,1,2.77,3.43l-2.53,2.82a22.3,22.3,0,0,1,4.25-.88l.12,4a1,1,0,0,1-.1.59c-.2.32-.66.29-1,.21l-3.65-.77a20.83,20.83,0,0,1,2.21,4.7c-.77.45-2.06,1.9-3,1.68-1.55-.38-2-3.81-2.61-5,0,1.8-1.27,3.55-2.07,5.12-.17.35-2.73-1.34-2.62-2.5A10.77,10.77,0,0,1,228,196.4Z"/><path class="cls-3" d="M247,175.32a7.12,7.12,0,0,1,2.32-1.73l-4.82.52a16.52,16.52,0,0,1,1.45-4.17,1.38,1.38,0,0,1,.52-.62,1.22,1.22,0,0,1,.9,0,9.06,9.06,0,0,1,3.31,1.66l-1.27-3.65a1,1,0,0,1,0-.9,1,1,0,0,1,.56-.32l2.5-.84a1.72,1.72,0,0,1,1.15-.1c.55.23.63,1,.64,1.57l0,4.53a40.1,40.1,0,0,1,4-3.53,23.57,23.57,0,0,1,1.26,4.22l-3.42,1.65a22.81,22.81,0,0,1,4.27.8l-1.41,3.73a1.09,1.09,0,0,1-.31.5c-.32.22-.73,0-1-.19l-3.08-2.1a20.84,20.84,0,0,1,.25,5.18c-.88.12-2.63,1-3.4.41-1.28-.94-.39-4.28-.49-5.65-.67,1.68-2.53,2.8-3.86,3.95-.29.25-2-2.29-1.47-3.3A9.81,9.81,0,0,1,247,175.32Z"/></g><path class="cls-5" d="M191.84,30.86c.84-1,1-2.88,1.73-4.19.82-1.56,2.69-2.61,4.24-1.33s.25,4.09,1.35,5c1.88,1.62,3.66-3,4.88-3.85,1.61-1.15,4.45-1.46,5.51.76,1.47,3.08-2.24,1.69-3.72,2.88-1.16.93-2.13,3.29-.46,4.16s3.86-1.83,5.19-2.44c2-.92,5.38-2.8,6.26.5.59,2.22-1.55,3.75-3.29,4.16,1.28,1.27,3.53,2.38,4.48,3.92.55.89,1.06,2.44.2,3.3-1.32,1.33-1.41,0-2.44-.69-1.86-1.24-2-.84-3.21.34-1,1-.66,1.62-2.35,1-2-.81-2.87-4.22-5.52-3.74-.16,3.87.76,9.29-5,7.62-.79-.23-2.86-2-3.65-1.53-1,.62-.44,4-.82,5.09-1,2.75-2.77,2.74-4.81,1.33-2.83-2-2.68,7.3-1.55,7.7a.64.64,0,0,0,.84-.44,1.31,1.31,0,0,1-.3,1.88,1.82,1.82,0,0,1-2-.13c-1.5-1.12-.6-3.14-1.77-4.33-1-1-2.09-.64-3,.12-1.74,1.48-2.94,4.32-3.56,6.48-.43,1.5-.92,3.07-.08,4.52a4.8,4.8,0,0,1,.62,1.16c.28,1.08-.69,2-1.28,3a5.06,5.06,0,0,0-.77,3c.09,1.2.59,2.47,0,3.53-.45.86-1.5,1.33-1.8,2.26-.17.53-.06,1.12-.23,1.66a2.79,2.79,0,0,1-2.34,1.61,3.73,3.73,0,0,0-2.72,1.32c-1.15,1.43-.32,3.26-1.13,4.8-1.8,3.48-4.41.86-6.47-.41-3.65-2.26-6.67,3.15-9.84-1.17-1.39-1.9-.34-5.35-2.1-6.76s-3-.6-3.92-3.11c-1.06-3,1-4.74,1.51-7.47.46-2.48-3.55-10.59,1.58-10.74,1,0,2.43,1.07,3.5,1.31a8.33,8.33,0,0,0,4.12,0c5.38-1.92,3.88-9.15,5-13.31.61-2.31,1.77-4.48,4.25-4.93,1.28-.23,2.51.58,3.67.41,4.56-.68,3.8-9,4.8-12.21.85-2.75,4.15-5.49,7.16-5.45a5.86,5.86,0,0,1,3.64,1.62c.83.7,1.23,1.47,2.3,2C190.27,31.84,191.22,31.59,191.84,30.86Z"/><path class="cls-5" d="M205.36,55.16c0-.32,0-.58,0-.64-1.47.68-3.74.23-5.36.39a37.46,37.46,0,0,1-5.19,0c-3-.14-5.94-.09-9-.1a6.93,6.93,0,0,0-6,3.25c-1.88,2.63-3.38,5.49-5.22,8.12a1.45,1.45,0,0,0-.33.71c0,.51.45.89.88,1.17a1,1,0,0,0,.81.23,1,1,0,0,0,.49-.52c1.11-2,2.37-4,3.67-5.87,1.1-1.61,1.79-3.91,3.59-4.87,1.58-.84,3.37-.37,5.07-.35,2.14,0,4.36.08,6.5.24A51.36,51.36,0,0,0,201,56.8a10.91,10.91,0,0,1,1.83.27,12.85,12.85,0,0,0,2.63,0S205.38,55.92,205.36,55.16Z"/><path class="cls-4" d="M177.18,57.59c-1.46,3.67-.26,9.48,2.73,12.12,5.73,5.05,7.38-5.2,6.56-9.09-.49-2.3-1.37-6.46-4.15-6.71C180.09,53.71,178,55.64,177.18,57.59Z"/><path class="cls-4" d="M243.4,275.92c-5.62-10.25-10-18.18-10-18.19-3.59,2.23-8.58,5.15-12.69,6.16-2.56.62-7.87.44-7.23,4.73a6.41,6.41,0,0,0,1.46,2.66c4,5.44,4.28,12.68,6.92,18.87,3.32,7.78,10.07,13.45,16.09,19.39a94.44,94.44,0,0,1,16.58,21.27c2.2,4,3.57,8.13,5.24,12.33,1.43,3.64,5.15,4.64,9,4.92,3.41.25,6.67-1.86,8.62-4.67s2.81-6.23,3.4-9.6a2.22,2.22,0,0,0-.1-1.57,2.36,2.36,0,0,0-.92-.73c-5.47-3-8.64-5.19-11.75-10.74C266.29,317.62,253,293.41,243.4,275.92Z"/><path class="cls-4" d="M110.9,346.54c1.82,2.9,5.45,4.28,8.87,4.19s6.68-1.42,9.75-2.94c2.22-1.09,1-4.09.95-6.12a24.68,24.68,0,0,1,.84-8.21,34.06,34.06,0,0,1,3.29-6.86q9.92-17.39,18.29-35.57c1-2.27,2.07-4.55,3-6.85a80.34,80.34,0,0,0,4.59-14c.72-3.35,1.7-5.44-1.48-7.19-3-1.62-6.06-2.79-8.68-5-2.17-1.82-5-4.5-8.11-3.4-2.94,1-3.7,5.86-4.6,8.38-2.41,6.77-7.1,12.57-9.45,19.37-2.47,7.14-2.21,14.94-3.9,22.3a61.88,61.88,0,0,1-5.85,15.27,40.57,40.57,0,0,1-10.39,12.93,1.18,1.18,0,0,0-.41.45,1.22,1.22,0,0,0,0,.63C108.3,338.18,108.56,342.81,110.9,346.54Z"/><path class="cls-5" d="M236.23,256.42a2.53,2.53,0,0,0,.13.22c.19.34.43.66.61,1,.45.86.91,1.66,1.3,2.55a.3.3,0,0,1,0,.18.25.25,0,0,1-.11.14,7.43,7.43,0,0,1-.69.35,3.31,3.31,0,0,0-.44.39,13.21,13.21,0,0,1-3,1.66c-1.2.59-2.41,1.15-3.62,1.7-3.2,1.47-6.42,2.89-9.64,4.3q-5.21,2.25-10.42,4.43c-2.74,1.14-5.49,2.28-8.26,3.33-.21.07-3.07,1.26-3.19,1-.43-1-.94-1.94-1.3-2.93-.16-.43-.34-.83-.52-1.24a1.38,1.38,0,0,0-.24-.41,3.65,3.65,0,0,1-.54-.94c-.58-1.16-1.18-2.31-1.79-3.45q-2.25-4.17-4.8-8.16t-5.4-7.78C183.23,255,173,276,173.41,276.16c-3.54-1.38-7-2.89-10.56-4.29l-12-4.8-11.19-4.46c-1-.39-4.31-1.07-4.94-2,5.06-12.7,8.39-25.92,13.1-38.71a2,2,0,0,1,.65-1,1.91,1.91,0,0,1,1-.25,90.93,90.93,0,0,1,22.46,1.3,42.05,42.05,0,0,0,7.88,1.06,57.83,57.83,0,0,0,5.86-.58c5.61-.6,11.27,0,16.89-.43,4.85-.33,9.34-3.17,13.93-3.15,1.27,0,8.61,18,10.17,20.14a57.8,57.8,0,0,1,3.88,6c1.19,2.09,2.28,4.23,3.35,6.39a33.35,33.35,0,0,1,1.49,3.14A17.1,17.1,0,0,0,236.23,256.42Z"/><path class="cls-2" d="M143,223.47c-1.9-.5-3.61-2.34-5.26-2.63a11.18,11.18,0,0,0-1.83,0,12.7,12.7,0,0,1-5.41-1.64,82.43,82.43,0,0,0-7.85-2.78c-3-1.1-5.79-3.38-8.5-5.12a3.4,3.4,0,0,1-1.46-1.42,3.28,3.28,0,0,1,0-2c.87-3.82,2.47-7.16,3.87-10.78,1.15-3,1.58-6.3,2.45-9.43,1.42-5.18,2.86-10.4,5.25-15.2,1.83-3.67,3.59-8.24,5.79-11.61,1.78-2.73,3.06-2.1,6.26-.77,5.55,2.32,10.2,6.24,15.38,9.2,4.45,2.53,8.93,5.32,13.61,7.4,5.16,2.29,10.58,4.14,15.84,6.2a8.2,8.2,0,0,0,2,.59c4.36.45,8.46-3.47,11.86-5.59a131.35,131.35,0,0,1,14.52-7.43c4.84-2.23,9.54-4.75,14.18-7.38,3.73-2.12,8.14-7.21,11.62-2.7,4.94,6.43,7.76,16.94,10.73,24.47q4.95,12.57,8.84,25.52a3.08,3.08,0,0,1,.18,1.69c-.28,1-1.36,1.39-2.31,1.69l-13.56,4.32c-7.06,2.25-14.1,4.64-21.31,6.41a103,103,0,0,0-13.81,4.9c-4.38,1.76-8.93,2.62-13.48,3.92a18.94,18.94,0,0,1-5.24,1c-6.79,0-14.76-2.94-21.27-4.75C157.09,227.58,150.1,225.33,143,223.47Z"/><path class="cls-5" d="M194,197c-1,1.55-1.91,3.08-3,4.6-1.89,2.74-4.16,5.2-6.12,7.9-1.27,1.75-2.58,3.49-4,5.16a19.15,19.15,0,0,1-3.67,3.91c-2.86,2-6.68,3-10.06,1.82-4.74-1.65-5.22-7.79-5.78-12a50.13,50.13,0,0,1,1-17.26c.81,0,1.44.59,2.22.59a17.15,17.15,0,0,1,.42-1.75c.12-.48.86-2,.66-2.38s-.88-.4-1.2-.49a10.39,10.39,0,0,0-2.18-.61A9.78,9.78,0,0,1,160,186c-.8-.3-1.52-.8-2.31-1.13-.18,1-.75,2.14-.82,3.15,0,.4-.21.33,0,.65s1,.67,1.26.83a4.91,4.91,0,0,0,1.89.72c.12,1.86-.83,3.89-1,5.76s-.32,3.86-.32,5.79a78.32,78.32,0,0,0,.5,9.36,26,26,0,0,0,1.79,6.52,9.58,9.58,0,0,0,3.7,4.69,10.33,10.33,0,0,0,7.7.85,19.08,19.08,0,0,0,7.33-3.65,11,11,0,0,0,2-1.73c.58-.79,1.13-1.57,1.76-2.33,2.66-3.16,5.09-6.38,7.5-9.77a73.39,73.39,0,0,0,5.53-9.33c1-1.92,2.71-4.28,3-6.42a9.6,9.6,0,0,0,3.51-1.22,20.31,20.31,0,0,0-.95-3.54c0,.06-7.06,2.72-7.65,2.91a11.15,11.15,0,0,1,.23,3.11,8.08,8.08,0,0,0,2.34-.79,14.37,14.37,0,0,1-2.35,5.49Z"/><path class="cls-4" d="M200.22,192.3c-2.32-5.16-4.35-10.45-6.49-15.69-1.08-2.66-2.24-5.28-3.38-7.91-1-2.24-2.19-4.61-2.39-7.08a17.37,17.37,0,0,1,.15-3.22c.76-6.48,1.94-12.92,2.07-19.44a14.8,14.8,0,0,0-2.61-.49c-1.06,0-2.13.12-3.2.17-2.17.1-4.26-.77-6.41-1.14-1.72-.29-3.46-.36-5.19-.56-1.31-.15-3.42-1.15-3.62.8,0,2.22-.47,4.54-.68,6.76s-.46,4.64-.67,7c-.42,4.4-.74,8.79-1.24,13.19a7.52,7.52,0,0,0,0,2.17,7.19,7.19,0,0,0,1,2.36c1.63,2.84,3.11,5.94,5.15,8.48s3.77,5.83,5.6,8.67a223.38,223.38,0,0,1,14.31,24.71,16.77,16.77,0,0,1,1.74,5c.26,2,.08,3.9.81,5.79.87,2.27,2.3,4.26,3.36,6.44a20.62,20.62,0,0,0,2,3.89,4.19,4.19,0,0,0,3.81,1.77,2.47,2.47,0,0,0,2.14-1.77,6.42,6.42,0,0,0,.14-2.1,3.13,3.13,0,0,0,4.1.66,2.81,2.81,0,0,0,1.61-1.94,6,6,0,0,0,0-1.69c.1.82,1.88,1.39,2.5,1.4a3.22,3.22,0,0,0,3.19-2.16c.34-1.43-.38-2.93-1-4.15-1.07-2.27-2.44-4.21-3.27-6.61.1-.17.35-.08.51,0,1.29.82,4.54,2.18,5.23,3.64a7,7,0,0,0,1.93,1.31c1,.4,2.69.09,3.1-1.13s-1.1-2.91-1.88-3.83l-3.24-3.77a10.29,10.29,0,0,0-2.21-2.11c-1.55-1-3.47-1.05-5.25-1.49-3.8-.93-6-4.86-7.82-8.08C202.7,197.59,201.42,195,200.22,192.3Z"/><path class="cls-5" d="M229.94,221.41c-.44.08-.89.16-1.34.28-1.65-4-2.46-8.67-3.78-12.85-1.41-4.46-2.88-8.9-4.51-13.28-3.11-8.38-6.3-16.75-8.79-25.34q-9-30.87-19.8-61.18c-.81-2.25-1.5-4.41-2.48-6.62a3.28,3.28,0,0,0-.8-1.25,3.22,3.22,0,0,0-1.83-.53l-9.46-.76a2.78,2.78,0,0,0-3.53,2.23q-8.56,21.94-15.34,44.53c-1.74,5.79-4.23,11.32-6.06,17.09s-3.09,12-4.95,18L138.6,209.5c-1.13,3.62-3.26,7.89-3.44,11.65-.58-.65-8.2-2.36-8.16-2.54.49-2.4,1.48-4.78,2.13-7.17a50.9,50.9,0,0,1,2.64-7.78,79.81,79.81,0,0,0,4.24-11c.55-1.91.75-3.91,1.31-5.82s1.46-3.65,2.16-5.49.75-3.51,1.27-5.27c1.05-3.57,2.75-7.15,4-10.67,3-8.12,6-16.21,9-24.32q7.28-19.61,14.57-39.21a5.67,5.67,0,0,1,2-3.05c3.87-2.34,10.78-1.58,14.84-.4,2.53.73,5.9,1,7.94,2.79l.39.38a10.94,10.94,0,0,1,1.75,3.11c1.85,4.36,3.72,8.7,5.65,13,3.22,7.18,6,14.47,8.55,21.8,2.32,6.77,4.37,13.62,6.35,20.49,2.79,9.74,7.34,19.19,10.64,28.81,2.37,6.94,4.52,14,6.72,21l1.65,5.25c.53,1.65,1.16,3.29,1.64,5a14.67,14.67,0,0,0-3.46.79A21.79,21.79,0,0,1,229.94,221.41Z"/><path class="cls-5" d="M177.07,96.41c1.79.06,3.56.21,5.18.32a98.89,98.89,0,0,1,10.68,1.32A9.78,9.78,0,0,1,196,99c1.39.81,1.71,2.3.71,3.32a2.58,2.58,0,0,1-1.21.71,6.07,6.07,0,0,1-2.17,0c-7.46-.81-14.9-2.1-22.46-1.84-1.81.07-4,.08-4.91-1s.26-2.15,1.67-2.7A24.25,24.25,0,0,1,177.07,96.41Z"/><path class="cls-3" d="M178.77,97.6c1.27.05,2.51.13,3.65.19,2.54.15,5.05.38,7.51.69a9.9,9.9,0,0,1,2.16.45c1,.38,1.2,1.06.49,1.53a2.33,2.33,0,0,1-.85.31,6.52,6.52,0,0,1-1.53,0c-5.25-.44-10.48-1.08-15.79-1-1.28,0-2.86,0-3.46-.48s.2-1,1.19-1.23A25.76,25.76,0,0,1,178.77,97.6Z"/><path class="cls-5" d="M262.65,355.37a35.33,35.33,0,0,1-3-7.44,4.72,4.72,0,0,1-.25-2.72c-.49-.76-.28-1,.55-1.33a5.24,5.24,0,0,1,2.67-.1c3.88.45,8.16-.07,11-2.74a12.17,12.17,0,0,0,2.91-4.64,12.76,12.76,0,0,0,.76-5.77,3.93,3.93,0,0,1,.09-1.33,1.33,1.33,0,0,1,.87-.94,1.52,1.52,0,0,1,1.57.92,2,2,0,0,0,.41.62,1.41,1.41,0,0,0,.86.26c5.08.46,9.9-.12,14.94-.6,1.52-.14,3.05-.29,4.56-.52a15.74,15.74,0,0,0,5.45-1.82l1.71-.92c1.78-1,3.55-1.92,5.31-2.92a8.51,8.51,0,0,1,2.48-1.07,3,3,0,0,1,1.95.24c.69.37.8.87.86,1.62a5,5,0,0,1,0,1.39c-.17.78-.71,1.05-1.28,1.49-7.2,5.59-15,10-21.74,16.19a74.38,74.38,0,0,1-7.56,5.86l-9.24,6.55a39.66,39.66,0,0,1-4.55,2.94c-1.53.81-5,1.22-5.79,2.71A14.9,14.9,0,0,1,262.65,355.37Z"/><path class="cls-8" d="M272.13,356.4c-2,1.52-4.12,2.87-6.13,4.45a.43.43,0,0,0-.17.21.4.4,0,0,0,.13.33l3.86,4.84a12,12,0,0,1,2.76-2.36c4.09-2.87,8.26-5.64,12.23-8.67,2.77-2.12,5.67-4.07,8.26-6.41s5.22-3.89,8-6c.94-.71,7.61-5.45,13-9.54,4-3,7.26-5.69,7-6.1L318,322.31c-2.45,1.49-4.75,3.2-7,4.91-4.52,3.37-9.12,6.65-13.56,10.11-3.9,3.05-8.38,5.28-12,8.69a68.22,68.22,0,0,1-5.69,5.07C277.22,352.94,274.6,354.55,272.13,356.4Z"/><path class="cls-8" d="M294,329.77a4.1,4.1,0,0,1,.16,2.55c-.82,3.76-4.54,6.34-8.33,7-1.53.27-3.2.34-4.43,1.3s-1.68,2.43-2.26,3.81a21.48,21.48,0,0,1-8.3,9.73L268,352.5c3.93-.86,6.39-4.74,8-8.44,1-2.36,2-4.95,4.37-6.29,2.21-1.25,4.85-1.12,7.24-1.75,2-.53,3.09-1.51,3.36-3.63.06-.53,0-1.54.1-2.36Z"/><path class="cls-5" d="M102,339.23a35.54,35.54,0,0,1,4.52-6.62,4.76,4.76,0,0,1,2.13-1.73c.36-.82.66-.76,1.41-.27a5.35,5.35,0,0,1,1.57,2.16c1.78,3.48,4.59,6.75,8.39,7.64a12.08,12.08,0,0,0,5.48-.15,12.74,12.74,0,0,0,5.22-2.58,4.05,4.05,0,0,1,1.16-.66,1.34,1.34,0,0,1,1.27.21,1.52,1.52,0,0,1,.1,1.81,2.25,2.25,0,0,0-.29.68,1.46,1.46,0,0,0,.26.87,54.09,54.09,0,0,0,7.25,10.2c2.56,2.82,7,4.41,10.63,5.12,3,.58,7.17.29,8,4a.69.69,0,0,1,0,.35.66.66,0,0,1-.24.23c-1.46.89-4.38.44-6,.25-2.1-.25-4.13-.91-6.23-1.16a46.54,46.54,0,0,0-4.72-.18c-2.21-.06-4.41-.27-6.61-.5-4.72-.5-9.7-.66-14.17-2.31l-10.57-4.05a42.24,42.24,0,0,1-5-2.15c-1.52-.83-3.79-3.5-5.46-3.32A14.86,14.86,0,0,1,102,339.23Z"/><path class="cls-8" d="M122.39,352.94A69.5,69.5,0,0,1,115,351c-2.9-1-5.7-2.32-8.6-3.34-2.4-.85-4.68-1.84-7.11-2.63a.43.43,0,0,0-.27,0,.4.4,0,0,0-.2.29l-1.89,5.9a12.59,12.59,0,0,1,3.5,1c4.66,1.82,9.28,3.75,14,5.37,3.29,1.13,6.53,2.45,9.91,3.31a22.64,22.64,0,0,1,2.49,1,31.62,31.62,0,0,0,3.35.86c2.28.61,4.55,1.28,6.79,2a15.39,15.39,0,0,0,2.09.57c.42.06.84.09,1.26.11,3.5.22,7,.24,10.48.31,1.14,0,2.21-.19,3.35-.07a21.26,21.26,0,0,0,3.29,0c.58,0,1.29.32,1.82,0s.42-1,.45-1.6c.06-.91.13-1.82.13-2.74,0-.51-.06-1-.07-1.56a.28.28,0,0,0-.06-.2.22.22,0,0,0-.19,0c-1,0-1.92-.05-2.9,0a44.44,44.44,0,0,1-5.41-.16,40.58,40.58,0,0,1-4.14-.17,10.33,10.33,0,0,0-2.3-.09,30.69,30.69,0,0,1-3.59-.09,21.87,21.87,0,0,1-6.95-1.66A74.44,74.44,0,0,0,122.39,352.94Z"/><path class="cls-8" d="M140.7,351.1a4.09,4.09,0,0,1-2,1.54c-3.58,1.42-7.79-.25-10.47-3-1.08-1.12-2.06-2.47-3.53-3s-3,0-4.43.24a21.55,21.55,0,0,1-12.7-1.5l-.19-3.32c2.9,2.8,7.49,2.7,11.45,2,2.54-.46,5.24-1.07,7.66.14,2.27,1.14,3.63,3.41,5.48,5.05,1.56,1.38,3,1.73,4.88.78.48-.24,1.27-.88,2-1.23Z"/><path class="cls-5" d="M181.69,137.27a24.82,24.82,0,0,0,5.18.41,14.27,14.27,0,0,1,1.46-.07c1,0,3.66,1.36,3.95.36.06-.2.1-.4.15-.6a65.57,65.57,0,0,1,1.55-6.58c.75,1.28.62,3.06.57,4.48,0,.77-.17,1.52-.2,2.31,0,1-.1,1.94-.17,2.91a.37.37,0,0,1-.05.18.41.41,0,0,1-.17.15,6.49,6.49,0,0,1-2,.55,16.69,16.69,0,0,0-1.27,3.1c-.18.58-.41,1.14-.63,1.7a7.24,7.24,0,0,0-.59,1.65l.59-6.13a2.45,2.45,0,0,0-.72-2.11c-1-.92-4.25.12-5.43,0A66.65,66.65,0,0,1,176,138c-1-.21-2-.39-3-.52-.82-.1-3.17-.54-3.61.44a3.23,3.23,0,0,0-.16.81.18.18,0,0,1-.06.14.2.2,0,0,1-.11,0,5.17,5.17,0,0,1-2.48-1l-.76-.49a3,3,0,0,1,.86-.93,1.82,1.82,0,0,1,.72-.42,10.49,10.49,0,0,1,2.62.11l2.22.15c2.54.18,5,.61,7.59.81C180.45,137.1,181.07,137.18,181.69,137.27Z"/><path class="cls-2" d="M236.83,257.39c-.57.32-1.19.6-1.76.85-1.06.45-2.17.77-3.22,1.23-3.47,1.5-6.91,3-10.35,4.6l-5,2.24L212.69,268c-3.71,1.68-7.4,3.38-11.1,5.09l-3.92,1.8-.9-1.88a28.35,28.35,0,0,1,6.52-4c1.33-.52,2.72-.86,4.07-1.34,5.54-2,10-6.33,15.67-8a43.2,43.2,0,0,0,4.2-1.26,29.67,29.67,0,0,0,3.59-2.05,28.49,28.49,0,0,1,4.45-2.15Z"/><path class="cls-2" d="M135.61,258.16a12.58,12.58,0,0,0,1.5.56c1.09.38,2.22.61,3.31,1,3.57,1.23,7.12,2.51,10.67,3.79l5.13,1.85,4,1.43c3.83,1.38,7.64,2.8,11.46,4.21l3.4,1.26.92-2a24.26,24.26,0,0,0-6.32-3.15c-1.37-.42-2.79-.65-4.17-1-5.68-1.55-10.5-5.54-16.24-6.81a41.45,41.45,0,0,1-4.29-.93,31,31,0,0,1-3.74-1.76,24.94,24.94,0,0,0-4.36-1.74Z"/><path class="cls-5" d="M145.7,267.87l1.54,1.11a85.55,85.55,0,0,0,11.78,7,21.6,21.6,0,0,1,.66-2.36c.25-1,.52-1.95.78-2.93a9.39,9.39,0,0,0-1.28-.84c-.36-.15-.73-.2-1.09-.39a12,12,0,0,0-2.26-1.21,12.2,12.2,0,0,0-1.35-.2,9.13,9.13,0,0,1-1.85-.54c-2.74-1.06-5.27-2.61-7.95-3.82-1.26-.57-2.55-1.06-3.84-1.55a8.89,8.89,0,0,0-1.76-.65c-.51-.08-.8-.05-1,.4a5.3,5.3,0,0,0-.55,1.45,39.2,39.2,0,0,1,7.16,3.85C145,267.38,145.35,267.63,145.7,267.87Z"/><path class="cls-5" d="M232.25,265.42a12.3,12.3,0,0,0,3.21-1.88,3.47,3.47,0,0,1,.37-.26,2.11,2.11,0,0,0,.32-.35.16.16,0,0,0,0-.1.24.24,0,0,0,0-.08,8.87,8.87,0,0,0-.67-1.3,1.28,1.28,0,0,0-.6.13l-.64.23-1.28.5c-.84.35-1.68.71-2.53,1-1.56.61-3.21,1-4.81,1.46a36.76,36.76,0,0,0-6.15,2.64c-1,.52-2,1.07-2.94,1.64a8.55,8.55,0,0,1-1.28.65c-.34.12-.95.21-.76.71A14.17,14.17,0,0,0,216,273.1a24.32,24.32,0,0,1,1.34,2.52l.12.23c0,.06.06.12.12.12a.17.17,0,0,0,.11-.06c.72-.69,1.42-1.4,2.07-2.15a18.06,18.06,0,0,1,2.42-1.88c.54-.43,1.11-.81,1.68-1.19l2.72-1.82A60.31,60.31,0,0,1,232.25,265.42Z"/></g></g></svg>