<?xml version="1.0" encoding="utf-8"?>
<!-- Generator: Adobe Illustrator 24.2.1, SVG Export Plug-In . SVG Version: 6.00 Build 0)  -->
<svg version="1.1" id="Layer_1" xmlns="http://www.w3.org/2000/svg" xmlns:xlink="http://www.w3.org/1999/xlink" x="0px" y="0px"
	 viewBox="0 0 391 391" style="enable-background:new 0 0 391 391;" xml:space="preserve">
<style type="text/css">
	.st0{fill:#FFFFFF;}
	.st1{fill:#B0CFE0;}
	.st2{fill:#80BDE3;}
	.st3{fill:#0F4263;}
	.st4{clip-path:url(#SVGID_2_);}
	.st5{fill:none;stroke:#0F4263;stroke-width:3;stroke-miterlimit:10;}
	.st6{fill:#1F78B0;}
	.st7{clip-path:url(#SVGID_4_);}
</style>
<g id="Layer_2_1_">
	<g id="Layer_1-2">
		<rect class="st0" width="391" height="391"/>
		<path class="st1" d="M70.2,356.3c4.7-0.3,9.9,1.7,13.8-1.1c1.6-1.2,2.1-4.2,3.9-5.2c3.9-2,14.1,0.1,18.3,0.8
			c6.6,1.2,13,3.2,19.7,2.6c11.3-0.9,22.7-2.4,34.1-2.7c9.1-0.3,13.8-5.7,22.6-7.4s11.5,3.5,19.3,5.5c5.9,1.5,12.6,2.3,18.7,3.3
			c14.3,2.3,27.1,0.7,41.5,2.3c5.5,0.6,11.5,3.7,16.2,6.4c6.9,3.8,14.8,2.7,22.5,1.9c9.1-0.9,32.1-4.9,38.7,2.6
			c2.5,2.8-10.2,1.4-10.5,1.4c-7.2-0.4-14.7,1.4-21.9,1.6c-6.3,0.1-12.2,0.8-18.4,0.5c-9.6-0.2-19.2,0.4-28.6,1.9
			c-9.2,1.3-1.6,4.7-5.2,9.6c-4.1,5.7-19.6-1.4-26.2-0.5c-6.9,0.9-12.8-0.1-19.5-0.4c-7.8-0.3-15.6,1.2-23.4,0.9
			c-9.7-0.5-19.3-1.2-29-1.4c-5-0.1-10-0.4-15-0.3c-3.5,0.1-9.9,2.4-12.9,1.8c-6.9-1.4-5.5-10.9-10.7-14.3c-3.8-2.4-10-0.9-14.3-0.8
			c-8.3,0.2-16.8,0-24.9-2c-5.5-1.4-11.1-2-16.8-1.7c-2.5,0.1-6.9,1.5-8.8-0.9C47.9,354.6,67.8,356.5,70.2,356.3z"/>
		<path class="st2" d="M33.1,165.4c-1.5-1.5-3-2-4.5-3.4c-0.5-0.4-0.9-0.9-1.1-1.5c-0.2-0.9,0.1-1.8,0.8-2.4
			c1.6-1.4,3.4-2.6,5.4-3.5c6.8-3.5,14-6.3,21.5-8.3c1.8-0.5,3.5-1,5.3-1.5c6.4-2.4,12.9-4.5,19.5-6.3c7.4-2,14.7-5,22.1-6.7
			c18.7-4.2,37.7-6.9,56.9-8.1c20.9-1.4,41.9-0.9,62.8-0.4c36.3,0.8,72,9.9,104.3,26.5c7.7,4,15.2,8.5,22.5,13.4
			c1.9,1.3,3.7,2.7,5.5,4.2c0.5,0.4,1.2,0.8,1.8,1.2c1.6,1,3.2,2.2,4.7,3.4c0.8,0.7,2.8,1.7,2.9,2.9c0.1,1-2.3,2.6-3.1,3.2
			c-1.2,1.1-2.6,2-4,2.8c-2.6,1.8-5.1,3.8-7.7,5.5c-7.2,4.9-14.7,9.3-22.4,13.3c-15.5,8-31.9,14.3-48.8,18.7
			c-18.1,4.8-36.8,7.4-55.5,7.8c-20.9,0.4-41.9,0.9-62.8-0.4c-19.1-1.2-38.2-3.9-56.9-8.1c-7.4-1.7-14.6-4.7-22.1-6.7
			c-6.6-1.8-13.1-3.9-19.5-6.3l-5.3-1.5c-7-2-14.2-3.8-20.8-7c-2.5-1.2-5.9-2.5-6.8-5.2s1.8-4.8,3.8-6c1.5-1,2.9-2.2,4.3-3.4
			c0.7-0.6,7.9-7.5,8.1-7.4C40,171.6,36.4,168.6,33.1,165.4z"/>
		<path class="st3" d="M202.1,92.8c0.5,2.9,0.9,5.9,1.1,8.9c0-0.6-3.9-3.4-4.5-4c-2.8-3.1-5-6.8-7.4-10.2L202,92
			C202,92.3,202,92.6,202.1,92.8z"/>
		<path class="st2" d="M209,41c1.6,1.8,2.6,4,3,6.4c0.2,1.1,0.4,2.2,0.5,3.4c0,1.3,0.1,2.6,0.3,3.8c0.2,0.8,0.6,1.6,1,2.3
			c1.2,2.2,2.9,4.1,4.2,6.3c0.6,1,2,3.2,1.3,4.2c-1.1,1.6-4.9,1.4-6.5,2.2c-0.3,3.2-1,6.1-1.4,9.2c-0.4,2.4-1,4.9-4,4.6
			c-3.4-0.3-5.8-1-8.9,0.9c-2.6,1.6-3,4.7-3.9,7.4c-0.5,1.5-0.5,2.7-2.4,2.8c-1.3,0.1-2.9-1-4.1-1.6c-4.4-2.4-9-6.7-13.9-8
			c1.9-1.8,2.4-5.3,2.9-7.8c0.4-1.5,0.6-3.1,0.5-4.7c-0.6-5.6-4.7-10.6-4.5-16.5c0.4-10.3,9-18.1,18.8-18.6
			c5.8-0.3,11.6-1.2,16.3,2.9C208.5,40.6,208.8,40.8,209,41z"/>
		<path class="st3" d="M212.7,52c0.2,0,0.3,0,0.5,0c0.5,0,1.2,0.1,1.4,0.6c0.1,0.2,0.1,0.4,0.1,0.5c0,0.9,0.1,1.8,0.1,2.7
			c0.1,0.9,0.1,1.7,0,2.6c-0.4-0.1-0.6-0.7-0.8-1c-0.3-0.4-0.5-0.9-0.8-1.4c-0.3-0.7-0.5-1.4-0.6-2.2
			C212.5,53.4,212.1,52.3,212.7,52L212.7,52z"/>
		<path class="st3" d="M205,53c0-0.3,0-0.6,0-0.8c1.1-0.5,1.9,0,3.1-0.1c0.9,0.1,1.7,0,2.6-0.1c0.5-0.2,0.4,4.2,0.4,4.6
			c0.1,2.1-0.1,4.3-0.7,6.3c-0.8,2.5-4.2,3.5-5.1,0.5c-0.5-1.7-0.2-4.1-0.2-5.8C205.2,56,205,54.4,205,53z"/>
		<path class="st3" d="M212.1,74.9l-1.3-0.2c-0.9-0.2-1.9-0.4-2.7-0.8c-0.9-0.4-1.8-0.9-2.6-1.6c-0.7-0.6-1.2-1.4-1.6-2.2
			c-0.1-0.2-0.1-0.3-0.1-0.5c0-0.2,0.1-0.4,0.3-0.4c0.2,0.3,0.5,0.6,0.8,0.9c0.2,0.2,0.4,0.4,0.6,0.6c0.4,0.3,0.8,0.6,1.3,0.9
			c0.5,0.3,1.1,0.6,1.7,0.9c0.5,0.3,1.1,0.5,1.6,0.8l0.4,0.1c0.3,0.1,0.6,0.1,0.9,0.2c0.3,0.1,0.7,0.1,1,0.1c0,0.2,0,0.4-0.1,0.5
			L212.1,74.9z"/>
		<path class="st3" d="M212.3,54c0.6,0,1.2,0.4,1.2,0.8c0,0.2-0.1,0.3-0.3,0.3c-0.2,0-0.3-0.1-0.4-0.2c-0.3-0.1-0.6-0.1-0.9,0
			c-0.3,0.1-0.5,0.2-0.7,0.4c-0.1,0.1-0.1,0.1-0.2,0.2c-0.1,0-0.2,0-0.3,0c-0.3-0.1-0.2-0.9,0-1.1C211.2,54.1,211.7,54,212.3,54z"/>
		<g>
			<defs>
				<path id="SVGID_1_" d="M33.1,165.4c-1.5-1.5-3-2-4.5-3.4c-0.5-0.4-0.9-0.9-1.1-1.5c-0.2-0.9,0.1-1.8,0.8-2.4
					c1.6-1.4,3.4-2.6,5.4-3.5c6.8-3.5,14-6.3,21.5-8.3c1.8-0.5,3.5-1,5.3-1.5c6.4-2.4,12.9-4.5,19.5-6.3c7.4-2,14.7-5,22.1-6.7
					c18.7-4.2,37.7-6.9,56.9-8.1c20.9-1.4,41.9-0.9,62.8-0.4c36.3,0.8,72,9.9,104.3,26.5c7.7,4,15.2,8.5,22.5,13.4
					c1.9,1.3,3.7,2.7,5.5,4.2c0.5,0.4,1.2,0.8,1.8,1.2c2.9,1.8,5.5,4,7.9,6.4c-1.2,1-2.2,2.2-3.4,3.1c-1.2,1.1-2.6,2-4,2.8
					c-2.6,1.8-5.1,3.8-7.7,5.5c-7.2,4.9-14.7,9.3-22.4,13.3c-15.5,8-31.9,14.3-48.8,18.7c-18.1,4.8-36.8,7.4-55.5,7.8
					c-20.9,0.4-41.9,0.9-62.8-0.4c-19.1-1.2-38.2-3.9-56.9-8.1c-7.4-1.7-14.6-4.7-22.1-6.7c-6.6-1.8-13.1-3.9-19.5-6.3l-5.3-1.5
					c-7-2-14.2-3.8-20.8-7c-2.5-1.2-5.9-2.5-6.8-5.2s1.8-4.8,3.8-6c1.5-1,2.9-2.2,4.3-3.4c0.7-0.6,7.9-7.5,8.1-7.4
					C40,171.6,36.4,168.6,33.1,165.4z"/>
			</defs>
			<clipPath id="SVGID_2_">
				<use xlink:href="#SVGID_1_"  style="overflow:visible;"/>
			</clipPath>
			<g class="st4">
				<path class="st5" d="M400.6,181.2h-47.2c-7.3,0-14.6-0.3-21.9-0.4c-3.7-0.1-7.5-0.1-11.2-0.1c-2.7,0-5.2,0.6-7.9,0.6
					c-6.8,0-13.3-0.1-20.1-0.6c-13.5-1.1-27-0.2-40.4,0.8c-5.9,0.4-11.9-0.1-17.9-0.1H115.4c-5.7,0-11.4-0.2-17.2-0.1
					s-11.4,0.1-17.2,0.2s-11.8,0.9-17.6,0.6c-7.5-0.5-15-0.7-22.6-0.4c-3.4,0.2-7,1-10.4,0.6c-3.6-0.5-7.3-0.8-10.9-0.9H15"/>
				<path class="st5" d="M401.9,168.2h-76.4c-5.1,0-10.3-0.4-15.3,0.4s-10.3-0.2-15.2-0.4c-11.4-0.3-22.9-0.1-34.3-0.1H157.2
					c-12.1,0-24.2,0.1-36.3-0.2c-6-0.2-12.2,0.7-18.3,0.8s-12.3,0-18.4-0.4c-9.2-0.5-18.3-0.6-27.5-0.7c-13.5-0.3-27,0.6-40.4,0.6"
					/>
			</g>
		</g>
		<path class="st2" d="M188.6,75.2h-0.2"/>
		<path class="st6" d="M215,190.9c-0.1-4.8-0.1-9.7-0.6-14.4c-0.8-8.6-2.9-17.2-4.1-25.7c-1.2-8.3-3.4-16.5-4.9-24.7
			c-0.9-4.7-1.1-9.5-2.4-14.3c-0.8-3.4-1.9-6.8-3.5-9.9c0.8,0.5,1.5,1,2.2,1.5c-0.1-3.3-0.4-6.6-0.9-9.9c-0.2-1.3-4.4-2.2-5.5-2.9
			c-0.9-0.6-1.9-1-2.9-1.3c-3.4-1.4-6.7-3.2-9.7-5.2c-1.7-1.1-3.3-2.3-5-3.3c-1.1-0.8-2.3-1.5-3.5-2.1c-0.4-0.2-0.9-0.3-1.3-0.3
			c-1.5,0-1.8,1.7-2.3,2.9c-0.2,0.6-2.2,5.2-1.7,5.5l0.2,0.2c-0.2,0.2-0.4,0.3-0.5,0.5c-7.1,7.9-9.9,22-11.2,32.2
			c-1.2,9.8-4.7,19.5-4.8,29.4c-0.1,6-1.2,11.6-1.8,17.5c-0.8,7.6-0.6,15.3-1.2,22.9c-0.8,8.4-2,16.9-3.3,25
			c5.7-1.7,12.4,0.7,18.4,0.4c7.4-0.4,13.3-1.5,20.7-0.2c5.7,0.9,10.5-2.1,16.2-1.5c2.6,0.3,5.3,1.2,7.9,1c2.2-0.2,4.2-1.5,6.4-1.6
			C216.5,205.5,215.2,197.9,215,190.9z"/>
		<g>
			<defs>
				<path id="SVGID_3_" d="M215,190.6c-0.1-4.8-0.1-9.7-0.6-14.4c-0.8-8.6-2.9-17.2-4.1-25.7c-1.2-8.3-3.4-16.5-4.9-24.8
					c-0.9-4.7-1.1-9.5-2.4-14.3c-0.8-3.4-1.9-6.7-3.5-9.9c0.8,0.5,1.5,1,2.2,1.5c-0.1-3.3-0.4-6.6-1-9.9c-0.2-1.3-4.4-2.2-5.5-2.9
					c-0.9-0.6-1.9-1-2.9-1.3c-3.4-1.4-6.7-3.2-9.7-5.2c-1.7-1.1-3.3-2.3-5-3.3c-1.1-0.8-2.3-1.5-3.5-2.1c-0.4-0.2-0.9-0.3-1.3-0.3
					c-1.5,0-1.8,1.7-2.3,2.9c-0.2,0.6-2.2,5.2-1.7,5.5l0.3,0.2c-0.2,0.2-0.4,0.3-0.5,0.5c-7.1,7.9-9.9,22-11.1,32.2
					c-1.2,9.8-4.7,19.5-4.9,29.4c-0.2,13.5-1.8,27-3,40.4c-0.8,8.3-2,16.8-3.3,25c5.7-1.7,12.4,0.7,18.4,0.4
					c7.4-0.4,13.3-1.5,20.7-0.3c5.7,0.9,10.5-2.1,16.2-1.5c2.6,0.3,5.3,1.2,7.9,1c2.2-0.2,4.2-1.5,6.4-1.6
					C216.5,205.2,215.2,197.6,215,190.6z"/>
			</defs>
			<clipPath id="SVGID_4_">
				<use xlink:href="#SVGID_3_"  style="overflow:visible;"/>
			</clipPath>
			<g class="st7">
				<path class="st1" d="M132.8,165.6c-0.7-0.6-1.3-1.4-1.7-2.3l0.5,4.8c-1.4-0.3-2.8-0.8-4.2-1.4c-0.3-0.1-0.5-0.3-0.6-0.5
					c-0.1-0.3-0.1-0.6,0-0.9c0.3-1.2,0.9-2.3,1.7-3.3l-3.6,1.3c-0.3,0.1-0.6,0.1-0.9,0c-0.2-0.1-0.3-0.3-0.3-0.6l-0.8-2.5
					c-0.2-0.4-0.2-0.8-0.1-1.1c0.2-0.6,1-0.6,1.6-0.6h4.5c-1.3-1.3-2.5-2.6-3.5-4c1.4-0.6,2.8-1,4.2-1.3l1.6,3.4
					c0.1-1.4,0.4-2.9,0.8-4.3l3.7,1.4c0.2,0.1,0.4,0.2,0.5,0.3c0.2,0.3,0,0.7-0.2,1l-2.1,3.1c1.7-0.3,3.4-0.4,5.2-0.2
					c0.1,0.9,1,2.6,0.4,3.4c-0.9,1.3-4.3,0.4-5.6,0.5c1.7,0.7,2.8,2.5,3.9,3.9c0.3,0.3-2.3,2-3.3,1.5
					C133.8,166.6,133.2,166.1,132.8,165.6z"/>
				<path class="st1" d="M106.3,158.6c-0.1,1-0.4,1.9-0.9,2.7l3.7-3.2c0.6,1.4,1,2.8,1.2,4.2c0.1,0.3,0,0.6-0.1,0.8
					c-0.2,0.3-0.4,0.4-0.7,0.5c-1.2,0.4-2.4,0.6-3.7,0.5l3.1,2.3c0.3,0.2,0.5,0.4,0.5,0.7c0,0.2-0.1,0.4-0.3,0.6l-1.6,2.1
					c-0.2,0.3-0.5,0.6-0.9,0.7c-0.6,0.1-1.1-0.4-1.4-0.9l-2.6-3.7c-0.3,1.7-0.7,3.5-1.3,5.1c-1.2-0.8-2.4-1.7-3.4-2.8l1.9-3.3
					c-1.3,0.7-2.6,1.3-4,1.8l-1-3.9c-0.1-0.2-0.1-0.4,0-0.6c0.1-0.4,0.6-0.4,1-0.4h3.7c-1.2-1.2-2.3-2.6-3.1-4.1
					c0.7-0.6,1.6-2.3,2.6-2.3c1.6,0.1,2.8,3.3,3.6,4.4c-0.4-1.8,0.5-3.7,1-5.4c0.1-0.4,3,0.7,3.1,1.9
					C106.6,157.2,106.5,157.9,106.3,158.6z"/>
				<path class="st1" d="M122.8,137.1c-0.1-1-0.1-1.9,0.2-2.9l-2.7,4c-0.9-1.2-1.7-2.4-2.2-3.8c-0.1-0.2-0.2-0.5-0.1-0.8
					c0.1-0.3,0.3-0.5,0.6-0.7c1-0.7,2.2-1.2,3.4-1.4l-3.6-1.4c-0.3-0.1-0.6-0.3-0.7-0.6c0-0.2,0-0.4,0.1-0.6l1-2.4
					c0.1-0.4,0.3-0.7,0.7-0.9c0.5-0.3,1.1,0.2,1.6,0.5l3.5,2.9c-0.1-1.8-0.2-3.5-0.1-5.3c1.4,0.5,2.7,1.1,4,1.8l-1,3.7
					c1-1,2.2-1.9,3.4-2.7l1.9,3.5c0.1,0.2,0.2,0.4,0.2,0.6c0,0.4-0.5,0.6-0.8,0.7l-3.6,1c1.5,0.9,2.9,1.9,4.1,3.2
					c-0.5,0.8-1,2.6-1.9,2.9c-1.6,0.4-3.5-2.5-4.6-3.3c0.8,1.6,0.5,3.7,0.5,5.5c0,0.4-3,0-3.5-1
					C122.8,138.5,122.8,137.8,122.8,137.1z"/>
				<path class="st1" d="M157.8,143.9c-0.7-0.6-1.3-1.4-1.7-2.3l0.5,4.8c-1.4-0.3-2.8-0.8-4.2-1.4c-0.3-0.1-0.5-0.3-0.6-0.5
					c-0.1-0.3-0.1-0.6,0-0.9c0.3-1.2,0.9-2.3,1.6-3.3l-3.6,1.3c-0.3,0.1-0.6,0.1-0.9,0c-0.2-0.1-0.3-0.3-0.3-0.6l-0.8-2.5
					c-0.2-0.4-0.2-0.8-0.1-1.2c0.2-0.6,1-0.6,1.6-0.6l4.5-0.1c-1.3-1.2-2.4-2.6-3.5-3.9c1.4-0.6,2.8-1,4.2-1.3l1.6,3.4
					c0.1-1.4,0.4-2.9,0.8-4.3l3.7,1.4c0.2,0.1,0.4,0.2,0.5,0.3c0.2,0.3,0,0.7-0.2,1l-2.1,3.1c1.7-0.3,3.4-0.4,5.2-0.3
					c0.1,0.9,1,2.6,0.4,3.4c-0.9,1.3-4.3,0.4-5.6,0.5c1.7,0.7,2.8,2.5,3.9,3.9c0.2,0.3-2.3,2-3.3,1.5
					C158.8,144.9,158.3,144.5,157.8,143.9z"/>
				<path class="st1" d="M143.9,189.1c0.3-0.9,0.8-1.8,1.5-2.5l-4.2,2.3c-0.3-1.4-0.4-2.9-0.2-4.4c0-0.3,0.1-0.5,0.2-0.8
					c0.2-0.2,0.5-0.3,0.8-0.4c1.2-0.2,2.5-0.1,3.7,0.3l-2.6-2.9c-0.2-0.2-0.4-0.5-0.3-0.8c0.1-0.2,0.2-0.4,0.4-0.5l2-1.7
					c0.3-0.3,0.6-0.5,1-0.5c0.6,0,0.9,0.6,1.2,1.2l1.8,4.2c0.7-1.6,1.4-3.2,2.3-4.8c1,1.1,2,2.2,2.8,3.4l-2.5,2.8
					c1.4-0.4,2.8-0.7,4.2-0.9l0.1,4c0,0.2,0,0.4-0.1,0.6c-0.2,0.3-0.7,0.3-1,0.2l-3.6-0.8c0.9,1.5,1.7,3,2.2,4.7
					c-0.8,0.4-2.1,1.9-3,1.7c-1.5-0.4-2-3.8-2.6-5c0,1.8-1.3,3.6-2.1,5.1c-0.2,0.3-2.7-1.4-2.6-2.5
					C143.4,190.4,143.6,189.7,143.9,189.1z"/>
				<path class="st1" d="M158.9,165c0.6-0.7,1.4-1.3,2.3-1.7l-4.8,0.5c0.3-1.4,0.8-2.8,1.4-4.2c0.1-0.3,0.3-0.5,0.5-0.6
					c0.3-0.1,0.6-0.1,0.9,0c1.2,0.3,2.3,0.9,3.3,1.7l-1.3-3.6c-0.1-0.3-0.1-0.6,0-0.9c0.1-0.2,0.3-0.3,0.6-0.3l2.5-0.8
					c0.4-0.2,0.8-0.2,1.1-0.1c0.6,0.2,0.6,1,0.6,1.6l0.1,4.5c1.3-1.3,2.6-2.5,4-3.5c0.5,1.4,1,2.8,1.2,4.2l-3.4,1.6
					c1.4,0.1,2.9,0.4,4.3,0.8l-1.4,3.7c-0.1,0.2-0.2,0.4-0.3,0.5c-0.3,0.2-0.7,0-1-0.2l-3.1-2.1c0.3,1.7,0.4,3.5,0.2,5.2
					c-0.9,0.1-2.6,1-3.4,0.4c-1.3-0.9-0.4-4.3-0.5-5.6c-0.7,1.7-2.5,2.8-3.9,4c-0.3,0.2-2-2.3-1.5-3.3
					C157.9,166,158.3,165.5,158.9,165z"/>
				<path class="st1" d="M173.6,115.2c-0.7-0.6-1.3-1.4-1.7-2.3l0.5,4.8c-1.4-0.3-2.9-0.8-4.2-1.4c-0.3-0.1-0.5-0.3-0.6-0.5
					c-0.1-0.3-0.1-0.6,0-0.9c0.3-1.2,0.9-2.3,1.7-3.3l-3.6,1.3c-0.3,0.1-0.6,0.1-0.9,0c-0.2-0.1-0.3-0.3-0.3-0.6l-0.8-2.5
					c-0.2-0.4-0.2-0.8-0.1-1.2c0.2-0.6,1-0.6,1.6-0.6h4.5c-1.3-1.3-2.4-2.6-3.5-4c1.4-0.6,2.8-1,4.2-1.3l1.6,3.4
					c0.1-1.4,0.4-2.9,0.8-4.3l3.7,1.4c0.2,0.1,0.4,0.2,0.5,0.3c0.2,0.3,0,0.7-0.2,1l-2.1,3.1c1.7-0.3,3.4-0.4,5.2-0.3
					c0.1,0.9,1,2.6,0.4,3.4c-0.9,1.3-4.3,0.4-5.6,0.5c1.7,0.7,2.8,2.5,3.9,3.8c0.3,0.3-2.3,2-3.3,1.5
					C174.7,116.1,174.1,115.7,173.6,115.2z"/>
				<path class="st1" d="M147.1,108.2c-0.1,1-0.4,1.9-0.9,2.7l3.7-3.2c0.6,1.4,1,2.8,1.2,4.2c0.1,0.3,0,0.6-0.1,0.8
					c-0.2,0.3-0.4,0.4-0.7,0.5c-1.2,0.4-2.4,0.6-3.7,0.5l3.1,2.3c0.2,0.2,0.5,0.4,0.5,0.7c0,0.2-0.1,0.4-0.3,0.6l-1.6,2.1
					c-0.2,0.3-0.5,0.6-0.9,0.7c-0.6,0.1-1.1-0.4-1.4-0.9l-2.6-3.7c-0.3,1.7-0.7,3.5-1.3,5.2c-1.2-0.8-2.4-1.7-3.4-2.8l1.9-3.3
					c-1.3,0.7-2.6,1.3-4,1.8l-0.9-3.9c-0.1-0.2-0.1-0.4,0-0.6c0.1-0.4,0.6-0.4,1-0.4h3.7c-1.2-1.2-2.3-2.6-3.1-4.1
					c0.6-0.6,1.6-2.3,2.6-2.3c1.6,0,2.8,3.3,3.6,4.4c-0.4-1.8,0.5-3.7,1-5.4c0.1-0.4,3,0.7,3.1,1.9
					C147.5,106.8,147.3,107.5,147.1,108.2z"/>
				<path class="st1" d="M164.6,88.6c-0.1-1-0.1-1.9,0.2-2.9l-2.7,4c-0.9-1.2-1.7-2.5-2.2-3.8c-0.1-0.2-0.2-0.5-0.1-0.8
					c0.1-0.3,0.3-0.5,0.6-0.7c1-0.7,2.2-1.2,3.4-1.4l-3.6-1.4c-0.3-0.1-0.6-0.3-0.7-0.6c0-0.2,0-0.4,0.1-0.6l1-2.4
					c0.1-0.4,0.3-0.7,0.7-0.9c0.5-0.3,1.1,0.1,1.6,0.5l3.5,2.9c-0.1-1.8-0.2-3.5-0.1-5.3c1.4,0.5,2.7,1.1,4,1.8l-1,3.7
					c1-1,2.2-1.9,3.4-2.7l1.9,3.5c0.1,0.2,0.2,0.4,0.2,0.6c0,0.4-0.5,0.6-0.8,0.7l-3.6,1c1.5,0.9,2.9,2,4.1,3.2
					c-0.5,0.7-1,2.6-1.9,2.8c-1.6,0.4-3.5-2.5-4.6-3.3c0.8,1.6,0.5,3.7,0.5,5.5c0,0.4-3,0-3.5-1C164.7,90.1,164.6,89.4,164.6,88.6z"
					/>
				<path class="st1" d="M198.7,94.5c-0.7-0.6-1.3-1.4-1.7-2.3l0.5,4.8c-1.4-0.3-2.8-0.8-4.2-1.4c-0.3-0.1-0.5-0.3-0.6-0.5
					c-0.1-0.3-0.1-0.6,0-0.9c0.3-1.2,0.9-2.3,1.6-3.3l-3.6,1.3c-0.3,0.1-0.6,0.1-0.9,0c-0.2-0.1-0.3-0.3-0.3-0.6l-0.8-2.5
					c-0.2-0.4-0.2-0.8-0.1-1.2c0.2-0.6,1-0.6,1.6-0.6h4.5c-1.3-1.3-2.5-2.6-3.5-4c1.4-0.5,2.8-1,4.2-1.3l1.6,3.4
					c0.1-1.4,0.4-2.9,0.8-4.3l3.7,1.4c0.2,0.1,0.4,0.2,0.5,0.3c0.2,0.3,0,0.7-0.2,1l-2.1,3.1c1.7-0.3,3.4-0.4,5.2-0.3
					c0.1,0.9,1,2.6,0.4,3.4c-0.9,1.3-4.3,0.4-5.6,0.5c1.7,0.7,2.8,2.5,4,3.8c0.3,0.3-2.3,2-3.3,1.5
					C199.7,95.5,199.2,95.1,198.7,94.5z"/>
				<path class="st1" d="M184.8,140.6c0.3-0.9,0.8-1.8,1.5-2.5l-4.3,2.3c-0.3-1.4-0.4-2.9-0.2-4.4c0-0.3,0.1-0.5,0.2-0.8
					c0.2-0.2,0.5-0.3,0.8-0.4c1.2-0.2,2.5-0.1,3.7,0.3l-2.5-2.9c-0.2-0.2-0.4-0.5-0.4-0.8c0.1-0.2,0.2-0.4,0.4-0.5l2-1.7
					c0.3-0.3,0.6-0.5,1-0.5c0.6,0,0.9,0.6,1.2,1.2l1.8,4.2c0.7-1.6,1.4-3.2,2.3-4.8c1,1.1,2,2.2,2.8,3.4l-2.5,2.8
					c1.4-0.4,2.8-0.7,4.2-0.9l0.1,4c0,0.2,0,0.4-0.1,0.6c-0.2,0.3-0.7,0.3-1,0.2l-3.6-0.8c0.9,1.5,1.7,3,2.2,4.7
					c-0.8,0.4-2.1,1.9-3,1.7c-1.5-0.4-2-3.8-2.6-5c0,1.8-1.3,3.6-2.1,5.1c-0.2,0.4-2.7-1.3-2.6-2.5
					C184.2,142,184.5,141.3,184.8,140.6z"/>
				<path class="st1" d="M197.7,117.6c0.6-0.7,1.4-1.3,2.3-1.7l-4.8,0.5c0.3-1.4,0.8-2.8,1.4-4.2c0.1-0.3,0.3-0.5,0.5-0.6
					c0.3-0.1,0.6-0.1,0.9,0c1.2,0.3,2.3,0.9,3.3,1.7l-1.3-3.7c-0.1-0.3-0.1-0.6,0-0.9c0.2-0.2,0.3-0.3,0.6-0.3l2.5-0.8
					c0.4-0.2,0.8-0.2,1.1-0.1c0.6,0.2,0.6,1,0.6,1.6v4.5c1.3-1.3,2.6-2.4,4-3.5c0.6,1.4,1,2.8,1.3,4.2l-3.4,1.7
					c1.4,0.1,2.9,0.4,4.3,0.8l-1.4,3.7c-0.1,0.2-0.2,0.4-0.3,0.5c-0.3,0.2-0.7,0-1-0.2l-3.1-2.1c0.3,1.7,0.4,3.4,0.2,5.2
					c-0.9,0.1-2.6,1-3.4,0.4c-1.3-0.9-0.4-4.3-0.5-5.7c-0.7,1.7-2.5,2.8-3.9,3.9c-0.3,0.3-2-2.3-1.5-3.3
					C196.7,118.6,197.2,118.1,197.7,117.6z"/>
				<path class="st1" d="M180,223.3c-0.7-0.6-1.3-1.4-1.7-2.3l0.5,4.8c-1.4-0.3-2.8-0.8-4.2-1.4c-0.3-0.1-0.5-0.3-0.6-0.5
					c-0.1-0.3-0.1-0.6,0-0.9c0.3-1.2,0.9-2.3,1.6-3.3l-3.6,1.3c-0.3,0.1-0.6,0.1-0.9,0c-0.2-0.1-0.3-0.3-0.3-0.6l-0.8-2.5
					c-0.2-0.4-0.2-0.8-0.1-1.1c0.2-0.6,1-0.6,1.6-0.6h4.5c-1.3-1.3-2.5-2.6-3.5-4c1.4-0.5,2.8-1,4.2-1.3l1.6,3.4
					c0.1-1.4,0.4-2.8,0.7-4.2l3.7,1.4c0.2,0.1,0.4,0.2,0.5,0.3c0.2,0.3,0,0.7-0.2,1l-2,3.1c1.7-0.3,3.4-0.4,5.2-0.3
					c0.1,0.9,1,2.6,0.4,3.4c-0.9,1.3-4.3,0.4-5.6,0.5c1.7,0.7,2.8,2.5,3.9,3.9c0.3,0.3-2.3,2-3.3,1.5
					C181,224.3,180.5,223.8,180,223.3z"/>
				<path class="st1" d="M153.5,216.4c-0.1,1-0.4,1.9-0.9,2.7l3.7-3.1c0.6,1.4,1,2.8,1.2,4.2c0.1,0.3,0,0.6-0.1,0.8
					c-0.2,0.3-0.4,0.4-0.7,0.5c-1.2,0.4-2.4,0.6-3.7,0.5l3.1,2.3c0.3,0.1,0.5,0.4,0.5,0.7c0,0.2-0.1,0.4-0.3,0.6l-1.6,2.1
					c-0.2,0.3-0.5,0.6-0.9,0.7c-0.6,0.1-1.1-0.4-1.4-0.9l-2.6-3.7c-0.3,1.7-0.7,3.5-1.3,5.2c-1.2-0.8-2.4-1.7-3.4-2.8l1.9-3.3
					c-1.3,0.7-2.6,1.3-4,1.8l-1-3.9c-0.1-0.2-0.1-0.4,0-0.6c0.1-0.4,0.6-0.4,1-0.4h3.7c-1.2-1.2-2.3-2.6-3.1-4.1
					c0.6-0.6,1.6-2.3,2.6-2.3c1.6,0.1,2.8,3.3,3.6,4.4c-0.4-1.8,0.5-3.7,0.9-5.4c0.1-0.4,2.9,0.7,3.1,1.9
					C153.8,214.9,153.7,215.7,153.5,216.4z"/>
				<path class="st1" d="M170,194.8c-0.1-1-0.1-1.9,0.2-2.9l-2.7,4c-0.9-1.2-1.7-2.5-2.2-3.8c-0.1-0.2-0.2-0.5-0.1-0.8
					c0.1-0.3,0.3-0.5,0.6-0.7c1-0.7,2.2-1.2,3.4-1.4l-3.6-1.4c-0.3-0.1-0.6-0.3-0.7-0.6c0-0.2,0-0.4,0.1-0.6l1-2.4
					c0.1-0.4,0.3-0.7,0.7-0.9c0.5-0.3,1.1,0.1,1.6,0.5l3.5,2.9c-0.1-1.8-0.2-3.5-0.1-5.3c1.4,0.5,2.7,1.1,4,1.8l-1,3.7
					c1-1,2.2-1.9,3.4-2.7l1.9,3.5c0.1,0.2,0.2,0.4,0.2,0.6c0,0.4-0.5,0.6-0.8,0.7l-3.6,1c1.5,0.9,2.9,2,4.1,3.2
					c-0.5,0.8-1,2.6-1.9,2.9c-1.6,0.4-3.5-2.5-4.6-3.3c0.8,1.6,0.5,3.7,0.5,5.5c0,0.4-3,0-3.5-1C170.1,196.3,170,195.5,170,194.8z"
					/>
				<path class="st1" d="M202,183.7c-0.7-0.6-1.3-1.4-1.7-2.3l0.5,4.8c-1.4-0.3-2.8-0.8-4.2-1.4c-0.3-0.1-0.5-0.3-0.6-0.5
					c-0.1-0.3-0.1-0.6,0-0.9c0.3-1.2,0.9-2.3,1.6-3.3l-3.6,1.3c-0.3,0.1-0.6,0.1-0.9,0c-0.2-0.1-0.3-0.3-0.3-0.6l-0.8-2.5
					c-0.2-0.4-0.2-0.8-0.1-1.1c0.2-0.6,1-0.6,1.6-0.6l4.5-0.1c-1.3-1.2-2.4-2.6-3.5-3.9c1.4-0.6,2.8-1,4.2-1.3l1.6,3.4
					c0.1-1.4,0.4-2.9,0.8-4.3l3.7,1.4c0.2,0.1,0.4,0.2,0.5,0.3c0.2,0.3,0,0.7-0.2,1l-2.1,3.1c1.7-0.3,3.5-0.4,5.2-0.3
					c0.1,0.9,1,2.6,0.4,3.4c-0.9,1.3-4.3,0.4-5.6,0.5c1.7,0.7,2.8,2.5,4,3.9c0.2,0.3-2.3,2-3.3,1.5
					C203.1,184.7,202.5,184.2,202,183.7z"/>
				<path class="st1" d="M187.1,246.8c0.3-0.9,0.8-1.8,1.5-2.5l-4.2,2.3c-0.3-1.4-0.4-2.9-0.2-4.4c0-0.3,0.1-0.5,0.2-0.8
					c0.2-0.2,0.5-0.3,0.8-0.4c1.2-0.2,2.5-0.1,3.7,0.3l-2.6-2.9c-0.2-0.2-0.4-0.5-0.3-0.8c0.1-0.2,0.2-0.4,0.4-0.5l2-1.7
					c0.3-0.3,0.6-0.5,1-0.5c0.6,0,0.9,0.6,1.2,1.2l1.8,4.2c0.7-1.6,1.4-3.2,2.3-4.8c1,1.1,2,2.2,2.8,3.4l-2.5,2.8
					c1.4-0.4,2.8-0.7,4.2-0.9l0.1,4c0,0.2,0,0.4-0.1,0.6c-0.2,0.3-0.7,0.3-1,0.2l-3.6-0.8c0.9,1.5,1.7,3,2.2,4.7
					c-0.8,0.4-2.1,1.9-3,1.7c-1.5-0.4-2-3.8-2.6-5c0,1.8-1.3,3.6-2.1,5.1c-0.2,0.4-2.7-1.3-2.6-2.5
					C186.6,248.2,186.8,247.5,187.1,246.8z"/>
				<path class="st1" d="M200.1,217.7c0.6-0.7,1.4-1.3,2.3-1.7l-4.8,0.5c0.3-1.4,0.8-2.8,1.4-4.2c0.1-0.3,0.3-0.5,0.5-0.6
					c0.3-0.1,0.6-0.1,0.9,0c1.2,0.3,2.3,0.9,3.3,1.7l-1.3-3.6c-0.1-0.3-0.1-0.6,0-0.9c0.1-0.2,0.3-0.3,0.6-0.3l2.5-0.8
					c0.4-0.2,0.8-0.2,1.1-0.1c0.6,0.2,0.6,1,0.6,1.6v4.5c1.3-1.3,2.6-2.4,4-3.5c0.5,1.4,1,2.8,1.3,4.2l-3.4,1.6
					c1.4,0.1,2.9,0.4,4.3,0.8l-1.4,3.7c-0.1,0.2-0.2,0.4-0.3,0.5c-0.3,0.2-0.7,0-1-0.2l-3.1-2.1c0.3,1.7,0.4,3.4,0.2,5.2
					c-0.9,0.1-2.6,1-3.4,0.4c-1.3-0.9-0.4-4.3-0.5-5.6c-0.7,1.7-2.5,2.8-3.9,3.9c-0.3,0.3-2-2.3-1.5-3.3
					C199.1,218.7,199.6,218.2,200.1,217.7z"/>
				<path class="st1" d="M212.8,165.9c-0.7-0.6-1.3-1.4-1.7-2.3l0.5,4.8c-1.5-0.3-2.9-0.8-4.2-1.4c-0.3-0.1-0.5-0.3-0.6-0.5
					c-0.1-0.3-0.1-0.6,0-0.9c0.3-1.2,0.9-2.3,1.7-3.3l-3.6,1.3c-0.3,0.1-0.6,0.1-0.9,0c-0.2-0.1-0.3-0.3-0.3-0.6l-0.8-2.5
					c-0.2-0.4-0.2-0.8-0.1-1.1c0.2-0.6,1-0.6,1.6-0.6l4.5-0.1c-1.3-1.2-2.4-2.6-3.5-3.9c1.4-0.5,2.8-1,4.2-1.3l1.7,3.4
					c0.1-1.4,0.4-2.9,0.8-4.3l3.7,1.4c0.2,0.1,0.4,0.2,0.5,0.3c0.2,0.3,0,0.7-0.2,1l-2.1,3.1c1.7-0.3,3.4-0.4,5.2-0.3
					c0.1,0.9,1,2.6,0.4,3.4c-0.9,1.3-4.3,0.4-5.6,0.5c1.7,0.7,2.8,2.5,4,3.9c0.2,0.3-2.3,2-3.3,1.5
					C213.9,166.9,213.3,166.4,212.8,165.9z"/>
				<path class="st1" d="M190.4,156.9c-0.1,1-0.4,1.9-0.9,2.7l3.7-3.2c0.6,1.4,1,2.8,1.2,4.3c0.1,0.3,0,0.6-0.1,0.8
					c-0.2,0.3-0.4,0.4-0.7,0.5c-1.2,0.4-2.4,0.6-3.7,0.5l3.1,2.3c0.2,0.2,0.5,0.4,0.5,0.7c0,0.2-0.1,0.4-0.3,0.6l-1.6,2.1
					c-0.2,0.3-0.5,0.6-0.9,0.7c-0.6,0.1-1.1-0.4-1.4-0.9l-2.6-3.7c-0.3,1.7-0.7,3.5-1.3,5.1c-1.2-0.8-2.4-1.7-3.4-2.8l1.9-3.3
					c-1.3,0.7-2.6,1.3-4,1.8l-1-3.9c-0.1-0.2-0.1-0.4,0-0.6c0.1-0.4,0.6-0.4,1-0.4h3.7c-1.2-1.2-2.3-2.6-3.1-4.1
					c0.6-0.6,1.6-2.3,2.6-2.3c1.6,0.1,2.8,3.3,3.6,4.4c-0.4-1.8,0.5-3.7,1-5.4c0.1-0.4,3,0.7,3.1,1.9
					C190.6,155.5,190.5,156.2,190.4,156.9z"/>
				<path class="st1" d="M210.8,144.4c-0.1-1-0.1-1.9,0.2-2.9l-2.7,4c-0.9-1.2-1.7-2.4-2.2-3.8c-0.1-0.2-0.2-0.5-0.1-0.8
					c0.1-0.3,0.3-0.5,0.6-0.7c1-0.7,2.2-1.2,3.4-1.4l-3.6-1.4c-0.3-0.1-0.6-0.3-0.7-0.6c0-0.2,0-0.4,0.1-0.6l1-2.4
					c0.1-0.4,0.3-0.7,0.7-0.9c0.5-0.3,1.1,0.1,1.6,0.5l3.5,2.9c-0.2-1.8-0.2-3.5-0.1-5.3c1.4,0.5,2.7,1.1,4,1.8l-1,3.7
					c1-1,2.2-1.9,3.4-2.7l1.9,3.5c0.1,0.2,0.2,0.4,0.2,0.6c0,0.4-0.5,0.6-0.8,0.7l-3.6,1c1.5,0.9,2.9,2,4.1,3.2
					c-0.5,0.7-1,2.6-1.9,2.8c-1.6,0.4-3.5-2.5-4.6-3.3c0.8,1.6,0.5,3.8,0.5,5.5c0,0.4-3,0-3.5-1
					C210.9,145.9,210.8,145.1,210.8,144.4z"/>
				<path class="st1" d="M245.9,151.3c-0.7-0.6-1.3-1.4-1.7-2.3l0.5,4.8c-1.5-0.3-2.9-0.8-4.2-1.4c-0.3-0.1-0.5-0.3-0.6-0.5
					c-0.1-0.3-0.1-0.6,0-0.9c0.3-1.2,0.9-2.3,1.6-3.3l-3.6,1.3c-0.3,0.1-0.6,0.1-0.9,0c-0.2-0.1-0.3-0.3-0.3-0.6l-0.8-2.5
					c-0.2-0.4-0.2-0.8-0.1-1.1c0.2-0.6,1-0.6,1.6-0.6l4.5-0.1c-1.3-1.2-2.5-2.6-3.5-3.9c1.4-0.6,2.8-1,4.2-1.3l1.6,3.4
					c0.1-1.4,0.4-2.9,0.8-4.3l3.7,1.4c0.2,0.1,0.4,0.2,0.5,0.3c0.2,0.3,0,0.7-0.2,1l-2.1,3.1c1.7-0.3,3.4-0.4,5.2-0.3
					c0.1,0.9,1,2.6,0.4,3.4c-0.9,1.3-4.3,0.4-5.6,0.5c1.7,0.7,2.8,2.5,3.9,3.9c0.3,0.3-2.3,2-3.3,1.5
					C246.9,152.2,246.4,151.8,245.9,151.3z"/>
				<path class="st1" d="M228,196.4c0.3-0.9,0.8-1.8,1.5-2.5l-4.2,2.3c-0.3-1.5-0.4-2.9-0.2-4.4c0-0.3,0.1-0.5,0.2-0.8
					c0.2-0.2,0.5-0.3,0.8-0.4c1.2-0.2,2.5-0.1,3.7,0.3l-2.6-2.9c-0.2-0.2-0.4-0.5-0.4-0.8c0.1-0.2,0.2-0.4,0.4-0.5l2-1.7
					c0.3-0.3,0.6-0.5,1-0.5c0.6,0,1,0.6,1.2,1.2l1.8,4.2c0.7-1.6,1.4-3.2,2.3-4.8c1,1.1,2,2.2,2.8,3.4l-2.5,2.8
					c1.4-0.4,2.8-0.7,4.2-0.9l0.1,4c0,0.2,0,0.4-0.1,0.6c-0.2,0.3-0.7,0.3-1,0.2l-3.6-0.8c0.9,1.5,1.7,3,2.2,4.7
					c-0.8,0.4-2.1,1.9-3,1.7c-1.6-0.4-2-3.8-2.6-5c0,1.8-1.3,3.6-2.1,5.1c-0.2,0.4-2.7-1.3-2.6-2.5
					C227.4,197.8,227.7,197.1,228,196.4z"/>
				<path class="st1" d="M247,175.3c0.6-0.7,1.4-1.3,2.3-1.7l-4.8,0.5c0.3-1.4,0.8-2.9,1.4-4.2c0.1-0.3,0.3-0.5,0.5-0.6
					c0.3-0.1,0.6-0.1,0.9,0c1.2,0.3,2.3,0.9,3.3,1.7l-1.3-3.6c-0.1-0.3-0.1-0.6,0-0.9c0.1-0.2,0.3-0.3,0.6-0.3l2.5-0.8
					c0.4-0.2,0.8-0.2,1.1-0.1c0.6,0.2,0.6,1,0.6,1.6v4.5c1.3-1.3,2.6-2.4,4-3.5c0.6,1.4,1,2.8,1.3,4.2l-3.4,1.6
					c1.4,0.1,2.9,0.4,4.3,0.8l-1.4,3.7c-0.1,0.2-0.2,0.4-0.3,0.5c-0.3,0.2-0.7,0-1-0.2l-3.1-2.1c0.3,1.7,0.4,3.4,0.2,5.2
					c-0.9,0.1-2.6,1-3.4,0.4c-1.3-0.9-0.4-4.3-0.5-5.6c-0.7,1.7-2.5,2.8-3.9,3.9c-0.3,0.2-2-2.3-1.5-3.3
					C246,176.4,246.5,175.8,247,175.3z"/>
			</g>
		</g>
		<path class="st3" d="M191.8,30.9c0.8-1,1-2.9,1.7-4.2c0.8-1.6,2.7-2.6,4.2-1.3s0.2,4.1,1.4,5c1.9,1.6,3.7-3,4.9-3.9
			c1.6-1.1,4.4-1.5,5.5,0.8c1.5,3.1-2.2,1.7-3.7,2.9c-1.2,0.9-2.1,3.3-0.5,4.2s3.9-1.8,5.2-2.4c2-0.9,5.4-2.8,6.3,0.5
			c0.6,2.2-1.6,3.8-3.3,4.2c1.3,1.3,3.5,2.4,4.5,3.9c0.6,0.9,1.1,2.4,0.2,3.3c-1.3,1.3-1.4,0-2.4-0.7c-1.9-1.2-2-0.8-3.2,0.3
			c-1,1-0.7,1.6-2.4,1c-2-0.8-2.9-4.2-5.5-3.7c-0.2,3.9,0.8,9.3-5,7.6c-0.8-0.2-2.9-2-3.6-1.5c-1,0.6-0.4,4-0.8,5.1
			c-1,2.8-2.8,2.7-4.8,1.3c-2.8-2-2.7,7.3-1.6,7.7c0.3,0.1,0.7,0,0.8-0.4c0,0,0,0,0-0.1c0.4,0.6,0.3,1.4-0.2,1.8c0,0,0,0-0.1,0
			c-0.6,0.4-1.4,0.3-2-0.1c-1.5-1.1-0.6-3.1-1.8-4.3c-1-1-2.1-0.6-3,0.1c-1.7,1.5-2.9,4.3-3.6,6.5c-0.4,1.5-0.9,3.1-0.1,4.5
			c0.3,0.4,0.5,0.7,0.6,1.2c0.3,1.1-0.7,2-1.3,3c-0.6,0.9-0.8,1.9-0.8,3c0.1,1.2,0.6,2.5,0,3.5c-0.4,0.9-1.5,1.3-1.8,2.3
			c-0.2,0.5-0.1,1.1-0.2,1.7c-0.4,0.9-1.3,1.5-2.3,1.6c-1.1,0-2,0.5-2.7,1.3c-1.1,1.4-0.3,3.3-1.1,4.8c-1.8,3.5-4.4,0.9-6.5-0.4
			c-3.6-2.3-6.7,3.2-9.8-1.2c-1.4-1.9-0.3-5.3-2.1-6.8s-3-0.6-3.9-3.1c-1.1-3,1-4.7,1.5-7.5c0.5-2.5-3.6-10.6,1.6-10.7
			c1,0,2.4,1.1,3.5,1.3c1.4,0.3,2.8,0.3,4.1,0c5.4-1.9,3.9-9.1,5-13.3c0.6-2.3,1.8-4.5,4.2-4.9c1.3-0.2,2.5,0.6,3.7,0.4
			c4.6-0.7,3.8-9,4.8-12.2c0.9-2.8,4.1-5.5,7.2-5.5c1.4,0.1,2.7,0.7,3.6,1.6c0.8,0.7,1.2,1.5,2.3,2
			C190.3,31.8,191.2,31.6,191.8,30.9z"/>
		<path class="st3" d="M205.4,55.2c0-0.3,0-0.6,0-0.6c-1.5,0.7-3.7,0.2-5.4,0.4c-1.7,0.1-3.5,0.1-5.2,0c-3-0.1-5.9-0.1-9-0.1
			c-2.4,0-4.7,1.2-6,3.2c-1.9,2.6-3.4,5.5-5.2,8.1c-0.2,0.2-0.3,0.4-0.3,0.7c0,0.5,0.4,0.9,0.9,1.2c0.2,0.2,0.5,0.3,0.8,0.2
			c0.2-0.1,0.4-0.3,0.5-0.5c1.1-2,2.4-4,3.7-5.9c1.1-1.6,1.8-3.9,3.6-4.9c1.6-0.8,3.4-0.4,5.1-0.3c2.1,0,4.4,0.1,6.5,0.2
			c1.9,0.1,3.8,0,5.7-0.1c0.6,0,1.2,0.1,1.8,0.3c0.9,0.1,1.8,0.1,2.6,0C205.5,57.1,205.4,55.9,205.4,55.2z"/>
		<path class="st2" d="M177.2,57.6c-1.5,3.7-0.3,9.5,2.7,12.1c5.7,5.1,7.4-5.2,6.6-9.1c-0.5-2.3-1.4-6.5-4.1-6.7
			C180.1,53.7,178,55.6,177.2,57.6z"/>
		<path class="st2" d="M243.4,275.9c-5.6-10.2-10-18.2-10-18.2c-3.6,2.2-8.6,5.1-12.7,6.2c-2.6,0.6-7.9,0.4-7.2,4.7
			c0.3,1,0.8,1.9,1.5,2.7c4,5.4,4.3,12.7,6.9,18.9c3.3,7.8,10.1,13.5,16.1,19.4c6.5,6.3,12.1,13.4,16.6,21.3c2.2,4,3.6,8.1,5.2,12.3
			c1.4,3.6,5.1,4.6,9,4.9c3.4,0.2,6.7-1.9,8.6-4.7s2.8-6.2,3.4-9.6c0.2-0.5,0.1-1.1-0.1-1.6c-0.2-0.3-0.6-0.6-0.9-0.7
			c-5.5-3-8.6-5.2-11.8-10.7C266.3,317.6,253,293.4,243.4,275.9z"/>
		<path class="st2" d="M110.9,346.5c1.8,2.9,5.4,4.3,8.9,4.2s6.7-1.4,9.8-2.9c2.2-1.1,1-4.1,0.9-6.1c-0.2-2.8,0.1-5.5,0.8-8.2
			c0.8-2.4,1.9-4.7,3.3-6.9c6.6-11.6,12.7-23.5,18.3-35.6c1-2.3,2.1-4.5,3-6.9c2-4.5,3.5-9.2,4.6-14c0.7-3.4,1.7-5.4-1.5-7.2
			c-3-1.6-6.1-2.8-8.7-5c-2.2-1.8-5-4.5-8.1-3.4c-2.9,1-3.7,5.9-4.6,8.4c-2.4,6.8-7.1,12.6-9.4,19.4c-2.5,7.1-2.2,14.9-3.9,22.3
			c-1.3,5.3-3.2,10.5-5.8,15.3c-2.5,5-6.1,9.4-10.4,12.9c-0.2,0.1-0.3,0.3-0.4,0.5c-0.1,0.2-0.1,0.4,0,0.6
			C108.3,338.2,108.6,342.8,110.9,346.5z"/>
		<path class="st3" d="M236.2,256.4c0,0.1,0.1,0.1,0.1,0.2c0.2,0.3,0.4,0.7,0.6,1c0.4,0.9,0.9,1.7,1.3,2.5c0,0.1,0,0.1,0,0.2
			c0,0.1-0.1,0.1-0.1,0.1c-0.2,0.1-0.5,0.2-0.7,0.4c-0.2,0.1-0.3,0.2-0.4,0.4c-0.9,0.7-1.9,1.2-3,1.7c-1.2,0.6-2.4,1.1-3.6,1.7
			c-3.2,1.5-6.4,2.9-9.6,4.3c-3.5,1.5-6.9,3-10.4,4.4c-2.7,1.1-5.5,2.3-8.3,3.3c-0.2,0.1-3.1,1.3-3.2,1c-0.4-1-0.9-1.9-1.3-2.9
			c-0.2-0.4-0.3-0.8-0.5-1.2c-0.1-0.1-0.1-0.3-0.2-0.4c-0.2-0.3-0.4-0.6-0.5-0.9c-0.6-1.2-1.2-2.3-1.8-3.5c-1.5-2.8-3.1-5.5-4.8-8.2
			c-1.7-2.7-3.5-5.3-5.4-7.8c-1.1,2.2-11.3,23.2-10.9,23.4c-3.5-1.4-7-2.9-10.6-4.3l-12-4.8l-11.2-4.5c-1-0.4-4.3-1.1-4.9-2
			c5.1-12.7,8.4-25.9,13.1-38.7c0.1-0.4,0.3-0.7,0.6-1c0.3-0.2,0.7-0.3,1-0.2c7.5-0.5,15.1-0.1,22.5,1.3c2.6,0.6,5.2,1,7.9,1.1
			c2-0.1,3.9-0.3,5.9-0.6c5.6-0.6,11.3,0,16.9-0.4c4.9-0.3,9.3-3.2,13.9-3.1c1.3,0,8.6,18,10.2,20.1c1.4,1.9,2.7,3.9,3.9,6
			c1.2,2.1,2.3,4.2,3.4,6.4c0.6,1,1,2.1,1.5,3.1C235.6,255.2,235.9,255.8,236.2,256.4z"/>
		<path class="st0" d="M143,223.5c-1.9-0.5-3.6-2.3-5.3-2.6c-0.6-0.1-1.2-0.1-1.8,0c-1.9-0.1-3.8-0.7-5.4-1.6
			c-2.6-1.1-5.2-2-7.8-2.8c-3-1.1-5.8-3.4-8.5-5.1c-0.6-0.3-1.1-0.8-1.5-1.4c-0.2-0.7-0.2-1.3,0-2c0.9-3.8,2.5-7.2,3.9-10.8
			c1.2-3,1.6-6.3,2.4-9.4c1.4-5.2,2.9-10.4,5.2-15.2c1.8-3.7,3.6-8.2,5.8-11.6c1.8-2.7,3.1-2.1,6.3-0.8c5.6,2.3,10.2,6.2,15.4,9.2
			c4.4,2.5,8.9,5.3,13.6,7.4c5.2,2.3,10.6,4.1,15.8,6.2c0.6,0.3,1.3,0.5,2,0.6c4.4,0.4,8.5-3.5,11.9-5.6c4.7-2.8,9.5-5.3,14.5-7.4
			c4.8-2.2,9.5-4.8,14.2-7.4c3.7-2.1,8.1-7.2,11.6-2.7c4.9,6.4,7.8,16.9,10.7,24.5c3.3,8.4,6.2,16.9,8.8,25.5
			c0.2,0.5,0.3,1.1,0.2,1.7c-0.3,1-1.4,1.4-2.3,1.7l-13.6,4.3c-7.1,2.2-14.1,4.6-21.3,6.4c-4.7,1.3-9.3,2.9-13.8,4.9
			c-4.4,1.8-8.9,2.6-13.5,3.9c-1.7,0.6-3.5,0.9-5.2,1c-6.8,0-14.8-2.9-21.3-4.8C157.1,227.6,150.1,225.3,143,223.5z"/>
		<path class="st3" d="M194,197c-1,1.6-1.9,3.1-3,4.6c-1.9,2.7-4.2,5.2-6.1,7.9c-1.3,1.8-2.6,3.5-4,5.2c-1,1.5-2.3,2.8-3.7,3.9
			c-2.9,2-6.7,3-10.1,1.8c-4.7-1.6-5.2-7.8-5.8-12c-0.7-5.8-0.3-11.6,1-17.3c0.8,0,1.4,0.6,2.2,0.6c0.1-0.6,0.2-1.2,0.4-1.8
			c0.1-0.5,0.9-2,0.7-2.4s-0.9-0.4-1.2-0.5c-0.7-0.3-1.4-0.5-2.2-0.6c-0.8-0.1-1.5-0.2-2.3-0.5c-0.8-0.3-1.5-0.8-2.3-1.1
			c-0.2,1-0.8,2.1-0.8,3.1c0,0.4-0.2,0.3,0,0.6s1,0.7,1.3,0.8c0.6,0.4,1.2,0.6,1.9,0.7c0.1,1.9-0.8,3.9-1,5.8s-0.3,3.9-0.3,5.8
			c0,3.1,0.1,6.3,0.5,9.4c0.3,2.2,0.9,4.4,1.8,6.5c0.7,1.9,2,3.6,3.7,4.7c2.4,1.3,5.1,1.6,7.7,0.9c2.7-0.7,5.2-1.9,7.3-3.6
			c0.7-0.5,1.4-1.1,2-1.7c0.6-0.8,1.1-1.6,1.8-2.3c2.7-3.2,5.1-6.4,7.5-9.8c2.1-3,3.9-6.1,5.5-9.3c1-1.9,2.7-4.3,3-6.4
			c1.2-0.2,2.4-0.6,3.5-1.2c-0.2-1.2-0.5-2.4-0.9-3.5c0,0.1-7.1,2.7-7.6,2.9c0.2,1,0.3,2.1,0.2,3.1c0.8-0.1,1.6-0.4,2.3-0.8
			c-0.4,2-1.2,3.8-2.4,5.5L194,197z"/>
		<path class="st2" d="M200.2,192.3c-2.3-5.2-4.4-10.4-6.5-15.7c-1.1-2.7-2.2-5.3-3.4-7.9c-1-2.2-2.2-4.6-2.4-7.1
			c0-1.1,0-2.2,0.1-3.2c0.8-6.5,1.9-12.9,2.1-19.4c-0.9-0.2-1.7-0.4-2.6-0.5c-1.1,0-2.1,0.1-3.2,0.2c-2.2,0.1-4.3-0.8-6.4-1.1
			c-1.7-0.3-3.5-0.4-5.2-0.6c-1.3-0.1-3.4-1.1-3.6,0.8c0,2.2-0.5,4.5-0.7,6.8s-0.5,4.6-0.7,7c-0.4,4.4-0.7,8.8-1.2,13.2
			c-0.1,0.7-0.1,1.5,0,2.2c0.2,0.8,0.5,1.6,1,2.4c1.6,2.8,3.1,5.9,5.1,8.5s3.8,5.8,5.6,8.7c5.3,7.9,10.1,16.2,14.3,24.7
			c0.8,1.6,1.4,3.3,1.7,5c0.3,2,0.1,3.9,0.8,5.8c0.9,2.3,2.3,4.3,3.4,6.4c0.5,1.4,1.2,2.7,2,3.9c0.9,1.2,2.3,1.9,3.8,1.8
			c1-0.1,1.9-0.8,2.1-1.8c0.2-0.7,0.2-1.4,0.1-2.1c1,1.2,2.8,1.5,4.1,0.7c0.8-0.4,1.4-1.1,1.6-1.9c0.1-0.6,0.1-1.1,0-1.7
			c0.1,0.8,1.9,1.4,2.5,1.4c1.4,0.1,2.7-0.8,3.2-2.2c0.3-1.4-0.4-2.9-1-4.1c-1.1-2.3-2.4-4.2-3.3-6.6c0.1-0.2,0.4-0.1,0.5,0
			c1.3,0.8,4.5,2.2,5.2,3.6c0.6,0.5,1.2,1,1.9,1.3c1,0.4,2.7,0.1,3.1-1.1s-1.1-2.9-1.9-3.8l-3.2-3.8c-0.6-0.8-1.4-1.5-2.2-2.1
			c-1.6-1-3.5-1.1-5.2-1.5c-3.8-0.9-6-4.9-7.8-8.1C202.7,197.6,201.4,195,200.2,192.3z"/>
		<path class="st3" d="M229.9,221.4c-0.4,0.1-0.9,0.2-1.3,0.3c-1.6-4-2.5-8.7-3.8-12.9c-1.4-4.5-2.9-8.9-4.5-13.3
			c-3.1-8.4-6.3-16.8-8.8-25.3c-6-20.6-12.6-41-19.8-61.2c-0.8-2.2-1.5-4.4-2.5-6.6c-0.2-0.5-0.4-0.9-0.8-1.2
			c-0.5-0.4-1.2-0.5-1.8-0.5l-9.5-0.8c-1.5-0.4-3,0.4-3.5,1.9c0,0.1-0.1,0.2-0.1,0.3c-5.7,14.6-10.8,29.5-15.3,44.5
			c-1.7,5.8-4.2,11.3-6.1,17.1s-3.1,12-4.9,18l-8.7,27.8c-1.1,3.6-3.3,7.9-3.4,11.6c-0.6-0.6-8.2-2.4-8.2-2.5
			c0.5-2.4,1.5-4.8,2.1-7.2c0.7-2.7,1.6-5.3,2.6-7.8c1.7-3.6,3.1-7.2,4.2-11c0.6-1.9,0.8-3.9,1.3-5.8s1.5-3.6,2.2-5.5
			s0.8-3.5,1.3-5.3c1.1-3.6,2.8-7.1,4-10.7c3-8.1,6-16.2,9-24.3c4.9-13.1,9.7-26.1,14.6-39.2c0.3-1.2,1-2.3,2-3.1
			c3.9-2.3,10.8-1.6,14.8-0.4c2.5,0.7,5.9,1,7.9,2.8l0.4,0.4c0.7,0.9,1.3,2,1.8,3.1c1.9,4.4,3.7,8.7,5.6,13c3.2,7.2,6,14.5,8.6,21.8
			c2.3,6.8,4.4,13.6,6.4,20.5c2.8,9.7,7.3,19.2,10.6,28.8c2.4,6.9,4.5,14,6.7,21l1.6,5.2c0.5,1.6,1.2,3.3,1.6,5
			c-1.2,0.1-2.3,0.4-3.5,0.8C232,221.1,231,221.3,229.9,221.4z"/>
		<path class="st3" d="M177.1,96.4c1.8,0.1,3.6,0.2,5.2,0.3c3.6,0.2,7.1,0.7,10.7,1.3c1.1,0.1,2.1,0.5,3.1,0.9
			c1.4,0.8,1.7,2.3,0.7,3.3c-0.3,0.3-0.7,0.6-1.2,0.7c-0.7,0.1-1.5,0.1-2.2,0c-7.5-0.8-14.9-2.1-22.5-1.8c-1.8,0.1-4,0.1-4.9-1
			s0.3-2.2,1.7-2.7C170.7,96.5,173.9,96.1,177.1,96.4z"/>
		<path class="st1" d="M178.8,97.6c1.3,0.1,2.5,0.1,3.6,0.2c2.5,0.2,5.1,0.4,7.5,0.7c0.7,0.1,1.5,0.2,2.2,0.4c1,0.4,1.2,1.1,0.5,1.5
			c-0.3,0.2-0.5,0.3-0.9,0.3c-0.5,0.1-1,0.1-1.5,0c-5.2-0.4-10.5-1.1-15.8-1c-1.3,0-2.9,0-3.5-0.5s0.2-1,1.2-1.2
			C174.3,97.6,176.5,97.5,178.8,97.6z"/>
		<path class="st3" d="M262.6,355.4c-1.3-2.4-2.3-4.9-3-7.4c-0.3-0.9-0.4-1.8-0.2-2.7c-0.5-0.8-0.3-1,0.5-1.3
			c0.9-0.3,1.8-0.3,2.7-0.1c3.9,0.5,8.2-0.1,11-2.7c1.3-1.3,2.3-2.9,2.9-4.6c0.7-1.8,1-3.8,0.8-5.8c0-0.4,0-0.9,0.1-1.3
			c0.1-0.4,0.4-0.8,0.9-0.9c0.7-0.1,1.3,0.3,1.6,0.9c0.1,0.2,0.2,0.4,0.4,0.6c0.3,0.2,0.6,0.3,0.9,0.3c5.1,0.5,9.9-0.1,14.9-0.6
			c1.5-0.1,3-0.3,4.6-0.5c1.9-0.3,3.8-0.9,5.5-1.8l1.7-0.9c1.8-1,3.5-1.9,5.3-2.9c0.8-0.5,1.6-0.8,2.5-1.1c0.7-0.1,1.3-0.1,2,0.2
			c0.7,0.4,0.8,0.9,0.9,1.6c0.1,0.5,0.1,0.9,0,1.4c-0.2,0.8-0.7,1-1.3,1.5c-7.2,5.6-15,10-21.7,16.2c-2.4,2.1-4.9,4.1-7.6,5.9
			l-9.2,6.5c-1.4,1.1-3,2.1-4.5,2.9c-1.5,0.8-5,1.2-5.8,2.7C265.8,359.9,263.9,357.8,262.6,355.4z"/>
		<path class="st6" d="M272.1,356.4c-2,1.5-4.1,2.9-6.1,4.5c-0.1,0-0.1,0.1-0.2,0.2c0,0.1,0,0.2,0.1,0.3l3.9,4.8
			c0.8-0.9,1.7-1.7,2.8-2.4c4.1-2.9,8.3-5.6,12.2-8.7c2.8-2.1,5.7-4.1,8.3-6.4s5.2-3.9,8-6c0.9-0.7,7.6-5.5,13-9.5
			c4-3,7.3-5.7,7-6.1l-3.1-4.8c-2.5,1.5-4.8,3.2-7,4.9c-4.5,3.4-9.1,6.6-13.6,10.1c-3.9,3-8.4,5.3-12,8.7c-1.8,1.8-3.7,3.5-5.7,5.1
			C277.2,352.9,274.6,354.5,272.1,356.4z"/>
		<path class="st6" d="M294,329.8c0.3,0.8,0.4,1.7,0.2,2.5c-0.8,3.8-4.5,6.3-8.3,7c-1.5,0.3-3.2,0.3-4.4,1.3s-1.7,2.4-2.3,3.8
			c-1.7,4-4.6,7.4-8.3,9.7l-2.8-1.7c3.9-0.9,6.4-4.7,8-8.4c1-2.4,2-5,4.4-6.3c2.2-1.2,4.9-1.1,7.2-1.8c2-0.5,3.1-1.5,3.4-3.6
			c0.1-0.5,0-1.5,0.1-2.4L294,329.8z"/>
		<path class="st3" d="M102,339.2c1.3-2.4,2.8-4.6,4.5-6.6c0.5-0.8,1.3-1.4,2.1-1.7c0.4-0.8,0.7-0.8,1.4-0.3
			c0.7,0.6,1.2,1.3,1.6,2.2c1.8,3.5,4.6,6.8,8.4,7.6c1.8,0.4,3.7,0.3,5.5-0.1c1.9-0.4,3.7-1.3,5.2-2.6c0.3-0.3,0.7-0.5,1.2-0.7
			c0.4-0.2,0.9-0.1,1.3,0.2c0.4,0.5,0.5,1.3,0.1,1.8c-0.1,0.2-0.2,0.4-0.3,0.7c0,0.3,0.1,0.6,0.3,0.9c2,3.7,4.4,7.1,7.2,10.2
			c2.6,2.8,7,4.4,10.6,5.1c3,0.6,7.2,0.3,8,4c0,0.1,0,0.2,0,0.4c-0.1,0.1-0.1,0.2-0.2,0.2c-1.5,0.9-4.4,0.4-6,0.2
			c-2.1-0.2-4.1-0.9-6.2-1.2c-1.6-0.1-3.1-0.2-4.7-0.2c-2.2-0.1-4.4-0.3-6.6-0.5c-4.7-0.5-9.7-0.7-14.2-2.3l-10.6-4
			c-1.7-0.6-3.4-1.3-5-2.1c-1.5-0.8-3.8-3.5-5.5-3.3C100,344.3,100.7,341.6,102,339.2z"/>
		<path class="st6" d="M122.4,352.9c-2.5-0.5-5-1.2-7.4-1.9c-2.9-1-5.7-2.3-8.6-3.3c-2.4-0.9-4.7-1.8-7.1-2.6c-0.1,0-0.2,0-0.3,0
			c-0.1,0.1-0.2,0.2-0.2,0.3l-1.9,5.9c1.2,0.2,2.4,0.5,3.5,1c4.7,1.8,9.3,3.8,14,5.4c3.3,1.1,6.5,2.5,9.9,3.3c0.8,0.3,1.7,0.6,2.5,1
			c1.1,0.3,2.2,0.6,3.3,0.9c2.3,0.6,4.6,1.3,6.8,2c0.7,0.2,1.4,0.4,2.1,0.6c0.4,0.1,0.8,0.1,1.3,0.1c3.5,0.2,7,0.2,10.5,0.3
			c1.1,0,2.2-0.2,3.4-0.1c1.1,0.1,2.2,0.1,3.3,0c0.6,0,1.3,0.3,1.8,0s0.4-1,0.4-1.6c0.1-0.9,0.1-1.8,0.1-2.7c0-0.5-0.1-1-0.1-1.6
			c0-0.1,0-0.1-0.1-0.2c-0.1,0-0.1,0-0.2,0c-1,0-1.9,0-2.9,0c-1.8,0.1-3.6,0-5.4-0.2c-1.4,0-2.8,0-4.1-0.2c-0.8-0.1-1.5-0.1-2.3-0.1
			c-1.2,0-2.4,0-3.6-0.1c-2.4-0.2-4.7-0.7-6.9-1.7C130.4,355.6,126.5,354.1,122.4,352.9z"/>
		<path class="st6" d="M140.7,351.1c-0.5,0.7-1.2,1.3-2,1.5c-3.6,1.4-7.8-0.2-10.5-3c-1.1-1.1-2.1-2.5-3.5-3s-3,0-4.4,0.2
			c-4.3,0.8-8.7,0.3-12.7-1.5l-0.2-3.3c2.9,2.8,7.5,2.7,11.4,2c2.5-0.5,5.2-1.1,7.7,0.1c2.3,1.1,3.6,3.4,5.5,5
			c1.6,1.4,3,1.7,4.9,0.8c0.5-0.2,1.3-0.9,2-1.2L140.7,351.1z"/>
		<path class="st3" d="M181.7,137.3c1.7,0.3,3.4,0.5,5.2,0.4c0.5,0,1-0.1,1.5-0.1c1,0,3.7,1.4,3.9,0.4c0.1-0.2,0.1-0.4,0.1-0.6
			c0.4-2.2,0.9-4.4,1.6-6.6c0.8,1.3,0.6,3.1,0.6,4.5c0,0.8-0.2,1.5-0.2,2.3c0,1-0.1,1.9-0.2,2.9c0,0.1,0,0.1-0.1,0.2
			c0,0.1-0.1,0.1-0.2,0.1c-0.6,0.3-1.3,0.5-2,0.6c-0.5,1-1,2-1.3,3.1c-0.2,0.6-0.4,1.1-0.6,1.7c-0.3,0.5-0.5,1.1-0.6,1.6l0.6-6.1
			c0.1-0.8-0.2-1.6-0.7-2.1c-1-0.9-4.2,0.1-5.4,0c-2.7-0.4-5.3-0.9-7.9-1.6c-1-0.2-2-0.4-3-0.5c-0.8-0.1-3.2-0.5-3.6,0.4
			c-0.1,0.3-0.1,0.5-0.2,0.8c0,0.1,0,0.1-0.1,0.1c0,0-0.1,0-0.1,0c-0.9-0.1-1.8-0.5-2.5-1l-0.8-0.5c0.2-0.4,0.5-0.7,0.9-0.9
			c0.2-0.2,0.5-0.3,0.7-0.4c0.9-0.1,1.8,0,2.6,0.1l2.2,0.1c2.5,0.2,5,0.6,7.6,0.8C180.4,137.1,181.1,137.2,181.7,137.3z"/>
		<path class="st0" d="M236.8,257.4c-0.6,0.3-1.2,0.6-1.8,0.9c-1.1,0.5-2.2,0.8-3.2,1.2c-3.5,1.5-6.9,3-10.4,4.6l-5,2.2l-3.8,1.7
			c-3.7,1.7-7.4,3.4-11.1,5.1l-3.9,1.8l-0.9-1.9c2-1.6,4.2-3,6.5-4c1.3-0.5,2.7-0.9,4.1-1.3c5.5-2,10-6.3,15.7-8
			c1.4-0.3,2.8-0.8,4.2-1.3c1.2-0.6,2.4-1.3,3.6-2c1.4-0.8,2.9-1.6,4.4-2.1L236.8,257.4z"/>
		<path class="st0" d="M135.6,258.2c0.5,0.2,1,0.4,1.5,0.6c1.1,0.4,2.2,0.6,3.3,1c3.6,1.2,7.1,2.5,10.7,3.8l5.1,1.9l4,1.4
			c3.8,1.4,7.6,2.8,11.5,4.2l3.4,1.3l0.9-2c-1.9-1.4-4.1-2.4-6.3-3.1c-1.4-0.4-2.8-0.6-4.2-1c-5.7-1.5-10.5-5.5-16.2-6.8
			c-1.4-0.2-2.9-0.5-4.3-0.9c-1.3-0.5-2.5-1.1-3.7-1.8c-1.4-0.7-2.9-1.3-4.4-1.7L135.6,258.2z"/>
		<path class="st3" d="M145.7,267.9l1.5,1.1c3.7,2.6,7.7,5,11.8,7c0.2-0.8,0.4-1.6,0.7-2.4c0.2-1,0.5-2,0.8-2.9
			c-0.4-0.3-0.8-0.6-1.3-0.8c-0.4-0.1-0.7-0.2-1.1-0.4c-0.7-0.5-1.5-0.9-2.3-1.2c-0.4-0.1-0.9-0.2-1.4-0.2c-0.6-0.1-1.3-0.3-1.9-0.5
			c-2.7-1.1-5.3-2.6-7.9-3.8c-1.3-0.6-2.6-1.1-3.8-1.5c-0.6-0.3-1.2-0.5-1.8-0.6c-0.5-0.1-0.8,0-1,0.4c-0.3,0.5-0.4,0.9-0.6,1.5
			c2.5,1,4.9,2.3,7.2,3.9C145,267.4,145.4,267.6,145.7,267.9z"/>
		<path class="st3" d="M232.2,265.4c1.2-0.5,2.2-1.1,3.2-1.9c0.1-0.1,0.2-0.2,0.4-0.3c0.1-0.1,0.2-0.2,0.3-0.4c0,0,0-0.1,0-0.1
			c0,0,0-0.1,0-0.1c-0.2-0.5-0.4-0.9-0.7-1.3c-0.2,0-0.4,0-0.6,0.1l-0.6,0.2l-1.3,0.5c-0.8,0.4-1.7,0.7-2.5,1
			c-1.6,0.6-3.2,1-4.8,1.5c-2.1,0.7-4.2,1.6-6.1,2.6c-1,0.5-2,1.1-2.9,1.6c-0.4,0.3-0.8,0.5-1.3,0.6c-0.3,0.1-0.9,0.2-0.8,0.7
			c0.4,0.9,0.9,1.9,1.5,2.7c0.5,0.8,0.9,1.7,1.3,2.5l0.1,0.2c0,0.1,0.1,0.1,0.1,0.1c0,0,0.1,0,0.1-0.1c0.7-0.7,1.4-1.4,2.1-2.1
			c0.8-0.7,1.6-1.3,2.4-1.9c0.5-0.4,1.1-0.8,1.7-1.2l2.7-1.8C228.4,267.6,230.3,266.5,232.2,265.4z"/>
	</g>
</g>
</svg>
