<?xml version="1.0" encoding="utf-8"?>
<!-- Generator: Adobe Illustrator 24.2.1, SVG Export Plug-In . SVG Version: 6.00 Build 0)  -->
<svg version="1.1" id="Layer_1" xmlns="http://www.w3.org/2000/svg" xmlns:xlink="http://www.w3.org/1999/xlink" x="0px" y="0px"
	 viewBox="0 0 75.01 50.72" style="enable-background:new 0 0 75.01 50.72;" xml:space="preserve">
<style type="text/css">
	.st0{fill:#168DA6;}
</style>
<g>
	<path class="st0" d="M74.75,32.5c-0.47,0.91-1.54,1.43-2.5,2.07c-0.23,0.15-0.76,0.16-0.96,0c-1.7-1.37-3.66,0.92-5.48-0.48
		c-0.77-0.58-2.15-0.47-3.25-0.48c-4.65-0.05-9.29,0-13.94-0.03c-1.13-0.01-2.27-0.08-3.39-0.24c-1.07-0.15-1.6,0.13-1.24,0.94
		c1.79,4.08,0.7,8.36,0.93,12.55c0.04,0.69-0.51,1.43-0.83,2.12c-0.84,1.82-1.76,2.29-3,1.16c-2.03-1.85-4.58-2.59-6.88-3.86
		c-2.16-1.19-4.16-2.66-6.52-3.5c-1.76-0.63-3.26-1.81-4.88-2.68c-2.96-1.59-5.59-3.67-9.02-4.71c-3.44-1.04-6.44-3.75-9.41-6.02
		c-0.83-0.63-1.68-1.24-2.56-1.78c-0.93-0.57-2.48-1.13-1.51-2.35c0.91-1.14,1.84-2.25,2.9-3.26c2.1-2,4.57-3.56,7.32-4.5
		c2.3-0.78,4.44-2.32,6.34-3.9c2.46-2.06,5.57-2.68,8.25-4.3c4.77-2.88,9.74-5.45,14.37-8.59c0.64-0.44,1.92-0.86,2.32-0.55
		c0.95,0.75,2.28,1.41,2.18,3.04c-0.09,1.32,0.1,2.67-0.06,3.98c-0.11,0.89-0.88,1.72-0.88,2.58s0.75,1.7,0.89,2.58
		c0.19,1.29-0.37,3.31,0.28,3.77c1.02,0.72,2.78,0.51,4.22,0.51c7.65,0.04,15.3,0.01,22.94,0.02c2.52,0,2.54,0.03,2.56,2.72
		c0.02,3.32-0.03,6.65,0.05,9.97c0.01,0.48,0.44,0.59,0.68,0.91c0.21,0.28,0.31,0.62,0.34,0.97C75.03,31.7,74.94,32.13,74.75,32.5z
		 M64.98,29.76c1.85,0.03,3.76-0.28,5.57-0.28c0.04,0,0.09,0,0.13-0.03s0.04-0.08,0.05-0.13c0.13-1.72,0.1-3.52,0.2-5.27
		c0.01-0.17,0.01-0.33,0-0.5c-0.1-2.16-0.8-3.02-2.91-2.91c-1.7,0.09-3.38,0.87-5.08,0.9c-6.65,0.11-13.31,0.07-19.96,0.03
		c-2.19-0.01-2.7-0.69-3.04-2.84c-0.53-3.34-1.31-6.64-1-10.07c0.11-1.23-0.83-1.29-1.62-0.87c-1.1,0.59-2.08,1.4-3.14,2.08
		c-1.44,0.93-2.8,2.28-4.38,2.63c-1.97,0.43-3.61,1.65-5.32,2.64c-1.62,0.94-3.54,1.17-5.01,2.3c-0.49,0.39-0.98,0.74-1.49,1.08
		c-0.97,0.65-1.99,1.23-3.01,1.79c-2.02,1.1-4.1,2.08-6.09,3.24c-1.41,0.82-1.07,1.51-0.25,2.13c2.25,1.72,4.41,3.9,6.99,4.76
		c3.46,1.16,6.45,3.11,9.43,4.91c4.26,2.58,8.91,4.33,13.14,6.91c1.03,0.63,2.29,0.66,3-0.49c0.47-0.76,0.97-2.38,0.7-2.57
		c-1.91-1.37-0.51-3.63-1.74-5.39c-1.1-1.57,0.32-3.9,1.66-5.6c1.38-1.76,2.19,0.57,3.33,0.38c0.16-0.03,0.33,0,0.5,0
		c3.33,0,6.66-0.16,9.98,0.04c1.51,0.09,3.01,0.25,4.51,0.44c1.04,0.13,2.08,0.34,3.1,0.53C63.8,29.71,64.38,29.75,64.98,29.76z"/>
</g>
</svg>
