<?xml version="1.0" encoding="utf-8"?>
<!-- Generator: Adobe Illustrator 24.1.0, SVG Export Plug-In . SVG Version: 6.00 Build 0)  -->
<svg version="1.1" id="Layer_1" xmlns="http://www.w3.org/2000/svg" xmlns:xlink="http://www.w3.org/1999/xlink" x="0px" y="0px"
	 viewBox="0 0 2361.3 2167.74" style="enable-background:new 0 0 2361.3 2167.74;" xml:space="preserve">
<style type="text/css">
	.st0{fill:#168da6;}
</style>
<g>
	<path class="st0" d="M43.11,1608.36c2.94-1.1,3.62-3.55,4.02-6.33c0.48-3.41,2.04-6.14,4.99-8.26c6.16-4.43,12.5-8.74,18.08-13.85
		c8.84-8.08,19.2-12.92,30.43-16.42c2.99-0.93,5.72-0.88,8.78-0.2c7.42,1.65,14.93,2.86,22.74,4.31c1.38-1.19,2.89-2.47,4.38-3.78
		c10.2-8.91,21.86-15.07,34.95-18.54c5.77-1.53,11.51-3.21,17.32-4.57c12.13-2.83,24.12-3.66,36.35,0.46
		c7.56,2.55,15.23,4.63,22.41,8.25c2.63,1.33,5.65,1.89,8.18,2.7c3.31-0.75,6.32-1.16,9.12-2.16c2.15-0.76,4.06-2.23,6.04-3.44
		c3.61-2.21,7.27-2.31,11.47-1.59c8.8,1.51,17.72,2.41,26.61,3.32c2.95,0.3,6.03,0.16,8.96-0.36c1.7-0.3,3.21-1.73,4.34-2.38
		c-1.24-13.18-4.65-25.42-1.27-38.54c-4.96-2.47-7.7-6.48-8.77-11.63c0.73-1.47,1.73-2.88,2.13-4.45c0.48-1.91,0.53-3.94,0.63-5.93
		c0.16-2.99-0.29-6.11,0.4-8.97c2.24-9.39,2.72-19,3.19-28.52c0.33-6.68,3-11.22,7.61-15.46c3.23-2.96,6.79-4.32,10.95-3.47
		c5.51,1.12,11.11,2.2,16.34,4.16c4.05,1.52,7.46,1.5,11.53,0.19c5.98-1.93,12.17-3.65,18.39-4.23c6.47-0.61,12.96-3.07,19.67-0.63
		c1.66,0.6,3.89-0.45,5.87-0.59c3.96-0.29,8.04-1.19,11.86-0.55c7.09,1.2,13.82-1.25,20.75-1.05c14.12-4.86,28.81-8.2,41.99-15.61
		c8.74-4.91,18-8.62,27.41-12c3.43-1.23,6.74-3.27,10.25-3.68c4.39-0.51,8.41-1.61,12.42-3.31c6.42-2.73,12.95-5.23,19.45-7.77
		c4.34-1.69,8.62-3.6,13.08-4.88c15.36-4.44,30.28-10.07,45.03-16.21c3.97-1.65,8.15-2.85,12.29-4.06
		c9.25-2.71,18.61-4.96,27.24-9.55c5.86-3.11,12.05-5.63,18.16-8.25c2.43-1.04,5.02-1.73,7.58-2.42
		c14.46-3.91,28.81-8.11,42.53-14.3c4.86-2.2,9.52-4.62,14.16-7.24c7.79-4.39,16.03-7.98,24.09-11.9c0.3-0.14,0.65-0.16,0.95-0.3
		c7.57-3.51,15.68-5.25,23.9-6.8c0.74-1.81,1.58-3.28,1.94-4.85c1.12-4.85,2.22-9.71,3.02-14.62c2.19-13.42,3.99-26.9,7.19-40.15
		c1.79-7.41,3.9-14.88,4.37-22.42c0.49-7.85,3.11-14.92,5.21-22.25c1.83-6.38,3.63-12.78,5.12-19.24c2.09-9.05,3.73-18.2,5.85-27.23
		c1.37-5.82,3.04-11.59,4.99-17.25c1.92-5.59,0.44-12.14,4.95-17c0.53-0.57,0.2-1.93,0.28-2.93c1.05-12.69,4.1-24.8,9.75-36.31
		c5.42-11.05,10.4-22.32,15.52-33.51c0.39-0.86,0.37-1.9,0.58-3.08c-1.96-1.6-3.91-3.18-5.63-4.59c0.62-4.72,3.84-6.66,6.74-8.88
		c4.48-3.43,9.35-6.48,13.29-10.45c5.13-5.16,9.55-11.05,14.22-16.66c1.06-1.27,2-2.65,2.87-4.06c5.34-8.63,12.53-15.6,20.71-21.35
		c14.41-10.14,29.5-19.11,45.15-27.38c17.3-9.15,33.43-20.5,50.12-30.83c12.15-7.51,23.46-16.29,36.11-23.09
		c5.95-3.2,11.93-5.52,18.45-7.17c10.3-2.61,20.68-5.28,30.51-9.2c12.65-5.06,24.79-11.4,37.17-17.15c2.71-1.26,5.48-2.39,8.26-3.51
		c12.05-4.84,24.09-9.7,34.7-17.43c5.73-4.17,12.28-6.58,19.08-8.43c2.55-0.7,5.04-1.63,7.49-2.62c5.86-2.36,11.68-4.82,17.53-7.24
		c2.11-0.87,4.22-1.72,6.81-2.78c-1.97-2.83-3.61-5.19-5.06-7.27c2.1-7.1,2.02-7.19,5.56-10.84c5.34-5.5,10.79-10.88,16.23-16.29
		c6.06-6.02,13-10.35,21.76-11.07c3.07-0.25,5.88-1.02,8.12-4.23c-1.04-4.11-2.58-8.54-3.2-13.09c-0.99-7.31-2.43-14.4-5.72-21.06
		c-0.57-1.15-0.65-2.56-0.88-3.87c-2.75-15.34-6.84-30.45-6.35-46.31c0.17-5.47-1.21-11.16-4.33-16.05
		c-7.29,3.24-7.28,3.22-14.15,0.36c-1.84-0.76-3.92-1.07-5.58-2.09c-1.9-1.17-3.46-2.9-5.52-4.69c1.23-3.71,2.06-7.28,3.55-10.55
		c3.44-7.56,7.42-14.67,14.39-19.88c6.11-4.56,11.61-9.93,17.35-14.98c0.74-0.65,1.37-1.46,1.95-2.26
		c7.53-10.27,16.76-19.03,26.3-27.25c7.34-6.32,14.34-12.91,21.05-19.82c10.19-10.5,20.08-21.28,30.04-32
		c3.37-3.63,7.37-7.01,9.65-11.27c4.41-8.25,10.45-15.41,14.88-23.59c1.98-3.66,4.87-6.17,8.36-8.33
		c6.21-3.86,12.63-7.56,18.22-12.21c4.42-3.67,9.06-6.6,14.22-8.9c0.55-0.24,0.89-0.94,1.65-1.8c0-8.92-0.07-18.21,0.02-27.5
		c0.07-6.62-0.36-13.36,0.79-19.8c1.01-5.64,1.34-11.2,1.37-16.84c0.07-12.05,2.03-23.65,6.42-35.01
		c3.34-8.65,4.91-17.73,1.87-27.16c-1.73-5.34-2.28-11.01-2.26-16.74c0.02-8.3,0.12-16.58-1.52-24.86
		c-0.95-4.8-0.88-9.93,0.82-14.83c0.64-1.85,0.62-3.93,0.89-5.9c0.81-5.91,1.26-11.89,2.49-17.71c2.47-11.68,5.36-23.26,8.08-34.89
		c0.15-0.65,0.64-1.32,0.53-1.9c-1.03-5.78,0.83-11.13,2.29-16.56c0.89-3.34,0.4-6.6-1.25-9.68c-1.1-2.06-2.37-4.08-3.07-6.27
		c-0.69-2.16-1.57-4.75-0.98-6.74c2.07-6.99,1.45-14.62,5.29-21.18c1.15-1.97,1.54-4.38,2.3-6.58c2.35-6.76,2.98-13.51,0.94-20.55
		c-1.27-4.39-1.7-9.01-2.45-13.25c2.52-2.71,5.23-4.64,8.26-3.31c3.61,1.59,6.5-0.75,9.74-0.7c3.67,0.05,7.2-0.21,10.82-1.28
		c9.14-2.69,17.24-7.32,24.36-13.35c18.87-16,39.93-28.58,61.41-40.58c14.37-8.03,29.96-12.63,45.77-16.73
		c11.02-2.86,22.11-4.4,33.54-4c6.95,0.24,13.91,0.27,20.85-1.5c3.75-0.96,8.17-1.06,11.87-0.04c6.6,1.83,13.18,1.52,19.81,1.62
		c7.33,0.11,14.79-0.64,21.95,0.5c6.99,1.12,13.9,1.17,20.87,1.29c8.33,0.14,16.66,0.11,25,0.18c10.34,0.1,20.43,1.72,30.43,4.39
		c8.33,2.22,16.84,3.74,25.27,5.58c5.8,1.27,9.6-1.66,12.55-6.1c0.9-1.35,1.31-3.04,1.82-4.62c1.88-5.75,6.07-8.1,11.82-9.27
		c7.57-1.53,15.13-1.98,22.79-1.97c3.31,0,6.83,0.15,9.9-0.85c6.05-1.98,12.27-2.88,18.47-4.03c8.27-1.53,16.49-1.6,24.76,0.01
		c5.85,1.13,11.73,2.51,17.65,2.82c6.4,0.33,12.55,1.49,18.57,3.39c10.24,3.23,20.72,4.59,31.43,4.65c3.65,0.02,7.45-0.11,10.9,0.85
		c8.95,2.49,18.08,4.65,26.09,9.7c7.35,4.63,14.96,8.46,23.63,10.24c3.81,0.78,7.45,2.94,10.84,5.01c4.5,2.75,9.23,5.45,11.39,10.73
		c0,2.65,0,5.26,0,7.44c-1.57,5.05-6.56,8.11-6.33,13.35c0.89,0.71,1.38,1.44,1.91,1.48c9.99,0.6,19.08,5.94,29.27,5.58
		c1.25-0.04,2.51,0.85,3.79,1.17c3.54,0.87,7.1,1.68,10.66,2.47c4.54,1.01,9.16,1.74,13.63,2.99c18.57,5.19,37.11,10.47,55.62,15.87
		c3.81,1.11,7.53,2.7,11.12,4.4c10.94,5.19,27.89,16.18,38.51,24.55c1.81,1.43,3.93,2.48,5.95,3.62c2.6,1.46,5.25,2.82,8.05,4.32
		c1.04,3.2,2.05,6.32,3.09,9.52c-0.79,1.63-1.14,3.58-2.3,4.51c-3.52,2.8-4.05,6.86-4.75,10.68c-1.49,8.13-0.56,16.65-3.86,24.51
		c-0.11,0.27-0.01,0.68,0.1,0.98c1.42,3.73-0.17,7.17-0.94,10.72c-1.2,5.51-2.56,11.01-2.36,16.74c0.06,1.65-0.11,3.35-0.46,4.96
		c-2.88,13.33-3.31,26.99-5.4,40.42c-0.76,4.92-1.35,9.87-2.04,14.8c-0.64,4.59-1.1,9.23-2.04,13.76
		c-1.21,5.88-2.32,11.73-2.11,17.77c0.07,1.99-0.03,4.01-0.28,5.98c-1.81,14.14-3.67,28.28-5.56,42.42
		c-0.57,4.27-1.32,8.52-1.94,12.79c-1.58,10.83-2.91,21.7-4.75,32.48c-1.5,8.84-3.55,17.58-3.55,26.62c0,1.98-0.31,3.98-0.66,5.93
		c-1.26,7.2-2.09,14.4-1.38,21.75c0.35,3.63,0.91,7.63-0.21,10.92c-2.15,6.3,1.17,12.55-0.77,18.66c2.43,6.88,0.26,13.83,0.26,20.74
		c0,2.97-0.77,5.93-0.86,8.9c-0.37,11.96-0.04,23.93-2.25,35.8c-1.52,8.14-2.56,16.36-3.73,24.56c-0.75,5.25-1.47,10.51-1.95,15.79
		c-0.4,4.4-2.14,7.54-6.58,8.99c-1.64-0.71-3.27-1.19-4.65-2.06c-4.7-2.95-9.84-3.35-15.26-3.68c-13.81-0.83-27.23,1.46-40.51,4.48
		c-5.75,1.31-11.54,3.67-16.49,6.83c-4.48,2.86-9.04,5.57-13.56,8.35c-8.9,5.46-16.43,11.83-19.71,22.67
		c-2.58,8.52-6.93,16.57-11.81,24.14c-2.68,4.15-5.75,8.05-8.75,12.21c10.29,5.09,20.87,4.94,31.33,5.56
		c3.54,0.21,6.72-1.04,9.27-3.16c7.62-6.35,17.24-5.87,26.07-8.05c2.19-0.54,4.65-0.71,6.87-0.34c11.46,1.91,22.95,3.78,33.91,7.83
		c4.34,1.61,8.43,4.04,12.87,5.24c5.32,1.43,10.33,3.95,13.94,7.45c8.12,7.87,14.08,17.55,18.71,27.95
		c3.8,18.59,3.41,36.96-2.88,55.02c-0.98,2.83-2.44,5.6-2.79,8.51c-0.89,7.27-5.5,12.71-8.75,18.79c-1.37,2.56-3.54,4.97-5.91,6.67
		c-8.91,6.4-17.92,12.68-27.16,18.6c-4.15,2.66-8.75,4.49-13.69,5.82c-6.94,1.87-13.82,1.49-20.79,1.64
		c-10.41,0.23-19.78-3.11-28.3-8.47c-7.09-4.47-12.87-10.77-15.41-18.96c-1.06-3.42-2.63-5.95-5.01-8.31
		c-2.86-2.83-5-5.83-5.77-10.15c-0.87-4.82-2.46-9.65-5.76-13.68c-0.97-1.19-1.64-3.04-1.59-4.57c0.15-5.43-2.81-7.86-7.66-8.76
		c-2.94-0.55-5.91-0.96-8.8-1.66c-4.7-1.14-7.67,0.97-9.84,4.83c-1.3,2.31-2.87,4.53-3.79,6.99c-0.85,2.29-0.99,4.84-1.51,7.62
		c-2.35-0.5-4.12-0.88-6.56-1.4c0.38,2.4,0.56,4.32,1,6.19c2.3,9.69,4.07,19.45,5.3,29.35c0.94,7.54,2.36,15.21,4.99,22.3
		c3.35,8.99,7.98,17.57,13.5,25.49c3.25,4.67,6.52,9.2,8.37,14.64c0.41,1.21,1.46,2.21,2.22,3.31
		c7.51,10.98,14.67,22.22,22.61,32.89c9.44,12.68,21.9,21.08,37.74,24.07c7.17,1.35,14.46,2.57,21.29,4.98
		c5.67,2,11.36,3.66,17.17,5.1c4.55,1.13,8.82,2.85,12.23,6.34c1.36,1.39,3.11,2.51,4.87,3.38c3.38,1.66,4.92,4.28,5.04,7.94
		c0.13,3.94-0.15,7.98,0.65,11.8c1.05,5.01,1.22,9.81,0.09,14.79c-0.59,2.57-0.88,5.28-0.81,7.91c0.22,7.97-0.85,15.88-0.6,23.86
		c0.26,8.13-0.68,16.29,0.32,24.44c0.24,1.97,0.57,4.15,0,5.96c-2.33,7.4-0.74,15.19-2.5,22.62c-0.22,0.95-0.2,1.97-0.19,2.95
		c0.19,14.92,0.44,29.85,0.58,44.77c0.04,3.94-0.2,7.89-0.41,11.82c-0.38,7.23-1.22,14.46-1.16,21.69c0.09,9.74-1.54,19.18-3.6,28.6
		c-2.35,10.69-4.98,21.32-7.23,32.03c-1.98,9.41-3.59,18.89-5.36,28.34c-0.67,3.58-1.17,7.2-2.03,10.73
		c-1.84,7.5-1.74,15.15-2.23,22.77c-0.3,4.62-0.42,9.08-0.04,13.75c0.73,8.93,0.22,17.97,0.15,26.96c-0.01,1.31-0.35,2.64-0.71,3.91
		c-1.44,5.01-4.42,7.13-9.68,6.49c-5.59-0.68-11.2-1.41-16.7-2.62c-10.08-2.23-20.31-2.92-30.54-3.04
		c-24.66-0.27-49.32-0.38-73.98-0.12c-10.94,0.11-21.86,1.25-32.79,1.97c-0.98,0.06-1.99,0.35-2.88,0.75
		c-2.73,1.24-5.32,2.82-8.12,3.84c-2.96,1.07-6.11,1.65-9.18,2.44c1.43,4.62,2.4,8.85,4.02,12.82
		c7.02,17.23,14.24,34.38,21.33,51.59c0.62,1.51,0.86,3.19,1.19,4.81c1.06,5.2,2,10.43,3.15,15.61c1.65,7.46,3.42,14.89,5.16,22.33
		c2.87,12.29,5.61,24.61,8.7,36.84c1.04,4.12,2.07,8.38,4.66,12.17c1.39,0.08,2.95,0.65,3.95,0.14c7.32-3.77,14.97-2.28,22.45-1.34
		c6.56,0.82,13.04,2.42,19.47,4.01c5.73,1.42,11.1,4.08,17.37,3.32c2.85-0.35,5.92,0.7,8.82,1.4c12.59,3.04,25.17,6.13,37.71,9.36
		c2.55,0.66,5.17,1.63,7.34,3.09c9.16,6.19,20.16,8.34,29.61,14.14c8.14,4.99,17.56,7.91,26.42,11.72c2.75,1.18,5.77,1.91,8.24,3.51
		c11.99,7.78,24.03,15.52,35.66,23.82c5.09,3.63,9.84,8.1,13.68,13.01c6.19,7.92,12.87,15.18,20.87,21.27
		c1.27,0.97,2.17,2.46,3.12,3.81c1.72,2.44,3.3,4.99,5.03,7.41c6.34,8.85,10.38,18.51,10.65,29.55c0.07,2.96,0.27,5.92,0.39,8.51
		c1.85,1.75,3.42,3,4.69,4.51c1.55,1.84,2.39,4.01,1.63,6.49c-1.45,4.77-2.5,9.56-2.99,14.58c-0.31,3.14-2.47,6.11-3.84,9.13
		c-1.52,3.37,0.34,6.92-1.27,10.59c-3.86,8.78-6.61,18.03-10.14,26.96c-3.19,8.07-5.66,16.33-6.24,24.95
		c-0.49,7.42-2.44,14.43-4.77,21.34c-1.25,3.69-2.9,7.38-6.23,10.06c-1.39,1.12-2.07,3.23-2.85,4.99
		c-2.25,5.1-3.88,10.55-6.69,15.31c-4.91,8.36-8.89,17.03-11.62,26.31c-1.59,5.42-3.35,10.8-4.79,16.26
		c-2,7.62-7.02,12.51-13.54,16.31c-1.54-0.43-2.78-0.89-4.07-1.11c-4.24-0.71-8.65-2.37-12.72-1.77c-7.34,1.1-14.62,0.56-21.92,0.94
		c-2.65,0.14-5.37,0.09-7.92,0.72c-7.74,1.92-15.39,4.23-23.13,6.19c-7.73,1.96-15.59,4.42-23.58,2.53
		c-8.07-1.91-16.3-3.95-23.75-7.45c-12.73-5.98-25.98-10.36-39.34-14.4c-8.23-2.48-16.8-3.85-25.26-5.5
		c-5.21-1.02-10.5-1.6-15.75-2.42c-2.95-0.46-5.87-1.32-8.82-1.42c-5.14-0.17-9.9-1.63-14.35-3.9c-5.38-2.74-10.95-4.81-16.73-6.47
		c-13.58-3.89-25.86-10.33-37.45-18.4c-12.28-8.55-24.76-16.8-35.77-27.02c-2.73-2.54-5.83-4.55-9.79-4.31
		c-7.39,0.45-12.44-3.57-16.89-7.92c0-2.31,0-3.92,0-5.41c-5.53-3.99-11.04-7.69-16.2-11.82c-1.99-1.59-3.57-3.98-4.7-6.31
		c-1.44-2.97-2.85-6.17-3.2-9.4c-1.02-9.23-5.21-17.11-9.49-25.04c-1.09-2.02-2.14-4.12-2.82-6.3c-2.34-7.55-4.51-15.15-6.88-23.15
		c-2.86,1.33-5.24,2.48-7.65,3.56c-7.29,3.26-14.43,6.96-21.94,9.62c-8.09,2.86-16.2,5.74-24.99,6.5
		c-7.23,0.62-14.56,2.07-21.42,4.39c-6.24,2.1-12,5.71-17.81,8.94c-5.81,3.23-11.58,6.58-17.09,10.3
		c-6.6,4.46-13.33,8.89-19.23,14.18c-8.93,8.01-18.01,15.75-28.01,22.4c-2.21,1.47-4.07,3.59-6.43,4.69
		c-8.13,3.81-16.41,7.3-24.61,10.94c-1.82,0.81-3.7,1.58-5.36,2.65c-4.75,3.06-9.32,6.4-14.11,9.38c-3.72,2.32-7.13,4.77-9.32,8.76
		c-0.7,1.28-2.47,1.97-3.85,3.01c-5.79-2.36-11.25-4.6-17.17-7.02c1.12-3.31,2.04-6.05,2.74-8.14c4.89-3.13,9.08-5.81,13.69-8.76
		c0.13-3.58,1.27-6.9,5.58-7.72c1.42,0.99,2.73,1.9,4.11,2.86c13.3-6.94,25.55-15.74,39.81-20.66c0.92-0.32,1.8-0.91,2.55-1.54
		c7.59-6.45,15.72-12.4,22.58-19.56c8.18-8.54,17.61-15.05,27.58-21.15c5.64-3.46,11.64-6.35,16.77-10.74
		c2.71-2.31,6.31-3.69,9.66-5.12c11.37-4.81,23.89-5.71,35.37-10.21c1.19-0.46,2.63-0.3,3.96-0.34c10.6-0.39,20.43-3.94,29.13-9.41
		c12.62-7.93,25.21-16.12,35.82-26.84c1.62-1.63,3.65-2.86,5.5-4.26c9.03-6.79,18.96-12.25,27.93-19.18
		c5.21-4.02,11.1-7.6,17.25-9.86c9.45-3.47,18.1-8.4,26.78-13.2c11.76-6.49,24.17-10.68,37.19-13.61c7.71-1.74,15.86-1.6,22.98-4.87
		c5.32-11.71,7.38-23.91,8.47-36.1c1-11.24,0.41-22.63,0.22-33.96c-0.05-2.89-0.78-5.98-1.99-8.61
		c-5.89-12.79-8.9-26.42-11.92-40.04c-2.72-12.31-5.07-24.71-7.9-36.99c-1.41-6.14-4.04-12.02-5.24-18.18
		c-2.49-12.87-9.08-24.23-12.84-36.63c-2.02-6.64-5.4-12.86-7.94-19.35c-2.06-5.25-3.51-10.74-5.73-15.91
		c-5.14-11.98-8.63-24.4-10.81-37.23c-0.71-4.21-1.64-8.39-2.44-12.39c-10.49-3.42-10.49-3.42-15.21-10.7
		c-0.94,0.99-1.75,1.94-2.65,2.79c-0.95,0.89-1.88,1.93-3.02,2.48c-8.31,4-15.61,16.27-17.42,24.36
		c-1.72,7.66-4.79,14.36-8.28,21.16c-3.45,6.72-7.97,12.15-14.59,15.92c-5.88,3.35-10.5,8.11-14.08,13.88
		c-5.43,8.75-10.91,17.47-16.39,26.2c-0.88,1.4-1.52,3.33-2.81,4.04c-5.74,3.15-7.65,8.92-10.16,14.55
		c-2.27,0.69-4.45,1.87-6.66,1.93c-4.58,0.11-8.43,2-12.1,4.26c-4.81,2.95-9.36,6.31-14.11,9.35c-1.64,1.05-3.49,2.08-5.37,2.39
		c-4.12,0.68-7.57,2.6-10.68,5.13c-6.96,5.67-14.11,11.15-20.58,17.34c-6.52,6.24-15.46,9.21-21.2,16.35
		c-0.19,0.23-0.58,0.42-0.88,0.43c-5.49,0.1-8.68,4.52-12.98,6.83c-3.49,1.88-7.01,3.78-10.7,5.22c-9.34,3.63-19.06,5.73-28.99,7.08
		c-3.54,0.48-7.29,1.54-10.28,3.4c-4.48,2.79-8.4,6.49-12.5,9.87c-13.39,11.04-27.75,20.52-43.65,27.62
		c-1.68,0.75-3.99,1.08-4.25,4.31c17.56,0.84,34.13,6.93,51.52,9.27c0.97,2.01,1.96,3.74,2.63,5.58c0.32,0.87,0.06,1.95,0.06,3.11
		c-3.21,5.31-7.98,9.04-14.09,10.04c-6.18,1.02-12.51,1.36-18.74-0.87c-10.69-3.84-21.89-5.34-33.12-6.79
		c-6.39-0.83-12.62-0.1-18.78,0.99c-13.43,2.39-26.61,5.82-39.35,10.8c-3.07,1.2-6.39,1.81-9.65,2.43
		c-8.17,1.55-15.81,4.6-23.95,7.69c0.17,3.14,0.33,6.02,0.48,8.8c4.5,1.96,8.5,3.58,12.38,5.43c4.18,2,8.18,4.37,12.38,6.29
		c3.01,1.37,6.17,2.52,9.38,3.32c6.44,1.6,12.98,2.77,19.42,4.35c2.55,0.63,4.97,1.8,7.39,2.87c3.33,1.47,6.5,3.31,9.9,4.57
		c5.93,2.2,11.94,4.19,17.98,6.05c4.21,1.29,8.03,3.04,11.35,6.03c1.69,1.52,3.77,3,5.92,3.56c8.19,2.12,15.08,6.92,22.61,10.39
		c3.92,1.81,8.04,3.22,11.83,5.24c6.42,3.42,12.79,6.97,18.92,10.88c3.71,2.36,4.53,7.7,2.49,11.61
		c-4.14,7.94-13.2,11.08-21.28,7.25c-2.09-0.99-3.95-2.45-5.95-3.64c-4.57-2.71-9.09-5.52-13.78-8.03
		c-5.85-3.14-11.81-6.06-17.77-8.99c-12.8-6.3-25.28-13.19-38.68-18.36c-17.08-6.6-34.02-13.45-51.79-18.06
		c-3.84-1-7.49-2.76-11.19-4.25c-1.85-0.74-3.56-1.95-5.47-2.42c-8.69-2.16-17.44-4.1-26.15-6.18c-3.76-0.9-7.32-0.51-10.57,1.57
		c-6.45,4.12-13.12,7.94-19.16,12.59c-7.62,5.87-14.49,12.72-22.09,18.62c-5.95,4.62-10.73,9.92-13.69,16.82
		c-1.51,3.53-3.94,6.08-7.26,7.94c-11.91,6.65-23.76,13.42-35.7,20.02c-6.39,3.53-12.9,6.86-19.4,10.2
		c-8.57,4.4-16.99,9.21-25.84,12.97c-14.4,6.12-28.28,13.24-42.17,20.37c-12.39,6.36-24.6,13.07-36.88,19.65
		c-1.16,0.62-2.26,1.41-3.25,2.27c-10.35,8.98-22.22,15.76-33.72,23.04c-7.87,4.98-16.07,9.42-22.22,17.76
		c-2.56,11.17-6.45,22.86-6.79,35.3c-0.06,2.24-1.12,4.48-1.9,6.66c-1.68,4.69-3.17,9.35-4,14.35c-1.25,7.51-4.02,14.75-4.07,22.5
		c0,0.64-0.23,1.34-0.54,1.91c-4.06,7.22-3.06,15.53-4.94,23.24c-2.42,9.97-4.02,20.17-5.53,30.33
		c-1.55,10.49-4.43,20.71-5.22,31.41c-0.51,6.91-0.73,13.97-1.97,20.8c-1.15,6.3-1.29,12.54-1.38,18.86
		c-0.08,5.31-0.51,10.55-1.48,15.84c-1.49,8.13-2.72,16.49-2.49,24.71c0.5,17.69-2.89,35.15-2.39,52.8c0.05,1.62-0.6,3.25-0.89,4.88
		c-0.8,4.51-1.59,9.02-2.31,13.14c2.56,2.85,5.4,3.79,8.34,4.4c14.94,3.1,29.94,5.91,44.81,9.32c4.73,1.09,8.69,0.47,12.16-2.4
		c4.86-4.02,9.86-8.05,13.91-12.82c7.94-9.34,15.2-19.24,22.89-28.8c3.95-4.91,7.98-9.79,12.37-14.29
		c4.16-4.26,9.19-7.7,13.22-12.07c4.61-5,9.79-8.87,15.93-11.75c4.5-2.1,8.9-4.56,12.97-7.39c9.08-6.32,17.12-13.69,21.88-23.99
		c0.28-0.6,0.73-1.12,1.02-1.72c1.61-3.26,3.46-6.42,4.73-9.81c4.2-11.22,6.36-23.01,8.74-34.68c1.98-9.74,3.79-19.39,7.07-28.87
		c3.79-10.92,6.92-22.17,7.71-33.86c0.11-1.63,0.68-3.22,0.98-4.55c-4.02-7.66-3.9-7.62-1.72-15.28
		c4.55-15.98,9.59-31.85,15.96-47.16c4.84-11.65,7.62-24.1,13.97-35.18c2.79-4.86,4.71-10.22,7.03-15.34
		c5.48-12.1,8.03-25.28,14.14-37.22c2.51-4.9,5.27-9.19,9.31-12.67c3.52-3.03,7.14-6.1,11.17-8.34c10.87-6.04,20-14.33,29.18-22.43
		c7.77-6.85,15.83-13.18,24.52-18.74c2.49-1.59,5.3-2.68,7.91-4.08c8.4-4.48,17.84-5.15,26.86-7.3c5.61-1.34,10.67,0.54,13.99,5.48
		c2.67,3.97,6.17,6.85,10.02,9.58c8.48,6.02,14.71,14.36,21.73,21.86c3.16,3.37,5.98,7.14,8.49,11.01
		c4.14,6.37,7.55,13.23,11.94,19.41c3.64,5.12,5.33,10.76,5.94,16.66c1.09,10.54,1.85,21.14,2.1,31.72
		c0.2,8.61,2.4,16.31,6.57,22.52c4.66,1.92,8.41,3.25,11.97,4.96c11.09,5.32,21.77,11.7,33.24,15.98
		c15.66,5.85,28.56,15.54,40.86,26.22c9,7.82,17.21,16.54,26.97,23.52c1.79,1.28,3.61,3.31,4.2,5.35
		c2.74,9.59,5.82,19.02,10.16,28.02c0.71,1.48,1.36,3.17,1.38,4.78c0.08,6.18,0.31,12.41-0.27,18.54
		c-0.85,8.9-1.68,17.73-0.96,26.72c0.47,5.93-0.13,11.97-0.5,17.94c-0.29,4.62-1.06,9.21-1.47,13.83
		c-0.49,5.61,0.55,11.31-1.26,16.87c-0.47,1.44,0.13,3.26,0.32,4.89c0.19,1.64,1.09,3.5,0.59,4.87c-1.48,4.06,0.02,7.86,0.23,11.78
		c0.26,4.95,0.73,9.87-3.03,14.2c-2.43,2.8-2.99,6.61-2.72,10.41c0.23,3.32,0.58,6.64,0.55,9.96c-0.02,2.27-0.13,4.77-1.07,6.76
		c-1.55,3.28-3.58,6.39-5.82,9.26c-2.97,3.81-6.94,6.35-11.91,6.51c-5.11,0.16-9.76,1.92-14.52,3.42
		c-6.03,1.9-12.16,3.46-18.16,5.42c-5.37,1.75-10.88,3.34-15.87,5.9c-8.66,4.44-17.78,7.5-27.02,10.29
		c-2.2,0.66-4.56,1.21-6.83,1.17c-3.77-0.07-7.21,0.93-10.69,2.12c-8.27,2.82-17.06,2.22-25.54,3.74c-1.53,0.27-3.27-0.39-4.87-0.81
		c-11.94-3.07-24.21-3.94-36.41-4.83c-12.27-0.89-24.54-0.24-36.67,2.78c-6.05,1.51-12.65,2.66-18.71,1.84
		c-13.36-1.81-27.31-1.54-39.54-8.71c-1.13-0.66-2.5-0.91-3.75-1.36c-5.01-1.79-10.03-3.55-15.02-5.39
		c-4.64-1.71-9.21-3.65-13.89-5.22c-12.71-4.28-24.62-9.89-33.45-19.15c-4.01-0.95-7.28-1.54-10.42-2.52
		c-6.03-1.89-12.06-3.56-18.36-4.47c-3.47-0.5-6.99-2.13-10-4.01c-6.1-3.83-10.92-9.7-18.72-10.74c-1.97-0.26-2.97-2.47-3.5-4.52
		c-0.62-2.42,0.63-5.24-1.72-7.7c-1.48,0.79-2.98,1.46-4.34,2.35c-6.96,4.52-13.2,10.04-20.22,14.54
		c-3.62,2.32-7.14,4.76-10.94,6.82c-2.32,1.26-4.76,2.59-6.54,4.47c-4.32,4.57-8.3,9.46-12.38,14.24c-3.02,3.53-6,7.1-8.97,10.67
		c-1.7,2.04-3.62,3.96-4.99,6.22c-3.82,6.33-8.82,11.64-13.91,16.91c-2.3,2.39-4.27,5.09-6.46,7.58c-2.42,2.74-5.05,5.31-7.39,8.12
		c-4.48,5.37-9.45,6.55-15.89,3.24c-3.78-1.95-8.08-3.17-12.28-3.95c-12.74-2.36-25.38-5.02-37.87-8.52
		c-6.04-1.69-12.29-3.04-18.52-3.56c-4.77-0.39-9.28-1.36-13.45-3.34c-5.76-2.74-11.57-4.67-18.51-3.62
		c-0.91-3.99-1.71-7.45-2.57-11.24c-4.95-2.96-10-6.03-15.49-8.48c-10.05-4.48-19.39-10.26-28.15-16.97
		c-3.15-2.41-6.51-4.55-9.84-6.72c-2.23-1.45-4.55-2.76-6.85-4.08c-9.51-5.48-19.02-10.96-28.57-16.37
		c-1.12-0.63-2.46-0.87-4.14-1.44c-5.18,5.28-11.95,4.29-18.43,4.83c-1.84-1.94-3.33-3.74-5.05-5.27c-2.23-1.97-4.4-4.27-7.03-5.49
		c-8.45-3.92-16.56-8.44-24.6-13.13c-7.42-4.32-15.02-8.34-22.53-12.52c-2.33-1.29-4.65-2.61-6.9-4.02c-3.36-2.11-6.67-4.33-10-6.5
		c-4.46-2.9-8.92-5.8-13.38-8.69c-2.23-1.44-4.4-2.98-6.71-4.27c-14.8-8.27-30.28-15.15-45.77-21.99
		c-4.56-2.02-9.15-3.99-13.74-5.93c-12.57-5.29-25.13-10.59-37.73-15.78c-3.07-1.27-6.24-2.19-8.78-4.55
		c-1.17-1.09-2.78-1.79-4.29-2.43c-16.84-7.11-33.7-14.17-50.72-21.32c-8.29,1.66-16.82,2.11-25.22,0.3
		c-2.02-3.09-3.72-5.95-5.69-8.6c-1.84-2.47-4.26-4.07-7.54-4.34c-6.94-0.58-13.88-1.29-20.8-2.09c-4.27-0.49-8.51-1.28-12.77-1.87
		c-2.8-0.38-5.29-1.57-6.7-3.92c-3.31-5.51-8.98-6.69-14.4-8c-10.96-2.64-22.04-4.81-33.06-7.2c-3.89-0.84-7.79-1.68-11.64-2.67
		c-14.5-3.73-28.91-7.76-42.99-12.87c-1.54-0.56-3.51-1.56-4.75-1.06c-6.12,2.47-11.72-0.96-17.54-0.67
		c-5.7-5.52-11.45-10.5-15.97-16.82c-2.67-3.73-6.32-6.81-9.73-9.97c-2.43-2.25-5.29-4.03-7.8-6.2
		c-11.67-10.1-24.99-17.55-38.8-24.17c-8.64-4.14-18.09-6.51-26.05-12.16c-1.59-1.13-3.62-1.65-5.46-2.42
		c-11.35-4.75-22.74-9.43-34.04-14.29c-3.66-1.57-7.08-3.49-11.13-4.26c-3.14-0.59-6.5-1.76-7.79-6c0.83-2.51,1.96-5.29,2.64-8.18
		c0.52-2.22,1.32-4.96,0.49-6.79c-2-4.4-0.42-8.46,0.28-12.42c-3.88-5.65-5.24-11.74-5.92-18.08c-0.99-9.24-1.98-18.47-5.91-27.1
		c-1.37-3.01-2.52-6.22-3.18-9.45c-1.17-5.69-4.54-10.17-7.47-14.91c-1.02-1.65-2.3-3.15-3.39-4.62c0.64-2.64,1.6-4.88,1.64-7.14
		c0.2-11.64,2.93-23.1,2.43-34.8c-0.17-3.96,0.43-7.95,0.66-11.93c0.27-4.61,1.67-9.53,0.51-13.75c-1.54-5.61-0.16-10.51,0.91-15.64
		c0.61-2.92,1.73-5.73,2.63-8.59c1.44-4.55,1.54-9.11,0.21-13.93c-1.16-0.59-2.32-1.7-3.47-1.69c-7.25,0.07-14.32-1.68-21.73-0.87
		c-7.86,0.86-15.93-0.23-23.91-0.4c-1.92-0.04-4.06-0.23-4.49,2.49c2.05,3.72,5.68,5.49,8.92,7.81c4.54,3.25,7.91,7.89,7.31,13.44
		c-0.51,4.74-1.27,9.91-5.08,13.77c-1.84,1.87-3.25,4.17-4.88,6.31c-5.15,1.63-10.13,3.94-15.31,4.59
		c-4.12,0.52-8.48-1.1-12.75-1.61c-8.67-1.02-14.83-5.37-18.24-13.46c-0.9-2.14-1.26-4.75-2.73-6.36c-3.47-3.8-3.85-8.28-4.05-13.97
		c2.47-4.02,5.38-8.77,8.59-14.02c-8.48-5.65-18.29-7.29-27.16-9.63c-11.58,3.29-22.45,6.38-33.32,9.48
		c-8.88,2.53-16.41,7.04-21.94,14.77c0.58,1.41,0.99,2.66,1.58,3.83c3.72,7.36,8.27,14.35,8.7,23.01c0.11,2.24,1.2,4.5,2.14,6.62
		c3.1,6.98,5.49,14.26,10.01,20.61c3.95,5.55,4.77,13.38-1.97,18.81c-3.56,2.86-5.34,6.61-5.7,10.92
		c-5.13,3.73-9.67,7.73-14.83,10.62c-6.36,3.56-13.13,6.46-19.91,9.18c-8.47,3.39-17.28,4.68-26.39,2.67
		c-2.58-0.57-5.25-1.04-7.87-0.99c-4.44,0.08-8.6-0.94-12.65-2.52c-7.4-2.89-14.95-5.52-21.72-11.6c-1.16-4.36-2.69-9.44-3.83-14.6
		c-2.72-12.3-6.6-24.18-12.36-35.41C43.11,1615.03,43.11,1611.69,43.11,1608.36z M1353.95,788.89c6.61,1.93,12.53,4.04,18.61,5.35
		c7.77,1.68,15.65,2.94,23.54,3.95c4.6,0.59,9.31,0.38,13.97,0.42c4.67,0.04,9.22,0.52,13.82,1.61c14.52,3.44,29.19,6.2,43.94,8.59
		c6.42,1.04,12.86,2.99,18.88,6.01c6.86,3.45,14.08,5.97,21.98,5.64c2.33-0.1,4.66,0.11,7,0.15c5.79,0.11,10.14,3.03,13.66,7.28
		c4.24,5.13,1.91,11.4-4.58,12.75c-1.3,0.27-2.62,0.85-3.9,0.8c-7.95-0.32-15.93-0.53-23.85-1.28c-4.26-0.41-8.38-2.14-12.63-2.72
		c-8.06-1.09-15.34-4.32-22.58-7.66c-6.41-2.96-12.89-4.86-20.04-5.49c-7.22-0.64-14.36-2.66-21.44-4.41
		c-11.99-2.97-24.28-3.62-36.43-5.38c-8.86-1.29-17.64-3.16-26.46-4.78c-1.96-0.36-3.89-0.92-5.86-1.13
		c-11.58-1.23-21.38-6.91-31.17-12.52c-1.9-1.09-3.1-3.38-4.57-5.05c-11.42-0.33-22.32-1.28-33.02-3.86
		c-1.57-0.38-3.42-0.47-4.95-0.03c-4.28,1.24-8.42,1.63-12.7-0.01c-1.15-0.44-2.79-0.45-3.92,0.02
		c-9.03,3.76-17.01,8.84-21.58,17.97c-0.12,0.25,0.04,0.64,0.14,1.74c4.4,2.46,8.56,5.98,14.74,5.92c2.76-0.03,5.77,1.49,8.26,2.99
		c3.4,2.05,6.64,4.5,9.54,7.21c8.22,7.68,18.12,10.8,29.06,11.4c1.66,0.09,3.34,0.13,4.97,0.41c2.54,0.43,4.2,1.97,4.66,4.55
		c0.29,1.63,0.34,3.31,0.53,4.96c0.69,5.88-1.29,9.05-6.73,10.04c-2.59,0.47-5.41,0.75-7.95,0.23c-8.43-1.73-16.89-3.49-25.1-6
		c-4.36-1.34-8.38-4.04-12.31-6.52c-8.88-5.6-9.42-5.85-21.35-6.24c-1.31-0.04-2.63-0.29-3.9-0.61c-7.46-1.89-14.82-0.08-21.53,2.33
		c-8.08,2.89-16.19,5.88-24.19,9.06c-1.82,0.72-3.52,1.78-5.24,2.76c-5.49,3.12-10.98,6.25-16.45,9.41
		c-10.66,6.17-22.49,9.75-33.44,15.32c-7.39,3.76-15.48,6.17-22.86,9.96c-13.16,6.77-27.36,10.28-41.46,14.08
		c-10.36,2.8-20.19,6.42-29.13,12.54c-6.3,4.32-13.24,7.69-19.66,11.84c-8.04,5.2-15.6,11.14-24.45,15.02
		c-0.59,0.26-1.17,0.68-1.61,1.17c-6.26,6.96-15.1,9.52-23.07,13.56c-2.36,1.19-4.81,2.27-6.99,3.73
		c-6.33,4.25-12.44,8.83-18.83,12.97c-5.3,3.43-10.71,6.78-16.37,9.53c-6.83,3.32-11.8,8.62-16.59,14.14
		c-5,5.77-9.64,11.85-14.48,17.76c-2.31,2.83-4.73,5.57-7.56,8.9c0.17,1.04,1.94,1.13,3.55,1.1c7.06-0.15,13.88,1.5,20.7,2.92
		c6.96,1.45,13.79,1.27,20.79,0.13c4.53-0.73,9.49-1.37,13.81-0.28c10.41,2.63,20.98,3.18,31.56,4c1.94,0.15,4.01-0.1,5.88-0.64
		c7.3-2.11,14.69-1.39,21.56,0.79c13.6,4.32,27.22,8.74,40.06,15.11c0.59,0.29,1.12,0.9,1.73,0.96c10.49,1.08,19.45,6.54,29.1,10.02
		c1.55,0.56,3.21,0.84,4.81,1.27c10,2.7,19.14,7.44,28.49,11.75c10.21,4.71,19.94,10.59,31.31,12.64c8.49,1.53,17.1,3.1,25.18,5.97
		c11.32,4.01,23.39,5.2,34.48,9.74c10.83,4.44,22.45,5.99,33.47,9.66c5.97,1.98,11.87,4.17,17.81,6.24
		c1.87,0.65,3.74,1.28,5.64,1.81c8,2.24,16.13,4.08,23.98,6.74c9.44,3.2,18.5,7.53,27.98,10.58c9.44,3.04,18.58,6.93,28.34,9.14
		c6.73,1.52,13.19,4.38,19.64,6.97c9.27,3.72,18.34,7.91,27.65,11.52c3.67,1.42,7.69,2.04,11.62,2.66
		c6.22,0.99,12.47,1.92,18.74,2.42c9.74,0.78,18.94,3.22,27.63,7.65c1.46,0.75,3.03,1.29,4.52,1.98
		c10.69,4.97,20.15,0.59,29.34-4.21c3.76-1.96,6.81-5.2,10.99-6.68c1.46-0.52,2.6-2.03,3.79-3.19c3.09-3.03,6.24-6.01,9.15-9.21
		c2.63-2.9,5.68-4.78,9.61-4.4c6.67,0.64,12.2-2.06,17.95-4.94c11.01-5.51,22.21-10.66,33.47-15.64
		c10.39-4.6,20.16-10.16,29.09-17.19c3.92-3.08,7.81-6.2,11.82-9.16c8.42-6.22,18.01-10.26,28.01-12.69
		c13.46-3.27,25.72-8.97,37.68-15.63c4.05-2.25,8.04-4.73,12.33-6.4c5.86-2.27,11.73-4.48,18.3-4.51
		c7.55-0.03,14.21-3.56,20.41-7.45c5.6-3.52,10.7-7.82,15.6-11.45c1.27-8.35,1.84-15.87-1.93-23.99c-4.43-3.07-9.95-5.82-16.25-7.25
		c-9.76-2.21-19-5.9-27.52-11.21c-3.66-2.28-7.65-4.38-10.58-7.44c-5.61-5.85-12.16-10.29-18.86-14.65c-2.78-1.81-5.24-4.15-8.1-5.8
		c-4-2.31-8.08-4.68-12.42-6.17c-7.56-2.59-14.77-5.72-21.9-9.38c-11.63-5.97-21.77-14.01-32.59-21.12
		c-13.89-9.13-28.34-17.5-44.96-21.06c-3.87-0.83-7.55-2.51-11.4-3.47c-3.85-0.95-7.83-1.39-11.71-2.23
		c-13.08-2.8-25.34-8.08-37.76-12.84c-7.77-2.97-15.33-6.47-23.1-9.45c-8.02-3.08-16.11-5.72-24.7-7.26
		c-11.08-1.99-21.9-5.48-32.75-8.6c-2.82-0.81-5.47-2.46-7.99-4.07c-3.4-2.17-4.93-5.59-3.93-8.43c1.32-3.77,3.99-6.28,8.07-6.38
		c3.63-0.1,7.39-0.05,10.88,0.79c4.83,1.16,9.58,2.85,14.14,4.83c5.27,2.28,10.75,3.62,16.35,4.13c7.71,0.71,15.01,2.36,21.94,5.95
		c4.12,2.13,8.54,3.69,12.85,5.43c6.15,2.48,12.49,4.55,18.46,7.41c16.63,7.95,34.29,12.65,52.02,17.18
		c11.63,2.97,22.78,7.01,33.27,13.03c6.03,3.46,12.69,5.82,19.01,8.79c3.61,1.7,7.09,3.57,9.97,6.53c1.82,1.87,4.21,3.23,6.46,4.61
		c5.1,3.13,10.49,5.84,15.38,9.25c6.36,4.44,13.27,7.57,20.52,10.07c4.41,1.53,8.76,3.08,12.64,5.77c1.63,1.13,3.5,1.95,5.33,2.74
		c11.4,4.92,21.46,11.81,30.44,20.36c1.65,1.58,3.85,2.57,5.77,3.88c2.19,1.49,4.63,2.76,6.45,4.62c3.65,3.73,8.09,5.82,12.97,7.11
		c9.37,2.48,18.33,5.96,26.99,10.29c1.13,0.56,2.49,0.65,4.05,1.04c2.61-3.47,3.71-7.22,3.66-11.21c-0.05-4.09,1.13-7.83,2.16-11.69
		c1.79-6.74,3.68-13.53,4.5-20.42c0.62-5.19,0.02-10.63-0.67-15.87c-2.89-22.18-1.48-44.45-1.64-66.69
		c3.14-14.44,0.98-29.18,2.56-43.74c1.07-9.87,0.92-19.88,1.42-29.82c0.15-2.97,0.68-5.92,0.97-8.89c0.19-1.93,0.24-3.87,0.34-5.43
		c-2.29-2.59-4.67-1.94-6.82-1.17c-3.69,1.32-7.19,1.08-10.66-0.57c-1.18-0.56-2.78-0.97-3.38-1.95
		c-3.71-6.01-10.11-8.36-16.15-11.91c1.65-4.91,1.2-9.64,0.01-14.62c-1.68-7.06-2.22-14.39-3.34-22.24
		c-4.43-1.79-9.53-3.03-14.76-3.38c-6.73-0.45-13.04-2.21-19.31-4.57c-12.14-4.57-24.69-7.57-37.47-9.9
		c-9.78-1.79-19.38-4.63-29-7.21c-12.19-3.27-24.28-6.8-36.82-8.78c-13.1-2.07-26.17-4.71-39.01-8.05c-8.97-2.34-17.63-6-26.21-9.61
		c-5.27-2.22-10.37-3.97-16.2-4.41c-7.25-0.55-14.44-2.17-21.58-3.67c-9.41-1.97-19.12-2.28-28.31-5.46
		c-7.22-2.5-14.67-4.38-21.76-7.2c-10.95-4.35-22.33-6.31-33.94-7.42c-3.3-0.32-6.58-0.77-9.87-1.18c-0.99-0.12-2.03-0.57-2.95-0.38
		c-6.96,1.39-13.86-0.39-20.79-0.22c-1.99,0.05-4.05,0.04-5.94,0.57c-5.62,1.57-11.05,1.31-16.75,0.04
		c-3.42-0.76-7.21,0.12-10.83,0.32c-3.3,0.19-6.67,0.99-9.89,0.59c-9.55-1.18-19.04-2.82-28.55-4.26
		c-7.54-1.14-15.06-2.45-22.63-3.27c-3.15-0.34-6.65-1.16-10.01,1.6c1.24,3.95,2.58,8.02,3.77,12.13c0.73,2.54,1.67,5.14,1.7,7.72
		c0.07,5.35,1.19,10.58,1.57,15.83c1.43,19.33,6.66,37.86,10.81,56.63c1.15,5.19,2.77,10.29,3.61,15.52
		c0.72,4.49,3.01,7.35,7.03,8.86c3.41,1.28,6.9,2.64,10.48,3.14c11.19,1.57,22.41,3.17,33.78,2.42c1.66-0.11,3.34-0.11,5-0.01
		c6.71,0.4,12.4,2.47,15.16,10.11C1355.76,784.81,1354.99,786.54,1353.95,788.89z M419.37,1454.32
		c14.55,3.51,28.99,7.43,42.37,14.39c6.55,3.4,13.05,5.81,20.75,6.15c6.56,0.29,13.31,0.63,19.8,1.71
		c8.8,1.47,17.58,3.69,25.66,7.71c8.92,4.44,17.9,8.57,27.83,10.26c1.93,0.33,4.08,0.93,5.54,2.12
		c7.77,6.39,17.14,10.21,25.18,16.09c6.7,4.9,13.17,10.11,19.53,15.45c4.37,3.66,8.8,7.07,14.26,8.93c1.26,0.43,2.55,0.93,3.62,1.68
		c7.81,5.47,17.12,7.04,25.9,9.96c2.79,0.93,5.86,1.6,8.77,1.51c8.92-0.3,16.88,3.43,25.2,5.55c4.49,1.14,8.77,3.1,13.13,4.74
		c4.02,1.51,8.37,2.35,11.46,5.76c0.65,0.71,1.59,1.25,2.5,1.61c11.92,4.73,21.83,12.56,31.64,20.54c0.77,0.63,1.59,1.2,2.42,1.76
		c8.29,5.53,16.59,11.05,24.88,16.58c0.83,0.55,1.67,1.12,2.4,1.79c3.92,3.57,7.43,7.7,12.86,9.15
		c9.19,8.12,20.58,11.98,31.77,16.13c5,1.85,9.88,3.75,14.54,6.41c4.31,2.46,9.08,4.12,13.6,6.22c5.11,2.38,10.16,4.88,15.27,7.27
		c2.1,0.98,4.21,2.03,6.43,2.69c12.44,3.68,24.07,9.1,35.67,14.9c11.86,5.93,24.54,10.27,37.3,14.09c1.89,0.56,3.93,1.01,5.88,0.91
		c4.13-0.2,7.82,1.36,11.7,2.25c10.18,2.33,18.66,8.35,27.98,12.53c6.67,2.99,13.37,5.9,20.04,8.9c1.8,0.81,3.76,1.52,5.24,2.75
		c2.37,1.97,4.82,3.32,7.93,3.86c5.45,0.95,9.55,4.72,13.7,7.91c5.62,4.33,11.53,7.63,18.27,9.9c5,1.68,9.81,4.21,14.35,6.95
		c6.86,4.15,13.81,7.75,21.66,9.83c8.33,2.21,16.61,4.88,24.53,8.24c5.33,2.26,10.94,2.77,16.36,4.27c4.14,1.14,8.42,1.64,12.4,3.54
		c3.52,1.68,7.29,1.39,10.6-0.53c8.58-4.99,18.04-8.16,26.27-14.05c12.96-9.27,26.42-17.92,40.12-26.08
		c7.92-4.72,15.82-9.58,24.37-13.34c8.77-3.85,17.05-8.81,25.55-13.29c0.29-0.15,0.52-0.44,0.82-0.57
		c4.55-1.94,9.22-3.63,13.61-5.86c4.45-2.27,8.74-4.62,13.77-5.64c3.17-0.64,6.24-2.37,9.02-4.14c8.71-5.55,17.96-10.03,27.26-14.45
		c1.79-0.85,3.53-1.91,5.07-3.14c7.04-5.64,14.8-10.05,22.83-14.12c2.91-1.47,5.73-3.44,8.02-5.74
		c11.52-11.55,22.55-23.6,34.37-34.82c5.72-5.43,12.78-9.46,19.26-14.09c2.16-1.55,4.52-2.85,6.58-4.51
		c1.47-1.19,2.61-2.8,3.63-3.92c-0.57-3.41-2.89-4.21-4.94-5.24c-10.09-5.11-20.16-10.24-30.3-15.25
		c-5.67-2.8-11.55-4.97-17.77-6.47c-11.95-2.89-24.01-5.67-35.57-9.78c-11.02-3.92-22.23-6.75-33.63-8.82
		c-6.65-1.21-12.75-3.67-18.96-5.96c-2.45-0.9-4.72-2.43-6.86-3.96c-12.79-9.1-26.56-16.51-40.53-23.57
		c-1.78-0.9-3.56-2.16-5.45-2.44c-6.41-0.93-10.61-4.9-14.77-9.37c-5.44-5.85-11.23-11.39-16.93-16.99
		c-8.78-8.63-18.06-16.51-28.47-23.31c-7.53-4.92-14.72-10.43-23.27-13.17c-14.22-4.55-28.15-10.14-43.02-12.56
		c-7.25-1.18-14.14-3.32-20.36-7.66c-2.87-2-6.7-2.8-10.21-3.67c-4.5-1.12-9.13-1.72-13.69-2.62c-1.29-0.26-2.72-0.52-3.76-1.24
		c-3.62-2.51-8.12-2.38-11.89-4.07c-4.12-1.86-8.36-1.94-12.59-2.69c-3.91-0.69-7.7-2-11.55-3.04c-4.11-1.11-8.09-3.43-12.55-1.39
		c-5.04-1.59-10.11-3.12-15.13-4.79c-2.16-0.72-4.22-1.75-6.34-2.6c-1.54-0.62-3.34-0.85-4.61-1.81
		c-7.02-5.31-15.43-7.75-23.23-11.43c-2.38-1.12-4.93-2.02-7.49-2.59c-3.69-0.81-6.86-2.33-9.7-4.82c-1.46-1.28-3.23-2.32-5.02-3.1
		c-8.84-3.85-17.3-8.21-24.79-14.48c-4.81-4.03-10.12-7.7-16.82-8.17c-0.64-0.05-1.27-0.39-1.89-0.63
		c-11.5-4.49-23.44-7.46-35.55-9.56c-5.11-0.89-9.11-3.86-13.8-5.46c-6.6-2.24-13.2-4.44-19.24-8.13c-2.77-1.7-6.14-2.61-9.35-3.37
		c-6.76-1.62-13.65-2.71-20.39-4.4c-3.51-0.88-6.83-2.55-10.22-3.9c-4.14-1.66-8.14-2.17-12.59-0.55
		c-4.02,1.47-8.43,1.82-12.63,2.82c-2.24,0.54-4.48,1.24-6.59,2.16c-5.79,2.53-11.81,4.72-17.17,7.97
		c-4.49,2.72-9.07,5.29-13.55,8.02c-4.27,2.6-8.85,4.32-13.56,6.07c-9.36,3.48-19.47,4.5-28.42,9.11
		c-14.1,3.04-26.47,10.65-40.03,15.12c-9.15,3.02-18.38,5.82-27.42,9.15c-11.51,4.24-23.41,7.6-34.03,14.03
		c-1.13,0.68-2.33,1.65-3.55,1.72c-6.8,0.37-12.44,4.29-18.8,6.07c-9.56,2.67-18.74,6.68-28.08,10.13c-1.25,0.46-2.59,1.56-3.7,1.35
		c-5.55-1.04-9.45,2.29-13.73,4.71c-3.48,1.97-7,3.76-11.24,3.26c-0.86-0.1-2.11,0.26-2.67,0.87c-5.24,5.78-12.89,6.77-19.5,9.67
		c-16.46,7.23-33.75,12.14-51.06,16.92c-7.56,2.09-15.17,1.82-22.72,0.24c-4.4-0.92-8.47-1.13-12.93,1.97
		C404,1450.92,411.72,1452.48,419.37,1454.32z M1443.25,160.7c-1.7,3.97-3.64,7.88-4.88,12c-1.86,6.15-2.27,12.18,1.43,18.21
		c2.93,4.77,1.77,10.49,0.84,15.63c-1.88,10.44-1.47,21.25-5.12,31.39c-1.25,14.93-4.85,29.45-7.52,44.13
		c-0.77,4.2-1.22,8.78-0.36,12.89c1.65,7.94,1.49,15.88,1.63,23.85c0.08,4.7,0.43,9.28,2.64,13.58c1.59,3.1,1.58,6.4,0.67,9.73
		c-0.44,1.6-1.07,3.26-1,4.86c0.42,9.16-2.57,17.73-4.48,26.48c-1.78,8.11-2.83,16.35-4.29,24.48c-1.95,10.87-1.39,21.84-3.05,32.72
		c-1.84,12.07-1.08,24.48,3.15,36.66c5.85,2.08,11.79,1.52,17.65,0.57c9.94-1.61,19.82-1.93,29.74,0.01
		c1.3,0.26,2.63,0.56,3.95,0.55c7.72-0.09,15.09,1.48,22.59,3.32c6.34,1.56,13.16,1.38,19.67,2.85c4.2,0.95,8.52,1.37,12.75,2.21
		c1.93,0.38,4.04,0.82,5.61,1.9c5.09,3.5,10.91,4.87,16.76,6.04c10.09,2.01,20.21,3.86,30.37,5.48c3.66,0.58,7.2,1.24,10.51,2.93
		c0.88,0.45,1.82,0.9,2.79,1.08c13.17,2.46,25.45,7.65,38,12.07c7.86,2.77,16.05,4.12,24.46,4.22c5.97,0.07,11.93,0.72,17.89,1.1
		c0.98,0.06,1.97,0.15,2.95,0.1c5.3-0.29,10.6-0.58,15.9-0.96c8.39-0.61,16.5,1.65,24.77,2.38c7.92,0.7,15.79,2.07,23.62,3.51
		c12.06,2.23,24.2,3.83,36.21,6.56c12.04,2.73,23.3,7.85,35.41,10.1c9.46,1.76,18.94,3.41,28.4,5.15c3.92,0.72,7.8,1.66,11.72,2.33
		c3.91,0.67,7.87,1.12,11.8,1.69c3.28,0.48,6.61,0.76,9.82,1.54c13.24,3.22,26.44,6.59,39.51,9.87c4.57-2.63,9.12-5.25,14.59-8.4
		c6.31-13.35,8.45-28.14,5.76-43.66c-0.34-1.96-0.55-3.95-0.66-5.93c-0.35-6.62-0.11-13.2-1.62-19.83
		c-1.15-5.05-0.63-10.53-0.5-15.81c0.2-8.29-0.09-16.54,1.39-24.86c1.26-7.12,0.52-14.61,0.54-21.94c0.01-4.35,0.39-8.56,1.53-12.82
		c1.54-5.75,2.53-11.62,2.68-17.68c0.13-5.6,1.05-11.28,2.43-16.71c1.09-4.3,1.3-8.52,1.31-12.84c0.01-7-0.07-14,0.05-20.99
		c0.09-5.31,0.37-10.54,1.45-15.84c1.52-7.44,1.72-15.14,2.62-22.72c0.46-3.94,0.67-8.03,1.92-11.74
		c2.51-7.48,1.36-15.13,1.71-22.68c0.51-10.97,0.21-21.98,0.13-32.98c-0.01-1.92-0.67-3.83-0.93-5.18c-2.6-2.64-5.34-2.49-7.98-2.5
		c-8.67-0.02-17.34-0.24-26,0.13c-14.09,0.59-27.77-2.03-41.49-4.59c-7.48-1.4-15.04-2.41-22.57-3.57
		c-7.53-1.16-15.13-1.87-22.49-4.12c-12.12-3.71-24.3-6.57-37.23-5.86c-14.64,0.8-29.12-1.61-43.63-3.53
		c-20.08-2.66-39.99-6.15-59.85-10.03c-6.18-1.21-12.51-1.64-18.75-2.56c-2.96-0.44-6.05-0.75-8.76-1.87
		c-9.92-4.11-20.65-4.7-30.87-7.48c-9.92-2.7-20.12-4.34-30.14-6.7c-7.76-1.83-15.37-4.34-23.16-6c-9.76-2.08-19.42-4.39-28.89-7.54
		c-8.2-2.73-17.12-2.38-25.24-5.7c-1.74-0.71-3.96-0.19-5.94-0.41c-3.62-0.39-7.23-0.91-10.85-1.35c-2.31-0.28-4.63-0.8-6.93-0.71
		c-8.41,0.3-16.49-1.61-24.68-3.04c-7.84-1.37-15.79-2.1-23.45-4.47c-2.1-0.65-3.84,0.43-5.38,2.56
		C1448.67,148.55,1445.86,154.6,1443.25,160.7z M369.17,1768.77c16.48,8.72,34.13,14.77,50.83,22.94
		c5.05,2.47,10.53,4.07,15.73,6.26c7.39,3.11,13.41,8.53,20.39,12.34c5.25,2.87,10.26,6.07,14.71,10.21c2.61,2.43,6,4.14,9.25,5.73
		c6.36,3.11,12.15,6.62,15.93,13.02c2.37,4.02,5.62,7.57,11.09,7.29c6.09,5.17,14.23,5.26,21.06,8.48
		c6.07,2.86,12.13,5.27,18.78,6.39c2.53,0.43,5.01,1.72,7.29,3.01c5,2.84,10.35,3.99,15.85,4.38c1.7-2.6,0.74-4.81-0.28-6.86
		c-1.98-3.98-2.32-8.2-2.86-12.53c-0.86-6.89-2.57-13.67-3.91-20.49c-0.64-3.25-1.67-6.47-1.86-9.74
		c-0.7-12.3-3.15-24.35-4.97-36.49c-1.48-9.87-3.68-19.57-6.34-29.18c-0.18-0.64-0.42-1.29-0.46-1.94
		c-0.26-4.32,0.1-8.77-0.87-12.91c-0.88-3.77-3.47-6.96-3.84-11.17c-0.45-5.15-4.33-9.73-2.93-15.31
		c-2.42-4.35-4.48-8.95-7.33-12.99c-4.79-6.77-9.91-13.33-15.24-19.68c-2.08-2.48-5.13-4.14-7.71-6.21
		c-2.42-1.94-3.04-4.86-1.02-6.97c2.26-2.36,4.7-4.84,7.57-6.28c7.2-3.63,13.77-8.01,19.91-13.22c3.52-2.99,7.69-5.22,11.6-7.75
		c2.51-1.63,5.3-2.92,7.56-4.84c5.01-4.25,10.35-6.91,17.21-6.29c2.07,0.19,4.33-1.27,6.43-2.13c3.07-1.25,6.07-2.67,9.11-3.98
		c5.49-2.37,10.95-4.82,16.5-7.06c3.99-1.61,8.02-3.3,12.19-4.26c4.46-1.03,8.37,0.8,9.81,4.96c4.14,11.93,12.42,21.08,19.84,30.82
		c8.25,10.83,16.68,21.51,25.07,32.23c8.19,10.47,16.27,21.03,24.69,31.31c3.77,4.61,8.71,8.24,11.48,13.71
		c0.75,1.48,1.81,2.81,2.53,4.3c8.16,16.73,16.28,33.46,22.59,51.02c4.71,13.13,10.3,25.9,17.06,38.13c1.6,2.89,2.88,5.96,4.49,8.84
		c5.31,9.55,10.8,18.96,17.37,27.76c8.57,11.47,18.02,22.19,27.18,33.15c1.57,1.88,2.33,3.95,2.44,6.38
		c0.16,3.37-1.07,5.95-4.16,7.27c-4.59,1.95-9.14,4.34-13.95,5.31c-7.46,1.5-15.12,2.16-22.73,2.77c-3.37,0.27-6.49,0.77-9.63,2.11
		c-5.12,2.18-10.43,3.9-16.57,6.15c12.41,6.27,24.2,11.21,35.99,16.17c5.82,2.45,11.32,5.63,16.97,8.47
		c1.77,0.89,3.46,2.26,5.33,2.56c9.02,1.47,17.15,5.23,25.06,9.49c8.25,4.44,17.06,7.47,25.81,10.68c3.73,1.37,7.38,3.03,10.93,4.83
		c4.45,2.26,8.79,4.73,13.1,7.25c2.85,1.67,5.55,3.6,8.32,5.42c13.89,9.1,27.01,19.38,41.96,26.85c4.45,2.22,8.5,5.22,12.8,7.76
		c3.41,2.02,6.91,3.89,9.87,5.55c1.38-0.35,2.26-0.3,2.6-0.71c7.18-8.51,15.56-4.69,22.64-0.97c14.98,7.86,30.11,15.56,43.94,25.45
		c10.84,4.57,19.27,12.82,29.06,18.99c8.72,5.51,17.73,10.44,26.98,15c4.47,2.2,8.65,4.99,13.06,7.32
		c3.48,1.83,7.12,3.37,10.88,5.13c2.15-3.45,2.95-6.77,2.35-9.91c-0.73-3.78-0.31-7.19,0.64-10.79c0.67-2.53,0.86-5.27,0.82-7.91
		c-0.2-12.68,1.34-25.14,3.45-37.64c1.59-9.44,1.82-19.13,2.4-28.72c0.32-5.32,0.57-10.56,1.72-15.83
		c1.33-6.08,2.24-12.38,2.27-18.59c0.04-9.73,1.59-19.13,3.68-28.58c2.72-12.29,4.7-24.74,7.29-37.06
		c1.71-8.11,3.95-16.1,5.93-24.16c0.4-1.61,0.97-3.23,1.02-4.86c0.38-13.07,4.24-25.53,6.71-38.23c2.22-11.4,4.9-22.71,7.27-34.08
		c0.76-3.64-0.46-5.73-3.91-7.02c-3.12-1.16-6.29-2.19-9.48-3.14c-9.54-2.82-19.14-5.48-28.66-8.36c-8.92-2.7-17.7-5.71-26.13-9.86
		c-7.74-3.81-15.96-6.66-23.96-9.93c-0.31-0.13-0.62-0.33-0.94-0.33c-8.22-0.11-14.14-5.12-20.55-9.3
		c-8.62-5.62-17.65-10.54-26.99-14.94c-8.72-4.11-17.16-8.84-25.66-13.42c-6.21-3.35-12.93-5.18-19.67-7
		c-18.3-4.93-36.66-9.7-53.93-17.76c-6.01-2.81-12.29-5.2-17.93-8.63c-6.06-3.68-12.94-4.89-19.35-7.3
		c-12.15-4.56-24.18-9.34-35.86-14.93c-13.8-6.61-27.46-13.48-42.06-18.23c-1.87-0.61-3.84-1.44-5.29-2.71
		c-10.02-8.74-21.52-15.6-31.16-24.87c-4.27-4.11-9.56-7.18-14.38-10.72c-12.07-8.86-23.94-18.04-37.5-24.58
		c-13.85-6.67-28.39-11.73-43.6-13.76c-12.44-1.66-23.84-5.85-35.16-10.72c-4.89-2.1-9.76-4.25-14.63-6.41
		c-6.5-2.88-11.52-7.82-16.93-12.23c-6.42-5.24-12.49-10.88-19.29-15.68c-8.26-5.82-17.21-10.15-26.8-13.1
		c-8.66-2.66-16.9-6.02-24.39-11.21c-2.12-1.47-4.8-2.23-7.32-2.98c-3.17-0.95-6.48-1.44-9.67-2.34c-2.59-0.73-5.11-0.61-7.77-0.63
		c-8.27-0.06-16.58-0.63-24.79-1.68c-4.57-0.59-8.89-2.58-12.86-5.24c-8.65-5.78-18.37-9.27-28.21-12.36
		c-6.98-2.19-14.01-4.22-21.06-6.13c-8-2.16-16.08-4.05-24.09-6.17c-6.1-1.61-12.16-3.39-19.19-5.37
		c-6.05,2.05-12.91,4.37-19.74,6.68c-0.95,6.47-1.93,12.32-2.62,18.22c-0.31,2.62-0.3,5.39,1.6,7.62c2.13,2.49,2.2,5.47,2.18,8.49
		c-0.03,4.66-0.14,9.33-0.02,13.99c0.13,4.97-0.01,9.91,1.44,14.85c0.91,3.1,0.55,6.6,0.58,9.93c0.05,5.37,0.64,10.62,3.14,16.01
		c2.39,1.61,5.13,3.45,8.15,5.48c2.7-1.12,5.31-2.6,8.12-3.26c2.85-0.67,5.9-0.54,8.51-0.74c2.86-2.79,1.9-5.96,2.01-8.85
		c0.27-6.97-0.16-13.94,1.87-20.8c0.98-3.32,1.99-6.23,4.99-8.27c1.31-0.9,2.36-2.33,3.22-3.71c2.24-3.61,5.17-5.75,9.54-6.45
		c2.06-0.33,3.92-2.26,5.75-3.63c7.2-5.38,14.5-5.28,22.41-1.33c7.56,3.77,13.58,9.51,20.2,14.5c3.05,2.3,4.69,5.63,5.7,9.19
		c2.18,7.67,4.45,15.32,6.22,23.09c1.55,6.77,2.87,13.64,3.59,20.53c1.04,9.87,3.59,19.64,2.5,29.69c-0.18,1.65,0.22,3.44-0.27,4.97
		c-3.05,9.54-3.76,19.53-5.89,29.24c-1.71,7.8-6.15,13.02-13.39,16.22c-6.14,2.71-12.55,4.42-19.08,5.68
		c-1.9,0.37-3.98,0.03-5.94-0.23c-1.97-0.26-3.9-1.21-5.84-1.19c-7.99,0.1-13.89-4.33-19.42-9.1c-4.32-3.72-8.56-7.37-13.92-9.42
		c-3.38-1.3-4.36-3.93-4.09-7.17c0.19-2.29,0.74-4.56,1.16-7.01c-0.97-0.43-2.03-1.35-2.65-1.12c-4.81,1.82-9.76,1.74-14.78,1.59
		c-3.96-0.12-7.94,0.14-12.29,0.25c-0.6,2.24-1.43,4.06-1.52,5.92c-0.22,4.66,0.04,9.33-0.17,13.99c-0.16,3.63-0.69,7.25-1.12,10.86
		c-0.89,7.31-0.73,14.22,2.17,21.45c4.21,10.5,8.8,20.83,12.84,31.38c2.23,5.81,3.62,12.17,4.03,18.37
		c0.42,6.37,1.43,12.52,2.93,18.65c0.24,0.97,0.8,1.87,0.93,2.84c0.75,5.54,2.83,11.17-1.9,16.3
		C362.4,1764.79,365.51,1766.83,369.17,1768.77z M2084.6,217.81c-3.35-0.96-7.2-0.35-10.81-0.22c-1.97,0.07-3.93,1.03-5.87,0.95
		c-14.58-0.61-28.21,3.69-41.93,7.68c-7.97,2.32-16.08,4.21-24.02,6.63c-8.51,2.59-16.91,5.56-25.12,8.29
		c-0.48,0.87-1.04,1.43-1.09,2.03c-0.9,10.91-1.72,21.82-2.62,32.73c-0.19,2.3-0.6,4.59-0.97,6.87c-0.21,1.31-0.71,2.59-0.78,3.9
		c-0.75,12.59-1.44,25.19-2.16,37.79c-0.17,2.99-0.35,5.97-0.62,8.95c-0.33,3.63-1.12,7.25-1.08,10.87
		c0.2,15.72-2.28,31.09-5.15,46.47c-1.46,7.81-2.21,15.78-2.93,23.7c-0.57,6.27-0.4,12.54-1.55,18.84
		c-1.11,6.11-0.48,12.55-0.52,18.84c-0.07,10.29-0.2,20.59,1.03,30.84c0.24,1.97,0.51,3.95,0.96,5.88
		c2.87,12.5,3.03,25.01,0.4,37.58c-0.54,2.58-0.49,5.3-0.58,7.96c-0.24,6.95-2.18,13.05-8.08,17.42c-1.3,0.96-2.25,2.4-3.78,4.08
		c0,2.34-0.09,4.98,0.02,7.61c0.59,14.29-0.88,28.64,1.11,42.9c0.17,1.25-0.56,2.6-0.62,3.91c-0.45,9.63-1.29,19.28,0.57,28.87
		c0.19,0.97,0.55,2.03,0.34,2.94c-2.69,11.86-1.26,23.9-1.5,35.85c-0.25,12.65,0.13,25.32,0.25,37.98c0.01,1.33-0.11,2.72,0.2,3.98
		c2.62,10.51,2.46,21.33,1.3,31.8c-1.33,11.96-0.65,23.97-2.1,35.8c-1.05,8.63-0.96,17.24-1.76,25.81
		c-1.21,12.96,0.85,25.82,0.23,38.73c-0.29,5.98-0.12,12,0.11,17.99c0.15,3.96,0.79,7.91,1.21,11.86c0.18,1.65,0.48,3.3,0.55,4.95
		c0.25,5.64,0.94,11.25,1.42,16.84c0.85,9.89,0.02,19.93-0.09,29.9c-0.02,1.95-0.19,3.93,0.06,5.85c0.8,5.99,0.42,11.86-0.45,17.86
		c-1.33,9.18-2.15,18.46-2.7,27.73c-0.63,10.58-0.81,21.19-1,31.8c-0.06,3.64,0.46,7.28,0.67,10.92c0.89,15.62,0,31.24-0.01,46.86
		c0,3.61-0.86,7.21-1.28,10.82c-0.87,7.53-1.68,15.07-2.59,22.6c-0.28,2.29-0.59,4.62-1.26,6.83c-1.54,5.1-3.19,10.14-2.89,15.6
		c0.07,1.28-0.41,2.63-0.84,3.88c-2.83,8.23-3.66,16.83-5.08,25.35c-2.9,17.39-4.01,34.89-3.8,52.48c0.08,6.94,1.85,14,1.01,20.78
		c-0.81,6.57-0.88,13.11-2.03,20.01c5.27,1.2,10.1,2.2,14.87,3.42c4.49,1.15,8.95,2.43,13.35,3.86c5.06,1.64,9.94,3.97,15.1,5.18
		c13.74,3.21,26.44,9.02,39.1,14.92c11.17,5.21,22.47,10.32,33.05,16.57c13.2,7.8,26.48,15.36,40.27,22.07
		c2.38,1.16,4.56,2.74,6.79,4.2c3.84,2.51,7.91,3.13,12.91,1.53c0.34-1.53,1.07-3.38,1.11-5.24c0.17-7.33,0.25-14.66,0.14-21.99
		c-0.17-11.71,1.46-23.15,4.08-34.54c1.78-7.75,2.74-15.69,4.41-23.48c1.46-6.81,3.5-13.5,5.11-20.29
		c4.3-18.16,7.33-36.46,6.77-55.24c-0.23-7.62-0.1-15.21,1.31-22.86c1.13-6.14,0.34-12.62,0.5-18.95
		c0.27-10.62-0.24-21.22,1.5-31.86c1.28-7.8,0.35-15.96,0.49-23.95c0.11-6.3-0.61-12.67,1.31-18.86c0.19-0.62,0.41-1.39,0.22-1.96
		c-2.65-8.43-0.48-17.25-2.05-26.35c-1.76-0.98-3.77-2.01-5.67-3.2c-1.8-1.13-2.21-3.92-0.69-5.2c1.51-1.28,3.37-2.15,4.87-3.44
		c2.72-2.33,2.78-6.09-0.09-8.62c-1.78-1.56-3.51-2.84-4.15-5.34c-0.27-1.04-1.57-2.23-2.65-2.58c-4.35-1.39-7.57-4.59-10.26-7.7
		c-2.89-3.34-6.29-4.69-10.07-5.89c-10.12-3.22-20.31-6.24-30.35-9.69c-3.41-1.17-6.64-3.13-9.67-5.14
		c-5.81-3.86-11.89-7.51-16.99-12.2c-5.06-4.65-9.42-10.22-13.35-15.9c-1.66-2.4-3.13-4.98-4.96-7.34
		c-5.51-7.08-11.04-14.13-14.05-22.82c-0.95-2.74-2.77-5.34-4.72-7.53c-2.46-2.77-4.19-5.93-6.25-8.93
		c-7.75-11.3-12.22-24.13-17.79-35.78c1.55-11.01-1.9-20.94-2.76-31.09c-0.89-10.45-5.76-19.71-10.14-29.35
		c3.43-6.81,6.02-13.95,6.92-21.62c0.38-3.28,0.97-6.54,1.34-9.82c0.3-2.64-0.1-5.46,0.69-7.91c2.36-7.36,1.69-14.41-1.05-21.46
		c-0.71-1.83-1.19-3.74-1.71-5.42c0.71-1.23,1.01-2.29,1.71-2.9c18.65-16.09,31.66-36.56,44.08-57.4c4.23-7.1,7.52-14.81,8.59-23.23
		c0.25-1.96,1.07-3.84,1.6-5.76c0.65-2.38,2.16-3.93,4.24-5.27c3.62-2.33,6.96-5.07,10.52-7.5c5.5-3.75,11.07-7.43,17.83-8.58
		c3.05-0.52,5.81-1.5,7.53-4.31c1.3-2.13,3.37-3.01,5.65-3.78c14.25-4.81,28.68-8.51,43.9-8.01c4.66,0.15,9.33,0.11,14,0.12
		c3.37,0.01,6.69-0.21,9.15-2.95c0.29-0.63,0.8-1.22,0.82-1.82c0.25-9.01,1.65-17.84,3.85-26.57c0.4-1.6,0.46-3.29,0.55-4.95
		c1.2-21.24,2.66-42.47,1.96-63.78c-0.25-7.63,1.12-15.35,0.54-22.93c-0.71-9.37,0.98-18.46,1.71-27.65
		c0.4-4.95,1.17-9.89,1.95-14.8c1.97-12.44,3.22-25.08,6.36-37.23c1.92-7.47,1.45-15.02,3.27-22.39c1.83-7.43,2.23-15.07,2.44-22.75
		c0.17-5.94,1.37-11.86,2.22-17.77c0.19-1.3,0.57-2.68,1.27-3.77c3.51-5.44,4.68-11.63,6.08-18.37c-0.87-1.62-1.96-3.64-3.24-6.03
		c0.32-0.96,0.47-2.37,1.18-3.4c2.88-4.17,5.15-8.52,4.86-14.89c-3.04-5.75-3.13-12.83-1.48-20.25c1.36-6.13,2.06-12.43,2.75-18.69
		c1.09-9.92,2.7-19.71,5.3-29.36c1.45-5.38,3.06-10.65,1.23-16.54c-0.9-2.88,0.55-6.48,0.86-9.76c0.18-1.9,0.22-3.81,0.29-5.21
		c-1.91-1.99-3.61-1.77-5.1-1.03c-11.31,5.63-23.05,10.43-33.65,17.41c-3.11,2.05-6.39,3.41-10.11,3.99
		c-4.26,0.66-8.44,1.85-12.66,2.74c-1.62,0.34-3.5,1.09-4.87,0.59c-5.44-2-10.47-0.13-16.74,1.25
		C2099.09,219.15,2092.57,220.09,2084.6,217.81z M1289.63,1416.63c-5.41,2.39-9.93,1.18-15.01-1.74
		c-6.54-3.76-13.52-6.87-21.04-8.68c-4.41-1.06-9.3-2.63-12.51-5.57c-5-4.58-11.54-6.49-16.43-11.1c-2.35-2.22-5.58-3.8-9.2-2.3
		c-3.13,1.29-6-0.13-8.66-1.26c-8.84-3.75-17.53-7.87-26.33-11.72c-3.04-1.33-6.19-2.45-9.38-3.39c-2.16-0.64-4.46-0.8-7.64-1.34
		c1.45,4.57,3.92,7.61,6.54,10.29c4.23,4.33,7.71,9.15,10.97,14.19c1.26,1.94,2.67,3.82,4.23,5.53c4.29,4.72,7.51,10.05,10.29,15.8
		c3.3,6.82,7.29,13.31,11.59,21.03c0.46,6.73,0.46,6.73-2.96,13.18c2.55,4.13,6.28,7.54,10.14,10.53
		c9.48,7.34,18.49,15.14,27.22,23.37c5.19,4.89,10.82,9.98,18.41,11.44c0.95,0.18,1.92,0.69,2.69,1.29
		c5.07,3.97,11.1,5.92,16.95,8.28c4.6,1.86,8.63,4.49,12.69,7.52c7.9,5.9,16.17,11.78,26.75,12.42c2.6,0.16,5.16,1.21,7.73,1.91
		c17.63,4.78,35.38,9.08,53.37,12.3c1.93,0.35,3.82,1.15,5.63,1.96c9.67,4.36,19.16,9.01,28.48,14.11
		c9.29,5.09,19.23,8.98,28.23,13.1c4.43-3.59,8.2-6.65,12.83-10.4c0.36-9.26-0.09-19.55-0.26-29.83c-0.02-1.29-0.47-2.65-1.03-3.83
		c-3.22-6.81-2.65-14.34-3.94-21.5c-0.72-4,0.7-8.58,1.88-12.69c2.29-7.99,4.87-15.91,9.81-22.83c1.92-2.69,2.93-6.12,5.09-8.55
		c5.68-6.37,6.54-14.28,7.95-22.07c0.18-0.97,0.2-2.01,0.06-2.98c-1-6.88-2.11-13.75-3.09-20.63c-0.33-2.3-0.34-4.65-0.59-6.96
		c-0.35-3.28-0.79-6.56-1.18-9.84c-0.27-2.3-0.52-4.61-0.78-6.92c-0.45-3.94-1.02-7.88-1.32-11.83c-0.3-3.97-0.56-7.98-0.44-11.96
		c0.4-13.41-0.99-26.49-5.35-39.3c-1.69-4.96-1.99-10.4-2.93-15.62c-0.35-1.96-0.61-3.93-1.1-5.86c-1.71-6.79-2.31-13.7-3.09-20.64
		c-1.53-13.5-1.72-27.14-4.47-40.52c-1-4.85-1.01-9.9-1.48-14.85c-0.15-1.6-0.16-1.6-3.41-5.05c-3.27,6.28-7.9,11.46-10.17,18.17
		c-2.34,6.92-5.14,13.69-7.66,20.56c-0.91,2.49-1.76,5.04-2.36,7.62c-2.2,9.46-5.54,18.46-10.07,27.05
		c-2.16,4.09-4.05,8.15-4.45,13.08c-0.5,6.23-4.99,9.75-11.03,11.12c-0.97,0.22-2.25-0.07-2.92,0.46
		c-6.65,5.25-13.36,2.31-19.82-0.07c-4.13-1.52-8.22-2.26-12.55-2.77c-5.9-0.7-11.75-2.14-17.51-3.66
		c-18.65-4.93-37.02-10.78-55.29-16.95c-9.34-3.15-20.29-3.67-29.79-1.99c1.53,5.02,2.38,10.32,4.69,14.9
		c4.86,9.62,6.57,20.21,10.23,30.18c1.02,2.79,1.79,5.57,3.29,8.24c2.1,3.73,3.47,7.9,4.92,11.96c3.7,10.33,7.25,20.72,10.92,31.07
		c3.03,8.55,3.58,12.57,2.51,21.12C1295.74,1414.26,1292.62,1415.3,1289.63,1416.63z M1799.31,697.83c1.44-2.18,3.68-3.83,5.59-5.69
		c10.75-10.47,19.77-22.36,28.91-34.21c7.1-9.19,14.75-17.98,23.12-26.12c8.12-7.89,16.18-15.86,23.98-24.07
		c7.32-7.71,14.25-15.79,21.36-23.69c1.76-1.96,3.52-3.94,5.36-5.83c1.67-1.72,2.85-3.58,2.96-6.57c-6.54-1.7-12.91-3.4-19.29-5.01
		c-3.21-0.81-6.53-1.24-9.68-2.23c-10.17-3.21-20.47-5.29-31.19-6.06c-9.55-0.69-19.06-2.61-28.47-4.57
		c-17.56-3.66-34.96-7.97-51.99-13.71c-5.29-1.78-11-2.36-16.55-3.29c-10.78-1.8-21.59-3.46-32.39-5.17
		c-1.64-0.26-3.42-1.06-4.89-0.67c-6.65,1.76-13.17-0.49-19.76-0.26c-6.65,0.23-13.33,0.15-19.99-0.03
		c-3.3-0.09-6.58-0.71-9.87-1.09c-1.98-0.23-3.95-0.66-5.93-0.66c-13.46-0.02-26.39-2.5-38.86-7.64c-3.04-1.25-6.39-1.76-9.6-2.59
		c-2.25-0.58-4.59-0.92-6.73-1.75c-10.86-4.23-22.16-6.8-33.57-8.99c-4.55-0.88-9.14-1.62-13.68-2.56
		c-12.39-2.56-24.46-6.26-36.27-10.78c-12.82-4.91-26.31-7.3-39.73-9.3c-8.74-1.3-17.91-0.12-26.84,0.51
		c-3.02,0.21-5.8,0.4-8.8-0.23c-2.87-0.6-6.09-0.95-8.87-0.27c-6.27,1.54-12.55,1.32-18.86,1.35c-3.33,0.02-6.69-0.02-9.98,0.39
		c-4.67,0.58-8.93,2.12-12.52,5.56c-3.34,3.2-7.02,6.13-10.88,8.66c-4.55,2.98-8.32,6.5-11.27,11.09
		c-5.03,7.82-10.28,15.5-15.51,23.19c-1.12,1.64-2.45,3.16-3.82,4.6c-7.32,7.7-14.69,15.36-22.03,23.03
		c-0.46,0.48-0.97,0.93-1.33,1.48c-8.75,13.21-21.59,22.49-32.9,33.12c-8.95,8.41-18,16.75-26.75,25.39
		c-1.57,1.55-2.78,3.46-4.66,5.86c3.89,1.28,6.89,2.7,10.03,3.21c6.21,1.02,12.5,1.56,18.76,2.28c7.91,0.91,15.9,1.42,23.71,2.85
		c3.98,0.73,7.86,1.08,11.86,1.09c22.32,0.05,44.63,0.31,66.95,0.15c15.59-0.11,30.24,3.91,44.7,9.05c11.26,4,22.48,7.99,34.52,9.22
		c9.23,0.94,18.48,2.13,27.56,4.02c9.08,1.89,18.01,4.6,26.92,7.25c12.7,3.79,25.31,7.87,37.96,11.79c0.95,0.29,1.95,0.48,2.93,0.55
		c20.02,1.33,39.28,6.22,58.26,12.4c5.7,1.86,11.37,3.16,17.36,4.02c9.46,1.36,18.84,3.61,28.16,6.12
		c14.1,3.79,27.78,8.94,42.07,12.19c8.5,1.93,16.86,3.33,25.54,3.72c5.6,0.25,11.19,1.57,16.22,4.43c2.57,1.46,5.19,2.83,8.33,4.54
		C1778.44,717.17,1791.27,710.03,1799.31,697.83z M1267.39,1189.63c-3.65-5.95-7.26-11.87-8.73-18.92
		c-0.66-3.18-2.49-6.15-3.95-9.13c-2.61-5.37-5.17-10.77-8.06-15.99c-2.64-4.79-4.07-9.78-3.67-15.65
		c-2.06-1.11-3.94-2.52-6.06-3.19c-10.13-3.22-20.3-6.25-30.72-8.53c-6.44-1.41-12.58-4.27-18.76-6.72
		c-8.7-3.44-17.69-5.62-26.92-7.01c-2.62-0.39-5.19-1.12-7.77-1.73c-21.42-5.09-42.43-11.31-61.74-22.28
		c-3.74-2.13-7.76-3.55-12.06-4.56c-5.46-1.27-10.89-3.27-15.89-5.82c-12.53-6.37-25.96-10.1-39.25-14.32
		c-8.23-2.61-16.43-5.37-24.52-8.38c-4.82-1.79-9.71-1.74-14.65-1.57c-3.65,0.12-7.3,0.51-10.95,0.71
		c-8.36,0.46-16.65,0.01-24.71-2.44c-5.2-1.58-10.31-1.79-15.74-0.83c-4.83,0.85-9.89,0.26-14.81,0.76
		c-9.76,1-19.12-0.68-28.49-3.17c-4.12-1.1-8.49-1.29-13.15-1.96c-3.66,2.68-5.94,6.67-7.65,10.98
		c-4.9,12.36-9.41,24.87-14.56,37.12c-3.77,8.97-5.77,18.32-7.64,27.76c-0.32,1.62-0.95,3.2-1.15,4.83
		c-0.57,4.61-4.03,8.19-3.94,13.23c0.08,4.18-1.78,8.37-2.6,12.59c-0.88,4.56-1.41,9.18-2.31,13.73c-1.93,9.76-4,19.5-6.03,29.25
		c-0.13,0.65-0.35,1.29-0.64,1.89c-5.47,11.15-8.42,23.06-10.45,35.23c-1.58,9.48-2.95,19-4.65,28.46c-1.51,8.42-3.35,16.79-5,24.94
		c2.09,1.42,3.02,0.29,3.71-0.72c4.96-7.21,11.12-13.2,18.16-18.36c6.56-4.81,11.4-11.13,15.45-18.08
		c2.51-4.31,5.27-8.51,7.31-13.04c2.94-6.54,8.5-11.06,12.29-16.92c1.29-2,3.38-3.11,5.9-3.33c1.96-0.17,3.89-0.57,6.13-0.92
		c1.1,1.24,2.57,2.28,3.18,3.69c2.64,6.1,5.17,12.25,7.48,18.48c5.54,14.97,10.92,30,16.38,45.01c2.95,8.11,5.9,16.23,8.91,24.32
		c0.32,0.87,1.02,1.61,1.78,2.78c0.77-0.89,1.77-1.51,1.84-2.23c0.44-4.67,2-8.98,3.37-13.45c3.3-10.76,7.47-21.25,9.42-32.47
		c1.24-7.14,3.77-14.2,6.71-20.86c4.07-9.23,6.65-18.91,8.45-28.64c4.41-23.88,11.27-47.14,17.05-70.67
		c1.81-7.36,6.28-13.12,10.74-18.92c1.8-2.33,4.6-2.8,7.2-2.88c2.6-0.09,5.24,0.66,7.54,0.99c5.44,5.14,8.77,11.22,12,17.46
		c3.81,7.38,8.17,14.48,12.28,21.71c3.95,6.93,8.03,13.79,11.78,20.83c2.18,4.08,4.46,7.97,8.3,11.72
		c2.39-4.05,3.48-7.75,3.42-11.71c-0.08-5.98-0.27-11.96-0.62-17.93c-0.19-3.35-0.24-6.51,1.18-9.74c1.04-2.36,1.34-5.09,1.71-7.69
		c1.2-8.47,5.35-14.85,12.89-19.05c2.8-1.56,5.52-2.18,8.57-1c13.35,5.13,27.28,8.58,40.66,13.54c12.5,4.63,25.39,7.84,38.13,11.55
		c10.98,3.19,21.36,7.49,31.24,13.03c15.34,8.61,30.66,17.16,47.1,23.65c18.25,7.21,35.9,15.82,52.9,25.69
		c0.82,0.48,1.8,0.66,4.6,1.65C1272.87,1199.36,1270.33,1194.42,1267.39,1189.63z M1662.34,2053.39c0.87-6.64,2.69-12.87,5.53-19
		c2.42-5.23,1.62-11.21,0.55-16.73c-1.23-6.33-1.64-12.43,0.01-18.74c0.74-2.84,0.49-5.94,0.64-8.93c0.26-5.3,0.59-10.54,1.49-15.84
		c0.93-5.46,0.04-11.23-0.17-16.86c-0.02-0.46-0.88-0.88-1.84-1.77c-2.86,2.3-5.8,4.86-8.94,7.13c-4.01,2.9-8.11,5.09-13.28,6.23
		c-6.43,1.41-12.79,3.36-19.34,4.46c-0.65,0.11-1.3,0.5-1.94,0.46c-8.38-0.53-15.35,3.31-22.6,6.73c-5.37,2.53-11.28,3.94-16.96,5.8
		c-6.3,2.07-13.13,2.1-19.22,5.09c-1.42,0.7-3.24,0.67-4.89,0.79c-8.23,0.61-16.47,1.16-24.71,1.71c-0.99,0.07-2.06,0.21-2.97-0.08
		c-8.16-2.58-16.57-1.27-24.83-1.36c-12.06-0.13-23.84-1.76-35.52-4.55c-4.51-1.08-9-2.46-13.58-3.06
		c-8.35-1.1-16.09-3.89-23.84-6.99c-5.19-2.08-10.8-3-16.16-4.72c-6.4-2.06-12.35-4.83-18.37-7.65c-5.09-2.38-10.31-4.5-17.08-7.44
		c-4.56-6-10.11-13.43-15.83-20.73c-2.04-2.6-4.25-5.23-6.86-7.2c-4.09-3.07-6.87-7.2-10.05-11.01c-3.37-4.04-6.54-8.25-9.44-11.93
		c-2.86-0.32-3.88,1.06-4.63,2.53c-2.43,4.75-4.62,9.53-4.32,15.16c0.14,2.58-0.51,5.3-1.25,7.82c-4.81,16.24-8.8,32.68-12.67,49.16
		c-0.38,1.62-0.71,3.26-1.27,4.81c-2.78,7.82-5.24,15.71-7.46,23.72c-1.55,5.58-5.41,10.52-8.89,16.94
		c0.07-0.81-0.23-0.05-0.01,0.49c4.44,11.03,11.7,18.98,23.53,22.42c5.72,1.66,11.33,3.86,16.75,6.34
		c12.72,5.8,25.29,11.91,37.92,17.9c0.6,0.29,1.18,0.65,1.81,0.85c12.32,3.92,24.64,7.84,36.98,11.7c5.07,1.58,10.1,3.54,15.31,4.36
		c12.07,1.91,24.18,4.67,36.46,0.92c6.08-1.86,12.36-2.63,18.74-2.32c1,0.05,2.09,0.23,2.99-0.07c10.61-3.61,21.26-0.7,31.58,0.78
		c11.99,1.72,23.89,1.39,35.84,1.53c2.3,0.03,4.66-0.32,6.91-0.85c8.09-1.89,16.12-4.04,24.22-5.88
		c10.46-2.37,19.81-7.68,29.87-11.08c6.29-2.13,12.62-4.16,18.93-6.21c6.92-2.26,13.85-4.49,20.74-6.73
		C1661.03,2058.48,1662,2055.97,1662.34,2053.39z M1792.03,759.84c-0.19,5.29-0.37,10.58-0.58,15.87c-0.29,6.96,0.52,14-1.75,20.8
		c-0.31,0.92-0.39,2.01-0.25,2.97c1.5,9.92-1.24,19.77-0.35,29.68c0.09,0.99,0.17,2.04-0.05,2.99c-2.73,11.49-1.49,23.19-1.92,34.8
		c-0.42,11.22-0.13,22.52-1.27,33.66c-1.2,11.77,0.69,23.18,1.98,34.7c0.51,4.57,1.4,9.1,2.11,13.57c0.63,0.45,1.15,1.13,1.69,1.15
		c6.1,0.29,11.73,1.92,16.97,5.14c2.24,1.37,4.81,2.25,7.31,3.12c6.58,2.3,13.29,4.26,19.77,6.8c3.03,1.19,5.72,3.31,8.42,5.22
		c5.45,3.85,11.01,7.31,17.49,9.4c8.54,2.76,16.84,6.23,25.24,9.39c1.24,0.47,2.46,1.02,3.74,1.35c8.8,2.27,16.99,5.71,23.72,12.05
		c1.24,1.17,1.34,1.07,5.92,1.2c0.3-2.17,0.78-4.39,0.9-6.63c0.56-9.89,1.12-19.79,1.51-29.69c0.61-15.52,1.03-31.05,1.64-46.57
		c0.43-10.91-1.87-21.7-1.26-32.62c0.09-1.62-0.47-3.27-0.66-4.91c-0.43-3.61-1.4-7.27-1.1-10.82c0.7-8.31,0.06-16.57-0.11-24.85
		c-0.18-8.31-0.71-16.63-0.65-24.94c0.09-11.97-0.59-24.12,1.23-35.85c1.69-10.88,1.23-21.82,3.06-32.7
		c1.92-11.39,0.81-23.18-2.22-34.6c-0.92-3.48-1.18-7.18-1.35-10.8c-0.45-9.6,1.03-19.29-1.59-28.82c-0.47-1.71,0.11-4.08,1-5.71
		c2.51-4.63,2.65-9.55,2.64-14.56c-0.01-6,0.03-11.99,0.09-17.99c0.05-4.98,0.48-9.89,1.13-14.86c0.98-7.55,0.72-15.28,0.54-22.93
		c-0.07-3.23-1.27-6.42-1.9-9.36c-2.58-0.97-3.36,0.8-4.49,1.83c-0.49,0.45-0.98,0.94-1.31,1.5c-8.65,14.53-21.95,24.92-33.19,37.14
		c-9.45,10.28-19.08,20.4-28.55,30.67c-1.79,1.94-3.1,4.32-4.76,6.39c-10.19,12.73-20.74,25.12-32.45,36.51
		c-7.62,7.41-15.08,15.01-22.4,22.72c-4.33,4.56-8.25,9.51-12.59,14.56C1785.57,751.83,1792.18,753.77,1792.03,759.84z
		 M1626.28,58.83c-6.33,0.13-12.68-0.23-18.99,0.17c-13.97,0.89-27.56,3.55-41.24,9.82c1.29,0.89,1.91,1.7,2.56,1.71
		c7.42,0.13,12,3.39,12.78,11.13c0.06,0.59,0.61,1.14,1.24,2.24c4.08,1.11,8.68,1.46,13.27,1.62c5.66,0.2,10.37,2.12,13.69,6.85
		c2.8,3.99,1.48,8.76-3.07,10.69c-1.81,0.77-3.81,1.44-5.73,1.48c-4.85,0.09-8.94,2.14-13.24,4.01
		c-12.2,5.3-24.53,10.27-36.86,15.26c-1.49,0.6-3.3,0.99-4.86,0.76c-7.87-1.16-15.71-2.49-23.53-3.94c-1.57-0.29-3-1.36-4.51-2.03
		c-1.2-0.54-2.46-1.54-3.64-1.46c-7.17,0.45-13.63-2.47-20.4-4.25c-6.08,3-11.04,7.23-16.63,12.22c4.25,2.13,7.85,3.09,11.79,3.54
		c14.16,1.58,28.44,1.83,42.42,5.47c9.58,2.5,19.62,3.22,29.43,4.85c2.61,0.43,5.32,0.92,7.69,2.01c7.03,3.22,14.5,4.77,21.95,6.51
		c6.79,1.58,13.51,3.43,20.27,5.12c15.13,3.8,30.25,7.68,45.42,11.32c5.15,1.24,10.45,2.62,15.67,2.59
		c8.54-0.03,16.25,3.37,24.42,4.69c7.2,1.16,14.37,2.58,21.62,3.28c4.97,0.49,9.9,0.88,14.77,2.12c11.31,2.88,22.75,4.49,34.5,4.08
		c6.95-0.24,13.88,0.44,20.86,1.39c7.86,1.06,15.84,1.7,23.77,2.37c5.33,0.45,10.56,0.98,15.75,2.29
		c9.69,2.44,19.64,3.26,29.56,3.85c5.68,0.34,11.16,1.11,16.7,2.51c13.53,3.4,27.05,6.67,41.33,5.09c7.2-0.79,14.6,0.31,21.92,0.43
		c2.96,0.05,5.92-0.27,8.68-0.41c3.71-3.51,4.25-7.99,5.19-12.09c2.05-8.91,5.44-16.98,11.42-24.07c2.44-2.88,4.91-5.21,8.23-6.95
		c13.72-7.18,28.11-11.94,43.72-12.32c2.32-0.06,4.75-0.15,6.95,0.44c9.88,2.61,19.9,1.52,29.82,1.01
		c7.46-0.38,14.48,0.1,21.04,3.92c2,1.17,4.08,2.21,5.83,3.15c2.99,4.14,3.15,8.28,1.61,12.6c-2.27,6.4-2.39,13.02-2.28,19.7
		c0.05,3.31-0.26,6.63-0.44,10.56c2.15,0.21,4.44,0.92,6.56,0.58c13.71-2.18,27.62-2.18,41.38-3.83c3.03-0.36,5.7-1.09,8.44-2.58
		c11.08-6.04,21.87-12.65,33.99-16.65c3.74-1.23,7.14-3.49,11.22-5.54c-1.96-3.61-4.66-5.62-7.89-7.31
		c-3.51-1.84-7.18-3.68-10.08-6.29c-3.82-3.43-8.05-5.8-12.78-7.48c-6.55-2.32-12.64-6.07-19.81-6.52
		c-11.42-6.83-24.83-6.88-37.1-10.85c-5.69-1.84-11.65-2.85-17.27-4.86c-9.5-3.4-19.56-3.58-29.28-5.68
		c-5.84-1.26-11.77-2.12-17.57-3.55c-4.54-1.12-8.49-0.86-12.08,2.44c-2.44,2.24-5.17,4.17-7.66,6.36
		c-1.85,1.63-3.89,2.61-6.34,2.45c-5.42-0.36-10.42-2.13-14.92-5.11c-1.76-1.17-2.48-3.17-2.23-5.27c0.23-1.95,0.79-3.86,1.29-6.18
		c-3.1-2.01-6.79-2.28-10.19-3.16c-9-2.31-18.05-4.47-27.12-6.48c-10.41-2.31-20.49-5.68-30.67-8.8c-5.35-1.64-11.05-2.15-16.62-3
		c-8.18-1.25-16.38-2.39-24.59-3.47c-2.63-0.35-5.31-0.39-7.97-0.5c-7.3-0.3-14.56-0.09-21.85-1.62c-5.12-1.08-10.62-0.36-15.95-0.4
		c-3.99-0.03-7.99,0.18-11.84-1.33c-1.21-0.48-2.64-0.75-3.92-0.62c-8.93,0.95-16.94-2.11-25.12-5.07
		c-5.89-2.14-12.16-3.32-18.34-4.53c-7.81-1.54-15.68-2.72-23.54-3.95c-1.96-0.31-4-0.45-5.98-0.32
		c-11.39,0.77-22.53-1.52-33.77-2.59c-0.98-0.09-1.98-0.8-2.9-0.68c-15.96,2.21-31.76-2.52-47.7-0.98c-4.6,0.44-9.23,0.65-14.8,1.03
		C1637.61,59.12,1632.02,58.71,1626.28,58.83z M1891.21,1766.05c7.71,5.64,14.9,10.94,22.14,16.19c5.11,3.71,10.33,7.27,15.41,11.02
		c12.93,9.55,26.5,17.63,42.43,21.46c8.67,2.08,16.9,5.97,25.54,8.28c6.37,1.7,13.07,2.18,19.63,3.15
		c5.25,0.77,10.67,0.9,15.75,2.28c13.15,3.57,26.17,7.64,39.21,11.61c2.53,0.77,4.99,1.87,7.35,3.07
		c8.04,4.12,16.58,6.92,25.15,9.65c7.52,2.4,15.14,2.18,22.68,0.57c8.44-1.8,16.77-4.1,25.15-6.17c1.29-0.32,2.59-0.68,3.9-0.77
		c11.26-0.83,22.53-1.59,33.8-2.4c0.65-0.05,1.28-0.31,2.5-0.63c0.88-2.06,2.24-4.37,2.87-6.86c1.71-6.81,4.76-13,7.75-19.31
		c4.58-9.66,10.5-18.46,15.88-27.62c1.67-2.83,2.86-6.02,3.81-9.18c2.19-7.32,4.08-14.74,6.13-22.1c2.31-8.33,4.65-16.64,6.96-24.97
		c0.34-1.22,0.6-2.45,1.04-4.23c-3.54-0.24-5.05,2.44-7.31,3.4c-2.13,0.91-4.21,2.05-6.12,3.36c-11.13,7.65-23.99,11.44-36.4,16.17
		c-5.56,2.12-11.56,3.05-17.32,4.69c-7.54,2.16-15,1.88-22.68,0.5c-8.16-1.46-16.52-1.73-24.72-2.98
		c-10.17-1.56-20.48-1.61-30.65-3.39c-8.14-1.42-16.49-1.55-24.7-2.58c-4.92-0.62-9.88-1.48-14.61-2.94
		c-6.67-2.05-13.39-4.22-19.63-7.28c-9.6-4.71-19.97-7.26-29.71-11.54c-12.54-5.51-24.51-11.73-35.1-20.66
		c-5.28-4.45-11.63-7.66-17.62-11.21c-3.43-2.04-7-3.93-10.7-5.41c-8.87-3.55-14.86-9.85-18.68-18.46c-0.62-1.4-1.13-3.23-3.75-3.28
		C1908.41,1700.37,1898.13,1732.81,1891.21,1766.05z M2001.84,1566.38c12.08-0.35,23.99,1.87,35.45,4.77
		c14.75,3.73,29.24,8.95,42.67,16.53c6.93,3.92,13.78,8.18,21.15,11.06c9.51,3.72,17.41,9.69,25.26,15.78
		c13.67,10.6,26.69,21.96,38.8,34.35c4.29,4.38,7.72,9.11,9.45,14.98c-0.88,6.39-2.76,12.3-7.7,16.79
		c-3.21,2.92-6.38,5.6-11.17,5.93c-2.87,0.2-5.7,1.64-8.43,2.79c-3.06,1.29-5.98,2.9-9.27,4.52c-3.42-0.76-6.95-1.64-10.52-2.31
		c-2.92-0.55-5.89-1.24-8.83-1.21c-10.16,0.08-19.7-2.68-29.13-5.98c-6.64-2.32-13.31-4.26-20.42-3.83
		c-7.75,0.46-15.43-0.98-22.6-3.13c-7.52-2.25-15.03-5.98-21.26-10.75c-7.44-5.69-15.65-10.08-23.08-15.68
		c-4.24-3.2-8.56-6.32-13.05-9.15c-5.61-3.55-11.39-6.85-17.18-10.12c-5.82-3.3-6.72-5.14-5.65-12.05c0.29-1.9,0.21-3.86,0.32-6.3
		c-16.56-3.77-30.87,1.4-45.42,8.84c0.67,1.8,0.96,3.45,1.82,4.72c6.9,10.19,13.51,20.55,19.4,31.37
		c3.69,6.77,9.74,10.65,16.6,13.63c8.2,3.57,16.41,7.16,23.82,12.28c1.63,1.13,3.58,2.16,4.6,3.75
		c5.43,8.34,14.07,12.07,22.63,15.54c16.64,6.75,33.35,13.4,50.37,19.08c9.67,3.23,19.73,6,30.21,5.74
		c11.35-0.28,22.48,1.65,33.64,3.31c0.66,0.1,1.31,0.28,1.96,0.34c9.25,0.8,18.52,1.43,27.76,2.41c5.87,0.63,11.76,0.59,17.64,0.92
		c1.58,0.09,3.3-0.12,4.77-0.69c4.64-1.81,9.15-3.96,13.78-5.78c5.24-2.06,10.62-3.77,15.83-5.89c9.59-3.9,18.28-9.43,26.92-15.05
		c5.2-3.39,7.56-8.36,8.15-14.18c0.57-5.6,0.2-11.27,1.68-16.83c0.57-2.14,0.02-4.63-0.24-6.94c-0.18-1.64-1.1-3.26-1.03-4.86
		c0.5-11.16-4.88-20.07-11.7-27.85c-12.72-14.5-25.83-28.79-41.41-40.32c-8.8-6.51-18.09-12.56-27.82-17.55
		c-15.08-7.74-30.73-14.37-46.11-21.51c-4.53-2.1-9.03-4.28-13.48-6.55c-14.07-7.18-28.91-11.4-44.67-13.06
		c-10.53-1.11-20.91-3.56-31.34-5.54c-6.2-1.18-12.33-2.7-18.52-3.88c-4.03-0.77-6,0.89-7.04,5.03c-1.37,5.47-2.72,10.96-4.48,16.31
		c-1.6,4.88-1.82,9.69-0.95,15.61C1997.28,1566.02,1999.57,1566.44,2001.84,1566.38z M1771.38,1395.11
		c-6.67-9.57-11.2-20.35-17.28-30.24c-5.58-9.08-10.48-18.48-14.58-28.33c-1.26-3.02-3.03-5.82-4.36-8.33
		c-3.13-0.8-4.27,1.22-5.41,2.61c-5.88,7.2-11.81,14.39-17.3,21.89c-5.5,7.5-10.03,15.7-16.56,22.46c-1.14,1.18-2.11,2.61-2.82,4.08
		c-4.59,9.65-11.5,17.9-16.5,27.25c-4.38,8.19-7.68,16.95-11.47,25.45c-2.57,5.77-4.9,11.64-8.86,16.71
		c-4.24,5.42-9.31,7.3-15.72,5.1c-3.14-1.08-6.26-2.4-8.52-5.99c2.01-12.64,0.85-25.93,1.48-39.16c0.39-8.25,1.79-16.47,2.92-24.68
		c0.49-3.59,1.42-7.11-0.55-11.16c-1.34,0.63-2.71,0.9-3.52,1.72c-5.14,5.2-9.89,10.81-15.27,15.73
		c-10.24,9.39-19.63,19.88-32.69,25.79c-6.01,2.73-11.68,6.13-17.11,9.99c-3.75,2.67-8.24,4.32-12.45,6.29
		c-3.01,1.41-6.21,2.44-9.17,3.93c-6.15,3.1-12.1,3.3-17.98-0.59c-1.1-0.73-2.23-1.42-3.77-2.41c-0.22-2.06-0.66-4.32-0.67-6.57
		c-0.03-17.65,0.04-35.29,0.01-52.94c0-2.56-0.35-5.11-0.57-8.21c-1.46,0.81-2.48,1.08-3.08,1.74
		c-7.69,8.36-15.05,16.97-17.07,28.66c-1.06,6.14-3.58,11.36-8.86,15.18c-0.58,6.61-1.9,13.07-0.71,19.72
		c0.34,1.91,0.25,4.08-0.31,5.92c-2.23,7.34-4.93,14.48-9.54,20.76c-6.61,9.02-11.29,20.37-12.73,30.88
		c-0.22,1.59,0.03,3.25,0.15,4.87c0.18,2.32,0.69,4.64,0.61,6.94c-0.21,6.08,0.84,11.85,2.7,17.65c1.09,3.4,1.28,7.16,1.42,10.77
		c0.26,6.62,0.18,13.26,0.23,19.21c2.55,3.33,5.39,2.88,7.83,2.05c14.16-4.8,28.24-9.8,42.35-14.76c5.94-2.09,11.86-4.25,17.8-6.35
		c3.44-1.21,6.84-2.54,10.35-3.5c13.63-3.74,26.13-9.8,37.61-17.97c7.57-5.38,15.58-10.13,22.37-16.59
		c9.41-8.95,17.51-14.05,29.96-19.2c1.79-0.74,3.92-1.26,5.81-1.06c11.14,1.14,20.85-3.13,30.61-7.55
		c21.3-9.65,39.14-23.89,54.43-41.35c3.48-3.97,7.24-6.62,12.22-7.99c8.8-2.42,15.99-8.04,23.87-12.3c0.78-0.42,1.21-1.52,1.97-2.52
		C1772.25,1397.56,1772.09,1396.14,1771.38,1395.11z M1535.98,1825.12c-10.03-0.85-19.43-4.31-29.09-6.71
		c-4.55-1.13-8.66-3.04-12.79-5.34c-10.43-5.82-21.07-11.32-32.95-13.73c-1.95-0.39-3.95-0.94-5.89-0.84
		c-6.77,0.37-13.19-1.21-19.62-2.96c-1.28-0.35-2.59-1-3.86-0.92c-8.7,0.49-17.14-1.89-25.77-2.26c-10.08-0.43-19.79,1.42-29.56,3.6
		c-5.78,1.29-9.39,4.79-12.51,9.11c-1.73,2.39-3.02,5.22-3.96,8.04c-2.83,8.49-5.27,17.11-8.08,25.6
		c-1.88,5.67-3.96,11.3-6.29,16.79c-4.42,10.42-2.31,19.29,5.71,26.97c6.21,5.95,11.98,12.42,17.4,19.1
		c7.93,9.8,17.09,18.52,24.49,28.83c2.57,3.59,7.04,6.11,11.09,8.28c9.96,5.35,20.44,9.49,31.62,11.68
		c1.92,0.38,3.86,1.11,5.56,2.08c7.05,4.03,14.91,5.56,22.65,7.41c7.42,1.78,14.85,3.54,22.33,5.03c6.17,1.23,12.39,2.39,18.64,3
		c10.21,0.99,20.46,1.53,30.7,2.19c1.65,0.11,3.43,0.23,4.95-0.27c6.18-2.01,12.55-1.59,18.83-1.48
		c14.69,0.27,28.06-4.27,41.03-10.51c3.28-1.58,6.38-3.6,9.76-4.88c6.51-2.46,12.99-4.9,20.24-4.71c11.1,0.29,20.84-3.4,28.98-11.15
		c2.63-2.51,5.7-4.55,8.44-6.95c2.75-2.41,3.67-5.4,2.45-9c-2.45-7.25-4.73-14.55-7.27-21.76c-0.64-1.82-1.76-3.61-3.08-5.01
		c-3.18-3.4-6.27-7.06-10.03-9.71c-6.06-4.26-10.86-9.79-16.38-14.57c-10.31-8.94-21.32-16.85-34.11-21.98
		c-2.45-0.98-4.75-2.36-7.13-3.55c-4.15-2.08-8.32-4.14-12.45-6.26c-3.82-1.96-7.59-4.01-11.29-5.97c-4.57,1.09-8.28,3.3-11.98,5.52
		c-1.14,0.68-2.19,1.55-3.4,2.04c-2.81,1.13-6.41-0.05-7.71-2.85c-1.38-2.97-2.26-6.18-3.61-10
		C1539.78,1826.29,1537.91,1825.28,1535.98,1825.12z M760.52,1874.79c-2.45-2.69-4.7-5.36-6.15-8.93c-1.46-3.58-4.35-6.62-6.77-9.77
		c-1.62-2.1-3.91-3.76-5.22-6.02c-5.34-9.17-10.34-18.54-15.61-27.76c-9.12-15.95-13.41-33.96-21.67-50.27
		c-0.6-1.18-1.13-2.42-1.51-3.69c-5.5-18.41-10.43-27.74-21.46-43.39c-2.46-3.49-5.8-6.42-9-9.31c-5.46-4.93-9.84-10.61-13.98-16.7
		c-4.46-6.55-7.97-13.8-13.65-19.51c-0.93-0.93-1.78-2.01-2.4-3.16c-4.81-8.85-11.38-16.27-18.49-23.32
		c-2.55-2.53-4.52-5.69-6.5-8.73c-2.88-4.42-5.53-9-8.48-13.85c-1.88,0.62-3.45,0.98-4.88,1.63c-3.31,1.5-6.58,3.1-9.82,4.74
		c-6.21,3.15-12.67,5.9-18.48,9.68c-4.68,3.04-9.71,4.7-14.9,5.06c-3.23,0.22-5.71,1.04-8.2,2.73c-4.13,2.8-8.35,5.46-12.4,8.38
		c-2.39,1.72-4.51,3.82-7.12,6.07c1,2.05,1.52,4.04,2.74,5.43c4.59,5.24,9.36,10.32,14.15,15.38c1.1,1.16,2.4,2.4,3.85,2.91
		c4.23,1.49,6.38,4.84,7.73,8.62c1.26,3.54,3.18,6.41,5.57,9.27c2.74,3.28,4.82,7.13,7.01,10.84c5.91,10.01,12.07,19.91,17.48,30.18
		c5.72,10.85,10.6,22.13,16.05,33.12c1.31,2.63,3.32,4.94,5.16,7.28c1.64,2.09,4.17,3.74,5.12,6.06
		c4.71,11.53,13.87,20.23,19.39,31.29c3.07,6.15,7.72,11.57,12.03,17.02c8.07,10.2,15.26,20.92,21.35,32.43
		c2.62,4.95,6,9.52,9.19,14.16c1.37,1.99,3.47,3.08,5.93,3.3c5.39,0.5,10.17,2.51,14.99,4.98c5.53,2.84,11.89,2.05,17.63,0.74
		c6.46-1.47,12.74-3.35,19.45-3.92c4.51-0.38,9.29-1.98,13.17-4.33c4.58-2.78,9.14-3.59,14.22-3.36c1.27,0.06,2.56-0.38,5.47-0.86
		C767.57,1883.37,764.28,1878.92,760.52,1874.79z M1867.14,1107.48c-3.86-11.64-7.76-23.26-11.62-34.9
		c-1.89-5.72-4.63-10.86-8.43-15.66c-8.37-10.59-13.12-22.91-15.97-36.06c-1.82-8.4-4.15-16.7-6.08-25.08
		c-0.74-3.2-2.49-5.39-5.38-6.7c-10.59-4.79-21.44-8.9-32.59-12.2c-0.58-0.17-1.29,0.11-2.51,0.24c-0.83,2.16-2.12,4.5-2.61,7
		c-1.09,5.52-1.78,11.11-2.62,16.68c-0.79,5.24-1.35,10.53-2.39,15.72c-1.63,8.1-3.8,16.09-5.31,24.2c-0.52,2.82-0.7,6.4,0.61,8.7
		c2.23,3.91,2.65,8.09,3.85,12.17c1.59,5.36,2.75,10.91,6.28,15.6c1.75,2.32,2.58,5.34,3.9,8.21c3.36,2.14,7.23,3.01,11.25,2.9
		c4.15-0.11,7.87,0.99,11.41,2.97c8.8,4.92,18.44,7.29,28.21,9.25c1.28,0.26,2.82,0.39,3.73,1.18c7.06,6.08,16.33,6.93,24.43,10.5
		c0.51,0.22,1.27-0.11,2.97-0.31C1867.79,1110,1867.55,1108.71,1867.14,1107.48z M2090.39,711.71c-0.98,9.66-3.14,11.47-11.43,11.56
		c-3.24,0.03-6.47,0.54-11.26,0.97c-3.19,1.51-5.17,5.78-6.08,10.39c-2.67,13.45-2.75,27.07-1.94,40.71c0.1,1.62,0.7,3.24,1.23,4.81
		c5.23,15.17,12.55,29.3,21.76,42.41c3.31,4.71,7.7,7.87,13.81,8.93c6.34,1.09,12.53,2.35,18.5-0.78
		c7.65-4.02,15.18-8.26,22.69-12.54c2.95-1.68,5.16-4.18,6.54-7.34c5.19-11.89,9.2-24.05,11.29-36.99
		c1.15-7.11,0.08-13.82-0.45-20.66c-0.28-3.56-1.55-7.15-2.95-10.49c-3.24-7.76-8.5-14.22-14.09-20.4
		c-3.46-3.83-8.18-5.64-12.87-7.36c-4.37-1.6-8.92-2.73-13.23-4.47c-6.84-2.76-13.63-1.74-20.5-1
		C2090.65,711.12,2090.42,711.41,2090.39,711.71z M1793.01,1170.73c-4.13-5.04-6.34-11.64-9.5-17.49
		c-2.37-4.37-5.25-8.51-7.23-13.05c-5.28-12.09-12.06-23.71-11.29-37.73c0.21-3.85-0.77-8.02-2.22-11.64
		c-3.71-9.24-7.94-18.28-12.1-27.33c-0.5-1.08-1.8-1.79-2.91-2.84c-4.87,1.84-9.46,3.75-12.94,7.48c-2.88,3.1-6.36,4.47-10.44,5.25
		c-6.18,1.18-12.17,3.33-18.57,3.33c-1.3,0-2.67,0.29-3.88,0.76c-1.84,0.71-3.58,1.7-5.79,2.77c-0.9,3.35-1.83,6.79-2.92,10.86
		c2.09,0.43,3.73,1.29,5.07,0.95c11.18-2.79,22.45-1.37,33.43-1.47c4.69,3.81,6.29,8.51,5.43,13.65
		c-1.49,8.89-1.12,17.92-2.33,26.75c-1.57,11.47-4.62,22.72-6.76,34.12c-0.84,4.49-3.34,8.79-2.04,13.79
		c3.53,2.89,7.8,2.05,11.33,0.9c6.69-2.19,13.56-3.16,20.38-4.52c7.29-1.46,13.54,2.94,13.52,10.35
		c-0.02,6.44,1.12,12.51,3.19,18.81c7.15,5.28,16.09,5.51,24.34,7.69c3.75,0.99,7.89,1.05,12.71-1.3
		C1806.21,1196.45,1802.58,1182.4,1793.01,1170.73z M2014.34,78.32c-1.35-3.84-4.13-4.77-7.02-5.83
		c-7.49-2.75-14.95-5.62-22.33-8.66c-3.36-1.38-6.51-3.27-9.73-4.96c-5.3-2.79-10.63-4.99-16.89-5.24
		c-12.94-0.53-25.81-2.08-38.52-4.74c-0.98-0.2-2.1-0.05-2.94-0.48c-7.63-3.95-16.23-3.34-24.33-5.02
		c-5.8-1.2-11.83-0.87-17.84,0.47c-11.01,2.44-22.12,4.45-33.24,6.32c-2.84,0.48-5.88-0.27-9.23-0.49c-2.59,1.43-5.2,3.4-6.5,6.59
		c-0.08,2.59,1.58,4.15,3.59,4.1c7.26-0.17,14.32,2.6,21.72,1.01c3.11-0.67,6.6-0.02,9.84,0.49c5.23,0.82,10.37,2.16,15.73,1.09
		c1.28-0.26,2.68-0.22,3.98-0.03c13.13,1.91,26.36,3.36,39.24,6.61c9.01,2.27,17.71,5.79,26.74,7.95
		c14.52,3.47,28.81,7.99,43.67,10.01c2.96,0.4,5.9,0.92,8.86,1.29c2.61,0.33,5.24,0.53,7.72,0.77
		C2011.38,86.68,2012.19,81.88,2014.34,78.32z M74.79,1595.99c-6.52,5.41-8.63,12.48-7.14,20.58c1.2,6.52,2.97,12.93,4.33,19.42
		c0.61,2.91,0.84,5.89,1.26,8.84c1.16,8.24,5.17,14.23,13.33,17.06c4.71,1.63,9.34,3.47,14.03,5.15c6.54,2.35,12.24,0.37,18.24-3.36
		c-3.54-10.29-4.31-20.92-8.27-30.83c-2.09-5.22-3.65-10.72-4.78-16.23c-0.65-3.14-0.06-6.57,0.16-9.85
		c0.22-3.3,0.75-6.57,1.01-9.87c0.21-2.65-0.1-5.38,0.42-7.95c0.43-2.16,1.72-4.14,3.28-7.68
		C96.35,1583.45,84.75,1587.74,74.79,1595.99z M434.84,1590.86c-1.9-12.73-3.68-25.49-5.88-38.17c-0.96-5.52-2.48-10.99-4.34-16.28
		c-0.95-2.71-2.77-5.5-4.97-7.31c-4.56-3.75-9.31-7.41-15.21-9.82c-1.18,2.16-2,4.29-3.36,5.99c-1.21,1.51-3.32,2.31-4.47,3.85
		c-1.34,1.79-2.78,3.98-2.95,6.09c-0.61,7.57-1.01,15.19,0.36,23.42c2.49,1.19,5.1,2.53,7.79,3.68c6.55,2.8,12.1,6.68,15.9,12.92
		c4.14,6.81,9.31,12.79,16.24,18.51C434.47,1592.09,434.92,1591.43,434.84,1590.86z M1037.69,1347.38
		c-0.64,0.06-1.41-0.09-1.89,0.21c-12.58,7.94-24.38,16.99-36.14,26.06c-1.29,1-1.62,3.25-2.44,5.02c4.57,3.31,8.82,5.48,14.07,5.76
		c5.63,0.3,11.14,1.62,16.24,4.16c3.92,1.96,8.15,2.09,12.19,3.19C1042.4,1380.39,1041.23,1357.15,1037.69,1347.38z M393.47,1587.68
		c-0.2,9.28-0.28,18.57-0.39,27.85c-0.03,2.44,0.63,4.71,2.66,6.15c6.69,4.76,12.84,10.46,21.55,11.65
		c2.99,0.41,5.16-0.17,7.09-2.68c-0.31-1.81-1.05-3.78-0.9-5.67c0.47-5.77-2.19-10.39-5.46-14.53c-6.35-8.05-13.09-15.8-19.74-23.6
		c-0.76-0.89-2.03-1.33-3.31-2.14C394.27,1586.04,393.49,1586.85,393.47,1587.68z M2015.96,186.2c3.93,0.43,7.95,0.62,11.89,0.32
		c3.55-0.27,6.86-1.28,10.67-0.73c3.67,0.53,7.65-1.11,11.83-1.86c1.74-6.47,0.18-12.71,1.13-18.89c-2.88-0.37-2.81,1.69-3.46,2.84
		c-1.13,1.98-1.97,4.13-3.05,6.14c-0.28,0.53-1.01,0.82-1.16,0.93c-4.63,0.34-8.85,0.67-13.08,0.96c-0.97,0.07-2.05,0.24-2.92-0.09
		c-7.7-2.9-13.12,2.36-19.16,5.32c-0.38,0.18-0.37,1.17-0.83,2.83C2010.92,184.85,2013.4,185.92,2015.96,186.2z M244.85,1586.04
		c2.14,4.11,5.64,6.51,9.83,7.83c1.3,0.41,3.31-0.18,4.52-1c1.75-1.18,2.26-3.32,1.44-5.33c-0.61-1.5-1.46-3.06-2.63-4.14
		c-3.14-2.88-6.5-5.52-9.72-8.2C242.85,1579.8,242.45,1581.43,244.85,1586.04z M1981.27,220.22c5.35-1.26,11.19-0.75,17.14-4.33
		c-4.45-1.67-7.6-0.38-10.95,0.4c-3.17,0.75-6.55,0.61-9.83,0.85c-0.21,0.43-0.41,0.87-0.62,1.3
		C1978.44,219.09,1980.06,220.51,1981.27,220.22z"/>
	<path class="st0" d="M1770.59,1933.6c1.77-2.82,3.52-5.64,5.29-8.46c1.84-2.94,4.47-4.9,7.71-6.05c9.09-3.22,18.23-6.3,27.26-9.69
		c3.41-1.28,6.49-1.27,9.56,0.52c3.6,2.12,7.5,2.49,11.57,2.37c4.99-0.14,10,0.09,14.98-0.22c3.95-0.25,7.86-1.11,11.79-1.66
		c3.2-0.45,5.5-1.83,6.78-5.05c0.53-1.32,2.09-2.38,3.4-3.22c5.66-3.63,11.05-1.2,16.06,1.39c6.76,3.49,11.71,9.81,18.97,12.64
		c0.29,0.11,0.6,0.39,0.73,0.67c2.49,5.41,8.12,7.68,11.85,11.83c1.98,2.21,3.88,4.55,5.46,7.05c7,11.06,11.39,23.33,15.14,35.72
		c4.62,15.27,8.35,30.79,15.91,45.02c3.73,7.03,7.13,14.23,10.7,21.35c2.23,4.46,4.81,8.78,6.65,13.39c2.12,5.3,0.82,9-3.67,12.22
		c-2.43,1.74-5.07,3.18-7.59,4.8c-4.51,2.91-8.9,2.28-13.07-0.61c-1.9-1.32-3.45-3.13-5.31-4.52c-2.92-2.17-5.72-4.77-9.01-6.14
		c-12.03-5.01-22.52-12.78-34.11-18.56c-3.51-1.75-6.69-4.36-9.63-7c-5.43-4.88-10.77-9.9-15.78-15.2
		c-4.43-4.69-9.75-8.06-15.29-11.03c-10.55-5.65-21.37-10.81-30.86-18.25c-1.29-1.01-3.02-1.43-4.39-2.35
		c-3.58-2.38-7.41-4.53-10.54-7.43c-4.92-4.55-10.08-8.71-15.96-11.88c-2.72-1.46-4.86-3.27-6.55-5.9
		c-4.22-6.55-9.93-11.53-16.89-15.07c-0.57-0.29-1.01-0.84-1.96-1.65C1768.67,1939.2,1768.87,1936.32,1770.59,1933.6z M1804.08,1940
		c5.56,4.19,11.39,8.01,16.93,12.21c3.15,2.39,6.28,4.95,8.84,7.92c4.19,4.86,8.87,8.68,14.93,11.08c4.59,1.82,8.83,4.54,13.21,6.9
		c0.87,0.47,1.57,1.43,2.46,1.63c9.85,2.23,16.39,9.83,24.41,15.01c3.34,2.16,6.44,4.68,9.59,7.12c1.55,1.2,3.44,2.31,4.37,3.93
		c2.6,4.55,6.65,7.35,10.88,10.01c3.94,2.47,7.85,5,11.93,7.22c1.95,1.06,4.26,1.46,6.3,2.12c1.95-2.55,1.07-4.8,0.3-6.96
		c-2.34-6.56-4.52-13.19-7.23-19.6c-4.15-9.81-6.48-20.19-9.76-30.26c-1.04-3.2-2.34-6.12-3.95-9.04
		c-5.02-9.12-11.67-16.81-19.6-23.5c-6.49-5.48-15.69-8.14-24.06-6.59c-6.86,1.27-13.72,2.23-20.73,1.41
		c-1.95-0.23-4.05-0.16-5.95,0.31c-9.22,2.25-18.37,2.14-27.6,0.01c-2.18-0.5-4.63-0.2-6.88,0.2c-1.08,0.19-1.98,1.46-3.83,2.94
		C1800.98,1936.66,1802.29,1938.65,1804.08,1940z"/>
	<path class="st0" d="M1963.69,1957.84c5.36-7.24,9.61-15.14,14.37-22.73c3.12-4.98,6.21-9.49,7.03-15.83
		c0.86-6.74,6.89-11.11,11.89-15.51c0.92-0.81,2.39-1.21,3.66-1.36c3.33-0.39,6.47,0.16,9.74,1.32c9.99,3.55,20.14,6.67,30.25,9.89
		c1.25,0.4,2.62,0.41,3.94,0.61c14.63,2.17,28.41,6.76,41.23,14.21c3.45,2,7.01,3.92,10.71,5.36c4.62,1.79,9.35,3.56,14.2,4.41
		c5.35,0.94,9.13,3.25,11.95,7.91c3.1,5.13,3.18,7.09-1.32,11.05c-1.73,1.52-3.82,2.62-5.74,3.91c-2.2,1.48-4.69,2.65-6.55,4.48
		c-5.21,5.14-10.39,10.34-15.11,15.92c-2.21,2.61-4.47,4.84-7.47,6.4c-2.65,1.37-5.52,2.52-7.82,4.35
		c-4.86,3.87-10.49,7.56-11.15,14.43c-0.59,6.18-4.19,9.54-9.16,12.02c-3.57,1.78-7.36,2.94-11.47,3.27c-3.34-2.33-7-4.21-9.77-6.98
		c-4.06-4.06-8.75-7.12-13.4-10.33c-3.28-2.26-6.47-4.64-9.74-6.92c-2.17-1.51-4.29-3.14-6.63-4.34
		c-10.05-5.15-20.2-10.13-30.28-15.24c-5.88-2.97-11.7-6.06-18.63-9.65C1960.46,1964.26,1961.58,1960.69,1963.69,1957.84z
		 M2083.83,1952.73c-9.31-4.42-18.71-8.66-27.96-13.2c-4.27-2.1-8.55-3.4-13.37-3.38c-7.43,0.03-14.61-1.89-21.09-5.3
		c-4.57-2.4-9.5-2.58-14.17-4.92c-4.6,6.33-11.37,9.77-14.35,16.86c-1.25,2.97-4.04,5.24-5.83,8.02c-2.76,4.27-2.36,6.55,1.82,9.08
		c3.95,2.39,8.06,4.59,12.28,6.48c15.86,7.09,30.8,15.66,44.21,26.79c1.99,1.65,4.31,2.92,6.07,4.09c3.99-1.09,2.87-3.81,3.15-6.44
		c8.9-5.22,15.73-13.76,25.4-18.5c5.95-2.92,9.71-7.83,13.12-14.78C2089.67,1955.75,2086.8,1954.14,2083.83,1952.73z"/>
	<path class="st0" d="M2192.78,1964.19c5.01,0.17,9.84-0.42,14.8-1.4c7.56-1.5,14.68-4.04,21.86-6.64
		c10.26-3.72,20.59-4.73,30.76,0.56c1.47,0.77,2.95,1.57,4.52,2.1c1.21,0.41,2.68,0.87,3.81,0.55c3.66-1.05,6.62,0.33,9.25,2.42
		c6.51,5.17,11.85,11.52,17.11,17.91c1.01,1.23,1.43,2.98,1.99,4.54c1.24,3.4,2.45,6.82,3.6,10.26c2.09,6.28,4.4,12.51,6.08,18.9
		c0.82,3.11,0.94,6.63,0.45,9.81c-0.92,5.93-6.71,9.88-12.34,8.53c-2.96-0.71-5.76-0.98-8.81-0.85c-3.6,0.15-7.32-0.22-10.84-1.03
		c-7.77-1.79-15.4-4-22.47-7.93c-5.24-2.91-10.84-5.29-16.92-5.51c-4.75-0.17-9.16-1.43-13.58-2.87c-4.74-1.55-9.38-3.51-14.22-4.6
		c-7.96-1.8-15.09-5.11-21.34-10.26c-2.51-2.07-5.25-2.79-8.33-2.48c-2.3,0.24-4.57,0.8-6.87,1.09c-3.61,0.44-7.22,0.88-10.84,1.12
		c-3.13,0.2-5.8-1.23-8.3-2.95c-2.13-1.47-3.02-3.56-2.57-6.05c0.35-1.95,0.96-3.87,1.63-5.74c1.93-5.36,5.21-9.15,11.33-9.77
		c1.96-0.2,3.85-1.2,5.81-1.33c6.55-0.46,12.28-2.47,16.15-8.01C2187.5,1964.41,2190.15,1964.1,2192.78,1964.19z M2278.35,1996.32
		c-2.84-3.21-5.37-6.71-8.24-9.9c-1.28-1.43-2.93-3.22-4.62-3.47c-5.79-0.86-10.56-3.91-15.57-6.43c-4.38-2.21-8.9-2.84-13.52-1.55
		c-7.02,1.96-13.96,4.2-20.91,6.43c-1.11,0.36-2.04,1.28-3.9,2.51c3.05,1.66,5.17,3.28,7.57,4.01c5.69,1.75,11.58,2.83,17.25,4.63
		c8.21,2.6,16.3,5.57,24.42,8.45c6.24,2.22,12.42,4.61,18.69,6.77c1.14,0.39,2.53,0.06,4.96,0.06
		C2282.81,2002.84,2281.05,1999.37,2278.35,1996.32z"/>
	<path class="st0" d="M1785.2,2008.67c1.47,2.96,2.75,6.02,4.41,8.86c2.53,4.32,5.02,8.58,5.92,13.62c0.29,1.61,0.95,3.19,1.68,4.66
		c3.69,7.45,7.32,14.91,8.8,23.21c0.23,1.27,0.92,2.52,1.63,3.62c4.77,7.42,6.52,16.86,14.75,21.96c0.26,0.16,0.38,0.54,0.56,0.82
		c2.9,4.49,2.47,7.82-1.47,11.49c-4.1,3.83-9.09,5.33-14.55,5.54c-7.04,0.28-13.92-0.86-20.62-2.94c-7.34-2.28-14.82-3-22.47-3.09
		c-6.34-0.07-12.51,0.77-18.78,1.6c-10.4,1.38-21.02,0.61-31.46,2.27c-1.92,0.31-4,0.03-5.95-0.31c-3.21-0.55-5.1-3.88-3.62-6.82
		c1.48-2.93,3.45-5.63,5.42-8.27c3.95-5.31,8.72-10.06,11.38-16.26c2.1-4.88,4.83-9.43,7.17-14.16c6.08-12.3,14.38-23.1,22.2-34.2
		c6.84-9.72,13.81-19.25,17.65-30.68c0.96-2.86,4.02-4.02,6.49-2.48c3.62,2.26,7.72,4.01,10.57,9.23
		C1782.7,2000.43,1783.17,2004.59,1785.2,2008.67z M1770.51,2076.72c3.97-0.88,7.84-0.43,11.78,0.62c1.66,0.44,3.65-0.32,6.28-0.63
		c-1.71-5.01-3.17-9.3-4.76-13.96c0.8-1.47,1.72-3.15,2.58-4.74c-0.27-0.76-0.3-1.59-0.73-1.95c-7.9-6.64-11.53-16.04-16.1-24.83
		c-0.73-1.41-1.66-2.71-2.52-4.1c-10.25,7.62-22.89,28.36-30.87,50.82C1748.19,2077.8,1759.38,2079.19,1770.51,2076.72z"/>
	<path class="st0" d="M1796.85,1880.04c-10.04,2.97-20.28,3.28-30.51,1.49c-4-0.7-7.78-1.49-11.74-0.04
		c-1.21,0.44-2.64,0.68-3.91,0.52c-5.58-0.7-11.25-1.1-16.66-2.5c-8.28-2.14-16.5-1.13-24.76-0.69c-2.27,0.12-4.63,1.02-6.75,0.6
		c-3.13-0.62-2.91-4.07-4.1-6.33c-0.6-1.15-1.72-2.01-2.45-3.1c-0.9-1.35-2.35-2.82-2.33-4.23c0.04-4.8-3.1-7.81-5.46-11.33
		c-5.38-8.02-10.35-16.16-11.54-26.12c-0.42-3.52-1.79-6.98-4.01-10.08c-2.64-3.68-1.83-7.56,0.79-11.07
		c3.65-4.88,8.77-6.63,15.08-4c7.93,3.3,15.88,6.62,22.77,12.07c6.5,5.14,13.39,9.79,20.29,14.39c5.24,3.49,10.81,6.5,16.14,9.85
		c8.71,5.47,17.87,10.4,25.18,17.74c3.9,3.92,8.08,5.57,13.38,4.95c2.3-0.27,4.6-0.67,6.91-0.84c1.91-0.14,3.85-0.03,5.98-0.03
		c1.91,2.76,3.78,5.47,5.89,8.53C1803.4,1874.8,1801.56,1878.64,1796.85,1880.04z M1731.56,1861.36c3.29,0.68,6.49,1.14,9.71,0.41
		c0.92-1.75-0.32-2.31-1.31-3.12c-6.43-5.21-12.88-10.41-19.2-15.74c-6.07-5.13-11.91-10.53-18.05-15.57
		c-1.63-1.34-3.98-1.8-5.79-2.57c-1.86,2-1.4,3.64-0.54,5.07c1.55,2.56,3.43,4.91,4.95,7.48c1.35,2.27,3.18,4.63,3.42,7.09
		c0.59,6.22,4.9,9.93,7.39,13.57C1719.35,1859.21,1725.49,1860.11,1731.56,1861.36z"/>
	<path class="st0" d="M2117.53,2027.97c6.49-0.27,12.45,1.61,18.53,3.45c4.78,1.45,8.42,4.09,10.84,8.24
		c3.51,6.02,7.2,12.03,9.84,18.45c2.34,5.67,5.3,10.6,9.62,14.91c4.11,4.1,4.12,9.09-0.13,13.13c-3.6,3.41-7.67,6.35-11.68,9.3
		c-0.98,0.72-2.57,1.05-3.79,0.89c-2.93-0.38-5.97-0.75-8.67-1.84c-7.22-2.89-14.61-4.33-22.38-4.31c-3.3,0.01-6.62-0.39-9.9-0.84
		c-7.51-1.02-14.95-2.84-22.61-1.23c-1.28,0.27-2.7,0.24-3.98,0c-7.51-1.38-15.01-2.78-22.47-4.39c-1.11-0.24-1.99-1.55-3.15-2.52
		c2.65-10.2,6.89-18.86,16.8-23.57c0.9-0.43,1.81-0.88,2.63-1.45c4.95-3.43,9.67-7.19,12.36-12.72c2.91-5.97,7.28-10.22,13.26-13.01
		c2.09-0.98,4-2.36,5.92-3.51C2111.62,2027.33,2114.59,2028.09,2117.53,2027.97z M2092.97,2067.52c12.26,0.38,24.32,3.41,36.64,2.73
		c1.59-0.09,3.15-0.57,4.96-0.91c-0.25-4.46-1.59-8.22-3.78-11.49c-1.41-2.1-3.47-4.18-5.72-5.24c-11.45-5.39-11.01-7.47-22.92,2.03
		c-1.81,1.44-3.82,2.63-5.6,4.1c-2.26,1.86-4.39,3.88-7.41,6.56C2091.32,2066.6,2092.13,2067.5,2092.97,2067.52z"/>
	<path class="st0" d="M1876.3,1880.42c-5.74,0.9-11.14,0.2-16.62-1.52c-3.44-1.08-7.11-2.05-10.66-1.99
		c-8.85,0.14-16.7-3.71-24.99-5.7c-3.83-0.92-5.65-5.15-4.35-8.85c0.97-2.76,2.63-5.31,4.17-7.83c2.76-4.52,5.26-8.87,5.79-14.52
		c0.52-5.44,1.73-11.12,5.64-15.65c2.65-3.08,5.65-4.62,9.62-3.16c5.91,2.16,11.9,4.17,17.61,6.78c5.11,2.34,9.73,5.75,14.83,8.11
		c15.75,7.29,24.79,20.51,31.95,35.44c0.67,1.4,0.71,3.11,0.9,3.98c-4.23,7.81-11.93,6.17-19.35,9.19
		C1887.02,1879.73,1881.66,1879.58,1876.3,1880.42z M1869.68,1854.73c-7.22-3.68-13.24-10.15-22.01-10.27
		c-3.49,5.59-3.49,5.59-3.68,11.53c7.04,3.87,15.15,5.54,22.95,7.8c2.83,0.82,6.46,1.34,9.89-1.06
		C1875.44,1858.97,1872.84,1856.33,1869.68,1854.73z"/>
	<path class="st0" d="M1904.51,2070.23c3.94-0.32,7.95,0.34,11.77-1.42c1.08-0.5,2.73-0.46,3.86-0.01
		c7.18,2.87,13.81,6.47,17.01,14.18c-0.43,1.46-0.71,2.75-1.19,3.97c-2.48,6.35-3.55,12.66-1.12,19.39c0.86,2.38,0.43,5.26,0.42,7.9
		c-0.01,2.52-1.33,4.38-3.46,5.68c-2.82,1.72-5.92,3.13-8.37,5.28c-3.37,2.97-6.97,3.74-11.06,2.52c-3.47-1.04-7.02-2.04-10.22-3.66
		c-2.5-1.27-4.96-1.62-7.63-1.75c-5.38-0.26-10.58,0.56-15.74,1.98c-3.98,1.1-7.86,1.3-10.44-1.18c-4.67-7.29-2.29-13.52,0.53-19.24
		c-3.25-12.9-2.25-17.55,6.85-30.95C1885.42,2072,1894.96,2071.02,1904.51,2070.23z M1886.21,2094.73
		c-1.82,7.11,0.95,10.16,8.16,9.18c6.22-0.84,12.44-1.64,18.83-2.48c2.04-4.52,2.04-4.52-1.73-10.68
		c-7.2-0.79-14.77-0.53-23.12-0.02C1887.42,2092.43,1886.52,2093.5,1886.21,2094.73z"/>
	<path class="st0" d="M1552.26,951.25c-2.66-7.18-7.93-11.97-15.25-14.37c-13.3-4.37-27.12-6.33-40.92-8.31
		c-1.64-0.23-3.33-0.19-4.99-0.15c-13.05,0.32-25.72-2.74-38.46-4.71c-9.12-1.41-17.98-4.7-26.88-7.37
		c-11.15-3.34-22.23-6.89-33.33-10.38c-2.54-0.8-5.22-1.39-7.53-2.64c-4.27-2.32-8.79-2.43-13.46-2.9
		c-8.56-0.86-17.27-1.83-25.45-4.31c-9.31-2.81-18.84-3.82-28.27-5.65c-9.11-1.77-18.36-2.9-27.49-4.46
		c-10.43-1.78-20.53-5.47-30.77-8.36c-9.6-2.71-19.22-5.34-28.76-8.26c-3.94-1.21-7.17,0.07-10.48,1.74
		c-2.93,1.47-6.39,2.4-6.72,7.17c2.92,4.25,7.42,6.87,12.64,8.24c14.78,3.89,29,9.73,44.13,12.39c3.92,0.69,7.71,2.1,11.62,2.86
		c7.49,1.44,14.91,3.49,22.68,3.04c1.65-0.09,3.42-0.13,4.96,0.36c12.08,3.8,24.67,5.23,36.94,8.12c3.22,0.76,6.55,1.01,9.8,1.67
		c9.75,1.98,19.59,3.66,29.19,6.21c8.65,2.29,17.03,5.58,25.53,8.41c11.35,3.78,22.7,7.56,34.05,11.33
		c3.77,1.25,7.53,2.54,11.33,3.69c7.12,2.16,14.48,2.07,21.79,1.9c11.03-0.26,21.77,1.72,32.61,3.36c7.06,1.06,13.6,2.85,19.7,6.43
		c4.87,2.86,10.24,2.63,15.57,2.19C1548.97,958.25,1549.39,957.57,1552.26,951.25z"/>
	<path class="st0" d="M1573.97,840.95c-8.24,2.22-14.17,6.53-18.46,13.76c3.09,4.91,7.21,8.62,11.8,11.88
		c7.88,5.6,16.56,9.7,25.34,13.66c9.67,4.36,19.31,8.84,28.67,13.81c3.07,1.63,5.89,2.82,9.31,2.72c2.99-0.08,6.02,0.2,8.96-0.2
		c6.43-0.87,9.33-7.01,6.17-12.56c-2.34-4.12-5.2-7.42-9.85-9.32c-8.27-3.37-16.22-7.51-24.5-10.86c-4.87-1.98-9.93-3.19-14.56-6.09
		c-5.1-3.19-9.97-6.43-14.33-10.6C1579.94,844.68,1576.69,842.89,1573.97,840.95z"/>
	<path class="st0" d="M781.8,1579.05c5.21-0.78,10.41-1.67,15.65-2.29c3.29-0.39,6.65-0.2,9.94-0.56c5.89-0.64,8.95-3.6,9.7-9.52
		c0.37-2.95-0.03-5.99,0.29-8.95c0.84-7.88-3.08-12.51-9.98-15.27c-0.92-0.37-1.77-1.08-2.72-1.22c-6.37-0.93-12.05-3.77-17.58-6.71
		c-7.89-4.18-16.71-3.79-25-5.9c-8.9,1.69-17.72-1.48-26.63-0.38c-5.35,0.66-10.49,1.63-14.66,5.37c-3.86,3.46-4.42,5.9-2.65,10.59
		c3.24,8.59,9.82,13.93,17.59,18.09c4.66,2.5,9.38,4.9,14.09,7.31c1.77,0.9,3.51,2.22,5.38,2.46c4.44,0.58,8.19,2.41,11.91,4.73
		c1.59,1,3.7,1.41,5.63,1.58c2.97,0.26,5.97,0.07,8.96,0.07C781.74,1578.65,781.77,1578.85,781.8,1579.05z"/>
	<path class="st0" d="M1032.41,1849.98c-1.49,11.31-4.87,21.94-9.37,32.39c-1.97,4.58-3.85,9.18-6.51,13.36
		c-4.68,7.33-11.66,11.83-19.88,14.08c-4.14,1.13-8.86,1.42-12.76-0.62c-5.12-2.67-10.63-3.66-16.01-5.27
		c-2.79-0.84-6.01-2-7.8-4.08c-3.87-4.49-7.41-9.42-10.17-14.65c-1.7-3.23-2.8-6.63-5.83-9.01c-2.22-1.75-3.17-4.24-2.95-7.09
		c0.49-6.15-1.77-11.77-3.32-17.53c-1.21-4.49-2.56-8.95-3.75-13.44c-0.33-1.25-0.64-2.67-0.39-3.89
		c2.05-9.89,2.06-19.76,0.06-29.66c-0.19-0.95-0.1-1.99,0-2.97c0.4-3.95,1-7.89,1.24-11.85c0.23-3.74,0.71-7.26,3.52-10.1
		c0.91-0.92,1.71-2.09,2.2-3.29c3.09-7.46,8.88-10.26,16.61-9.97c5.29,0.2,10.58,0.29,15.98,0.43c0.59-0.7,1.17-1.52,1.88-2.21
		c5.87-5.65,12.74-5.89,16.97,0.68c3.51,5.44,8.28,7.7,13.82,8.71c6.41,1.17,9.84,5.04,12.16,10.55c1.28,3.04,2.56,6.09,3.98,9.48
		c-1.56,3.99-0.91,8.14,0.77,12.32c1.24,3.08,2.12,6.31,3.11,9.49c1.18,3.81,2.65,7.57,3.36,11.46c0.85,4.7,6.03,6.21,7.06,10.26
		C1034.97,1841.87,1032.95,1845.83,1032.41,1849.98z M984.81,1822.59c-4.59,2.07-4.6,2.05-11.14-1.93
		c-1.29-4.61-0.43-9.62-0.67-14.56c-0.22-4.6,0.7-9.3-1.23-14.23c-4.67-2.02-9.32-4.61-15.49-2.71c-0.35,1.66-1.06,3.52-1.09,5.39
		c-0.12,7.66-0.39,15.34,0.08,22.97c0.4,6.59,1.55,13.16,2.68,19.69c1.47,8.48,3.26,16.9,4.82,24.89c3.5,4.43,6.78,8.59,10.07,12.75
		c2.55,3.23,5.78,5.61,9.71,6.72c3.82,1.08,7.75,1.84,11.68,2.5c3.46,0.59,6.53-0.33,9.12-2.93c2.65-2.66,4.82-5.59,5.6-9.27
		c1.37-6.47,2.52-12.99,3.88-20.13c-1.36-0.15-2.62-0.64-3.66-0.34c-6.65,1.92-13.73,2.43-19.73,6.56
		c-2.06,1.42-4.98,1.58-7.18,2.22c-3.31-1.42-4.6-3.6-3.73-6.54c1.5-5.06,2.93-10.03,6.36-14.45c3.2-4.13,5.27-9.2,7.47-14.02
		c0.73-1.59,0.3-3.71,0.44-6.36C989.56,1820.34,987.2,1821.51,984.81,1822.59z"/>
	<path class="st0" d="M379.31,1685.94c2.21-3.27,4.94-6.21,7.59-9.16c3.83-4.26,8.63-5.71,14.33-4.86
		c5.42,0.81,10.2,3.04,14.48,6.23c8.81,6.54,16.57,14.27,24.22,22.09c1.33,1.36,2.59,3.19,2.99,5.01
		c2.21,10.01,4.2,20.06,6.13,30.13c0.3,1.58,0.2,3.34-0.15,4.93c-1.42,6.55-3.26,12.76-10.41,15.73c-2.69,1.11-4.86,3.43-7.32,5.12
		c-2.8,1.91-5.88,2.93-9.31,3.11c-9.32,0.51-18.27,0.04-27.34-3.35c-7.01-2.63-10.11-6.83-11.11-13.55
		c-0.19-1.31-0.07-2.67-0.33-3.96c-1.44-7.13-1.87-14.73-4.76-21.23c-2.56-5.76-3.82-11.14-3.1-17.49
		C374.34,1698.15,375.45,1691.66,379.31,1685.94z M395.43,1697.85c0.75,4.72,6.97,34.2,10.87,41.53c6.24,2.81,12.79,4.22,20.14,1.74
		c-1.22-6.8-1.92-13.42-3.72-19.72c-1.05-3.67-3.41-7.25-5.98-10.16c-4.61-5.22-9.73-10.01-14.87-14.74
		c-1.24-1.14-3.37-1.31-5.24-1.98C396.04,1696.05,395.3,1697.02,395.43,1697.85z"/>
	<path class="st0" d="M945.93,1974.91c0.19-3.63,0.91-7.23,1.05-10.85c0.53-13.36,4.89-24.57,17.57-31.98
		c3.07,1.62,6.25,3.3,9.2,4.85c5.07-0.95,9.92-1.99,14.82-2.74c2.67-0.41,5.36,0.01,7.52,1.92c5.48,4.83,10.98,9.64,16.34,14.6
		c1.16,1.07,2.26,2.65,2.55,4.16c0.98,5.2,1.93,10.44,2.27,15.71c0.85,13.25-4.75,24.61-11.35,35.52c-1.7,2.81-4.15,5.22-8.25,6.16
		c-16.34-5.44-31.14-15.23-47.12-22.5c-1.71-0.78-2.97-2.55-4.63-4.02C945.89,1982.09,945.74,1978.49,945.93,1974.91z
		 M999.79,1980.79c1.49-2.59,1.3-5.14-0.79-7.33c-3.44-3.61-6.96-7.13-10.47-10.67c-2.01-2.03-4.56-2.56-7.31-2.56
		c-6.26,0.02-12.51,0.01-19.16,0.01c-1.37,2.68-0.55,5.42,1.8,7.61c2.17,2.02,4.69,3.66,7.06,5.47c6.16,4.7,13.24,7.58,20.5,10.01
		c1.81,0.61,3.84,0.55,5.86,0.81C998.25,1982.87,999.15,1981.91,999.79,1980.79z"/>
	<path class="st0" d="M1388.27,586.91c3.17-6.18,5.84-12.83,10.09-18.19c5.33-6.74,11.99-12.41,17.1-19.45
		c7.23-9.96,17.06-17.68,24.09-27.84c1.67-2.42,4.22-4.24,6.36-6.34c3.27-3.21,7.2-4.73,11.78-4.43c9.29,0.61,18.61,1.33,27.27,5.06
		c4.36,1.88,8.73,2.68,13.44,3.16c7.86,0.8,15.86,1.26,23.28,4.74c3.25,1.52,6.98,2.71,10.51,2.77c5.77,0.1,11.19,1.16,16.61,2.95
		c2.17,0.72,4.55,1.09,6.85,1.13c6.25,0.11,12.43,2.09,18.77,0.47c1.47-0.38,3.24,0.46,4.88,0.68c2.3,0.31,4.6,0.75,6.91,0.81
		c4.39,0.12,8.53,0.91,12.53,2.89c6.05,3,12.74,3.57,19.3,4.57c4.4-2.07,8.49,0.4,12.67,1.03c2.92,0.44,5.67,2.01,8.59,2.57
		c5.16,0.99,10.19,3.32,15.6,2.19c10.58-2.2,21.25-0.74,31.87-0.97c1.3-0.03,2.61,0.45,3.9,0.76c20.37,4.77,40.73,9.57,61.1,14.3
		c4.86,1.13,9.77,1.99,14.64,3.06c4.94,1.09,9.43,3.21,13.52,6.19c2.86,2.08,4.5,5.06,4.89,8.4c0.49,4.24,0.25,8.55,0.48,12.83
		c0.28,5.21-1.41,9.61-4.24,14.01c-4.59,7.13-10.94,12.52-16.82,18.37c-7.98,7.95-16.84,15.06-22.52,25.07
		c-0.64,1.12-1.69,2.03-2.62,2.97c-7.75,7.81-16.5,14.38-25.64,20.45c-5.4,3.59-11.41,5.26-17.88,5.57
		c-14.88,0.72-29.2-2.07-42.9-7.56c-5.54-2.22-10.78-2.72-16.53-1.8c-4.56,0.73-9.33,1.56-13.83,0.97c-7.6-1-15.18-1.74-22.83-1.88
		c-1.61-0.03-3.28-0.56-4.8-1.16c-4.64-1.83-9.33-3.59-13.8-5.8c-6.4-3.17-12.98-5.07-20.18-4.68c-2.66,0.14-5.34-0.2-7.99-0.09
		c-4.41,0.19-8.6-0.66-12.72-2.13c-2.82-1.01-5.72-1.82-8.51-2.89c-5.35-2.06-10.8-3.3-16.57-2.99c-4.74,0.25-9.16-0.71-13.52-2.78
		c-4.5-2.14-9.33-3.5-14.48-3.23c-9.05,0.46-17.78-1.43-26.6-3.24c-12.66-2.61-25.29-5.7-38.45-4.99
		c-6.5,0.35-12.34-2.21-17.74-5.78c-9.58-6.33-17.42-14.27-23.03-24.52C1383.76,596.47,1385.86,591.61,1388.27,586.91z
		 M1523.29,606.2c-4.2-0.98-8.27-2.54-12.5-3.36c-6.18-1.2-12.43-2.45-18.69-2.8c-14.61-0.81-28.76-4.16-43.05-6.88
		c-5.54-1.05-11.16-1.63-16.74-2.46c-1.31-0.19-2.63-0.43-3.88-0.84c-2.75-0.91-4.06-4.19-2.35-6.45c3.4-4.52,7.02-8.83,12.6-10.94
		c5.9-2.22,11.65-4.76,17.86-6.26c5.12-1.23,10-3.57,14.86-5.7c4.86-2.13,9.56-4.62,14.51-7.04c-0.45-0.85-0.72-1.87-1.38-2.5
		c-1.42-1.38-2.85-3-4.6-3.76c-8.57-3.7-14.76-11.35-23.34-14.51c-16.4,9.32-41.14,41.34-49.11,63.36c1.6,3.88,4.26,7.04,7.63,9.95
		c3.46,2.99,6.94,5.01,11.61,4.64c1.31-0.1,2.68,0.03,3.97,0.31c10.05,2.14,20.09,4.38,30.14,6.5c2.58,0.55,5.24,0.75,7.85,1.18
		c2.28,0.38,4.74,0.43,6.77,1.37c5.34,2.49,10.89,3.02,16.59,2.55c9.49-0.77,18.49,0.44,27.16,4.76c5.02,2.5,8.14,1.37,11.1-3.25
		c3-4.68,6.54-9.25,6.33-16.13C1531.93,605.78,1527.43,607.17,1523.29,606.2z M1692.81,638.34c-5.01-3.21-10.21-6.14-15.14-9.47
		c-4.37-2.96-8.47-6.31-12.7-9.47c-1.04-0.78-2.13-1.5-2.99-2.1c-2.51,0.37-2.8,2.02-2.75,3.7c0.24,8.37,3.21,16.14,5.4,24.08
		c0.66,2.4,2.57,3.82,4.84,4.64c8.1,2.91,16.41,5.09,24.89,6.52c4.74,0.8,8.96-1.64,13.77-2.04
		C1703.43,647.19,1698.32,641.87,1692.81,638.34z"/>
	<path class="st0" d="M1904.6,816.72c-7.3,0.37-13.51-1.95-19.81-4.04c-4.83-1.6-8.01-4.61-9.54-9.36
		c-1.43-4.42-2.75-8.87-4.03-13.33c-1.18-4.14-2.74-5.4-7.04-5.58c-3.94-0.17-7.06,0.9-9.27,4.53c-2.05,3.37-4.62,6.42-6.66,9.2
		c1.15,9.04,1.07,13.27-3.47,19.65c-3.16,4.44-8.16,7.6-12.48,11.16c-1.25,1.03-2.91,1.61-4.46,2.2c-6.12,2.3-9.11,7.61-12.05,12.78
		c-2.11,3.72,0.78,8.45,5.24,8.6c3.94,0.13,7.91-0.61,11.87-0.87c5.95-0.39,11.91-0.84,17.87-1c3.83-0.11,6.16,2.25,7.27,5.72
		c0.6,1.88,1.1,3.88,1.1,5.83c0,6.84,2.54,12.94,5.03,19.47c7.02,2.54,12.21-1.18,17.21-4.98c1.11-0.84,1.81-2.93,1.77-4.43
		c-0.13-5.29-0.22-10.65-1.18-15.82c-0.9-4.88-0.41-9.14,2.01-13.42c1.73-3.06,3.99-5.03,7.35-6.26c4.66-1.71,9.2-3.84,13.64-6.09
		c4.23-2.14,4.9-4.61,2.79-9C1907.07,820.22,1906.02,818.92,1904.6,816.72z"/>
	<path class="st0" d="M1746.54,92.55c0.99,0.08,2.06,0.19,2.98-0.08c6.51-1.87,12.36,0.32,18.33,2.53c4.33,1.6,8.82,2.88,13.35,3.82
		c5.84,1.21,11.85,1.61,17.66,2.92c15.53,3.51,31.15,6.48,46.93,8.57c6.89,0.92,13.82,2.02,20.75,2.11
		c10.05,0.12,19.79,1.33,29.51,4.02c7.51,2.08,14.44,5.31,20.73,9.51c3.96,2.64,7.79,4.71,12.35,5.91
		c7.49,1.97,8.52,3.74,8.28,11.13c-0.11,3.49-1.31,6.48-3.12,9.33c-2.49,3.93-5.32,7.68-7.49,11.78c-2.31,4.37-4.7,8.02-10.42,7.69
		c-1.21-0.07-2.48,0.8-3.7,1.31c-4.9,2.05-9.76,4.23-14.7,6.18c-11.16,4.42-23.01,5.32-34.28,2.35
		c-13.76-3.62-27.29-8.55-39.79-15.68c-2.09-1.19-4.03-1.51-6.37-1.86c-13.1-1.91-26.13-4.34-39.2-6.54
		c-2.28-0.38-4.61-0.48-6.92-0.7c-8.91-0.87-17.82-1.65-26.72-2.65c-5.92-0.66-11.81-1.57-17.7-2.49
		c-10.54-1.64-20.62-5.03-30.79-8.14c-13.69-4.19-26.91-9.53-39.97-15.31c-3-1.33-5.8-3.09-8.12-4.34c-2.01-4.6,0.06-7.2,2.72-9.39
		c5.21-4.29,9.47-9.27,12.2-15.5c1.58-3.62,4.58-5.24,8.22-6.63c10.19-3.89,20.8-3.24,31.33-3.64c1.61-0.06,3.26,0.58,4.86,1.01
		c8.31,2.23,16.61,4.49,25.79,6.98C1737.32,93.34,1741.7,92.15,1746.54,92.55z M1866.65,128.69c-2.31-0.01-4.61-0.45-6.91-0.75
		c-1.31-0.17-2.75-0.93-3.88-0.59c-8.11,2.44-15.7-0.83-23.48-1.93c-4.26-0.6-8.48-1.7-12.76-2.02c-9.65-0.72-18.98-3.08-28.41-4.92
		c-0.95-0.19-1.92-0.26-2.99-0.4c-3.88,4.79-8.45,6.26-14.86,5.41c-9.86-1.32-19.8-2.18-29.44-4.67
		c-10.27-2.66-20.48-5.5-30.28-9.75c-8.41-3.66-17.13-4.97-26.34-0.93c-2.17,2.86-4.55,6.01-7.22,9.55
		c6.28,4.5,13.47,6.09,20.09,8.93c9.46,4.07,19.77,5.17,29.42,8.56c1.56,0.55,3.19,1.02,4.82,1.21c6.58,0.78,13.17,1.88,19.78,2.02
		c10.66,0.24,21.03,2.81,31.53,3.61c12.29,0.94,24.21,4.06,36.5,4.69c2.59,0.13,5.26,0.92,7.68,1.92c6.1,2.53,12.05,5.43,18.12,8.04
		c3.34,1.43,6.72,2.9,10.23,3.77c3.21,0.79,6.36,1.23,9.39,2.96c3.9,2.22,8.56,2.02,12.63,0.64c6.89-2.34,13.68-5.1,20.22-8.29
		c4.91-2.4,6.41-7.25,6.85-13.37C1894.3,134.69,1881.5,128.73,1866.65,128.69z"/>
	<path class="st0" d="M1437.91,1826.15c-0.67,0-1.34,0.08-2-0.01c-12.2-1.79-22.94,2.3-32.94,8.6c-4.13,2.6-7.75,6.05-11.65,9.04
		c-4.27,3.28-5.38,9.06-5.59,14.43c-0.07,1.72,1.23,3.92,2.58,5.17c2.85,2.64,4.26,5.65,4.88,9.47c0.82,5.01,3.39,9.44,6.85,13.08
		c11.23,11.85,23.53,22.39,38.18,29.91c2.37,1.22,4.86,2.29,6.97,3.87c6.74,5.05,14.62,7.64,22.16,11.06
		c7.8,3.54,16.01,4.42,24.14,5.4c20.54,2.49,40.42-1.32,59.42-8.99c12.93-5.22,23.2-14.06,30.18-26.42
		c2.62-4.64,2.65-9.56,2.19-14.54c-0.14-1.56-0.99-3.15-1.84-4.53c-2.09-3.39-4.31-6.7-6.58-9.97
		c-4.96-7.15-21.45-19.72-29.46-23.18c-9.86-4.26-20.36-5.92-30.72-8.02c-4.89-0.99-9.76-1.83-14.46-3.55
		c-6.21-2.26-12.31-4.57-19.08-5.33c-8.18-0.92-16.14-3.81-24.31-4.89c-6.21-0.82-12.61-0.16-18.93-0.16
		C1437.91,1826.45,1437.91,1826.3,1437.91,1826.15z"/>
	<path class="st0" d="M654.03,1736.43c4.95,0.21,8.76,1.99,11.52,6.52c3.54,5.8,6.01,11.7,8.22,23.19
		c-2.24,2.62-5.29,3.75-8.62,4.32c-4.41,0.75-8.3,2.62-11.18,6.03c-3.86,4.58-9.09,6.35-14.51,8.15c-5.13,1.71-9.84,0.03-14.62-0.99
		c-1.36-0.29-2.74-1.91-3.54-3.26c-5.45-9.19-6.2-18.67-1.4-28.41c1.17-2.38,1.95-4.96,3.22-7.27c1.37-2.49,3.1-4.79,4.96-7.62
		c-8.91,1.13-13.57-4.49-17.77-10.18c-2.83,0.48-5.11,1.18-7.38,1.15c-2.25-0.04-4.59-0.55-6.71-1.35c-2.76-1.04-3.76-3.96-2.61-6.6
		c0.4-0.91,0.79-1.92,1.47-2.58c7.18-6.96,13.34-14.75,19.35-22.72c2.28-3.03,5.7-5.83,9.87-6.22c3.95-0.37,8-0.32,11.93,0.15
		c1.62,0.19,3.04,1.97,4.62,3.07c-2.04,4.89-4.46,8.74-7.99,11.87c-2.34,2.07-3.83,4.59-3.72,7.83c0.14,4.03,0.64,7.92,4.57,10.85
		c1.54-0.55,3.2-0.84,4.53-1.67c4.24-2.66,8.89-2.48,13.54-2.22c1.22,0.07,2.77,0.61,3.49,1.49c0.93,1.15,1.19,2.85,1.67,4.15
		c-3.96,5.27-11.37,5.1-15.17,11.84C646.77,1736.13,650.4,1736.28,654.03,1736.43z M650.44,1763.14c0.8-3.72,1.49-7.51-0.78-10.6
		c-2.51-3.43-6.44-4.32-11.28-3.68c-1.47,2.65-3.05,5.48-4.45,8c1.53,9.41,1.53,9.41,4.99,13.5
		C643.12,1767.72,646.71,1765.47,650.44,1763.14z"/>
	<path class="st0" d="M659.26,1842.85c-2.44-4.93-2.64-6.15-0.37-8.97c2.49-3.09,5.31-5.92,7.76-8.62c0.57-2.63,0.86-4.96,1.6-7.14
		c1.28-3.8,3.74-6.21,8.12-6c2.31,0.11,4.64,0.02,7,0.02c1.67-1.35,3.08-2.8,4.77-3.81c3.13-1.87,6.27-3.87,9.67-5.1
		c7.28-2.64,12.94-0.37,16.9,6.37c1.68,2.87,3.19,5.84,4.66,8.83c1.17,2.39,2.53,4.79,3.11,7.34c0.65,2.87,0.92,5.96,0.61,8.88
		c-0.26,2.41-1.61,4.7-2.56,7.28c2.21,0.87,4.02,1.64,5.88,2.29c3.23,1.12,4.62,3.4,4.92,6.75c0.6,6.65,0.03,13.05-1.55,19.62
		c-1.44,6-4.71,9.45-10.11,11.15c-7.67,2.42-15.57,3.51-23.63,2.71c-9.12-0.9-15.4-9.25-13.76-18.42c0.7-3.9,1.29-7.95,4.59-10.8
		c2.87-7.89,8.98-11.9,16.72-13.98c0.24-0.06,0.38-0.48,0.99-1.29c-1.8-3.81-3.74-7.92-6.56-13.9c-0.4,3.12-0.65,4.22-0.67,5.32
		c-0.11,4.35-2.84,6.47-6.48,7.93c-4.6,1.85-9.12,1.22-14.12-0.48C667.94,1842.73,665.13,1843.36,659.26,1842.85z M711.2,1861.68
		c-0.03-3.72-2.11-6.25-4.84-6.26c-3.32-0.01-6.63,2.53-7.09,5.65c-0.44,2.94-0.9,6.21,1.48,8.38c2.44,2.23,5.56,3.47,10.02,1.26
		C710.93,1867.52,711.22,1864.6,711.2,1861.68z"/>
	<path class="st0" d="M644.19,1813.69c7.41,1.34,13.42,1.18,17.81-5.81c-0.35-2.26-0.79-5.1-1.22-7.86
		c-4.09-2.59-7.65-2.32-11.06,0.58c-1.25,1.06-2.42,2.22-3.74,3.19C642.36,1806.42,642.54,1809.63,644.19,1813.69z"/>
	<path class="st0" d="M2143.69,769.85c-0.85-3.42-1.2-7.93-3.09-11.65c-2.94-5.77-7.41-9.77-14.81-9.93
		c-8.78-0.18-17.17,0.82-25.27,4.27c-6.95,2.96-11.33,7.44-11.65,15.63c-0.17,4.36-0.06,8.54,0.82,12.77
		c0.6,2.91,1.63,5.87,1.49,8.76c-0.32,6.67,3.64,10.62,8.48,13.64c3.59,2.24,7.82,3.66,11.94,4.82c6.4,1.81,20.46-2.17,25.23-10.65
		c2.12-3.77,3.92-7.6,4.36-12.06C2141.69,780.53,2142.74,775.67,2143.69,769.85z"/>
</g>
</svg>
