<?xml version="1.0" encoding="utf-8"?>
<!-- Generator: Adobe Illustrator 24.1.0, SVG Export Plug-In . SVG Version: 6.00 Build 0)  -->
<svg version="1.1" id="Layer_1" xmlns="http://www.w3.org/2000/svg" xmlns:xlink="http://www.w3.org/1999/xlink" x="0px" y="0px"
	 viewBox="0 0 1893.3 2993.4" style="enable-background:new 0 0 1893.3 2993.4;" xml:space="preserve">
<style type="text/css">
	.st0{fill:#168DA6;}
</style>
<g>
	<path class="st0" d="M964,1748.6c2.4,4.7,9,7.3,7.6,14.6c-0.6,0.7-1.7,1.9-3,3.5c3.7,1.7,5.6,4.5,6.2,8.3c0.6,3.7,0.4,7.1-1.8,10.5
		c-2.1,3.3-3.4,7.1-5,10.5c1.1,5.4,5.4,2.3,8.5,3.3c-0.2,7.7,0.9,15.1,3.6,22.3c0.2,0.6,0.6,1.3,0.5,1.9c-0.5,5.5-0.6,10.8,1.1,16.3
		c1,3.2-0.7,7.2-1.1,10.9c1,0.9,2.5,1.6,2.8,2.7c0.7,2.8,1.1,5.7,1.3,8.6c0.2,2.2-2.2,4.2-0.8,6.7c1,1.7,2,3.3,2.9,4.7
		c-0.9,2.6-2.6,2.4-4.2,2c-1.5-0.3-2.7-0.1-2.7,1.8c0,1.6,0.9,2.4,2.5,2.3c0.7,0,1.3-0.1,2.2-0.2c7.9,8.5,4.5,17.7,1.8,27.1
		c-8.7,2.6-16.3,0.8-22.9-4c-4-2.9-7.9-6.6-10.3-10.7c-3.5-6-6.9-12.1-9.1-18.8c-3-9.1-7.4-17.8-11-26.8c-3.2-8-7.8-15.4-9.7-23.9
		c-0.3-1.2-1.2-2.3-2-3.4c-4.8-6.4-8.3-13.6-11.5-20.9c-2.1-4.8-4.7-9.5-7.2-14.2c-0.9-1.7-2.3-3.1-2-5.4c0.2-1.1-0.5-2.6-1.3-3.4
		c-6.6-7-8.4-16.4-12.3-24.8c-0.6-1.2,0.1-3.2,0.3-4.7c0.2-1.5,2-2.8,0.4-4.8c-1,0.7-2.1,1.4-3.1,2.1c-2.3-3.4-2.3-3.4-3.2-8.7
		c-1.7-1.2-4.6-1-5-4c-0.5-3.2-3.4-5.8-2.1-9.5c0.2-0.5-0.7-1.9-1.4-2.2c-2.4-1-4-2.8-4.5-5.1c-0.8-3.8-3.3-6.4-5.3-9.2
		c2.8-4.4,3-5.6-0.3-7.2c-3.4-1.7-5-4.2-6.1-7.4c-2.1-5.9-3.9-11.9-5.9-17.9c-0.2-0.6-1.1-1.1-1.1-1.6c0.1-4.9-0.4-9.3-6.2-10.7
		c-1.7-3.2-3.5-6.4-5.1-9.6c-1-2.1-1.8-4.3-2.9-6.3c-3.1-5.8-6.4-11.6-9.6-17.4c-0.5-0.9-1.2-2-0.9-2.8c2.2-6.1-1.9-9.2-5.9-11.9
		c0.6-1.4,1-2.3,1.6-3.7c-5.1-2.6-7.7-7.3-9.3-12.7c-1-3.5-2.5-6.9-3.9-10.2c-2.9-6.8-3.8-14-4.1-21.3c-0.1-1.6,0.3-3.7-0.5-4.8
		c-4.8-5.8-4.9-13.5-8.4-19.8c-0.8-1.4-1.7-2.9-1.8-4.4c-0.3-4.5-2.5-6.6-7-6.7c-3.2-0.1-6.5-1.8-9.4,1.1
		c-7.7-0.6-15.1,0.2-22.5,2.5c-4.7-1.6-9.2,0.1-13.7,0.9c-9.9,1.9-19.8,1.7-29.8,2c-4,0.1-8.3-0.5-11.8,0.9
		c-3.4,1.3-7.5-1.1-10.2,2.3c-9.8,1.1-19.4,3.3-29.1,5.2c-1,0.2-2.2,0.6-2.9,0.2c-6.5-4-11.9,0-17.7,2.2c-2.1-0.7-4.3-1.4-6.7-2.2
		c-2.6,2.1-5.4,3.5-9,3c-2-0.3-4-0.2-6-0.2c-4.3,0.1-8.6-0.3-12.4,2.5c-0.9,0.7-2.5,0.8-3.7,0.5c-2.4-0.6-4.5-0.4-6.8,0.4
		c-1.8,0.6-3.9,0.6-5.8,0.8c-3,0.2-5.9,0.2-8.8,0.6c-3.9,0.7-7.7,2.1-11.8,1c-1.4-0.4-3.2,0.3-4.8,0.8c-2.9,0.8-5.6,2-8.7,0.5
		c-1.1-0.5-2.7-0.5-3.9-0.1c-5.5,1.9-11.2,1.2-16.8,1.4c-7.3,0.2-14.5,0.4-21.8,2.1c-9.2,2.1-18.8,2.5-28,5.1
		c-3.1-1.3-4.2,3.2-7.7,2.3c-0.1-0.4-0.5-1.2-0.4-2c0.2-1.9-0.1-3.5-2.1-3.8c-1.8-0.3-1.8,1.5-2.2,2.7c-1.7,4.4-5,6-9.5,5.4
		c-1-0.1-2.1-0.7-2.9-0.4c-7,2.6-14.4,2.1-21.6,3.2c-3.3,0.5-6.5,1.1-9.8,1.5c-5.9,0.6-11.9,1.2-17.9,1.5
		c-6.6,0.3-13.1,1.7-19.7,0.3c-1.5-0.3-3.5-0.4-4.7,0.4c-2.8,1.7-5.7,1.5-8.7,1.8c-2,0.2-4.2,0.1-5.8,1c-8.2,4.7-17,2.8-25.4,2.1
		c-8.9-0.8-17.7-3-26.4-4.9c-4.9-1-9.5-2.8-14.4-3.9c-9-2-15.9-8.2-24.2-11.6c-0.9-0.4-1.7-1.1-2.4-1.8
		c-5.6-6.2-11.3-12.2-15.2-19.7c-1.2-2.3-2.7-4.7-1.4-7.6c0.2-0.6,0.4-1.6,0-1.9c-4.3-4.9-2.4-10.8-2.5-16.2c-0.1-5.8,2.3-11,5-16
		c0.8-1.5,1.8-3,1.9-4.6c0.6-6.8,4.5-11.6,9-16.1c2.3-2.3,4.4-5,6.2-7.8c5.6-8.9,13-16.1,22.5-20.6c4.7-2.2,10.1-3,15.3-4
		c6.5-1.2,13.1-1.9,20.1-2.8c2.9,1.4,6.1,2.9,9.1,4.4c1.6-1.8-0.1-2.7-0.2-3.9c0.4-0.3,0.8-1,1.3-1c6-0.2,12-1,17.5,2.4
		c0.9,0.6,2.5,0.2,3.8,0c5.9-1,11.8-2.2,17.4,1.3c0.7,0.5,1.9,0.3,2.8,0.3c8.3-0.1,16.6-0.7,24.9-0.2c7.9,0.4,15.8,1.7,23.6,3.2
		c4,0.8,8.9-0.5,12,3.6c0.3,0.4,1.4,0.6,1.8,0.3c3.4-2.2,7.3-0.7,10.7-1.8c5.4-1.7,9.8-0.3,14.1,2.6c3,2.1,5.5,1.5,7.8-1.3
		c3.9,1.5,5,5.5,7,9.4c2.8-2.5,5-4.3,7.4-6.4c1.2,0.7,2.3,1.3,3.4,2c1.1,0.8,2,1.7,3.5,2.9c0.3-1.2,0.4-2.1,0.8-2.8
		c0.4-0.7,1.1-1.6,1.7-1.7c3.2-0.3,4.2,2.9,6.7,4.8c1.5-0.5,3.3-1.2,5.2-1.7c1.3-0.4,2.8-1.2,3.8-0.8c5.5,1.9,11.3,0.9,16.8,1.7
		c2.8,0.4,5.2,1.3,6.1,4.3c0.4,1.3,1.2,2.7,2.7,1.8c0.8-0.5,0.9-2.2,1.3-3.5c6.2,0.2,10,1,14.5,3.2c0.5,0.3,1.6,0.7,1.7,0.6
		c3.3-4.6,6.8-1.3,10.8-0.1c1.5,3.9,2.3,8.6,6.1,11.7c3.5-3,1-6.3-0.1-10.2c1.8,0.4,3.7,0.3,4,1c1.8,3.9,5.1,5.9,8.6,7.9
		c3-2.3,3.1-3,0.9-5c-0.7-0.6-1.5-0.9-3.8-2.1c3.2,0.3,5.3-0.1,6.3,0.8c4,3.8,9.8,0.4,13.9,3.7c0.5,0.4,1.9-0.2,2.9-0.3
		c6.1-0.3,6.1-0.3,11.1,4.6c4.9-0.3,9.8-0.6,15-0.9c0.2,1.1,0.5,1.9,0.5,2.7c0,2.3,1,4.2,3.1,4.4c3.2,0.3,1.5-3,2.8-4.8
		c11.7,2.5,24,3.4,35.4,8c0.9,0.4,1.9,0.7,2.8,0.8c8.9,0.9,8.9,0.9,15.2,5.1c5-4.3,5-4.2,11.3-3.2c5.1,0.8,10.3,1.2,15,3.8
		c0.6,0.3,1.4,0.8,1.8,0.6c5.7-2.4,11.1,1.2,16.7,0.7c5.4-0.5,10.6,0.2,15.5,2.7c2.3,1.2,5,2.1,7.5,2.5c2.2,0.3,4.6-0.1,6.8-0.6
		c2.5-0.6,4.1-2.3,4.1-5c0-5.7,0.3-11.4-0.3-17c-0.4-3.3-1-6.5,0.2-9.7c0.2-0.6,0.3-1.3,0.2-2c-1.4-9.9,4.4-17.1,9.3-24.5
		c2.3-3.6,4.9-7,7.6-10.3c2.2-2.8,4.2-5.6,8.8-5.4c2.5,0.1,5.2-2.3,7.8-3.5c0.9-0.4,2.1-1.2,2.7-0.8c4.1,2.2,7.3,0.2,11-1.4
		c2.6-1.1,5.9-0.9,8.8-0.9c10.7-0.1,21.3,1.2,31.2,4.8c12,4.3,20.9,12.7,26.6,24.3c1.5,3,2.7,6,4.5,8.8c2,3,3.2,6.6,4.4,10
		c2.4,6.9,4.7,13.7,6.6,20.8c2.8,10.6,6.7,20.8,7.9,31.8c0.4,3.3,1.1,6.6,2.4,9.7c3.7,8.7,4.8,18,7,27c1.1,4.5,1.7,9.1,2.5,13.7
		c1.4,7.5,2.8,15,4,22.5c0.5,3,1.5,5.6,2.6,8.4c2.3,5.8,3.7,11.9,5.4,18c0.3,0.9,0.1,2.1,0.5,2.9c5.5,10.6,5.2,22.4,7.3,33.7
		c1.5,7.8,3.5,15.5,5,23.3c1.1,6.1,2.9,12.2,2.4,18.6c-0.1,1.1,0.7,2.4,1.1,3.5c0.3,0.9,1.3,2.1,1,2.6c-2.3,4.5,0.4,7.9,1.8,11.9
		c1.7,5,5.4,10.4,0.8,15.9c1.6,3.1,0.5,6.8,2.8,10c3.4,4.7,3.2,4.8-0.8,10.1C964.5,1747,964.4,1747.7,964,1748.6z M976.6,1830.6
		c1.6-3.1,1.3-5.9,0.1-9.4C972.6,1827,972.6,1827,976.6,1830.6z M844.2,1610.9c0,3,1,4.9,4.4,7.2
		C847.8,1614.4,847.5,1612.1,844.2,1610.9z M437,1551.3c-1.2,1.2-2.7,1.9-2.7,2.7c0,0.9,1.2,1.8,1.8,2.8c0.7-0.9,1.7-1.7,2.1-2.7
		C438.5,1553.5,437.7,1552.6,437,1551.3z"/>
	<path class="st0" d="M197.6,1575.8c-0.9,1-1.8,1.9-3,3.2c0.6,1,1.3,2,1.9,3.1c3.8,6.6,2.5,12.7-2.1,18.2c-4.2,5.1-5.7,11-6.6,17.3
		c1.9,3.6-2.3,4.2-3.2,6.6c0.5,1,1,2.1,1.7,3.6c-2.5,2-5,4-7.5,6c3.1,8.7,2.4,12.1-4,18.9c0.3,3,0.7,6.2,1.1,10.3
		c-1.9,4-4.2,8.8-6.6,13.5c-0.9,1.8-1.8,3.6-3.1,5c-1.9,2-2.9,4.4-3.5,7c-1.7,7-4.5,13.5-9.7,18.8c-1,1-1.5,3-1.6,4.5
		c-0.1,2.6,0.2,5.2,0.5,8.4c-2.4,1.3-5,2.7-7.7,4.2c-0.1,2.6-0.2,5.4-0.5,8.2c-0.2,3-0.6,5.9-0.9,8.1c-2.7,2.9-4.9,5.2-7,7.7
		c-1.2,1.5-1.9,3.6-3.3,4.9c-3.5,3.2-4.1,6.7-1.4,10.3c-2,3-3.7,5.5-5.3,8c-2.5,0.8-4.9,1.5-7.3,2.2c-0.1,4.2,4.1,4.5,5.5,7.2
		c-3.3,4.3-3.4,9.7-4.2,14.9c-2,1-3.8,1.8-6,2.9c1.7,6-2.3,10-5.8,13.8c-2.4,2.5-1.6,4.7-1.5,7.4c-1.3,0.1-2.5,0.2-4.2,0.3
		c-0.2,1.8,0,3.8-0.6,5.5c-0.5,1.5-1.9,2.6-2.8,4c-0.7,1.1-1.7,2.5-1.5,3.5c1.2,5.6-2.2,9.2-4.8,13.4c-4.4,0.5-8.7,1-13.2,1.5
		c-1.6-0.8-3.3-1.8-5.1-2.6c-5.3-2.3-10-4.9-11.6-11.3c-0.7-2.7-3.3-4.9-4.5-7.5c-1.1-2.7-1.5-5.7-2.1-8.7
		c3.2-5.8,5.9-11.7,4.8-18.7c0-0.3-0.3-0.8-0.2-0.9c4.4-5.4,0.7-11.6,1.6-17.2c1.1-6.7-0.2-14.1,4.4-20.1c0.5-0.7,0.8-2,0.6-2.8
		c-1.6-5.6-2.5-11,1.1-16.2c-1.8-6.1,1.6-11.8,1.3-17.8c-0.4-11.1,3.4-21.6,4.7-32.5c2.8-3.1,1.7-6.6,1.5-10.2
		c-0.3-5.6,0.3-11.3,0.7-16.9c0.2-2.3,0.7-4.7,1.6-6.8c0.9-2,2.4-3.8,3.7-5.8c-1.4-1.1-2.3-1.8-3.7-2.9c2.5-2.3,3.2-5.1,2.9-8.7
		c-0.4-4.9,0.1-10,1.2-14.8c1.5-6.6,1.7-13.2,1.7-19.8c0-4.7,0.3-9.3,3.1-13.4c-1-2-2.3-3.6-2.7-5.4c-0.3-1.5,0.4-3.2,1-4.7
		c0.7-1.8,1.8-3.5,2.9-5.5c-3.3-6.3-1.1-12.7,1-18.8c0.8-2.3,0.8-4.2,1-6.4c1-11.2,2.1-22.3,3.9-33.4c0.8-4.9,1.4-9.8,1.8-14.8
		c0.4-3.9,1.2-7.9,1.8-11.8c0.9-5.2,1.8-10.4,2.8-15.8c1,0.7,2.3,1.5,3.7,2.5c0.3-0.8,0.6-1.2,0.5-1.3c-3.7-6.5-3.2-13.2-1.5-20.2
		c1.6-6.7,1.7-13.7,2.6-20.6c0.7-5.3,1.3-10.5,2.3-15.7c0.4-2.2,2.3-4,2.9-6.2c1.2-4.5,6.3-8.2,2.8-13.6c1.2-7,1.9-14.1,3.5-21
		c3.7-15.5,9.2-30.4,14.4-45.4c0.8-2.5,2.1-4.2,4.8-4c2.5-13.2,9.6-23.5,19.1-32.1c3.4-3.1,6.9-7.2,12.5-7.1c1.3,0,2.6-1.9,3.9-2.9
		c5.1-3.6,10.8-5,16.5-3.5c5.4,1.4,10.7,3.3,16.1,4.9c0.9,0.3,2,0.8,2.8,0.6c3.8-1.3,7.3,0.3,10.7,1.4c5.3,1.7,10.6,3.5,15.7,5.6
		c5.1,2.1,8.7,6.1,11.9,10.4c2,2.7,3.6,5.6,6.8,7.1c1.6,0.7,2.2,2.4,1.9,4.2c-0.5,2.5,0.7,3.5,3.2,3.7c2.6,0.2,4.1,2.2,4.4,4.7
		c0.5,4,1.7,7.7,4,11.1c0.8,1.2,0.7,3.2,0.9,4.8c0.3,2.3,0.4,4.6,0.8,6.9c1.3,6.1,1.3,6-1.9,12.1c1.6,2.4,3.3,4.8,5.1,7.6
		c-2.4,5.1-1,11.2-4.4,16.1c-0.6,0.9,0,2.6,0,3.9c0,1.3,0.3,3.2-0.5,3.8c-2.4,2.2-3.1,4.9-3.5,8c-0.4,2.8-3.8,4.7-2.9,8.2
		c0.2,0.8-1.6,1.9-2.2,3.1c-0.8,1.4-2.1,3.4-1.7,4.5c2,4.5-1.2,7.6-2.1,11.3c-0.8,3.1-3,6-1.6,9.6c0.4,1-0.1,2.8-0.9,3.6
		c-6.1,6.1-4.9,13.8-5.2,22.2c-3.8,4.2-8.3,9.1-12.6,14.1c-0.8,0.9-1.3,2.6-0.9,3.6c1.2,3.7-3.4,4.9-3.3,7.9
		c0.1,2.9,0.8,5.8,0.7,8.7c0,1.1-1.2,2.3-1.8,3.4c-0.9,1.8-2.8,4.1-2.3,5.3c2.1,4.7-1.5,7.5-3,10.9c-1.2,2.6-1.4,5.1-0.4,6.9
		c-3.2,4.3-6,8-8.9,11.9c1.9,4.9,1.8,9.8-0.8,14.4c-0.6,1.1-1.1,2.6-2.1,3.2c-5.2,3.2-5.7,7.7-3.7,12.4c-2.6,4.4-5.9,7-9.9,9
		c0.6-1.9,1.4-3.7,1.7-5.7c0.1-0.7-0.7-1.9-1.4-2.2s-2.1-0.1-2.6,0.4c-0.6,0.5-0.9,1.9-0.6,2.5
		C195.2,1572.8,196.4,1574.3,197.6,1575.8z M123.7,1469c-2-1.1-3.2-2.2-4.6-2.4c-1.5-0.3-3.1,1.7-3,3.1c0.1,1.8,2.3,3.1,4.5,2.3
		C121.6,1471.5,122.3,1470.3,123.7,1469z M102.6,1530.4c-1.8-0.8-2.7-1.2-3.7-1.7c-0.4,1.1-1.1,2.1-1.2,3.2c0,0.4,1.5,1.5,1.9,1.3
		C100.5,1532.8,101.2,1531.8,102.6,1530.4z"/>
	<path class="st0" d="M1250.5,2106.1c-0.8,2.1-1.3,3.6-2.1,5.7c2.4,1,4.8,2,7.3,3c0.2,0.4,0.8,0.9,0.8,1.4c0.2,1.3-0.4,3.1,0.2,3.9
		c4,4.5,5.8,10.2,9.4,14.9c2.4,3.2,5.2,8.3,5.4,12.8c0.1,2.8,3.1,3.8,3.2,5.9c0.4,5.2,4.3,8.1,7,11.8c2.5,3.4,4.8,7.1,7.2,10.6
		c1.6,2.5,3,5,4.7,7.4c1.8,3-2.7,7.1,1.8,9.7c1.8-1.9-0.8-6.4,4.4-6.6c1.2,2.4,2.3,5.1,3.8,7.5c1.6,2.5,3.6,4.8,5.4,7.2
		c0.4,0.5,0.8,1.1,0.9,1.8c0.9,6.5,5.1,11.2,8.8,16.2c-0.9,1.4-1.6,2.4-2.3,3.5c0.2,0.6,0.2,1.4,0.6,1.8c5.8,5.2,5.7,5.2,8.6,12.5
		c0.7,1.6,0.9,3,0.6,4.7c-0.3,1.2-0.3,3.4,0.3,3.6c4,1.9,2.5,7.3,6.3,9.4c1.2,0.6,1.9,2.7,2.2,4.2c0.5,2.6,0.8,5,2.6,7.3
		c1.2,1.6,1.4,4.4,1.4,6.6c-0.1,9.6,0.2,19.3-2.8,28.6c-0.4,1.3-0.8,2.6-0.8,3.9c0.3,11.1-6.3,19.4-12,27.8
		c-3.1,4.5-8,8.1-12.7,11.1c-7.1,4.3-13.8,9-20.9,13.3c-9.9,6-20.6,9.3-32.6,6.8c-1.8-1.9-3.8-3.9-6.2-6.4c-1.3,1.8-2.2,3.1-3.1,4.3
		c-0.3,0.1-0.7,0.2-0.9,0.1c-3-1.1-5.5-2.8-9.1-2.5c-3.2,0.2-5.9-2.7-8.1-5.2c-2.2-2.4-4-5.5-8.3-4.1c-0.8,0.3-2.3-1.1-3.3-1.9
		c-2.5-2.1-4.9-4.4-7.3-6.5c0.2-2.6,0.6-4.6,0.4-6.5c-0.2-2.1-1.7-4.1-3.9-3.7c-6.1,1.2-8.4-3.1-10.6-7.1c-1-1.8-2-2.8-3.4-4.2
		c-4.4-4.4-8.6-9.1-9.8-15.8c-0.7-3.9-2.7-7.5-4-11.2c-1.2-3.7-3.4-7.2-2.6-11.5c0.2-0.9-0.2-2.2-0.9-2.7
		c-5.1-4.4-5.5-11.2-8.9-16.6c-2.7-4.3-1.8-9.6,1.1-14c-1.9-2.3-4-3.8-4.7-6.7c-2.2-9-5.1-17.9-8.6-26.5c-2-4.9-3.1-10.2-3.8-15.4
		c-0.4-3.1,0.8-6.5,1-9.7c0.1-0.8-0.8-2-1.5-2.2c-0.7-0.2-1.6,0.7-2.2,1c-1.4-3.6-2.8-7.3-4.2-10.9c-0.2-0.6-0.7-1.2-0.9-1.8
		c-1.1-3.8-1.8-7.8-3.3-11.4c-1.5-3.3-2.9-6.5-3.8-10.2c-1.3-5.4-3.7-10.6-5.5-15.9c-6-17.2-11.9-34.4-17.9-51.7
		c-0.2-0.6-0.6-1.2-0.7-1.9c-0.1-3,0.5-6.1-0.2-8.9c-0.7-2.8-3.2-5.2-3.7-8c-0.6-3.4-1.6-6.3-3.2-9.2c-1.6-2.8-2.9-6.3-2.8-9.4
		c0.1-5.9-2.1-10.9-4.3-16c-1.3-2.9-4.5-5.1-3.4-9.1c0.2-0.8-1.4-2.1-2.2-3.1c-0.8-1-2-2-2.2-3.2c-0.4-2.2,0.2-4.7-0.5-6.7
		c-0.6-1.7-2.7-2.8-3.6-4.5c-1-2-1.5-4.4-2.1-6.6c-1.7-6-2.1-12.4-5.5-17.9c-1-1.6-0.4-4.2-1.4-5.8c-1.8-2.9,0.4-6-0.7-8.7
		c-1.2-2.7-3.2-5.1-4.8-7.6c-0.2-0.3-0.3-0.6-0.4-0.9c-1.9-7.3-3.3-14.8-2.5-22.4c0.4-3.4,2.7-6.7,4-9.7c-1.9-3.7-4.4-0.2-7.4-1.8
		c-4.3-4-4.9-10.3-4.8-16.5c0.1-2.8,0.1-4.9-1.3-7.4c-2.6-4.5-0.3-10.8,4.5-12.1c6.6-1.8,13.4-3.6,20.2-3.9c6-0.3,11.4,3,15.8,7.4
		c1.6,1.6,3.1,3.4,4.5,5.2c0.6,0.8,1.6,1.8,1.4,2.6c-1.3,5.5,2.2,7.2,6.3,9.6c3.3,1.9,6,5.1,6.8,9.4c0.3,1.9,1.2,3.8,2.1,5.5
		c0.6,1.1,1.8,2.8,2.7,2.7c4.7-0.3,6.2,3.1,7.9,6.3c1.3,2.4,2.9,4.2,5.2,5.8c9.9,7,16.8,16.9,23.8,26.6c2.9,4,3.8,9,6.6,13.2
		c3.2,4.9,7.3,9.5,9.1,15.2c4.8,4,6,10.3,9.4,15.1c10,14.1,20,28.2,30,42.3c5.6,7.9,11.1,15.7,16.6,23.6c0.9,1.4,1.8,2.9,2.3,4.4
		c1.2,4.4,3.9,7.3,6.9,10.6C1245.6,2096.2,1247.8,2101.6,1250.5,2106.1z M1080.3,1940.4c-0.6-1.2-1.1-2.8-2.1-3.7
		c-1-0.9-3.2,1.7-2.9,3.9c0.1,1.2,0.6,2.5,1.1,3.6c0.2,0.4,1,0.5,1.6,0.6c0.2,0,0.6-0.3,0.7-0.5
		C1079.2,1943.1,1079.7,1942,1080.3,1940.4z M1152.3,2122c-1.1,2.6-2,4-2.1,5.4c-0.1,1,0.9,2.1,1.7,3.1c0.2,0.3,1.5,0.2,1.7-0.1
		c0.6-1,1.4-2.3,1.3-3.3C1154.6,2125.6,1153.6,2124.4,1152.3,2122z M1144.7,2124c1.7-1.3,2-1.4,2.2-1.7c0.4-0.5,0.8-1.1,1.1-1.6
		c1.2-2,0.9-4-0.4-4.1c-2-0.1-3.1,1.2-3.5,2.9C1143.8,2120.5,1144.3,2121.8,1144.7,2124z M1184.8,2228.9c-2.3,0.7-3,2-2.5,3.9
		c0.4,1.3,1.4,2.5,2.9,1.8c0.7-0.3,1.3-1.6,1.2-2.3C1186.2,2231,1185.4,2229.9,1184.8,2228.9z M1083.2,1944.1
		c-1.5,1.3-1.8,2.7-0.3,3.4c1.4,0.7,3.1,0.8,4.8,1c0.3,0,0.7-0.8,1.4-1.6C1087,1945.9,1085,1944.9,1083.2,1944.1z M1073.1,1909.1
		c-1.1-1.3-1.6-2.3-2.4-2.7c-1.7-0.8-4,0.6-3.6,1.9c0.2,0.7,1.2,1.6,2,1.6C1070.2,1910.1,1071.3,1909.5,1073.1,1909.1z
		 M1130.6,2061.3c1-1.9,1.7-2.7,1.8-3.6c0.1-0.8-0.3-1.8-0.8-2.5c-0.2-0.3-1.2-0.5-1.7-0.3c-1.4,0.6-1.9,1.7-1.3,3.1
		C1129,2058.9,1129.6,2059.7,1130.6,2061.3z"/>
	<path class="st0" d="M1725.4,2253.2c-0.5,1.5-1.1,3-1.9,5.3c-5.1,2.7-10.8,6-17.8,5.2c-1.5-0.2-3.4,0.4-4.7,1.3
		c-3,2-5.5,0.2-8.7-0.6c-0.5,1.9-1.1,3.8-1.6,5.6c-2.7,1.1-4.7-0.3-7-1.7c-2.4-1.4-4.6-0.4-5.8,1.9c-1.4,2.6-2.6,5.3-3.9,7.9
		c-0.9-0.5-1.7-0.6-1.9-1c-0.7-1.6-1.6-3.2-3.5-3.1c-2.7,0.1-2.8,2.3-3.2,4.3c-0.1,0.6-0.5,1.2-0.9,2.2c-1.3,0.2-3.2,0.1-4.4,0.9
		c-2,1.3-3.1,1.3-5.1-0.3c-2.4-1.9-2.7-1.6-7.5,0.4c0.5,2.7,1.1,5.5,1.6,7.8c-6.3,3.4-12,6.6-17.6,9.6c-1.7-1.6-3.1-2.8-4.8-4.4
		c-1,2.4-1.8,4.3-3.2,7.5c-0.6-2.2-1.2-3.1-1-3.8c0.4-2-0.4-3.2-2.1-4c-1.7-0.8-3.2-0.5-4.6,0.7c-1.5,1.2-3,2.4-4.4,3.5
		c-1.5-0.9-2.6-1.5-3.8-2.3c-1.8,2.9,1.7,4.8,0.9,8c-3.6,1.3-7.5,2.7-11.4,4.1c-1.1-1.6-2-2.9-2.8-4.1c-0.9,0.4-1.9,0.6-2,1
		c-1.3,3.7-3.5,6.2-7.2,7.6c-4.3,1.6-8.5,3.7-12.5,5.4c-2-0.9-4.2-2.7-5.6-2.3c-5,1.6-8.2-0.9-11.8-4.4c-2.6,4-4.8,7.5-7.1,10.9
		c-3.1-0.5-5.6-0.9-8.8-1.5c-0.3,2.6-0.5,4.7-0.7,6.9c-1.8,0-3.7,0-6.1,0c0.5,1.7,0.9,2.9,1.2,4.1c-0.4,0.2-0.9,0.7-1.3,0.7
		c-2.4-0.2-4.5,1.2-6.5,1.3c-4.6,0.4-7.7,3.9-11.9,4.4c-4,0.5-8.1,1-11.4,3.3c-3.4,2.3-7.7,0.1-11.2,3c-2.6,2.2-6.7,2.5-10.2,3.6
		c-4.9-2.2-7.8-6.1-10.5-10.4c-0.6-0.9-2.3-1.8-3.2-1.6c-0.9,0.2-1.6,1.8-2.2,2.9c-0.4,0.9-0.5,1.9-0.8,3c3.1,2.4,3.5,8.6,9.6,5.9
		c0.2,3.7-2.2,3.6-3.9,4.3c-2.8-0.2-6.6-4-12.5-12.9c-1.8,0.9-3.8,1.9-5.5,2.7c0,1.2-0.3,2,0,2.4c2,2.8,3.2,5.9,3.7,9.1
		c0.1,0.9-1.1,2-2,3.5c-2.1-1.9-3.7-3.4-5.5-5.1c-3,4-2.8,10.7-10,10c-0.6-1.8-1.2-3.6-1.7-5.2c-2.8-2.6-3.8,1.9-6.3,1.2
		c-3.2-0.9-3.5,2.4-4.7,4.2c-2.6,3.9-6.6,5.8-10.8,6.3c-1.9,0.2-4-1.6-6.3-2.7c-3.9,2.5-7.5,5.7-12.4,6.8c-1.7,0.4-3,2.3-5.2,1.4
		c-0.6-0.2-1.8-0.2-1.9,0.1c-2,4.6-7.3,3.7-10.6,6.1c-4.6,3.4-10,4.9-15.4,6.4c-1.4-1.4-2.5-2.6-3.6-3.8c-0.7,0.1-1.4,0-1.8,0.3
		c-3.5,2.5-6.8,5.2-10.3,7.8c-2.8,2.1-5.7,2-8.2-0.2c-5.6-4.6-11.8-8.2-18.3-11.4c1.3-8.7,7.1-13.7,13-18.5
		c3.8-3.1,8.3-5.5,11.5-9.5c1.2-1.4,3.2-2.4,5.1-3c6.5-2.1,11.2-6.7,16.4-10.8c12.5-9.9,25-19.8,38.7-28.1
		c11.8-7.2,23.5-14.8,33.6-24.4c0.7-0.7,1.4-1.5,2.3-1.9c10.9-4.3,18.3-14.2,29.1-18.7c2.3-1,4.4-3,6.2-4.9
		c3.1-3.1,6.3-5.8,10.3-7.7c1.4-0.7,2.7-1.9,3.8-3.1c4.3-4.4,4.3-4.4,10.7-5.9c1.8-2.1,3.2-4.4,5.3-5.9c7-5,14.2-9.8,21.4-14.6
		c3.8-2.6,8.3-4.4,11.5-7.6c6.9-6.9,16.6-9.5,23.1-16.9c3.4-3.8,8.4-6.5,13.1-8.8c2.1-1,5.2-0.1,6.9-2.6c4.3-0.4,6.7-3.4,9.6-6.2
		c3-3,6.9-5.2,10.5-7.5c0.6-0.4,1.8,0.5,2.7,0.4c1.2-0.1,3-0.3,3.3-1.1c1-2.2,2.2-3.9,4.7-4.6c1.2-0.4,2.5-1.4,3-2.4
		c2.6-5.5,8.6-7.2,12.5-11.1c1.1-1.1,2.9-1.8,4.4-2c2.7-0.4,5-1.1,6.8-3.6c1.1-1.5,3-2.8,4.8-3.3c4.4-1.2,7.7-4.1,10.7-7
		c4.9-4.7,10.3-8.3,16.7-10.3c3.5-1.1,2.8-5.1,5.7-6.5c2.5-1.1,5.3,1.1,7.6-1.4c7-7.4,16.1-11.3,25.3-15.3
		c10.6-4.6,21.1-9.6,31.4-14.7c7.4-3.7,15-5,23.1-3c1.5,0.4,3.4,0.7,4.8,0.2c4.5-1.6,8.8-0.5,12.3,1.8c3.5,2.3,6.7,2.3,10.5,0.7
		c1.3,2.3,2,4.7,3.6,6.1c1.6,1.5,4.2,1.8,6.1,3c2,1.2,4.1,2.6,5.4,4.3c4.6,6.1,9.7,11.9,12.7,19c0.6,1.5,1.3,3.1,1.6,4.7
		c1.4,7.5,2.8,15,3.9,22.6c0.6,4.6,0.6,9.2,0.8,13.6c-5.5,3.8-5.5,3.8-1.1,10.7c-1.8,2-3.6,4.2-5.7,6.6c-0.2,2.9,3.3,6.1-0.4,8.9
		c0.3,2.2,0.5,4.4,0.8,6.5c-7.2,3.7-13.4,7.7-18,14.2c-2.8,3.9-7.2,6.6-11.3,10.2c0,1.7,0,3.9,0,6.3c-1.3,1.1-3.1,2.1-4.3,3.5
		c-1.3,1.4-2.1,3.2-3,4.6c-3,0-4.1-1.4-4.1-3.7c0-1,0.5-2.2,0.1-2.9c-1.2-2.2-1.8-5.1-4.7-5.9c-1.9-0.5-3,2.7-2.7,7.4
		c0.1,1.3,0.1,2.6,0.2,4.4c-2.2,0.8-4.7,1.1-6.2,2.4c-1.3,1.1-1.6,3.4-2.3,5.1c-2-1.2-3.9-3.1-6.2-3.8c-1.7-0.5-4.4-0.1-5.5,1
		c-1,1-0.5,3.6-0.8,5.9c-2.5,3.7-6.2,6.1-11.5,4.5c-0.6-0.2-1.6-0.5-1.9-0.2c-3.8,4-10,0.8-13.8,4.7c0-0.6,0.1-1.3-0.1-1.9
		c-1-2.7-2.3-3.7-3.8-3.1c-0.3,0.1-0.5,0.4-0.6,0.7c-0.6,1.6,0.3,2.8,3,3.8C1724.1,2253.4,1724.8,2253.2,1725.4,2253.2z
		 M1417.7,2353.7c2.1,2.4,3.6,4.1,6.3,3.2C1422.5,2351.5,1422.2,2351.3,1417.7,2353.7z M1656.6,2148.4c-0.5,0.6-1.6,1.4-1.8,2.4
		c-0.4,1.4,1.4,3,2.9,2.8c0.7-0.1,1.6-1,1.8-1.7C1659.9,2150,1658.8,2148.4,1656.6,2148.4z M1384.9,2366.2c-0.3,0.7-1,1.6-0.8,2.2
		c0.5,1.6,1.6,2.9,3.5,2.5c0.5-0.1,1.2-1.5,1.1-2.1C1388.2,2367.3,1387.1,2366.1,1384.9,2366.2z M1591.8,2186.5
		c-0.2,1.9-0.5,3.4-0.4,4.9c0,0.4,0.8,1.1,1.3,1.2c0.5,0.1,1.3-0.3,1.7-0.7C1595.9,2190,1595.6,2189.2,1591.8,2186.5z
		 M1772.6,2101.6c-1,1.5-1.8,2.2-1.8,3c-0.2,1.7,1.7,3.1,3.1,2.5c0.5-0.2,1.2-1.1,1-1.3C1774.3,2104.5,1773.6,2103.3,1772.6,2101.6z
		"/>
	<path class="st0" d="M449,1747.4c-4.9,0.9-9.1,1.5-13.2,2.6c-1.5,0.4-2.8,1.7-3.9,2.8c-1.1,1.2-1.8,2.7-2.9,4.4
		c-3.3,0.2-6.7,0.1-9.9,0.6c-2.2,0.3-5,0.7-6.4,2.2c-4.6,5-11.2,7-16.2,11.2c-1.8,1.5-3.9,2.6-5.6,4.1c-3.6,3.2-7.4,5.3-12.5,5
		c-1.4-0.1-2.8,1.6-4.3,1.8c-1.1,0.1-2.4-0.9-3.7-1.4c-1.4,2.2-2.7,4.1-3.8,5.9c-2.7,1.1-6.4-1.9-7.9,2.4
		c-5.4,3.2-11.1,5.7-17.4,6.3c-3.8,0.4-12.3,2.5-14.9,4.2c-1.1,0.7-2.1,1.7-2.7,2.7c-3.8,6.7-7.4,9.9-13.9,12.4
		c-3.1,1.2-6,2.4-8.8,4.5c-2.8,2.1-6.4,3.2-9.6,4.7c-7,3.1-13.8,6.6-21,9.1c-7.7,2.7-15.1,6-22.4,9.7c-6.7,3.4-14.1,5.4-21,8
		c-0.7-0.9-1.2-1.4-1.4-2c-0.6-1.3-1.3-2.5-2.9-2c-2.1,0.7-1.8,1.8-0.9,3.7c1.3,2.4-1.4,3.1-3.4,4.4c-2.2-0.9-4.5-1.9-7-2.9
		c-2.7,5.6-6.4,9.3-12.7,10c-5.9,0.7-9.9,5-14.6,8.1c-1.4,0.9-2.5,2.1-4.1,3.4c-1.5-1-2.8-1.9-4.6-3.1c-2.5,0.9-5.2,2-8.1,3
		c-2.1-2.4-4.1-4.5-5.9-6.6c-2.2,0.9-1.6,2.1-1.1,3.3c0.9,2,1.7,4.1,2.9,6.9c-2.4,0-4,0-5.5,0c-1.6-0.1-4.1-0.8-4.6-0.2
		c-2.5,3.5-4.7,0.2-7.1,0.1c-2.4,1.1-1.7,4.4-4.4,5.9c-2.2,1.2-4.2,1.2-6.4,1.6c-1.2,0.2-2.3,1.2-3.3,2.1c-2.8,2.3-5.3,4.8-9.6,3.8
		c-1.5-0.3-3.4,1.7-5.2,2.5c-3,1.2-5.8,1.1-8.4-1.2c-2.3-1.9-4.7-3.6-7-5.5c-1.5-1.2-3.2-2.5-2.9-4.9c0-0.3,0-0.8-0.2-0.9
		c-6.3-5.2-5.8-11.9-3.9-19.7c5.8-6.2,11.6-13.6,21.1-15.7c0.8-2.2,1.1-4.5,2.3-5.7c6.4-5.8,13-11.4,19.6-17c1.2-1,2.9-1.5,4.6-2.3
		c2,1.2,3.9,2.3,6.1,3.6c1.5-1.6,2.7-3.3,4.2-4.4c1.2-0.8,2.9-0.8,4.9-1.3c-2.5-2.3-4.6-4.2-6.7-6.1c2.2-2.6,4.1-4.9,5.9-7.1
		c2.3-2.8,4.1-6.2,8.7-5.3c0.6,0.1,1.6-0.9,2.3-1.6c4.3-4.5,7.5-10.2,14-12.3c0.4-0.1,0.6-1,0.9-1.6c4.2-7.6,10.4-12.5,19.1-14.2
		c0.6-2.1,0.8-4.5,1.9-6.2c1.2-1.9,3.4-3.1,5.4-4.8c1.7,1,3.3,1.9,5.2,3c0.4-1,1.2-2.1,0.9-2.6c-2.1-4-0.8-7,2.4-9.7
		c2.7-2.4,5.1-5.1,9.2-5.4c1.7-0.1,3.5-1.8,4.9-3.1c1.6-1.6,2.8-3.6,4.4-5.7c4.1,1.2,7.1,0,8.8-4.1c-0.6-1.5-1.2-2.9-1.9-4.7
		c1.2-1,2.4-2,3.6-3c0.9,1.4,1.6,2.4,2.3,3.4c4.3-1,0.8-4.9,3.3-7.2c0.8,0.1,2,0.4,3.2,0.5c1.8,0.2,3.6,0,3.2-2.4
		c-0.5-3.4,2.7-4.3,4.1-6.4c1.4-2.1,3.1-4.3,6.5-3.8c0.7,0.1,2.1-0.8,2.2-1.5c1.7-7.3,8.6-9.7,12.7-14.6c1.5,0.7,2.6,1.3,4.4,2.2
		c0.8-2.2,1.3-4.4,2.5-6.2c1.3-1.9,3.6-3.1,4.8-5c2.4-4,5.9-6.6,10-7.8c4.1-1.2,6-3.8,7-7.6c2.3-0.2,4.2-0.3,6.4-0.4
		c0.5-0.7,1.3-1.4,1.5-2.3c1.8-6.6,6.3-10.7,12-13.9c2-1.1,3.7-2.8,5.8-3.8c2.2-1.1,5.4-1,6.8-2.7c1.5-1.7,2.5-3.7,4.6-5
		c2-1.2,4-2.4,5.8-3.9c2.2-2,4.7-2,7.4-1.4c1.4-6.7,5.9-10.1,11.3-12.2c2.9-1.2,5.1-2.8,7.5-4.6c5-3.8,10.3-7.3,16.7-8.6
		c1.5-0.3,2.9-1.6,4.7-2.7c1,1.5,1.9,3.2,3.1,4.7c0.5,0.6,2,1.1,2.5,0.8c1-0.6,2.3-1.8,2.4-2.8c0.1-2.2-0.5-4.5-0.9-7.2
		c4.7-3.3,9.3-6.4,13.9-9.6c9.3-0.2,16.4-6.4,24.7-9.2c7.9-2.7,16.1-3.8,24.3-5.2c3.7-0.6,7.8,1.3,11.8,1.3c3.8,0,7.1,1.3,10.6,2.5
		c0.6,0.2,1.3,0.3,1.9,0.7c2.6,1.7,4.7,5,8.4,2c3.1,1.8,6.5,3.4,9.2,5.7c1.6,1.3,3,1.9,5,2.4c3.5,0.8,6.5,3.1,8.6,6.3
		c2.2,3.3,4.4,6.7,8.4,8.3c0.9,0.4,1.9,1.2,2.1,2c2.1,6.2,6.4,11.7,6.5,18.6c0,3.4,0.1,6.6,2.6,9.3c1.5,1.6,1.2,3.8,0.3,5.7
		c-0.8,1.8-2,3.4-2.9,5.2c-0.8,1.8-2,3.7-2,5.4c0.2,5.2-2.8,7.9-6.8,10.1c0.4,1.9,2.5,3.5,0.6,5.4c-4.2,4.4-6.2,10.1-9.5,15
		c-0.7,1.1-1.2,2.6-2.2,3.2c-4.1,2.6-6.4,6.7-9.6,10c-6.2,6.5-12.4,13-18.8,19.2c-2.1,2-4.9,3.2-7.3,4.9c-4.8,3.4-9.2,7.7-14.5,10.3
		c-5,2.5-8.8,7.2-14.6,8c-2.1,2.6-4.4,4.4-8.1,4.5C451.5,1743,450.3,1745.8,449,1747.4z M126.4,1840.9c-1.8,0.6-3.7,1.2-5.7,1.8
		c1,3.1,3,3.4,4.9,2.6C127.3,1844.6,128.1,1843.2,126.4,1840.9z M139.6,1832.5c2,0.2,6.4-2.5,6.4-3.8c0-0.2-0.3-0.5-0.6-0.6
		c-2.3-1.2-5.6-0.2-6.6,2.1C138.6,1830.8,139.3,1831.8,139.6,1832.5z M330,1655.4c-0.7,0.9-1.7,1.6-1.6,2.2c0.1,0.7,1,1.6,1.8,1.8
		c1.5,0.4,3-1.2,2.3-2.2C332,1656.6,331,1656.2,330,1655.4z"/>
	<path class="st0" d="M464.6,2380.7c-0.2-4.6-3.8-8.1-6.5-12.3c-4.3-6.6-8.4-13.6-8.2-22c0-1.3,0.2-2.8-0.3-3.9
		c-2.8-6.3-0.6-12.4,0.7-18.6c0.3-1.3,0.6-2.6,1.3-3.7c4.7-7.3,9.5-14.4,14.1-21.7c2.5-3.9,5.8-6.3,10.9-6.9
		c0.5-6.2,4.1-10.3,8.5-14c2.1-1.7,4.1-3.3,6.9-3.7c3.4-0.5,5.8-2.5,8.2-5.1c4.9-5.4,10-10.4,17.1-13.2c5.4-2.1,10.4-5.9,14.9-9.8
		c8.8-7.6,18.8-13.6,27.6-21.1c3.2-2.7,6.5-3.1,10.3-1.6c2.5-7,8.3-10.5,14.3-13.2c3.1-1.4,5.3-3.4,7.9-5.2c4-2.9,8-5.9,12.5-8.1
		c3.2-1.6,4.3-6.2,8.7-5.9c5.2-5.5,12.6-7.1,18.9-10.7c6.3-3.6,12.4-7.7,19.3-10.3c0.9-0.3,1.7-1,2.6-1.5c10-6.6,20-13.2,29.9-19.8
		c1.1-0.7,2.2-1.8,3.4-2.1c8.4-1.7,14.6-7.7,22.8-11.1c1-0.1,3.3,3.8,3.9,0.7c0.7-3.9,3.2-4.7,5.8-5.6c2.5-0.9,5.2-0.9,7.7-1.6
		c2.5-0.7,4.5-1.9,6-4.6c2.6-4.7,7.4-7.3,12.3-9.6c3.6-1.6,7.3-3.2,10.8-5.1c10.5-5.6,21-11.3,31.3-17.3c2.3-1.4,3.7-0.4,5.8,0.4
		c2.3-5.6,6.2-8.9,13.1-7.8c4.1-7.9,11-12.5,19.5-14.9c2.5-0.7,4.7-2.4,6.9-3.8c5.8-3.8,13.7-0.6,15.2,5.7c1,4.5,2.8,8.7,5.2,12.8
		c2.3,3.8,1.6,8.5-1.1,12.3c-2.6,3.8-5.6,7.4-7,12c-0.5,1.8-2.3,3.2-3.7,4.6c-14,15.1-27.4,30.7-40.8,46.4
		c-6.7,7.8-12.9,16.1-19.4,24.1c-6.1,7.5-12.2,14.9-18.5,22.3c-11.7,13.6-23.8,26.8-35.8,40.2c-10.5,11.7-22,22.2-32.7,33.6
		c-9.6,10.1-19.9,19.6-28.6,30.6c-6.6,8.3-14.3,15.6-21.7,23.3c-1.4,1.4-3.2,2.4-2.9,4.8c0,0.5-0.5,1.4-1,1.6
		c-5,2.4-7.8,6.7-10.7,11.2c-0.7,1-2.1,1.6-3.2,2.3c-2.5,1.6-5.2,2.5-5.7,6.2c-0.2,1.7-2.4,3.1-3.7,4.6c-1.7-0.6-2.8-1.5-3.9-1.4
		c-1.5,0.2-1.9,1.5-1.5,3.1c0.6,2.3-0.4,4-2.5,4.7c-3.3,1.1-5.4,3.4-7.5,6.1c-7.2,9.3-15.9,16.8-27.2,20.8c-2.8,1-5.5,2.2-7.7,4.4
		c-3.1,3.2-7,5.1-11.5,5.2c-1.3,0.1-2.6,0.5-3.9,0.7c-3.9,0.8-7.8,2.1-11.7,2.1c-5.3,0-10.5-1.1-15.8-1.6
		c-13.5-1.2-25.7-6.3-37.7-12c-3.6-1.7-6.8-4.2-10-6.6C473,2387.3,469.1,2384.2,464.6,2380.7z"/>
	<path class="st0" d="M372.2,2138.6c3.1,1.6,6.3,2.7,8.9,4.7s4.5,4.7,7.8,6c1.1,0.4,1.8,2.7,2,4.2c0.4,2.9,1.8,4.8,4.3,6.3
		c1.6,1,2.9,2.6,4.4,3.9c0.7,0.6,1.7,1.6,2.4,1.5c5-0.9,6.8,2.8,7.5,6.2c1.1,5.2,4.9,8.5,7.5,12.6c1.6,2.4,4.2,4.1,7,6.6
		c1.9,0.1,4.5,0.3,6.8,0.5c2.7,1.4,0.6,3.8,1.4,5.5c2,1.5,4.3,2.1,5.5,5.1c1.4,3.3,2.3,7.6,6.5,9.3c0.6,0.2,0.7,1.7,1,2.7
		c0.4,1.2,0.4,3.2,1.2,3.6c4.6,2.5,5,7.6,7.4,11.4c1.6,2.5,2.5,5.2,2.8,8.4c0.2,2.8,1.8,5.6,3.1,8.3c1.8,3.5,1.5,6.9-1.4,9.1
		c-4.7,3.6-6,7.7-4.1,13.1c1,2.8,0.1,5.2-1.1,7.6c-1.9,3.5-3.6,7-5.6,10.9c-7.6,1.6-13.6,6-18.4,12.1c-2.2,2.8-5,4.2-8.4,4.9
		c-8.1,1.9-16.1,3.8-24.2,5.7c-0.3,0.1-0.7,0.2-1,0.2c-7.5-1.4-15.3-0.8-22.4-3.9c-4.9-2.2-9.8-3.8-15-4.9
		c-6.8-1.4-13.2-4.4-18.4-9.5c-5.4-5.4-11.9-9.8-14.6-17.4c-0.2-0.6-0.8-1.2-1.3-1.4c-4.2-1.4-6-5.2-8.4-8.2
		c-7.5-9.7-15.5-18.9-24.1-27.6c-1.6-1.6-3.1-3.5-4.8-5.1c-2.4-2.3-3-5.1-2.2-8.1c-2.7-1.3-5.4-2.4-7.9-3.9c-3.1-2-1.3-5.5-1.9-8.6
		c-2-0.7-4.5-0.9-6.3-2.2c-2.1-1.5-3.6-3.9-5.2-5.9c-8.7-10.9-17.3-21.8-26.1-32.7c-6.5-8-13.1-15.8-19.7-23.8
		c-2.1-2.6-3.9-5.4-6-7.9c-13.1-15.9-26.4-31.7-39.5-47.6c-1.9-2.3-3.6-4.8-5.4-7.1c-3.3-4.2-6.6-8.3-10-12.4
		c-3.6-4.3-7.1-8.5-9.1-14.1c-1.3-3.5-3.4-8.1-8.7-8.2c-5.2-3.7-9.6-8.2-12.7-13.7c-1.3-2.4-2.9-4.1-4.8-6c-4.2-4.2-7.7-9-11.3-13.8
		c-2.2-2.9-4.8-5.8-5.9-9.1c-1.3-3.8-4.4-5.5-6.4-8.4c-0.2-0.3-0.4-0.5-0.6-0.8c-6.6-9.5-13.7-18.8-19.7-28.8
		c-2.6-4.3-8.1-6.3-9-11.4c-0.9-5.2-4.5-8.8-6.9-13.2c-3.6-6.4-7.4-12.6-11.2-18.9c-0.5-0.8-1.6-2-1.4-2.6c1.7-4.5-0.8-7.3-3.2-10.6
		c-2.2-2.8-2.8-6.8-4.9-9.7c-3.6-4.9-2.6-9.4,0.5-13.8c1.3-1.8,3.2-3.3,5-5.1c5.5,1.3,10.5,5.9,15.7,1.1
		c8.3,5.4,14.3,12.3,21.8,17.2c3.2,2.1,5.1,6.3,8.4,8.1c3.3,1.8,6,4.1,8.7,6.5c6.4,5.7,12.8,11.5,19.1,17.3
		c4.1,3.8,8.1,7.4,13.4,9.8c3.9,1.8,7.1,5.9,9.7,9.6c1.7,2.5,3.1,4.8,5.6,6.7c2.9,2.1,6.5,4.5,7.5,7.5c1.4,3.9,5.7,4.2,7,7.8
		c0.7,1.9,2.7,2.9,5,2.2c2.7-0.8,4.5,0.9,6.2,2.3c1.5,1.3,2.5,3.1,3.9,4.6c2.5,2.6,4.7,5.3,8.4,6.8c3,1.2,6.6,3.3,6.1,8
		c-0.1,0.7,0.9,2.2,1.4,2.2c5.1,0,7.3,5.6,12.2,6.3c1.2,0.2,2.2,2.3,3.3,3.4c1.2,1.1,2.3,2.8,3.7,3.1c5.4,1.1,8.3,5.2,11.5,9
		c2.4,2.8,4.4,5.8,8.6,6.1c1.4,0.1,2.6,1.8,3.9,2.8c2.1,1.5,4.2,3.3,6.5,4.5c1.9,1,3.2,2.2,4,4.2c0.3,0.8,1.3,2,2,2
		c5.8-0.1,7,4.2,7.8,8.1c2.4,1.6,3.4-0.5,5.1-0.7c0.7,0.4,1.7,0.8,2.3,1.5c6.8,6.9,14.7,12.4,22.5,18.2c0.8,0.6,1.4,1.6,2.3,1.9
		c5.1,1.6,8.2,5.4,10.9,9.7c0.2,0.3,0.2,0.7,0.5,0.9c4.5,3.6,9.5,6.9,10.4,13.4c3.4,2.6,6.7,5.4,10.3,7.8c0.6,0.4,2.2-0.7,3.8-1.2
		c3.6,4.5,9.5,6.9,12,12.8c0.3,0.7,1.8,0.7,2.5,1.3c3.9,3.4,10.5,2.6,13,8.2c4.5,2.8,8.8,6.2,13.6,8.1
		C370.5,2132.9,371.1,2135.8,372.2,2138.6z M356.2,2262.9c-1.1-0.9-1.8-1.9-2.8-2.2c-0.4-0.1-1.5,1-1.8,1.8
		c-0.5,1.4,0.7,2.8,1.9,2.5C354.4,2264.7,355,2263.9,356.2,2262.9z"/>
	<path class="st0" d="M913.4,310.1c5,1.2,10.2,2.2,15.3,3.7c4.6,1.4,10,1.9,12,7.5c4.1,2.6,7.1,5.9,7.8,10.9c4.2,4.3,5,9.9,5.6,15.5
		c0.3,2.6,0.6,5.3,0.1,7.9c-0.5,2.5-0.5,4.3,1.2,6.4c2.5,3.1,1.5,7,1.2,10.6c-0.1,1.3-0.8,2.9-0.2,3.8c3.7,5.7,2,12.1,2.5,18.2
		c0.2,3-0.5,6.1,0.3,8.9c2.5,8.5,0.5,17.1,1.5,25.6c0.2,1.6-1.5,3.4-2.5,5.2c1.6,0.5,3.1,0.9,4.7,1.5c-0.1,0.9,0.1,2-0.4,2.8
		c-0.9,1.7-3.5,2.7-2.6,5c0.7,1.8,2.2,3.2,3.3,4.7c0.4,0.5,0.8,1,1.3,1.7c-0.6,0.7-1.2,1.4-1.7,2.1c-0.4,0.5-0.6,1.2-1,2.1
		c2.4,4,5.6,8,5.4,13.3c-0.1,2.2,0.7,4.7-2.6,5.7c-0.5,0.1-1,2.6-0.5,3.5c2.9,5.2,3.3,10.7,3.2,16.4c-0.1,3.3,1.1,6.5,1.2,9.8
		c0.2,8.2,0.1,16.4,0.1,24.7c-4.5,7.6-0.5,15.3-0.2,23c0.2,3.3,0.4,6.7,0.5,10c0.1,3.9-1,7.9,1.5,11.6c0.8,1.2,0.7,3.3,0.5,4.9
		c-0.2,2.3,0,4.3,0.8,6.6c1.9,5.1,0,10.7,2,16.2c1.8,5.1,1.1,11.1,1.3,16.8c0.2,5.7,0.1,11.3,0.2,17c0,1.4-0.2,2.6-1.8,3.1
		c-2.2,0.7-2,2.6-1.7,4.1c0.5,2.6,1.5,5,2.3,7.5c0.8-0.2,1.4-0.4,2.4-0.7c2.4,9.4,1,18.7-0.4,28c3.2,5.1,3.2,5.1-0.1,9.8
		c2.1,4.4,3.9,9.2,3.4,14.7c-0.5,5-0.2,10-0.3,15c-0.1,5.3-0.1,10.7-2.9,15.4c1,2.6,2.4,5,2.7,7.4c0.3,2.2-0.7,4.5-0.9,6.8
		c-0.8,9-4,17.6-7.3,25.8c-3.8,9.3-7.8,19-15.7,26.2c-2.8,2.5-5.6,4.6-9,6.1c-8.4,3.5-17.3,4.5-26.1,6c-0.3,0.1-0.7,0.1-1,0
		c-7.9-1.5-15.7-0.8-23.7-0.3c-7.3,0.4-14.3-3.1-19.6-8.5c-4.7-4.7-9.3-9.4-14.2-14c-7.4-6.9-12.4-15.5-15.1-25.4
		c-1.7-6.1-3.4-12.2-4.9-18.3c-0.6-2.6-1.3-5.2-1.2-7.8c0.1-6.6-1.2-13.1-0.4-19.8c0.8-6.2,0.3-12.6,0.5-19
		c0.2-6.6,1.4-13.2,1.6-19.7c0.5-13,3.9-25.6,4.6-38.5c0.6-10.9,3.4-21.6,5.2-32.4c0.8-4.9,1.7-9.8,2-14.8c0.5-7,0.3-13.9,3-20.6
		c1.2-2.9,0.9-6.4,1.1-9.7c0.7-11.3,3.3-22.3,5.3-33.4c1.9-10.4,3.2-21,4.8-31.4c1.1-6.9,2.4-13.7,3.4-20.6c1.1-7.9,2.5-15.7,4-23.5
		c1.5-8.2,4.1-15.9,6.4-23.8c1.6-5.4,2.8-10.9,3.6-16.5c1.2-8.2,1.8-16.5,3-24.7c0.6-4.2,1.2-8.6,2.8-12.6c3.7-9,5-18.6,7.1-28
		c0.4-1.9,1-3.8,1.5-5.8c1.2-4.5,3.3-8.9,3.6-13.4C903.7,319.7,906.8,314.8,913.4,310.1z"/>
	<path class="st0" d="M1369.5,1943.9c-1.1,0.6-2.3,1.6-3.4,1.5c-1.2-0.1-2.4-1.1-3.3-1.9c-0.6-0.7-0.7-1.8-1.2-2.7
		c-2.4-5.1-4.8-5.7-9-2.1c-0.9,0.8-1.4,2.2-2.3,3.8c-3.5-1.3-7.4-2.2-10.7-4.1c-3.1-1.8-5.7-2.4-9.3-1.8c-4.6,0.9-8.2-1.7-10.2-6.9
		c-1.4,1-2.4,1.7-3.3,2.4c-1.2,1-2.8,1-3.4-0.2c-0.4-0.8,0.6-2.2,1-3.7c-0.9-1.4-1.9-3.1-3.1-4.6c-0.3-0.5-1.1-0.7-1.9-1.2
		c-0.5,2.9-0.9,5.6-1.4,8.4c-4.9-0.4-5.6-4.4-6.9-7.6c-0.6-1.4,0.2-3.3-0.4-4.7c-1.1-2.7-2.8-5.2-4.2-7.7c-2.4-0.2-3,1.3-2.9,3.1
		c0.1,1.6,0.6,3.3,0.7,4.9c0,0.6-0.4,1.3-0.8,1.8c-0.9,1.3-2,2.6-3.3,4.4c-3-2.6-5.7-4.9-8.5-7.2c-2-1.6-3.4-4-6.8-3.3
		c-1.2,0.2-2.7-1.5-4.1-2.4c-2.2-1.3-4.5-2.7-6.7-4c-1.8,1.1-3.1,2-4.5,2.9c-2.8-0.1-4.9-3.6-8.4-1.8c-0.8,0.4-2.4-0.7-3.6-1.2
		c-1.2-0.4-2.6-1.6-3.4-1.3c-5.2,1.9-8.2-0.8-10.7-4.8c-0.8-1.4-1.8-2.7-2.8-4c-2.7,1.2-3.9,4.3-7.5,3.2
		c-6.7-2.2-13.4-4.1-16.6-11.7c-1.2,1.9-2.4,3.7-3.7,5.7c-3.2-0.7-6.1-1.2-8.9-1.9c-2.7-0.7-4.8-2-5.4-5.1c-0.6-3.4-3.5-4.2-5.9-3.5
		c-3.4,0.9-6.6,0.9-9.9,0.4c-3.9-0.5-7.5-1.2-9.9-5.4c-1.6-2.8-5.4-3.9-8.8-2.9c-2.8,0.8-4.9,0.2-7.5-1.1
		c-7.8-3.7-15.5-7.6-24.7-6.8c-1.7,0.2-3.7-1.2-5.3-2.2c-2.5-1.5-4.9-3.1-7.2-5c-1.9-1.5-3,0.6-4.8,0.5c-2.2-2-3.9-5-8.1-3.7
		c-1.9,0.6-4.8-0.1-6.6-1.2c-5-3.1-10.5-3.7-16-4.6c-1-0.2-2.3,0-2.8-0.5c-4-4-9.2-4.6-14.3-6.2c-4.8-1.4-9.3-3.6-13.8-5.8
		c-3.3-1.6-6.8-2.3-10.4-3.1c-4.2-0.8-8.7-2.1-12-4.6c-3.2-2.5-8.1-5.2-5.7-11c-1.5-4-0.3-7.1,3.1-9.5c1.4-1,2.7-2.1,2.4-4
		c-0.7-4,1.6-5.3,5-5.8c3.6-0.6,6.9-1,10.7-0.6c7.2,0.6,14.4,2.7,21.7,0.7c0.3-0.1,0.7-0.1,1,0c2.9,0.3,5.8-0.5,8.6,1.6
		c3.1,2.3,5.7-2.4,9.2-1.5c2.8,0.7,6,0.2,8.9,0.5c3,0.3,5.9,0.9,8.9,1.2c2,0.2,4,0.2,6,0.2c2.7,0.1,5.4-0.3,8,0.2
		c8.9,1.8,17.8,1.8,26.8,2.2c1.6,0.1,3.4,0.3,4.8,0.9c3.2,1.4,6.1,1.9,9.6,0.9c2.8-0.8,5.9-0.6,8.4,1.8c0.5,0.5,2.1,0.6,2.6,0.1
		c2-2,4.6-0.5,6.4-1.2c3.5-1.3,5.2,3.5,8.3,1.8c2.9-1.6,4.8,1.9,7.5,1.5c0.6-1.1,1.3-2.2,2-3.3c12.2-1.7,24.4,0.6,36.5,1.5
		c4.8,0.3,9.5,1.8,14.4,1.6c2.9-0.1,4.8,1,6.7,3.4c2.4,3.1,3,2.8,5.5-1.6c1.6,0.5,3.3,1.3,5,1.4c1.6,0.1,3.2-0.5,4.7-0.8
		c1.6,1.5,3,2.8,4.5,4.2c1.1-1.6,2.1-2.8,2.9-4.1c7.9,1.4,15.7,2.6,23.6,2.1c2.1-0.2,4.7,0.9,6.4,2.2c3.2,2.4,6.4,3.7,10.1,1.8
		c2.9-1.5,3.9,2,6.4,2.2c0.9-0.6,2-1.3,3.7-2.4c1.1,0.8,2.3,1.7,3.9,2.7c3.8-3.2,8.6-1.4,12.9-2.1c6.8,4.5,12.9,11,22.3,7.7
		c0.3-1.5,0.6-2.7,0.9-4.5c1.9,0.3,3.8,0.5,5.6,0.9c1.6,0.3,3.1,1.6,4.5,1.4c3.1-0.5,5.1-0.2,6.4,3c0.4,0.9,2,1.8,3.1,2
		c3,0.3,5.7,0,8.5-1.8c4.2-2.6,4.7-2.2,8.4,1.3c3.5,3.3,3.4,3.2,8.5,0.9c1.7-0.8,3.7-1.5,5.6-1.5c6.3,0,12.4,0.7,18.2,3.8
		c2.7,1.5,6.5-0.2,9,2.7c0.1,0.1,0.8,0.1,0.9-0.1c3.8-4.4,8.1-1.4,12-0.5c9,2.2,18.1,3.5,27.3,4.1c5,0.3,10.2,0.2,14.7,2
		c9.1,3.6,19.1,5.4,27.2,11.7c0.7,0.6,2,1.5,2.5,1.2c5.6-2.9,7.6,1.8,10.4,4.8c0.9-0.4,1.8-0.9,3.7-1.8c2.8,3.2,5.9,6.7,8.9,10.2
		c3.5,4,6.6,8.3,10.3,12.1c3,3.1,4.2,6.8,4.9,10.6c1.5,8.9,1,17.9,0.9,26.8c-0.1,7.6-3.7,14.7-4,22.2c-4,6.5-5.2,15.2-14.3,17.6
		c-1.1,0.3-2.5,1.8-2.5,2.8c0.2,5.4-4.3,6.8-7,9.7c-1.9-0.8-3.3-1.5-5.3-2.4c-5.1,4.6-12,3.7-18.3,4.6c-4.2,0.6-8.5,1.1-11.7,3.8
		c-3.4-2-6.5-3.8-9.6-5.6c-4,2.6-8.2,2.4-12.3,0.7c-2.1-0.9-3.5-0.5-5.5,0.5c-3.3,1.6-5.1-1.8-7.3-3.4c-1.8-1.3-2.7-0.5-3.2,2.8
		c-0.1,0.3-0.2,0.6-0.2,0.9c-2,0.7-2.8-1.2-4.1-1.9c-1.4-0.7-3-1.7-4.4-1.6c-5.3,0.4-9.8-1.3-13.8-4.7c-2.2-1.8-4.4-3-7.3-2
		c-2.6,0.9-4.5-0.6-6.3-2c-1-0.8-1.6-2.1-2.4-3.2c-2.6-3.5-5.2-3.6-7.8,0.3c-0.4,0.5-0.9,1-1.7,1.9c-4.9-4.1-11.2-1.4-16.8-3.7
		c-5.5-2.2-11.4-3.3-19.4-5.4c-0.8-0.4,1.1-5.1-2.5-6.1c0.8-1.4,1.9-2.7,2.4-4.2c0.4-1.1,0.2-2.6-0.2-3.7c-0.2-0.6-1.4-1.1-2.3-1.2
		c-0.4-0.1-1.2,0.6-1.4,1.1C1366.7,1938.9,1366.8,1941.7,1369.5,1943.9z M1321,1921.3c-1.1-1.4-1.7-2.2-2.2-3c-1-1.4-2.1-2.7-4-1.9
		c-1.8,0.8-1.6,4.4,0.4,5.9c1.3,1,2.7,1.8,4.2,2.4c2.6,1.2,5.7,0.3,7.8-2.3c0.4-0.6,0.4-2-0.1-2.7c-0.4-0.6-1.7-1.1-2.4-0.8
		C1323.6,1919.2,1322.7,1920.2,1321,1921.3z M1165.4,1873.4c2.1,0.2,3.2-1.2,3.2-2.8c-0.1-1.4-1.1-2.9-1.9-4.2
		c-0.1-0.2-2.2,0.3-2.3,0.7C1163.9,1869.3,1163.9,1871.5,1165.4,1873.4z M1254.6,1842.1c-4.2,3.6-4.2,4.5-1.2,7.3
		C1255.2,1847.6,1255,1845.4,1254.6,1842.1z"/>
	<path class="st0" d="M966.4,269.8c-0.7-1.1-1.4-2.2-2.3-3.6c-0.9,0.8-2,1.2-2.2,1.9c-1,2.9-3.2,3.9-6,4.4
		c-16.8,3.4-33.7,3.6-50.7,2.5c-8.9-0.6-17.8-2.4-26.7-3.4c-8.2-1-16.5-1.5-24.8-2.5c-13.5-1.6-27-3.4-40.5-5
		c-7.9-1-15.8-1.8-23.7-3c-20.7-3.2-41.2-7.1-60.3-16.7c-7.2-3.6-13.8-7.8-20.1-12.7c-2.3-1.8-5-3.1-7.5-4.9
		c-1.3-0.9-2.4-2.2-3.6-3.3c-1.5-1.3-2.7-3.1-4.4-3.8c-3.5-1.4-6.3-3.6-9-6.1c-2.8-2.6-7.1-4.1-7.2-8.9c-3.9-4.6-7.9-8.9-13.1-12.1
		c-2.5-1.6-5-3.4-7.7-4.7c-6.7-3.2-9.2-9.3-11.3-15.7c-0.5-1.4,0.2-3.2,0.3-4.8c0.3-4.3,0.9-8.4-0.8-12.8c-1.8-4.7-0.6-7.3,3.9-10.1
		c8-4.9,14.5-11.5,21.6-17.4c2.5-2.1,5.2-3.9,8.2-5.5c6.3-3.5,12.2-7.9,18.2-11.9c1.1-0.7,2-2.4,3.1-2.4c6-0.2,8-5.1,11.2-8.7
		c1.5-1.7,3.2-3.7,5.2-4.5c10.5-4.3,19.9-10.6,29.3-16.7c0.3-0.2,0.6-0.2,1-0.2c1.4,0.8,2.9,1.7,4.8,2.8c1.9-1.8,3.4-4,5.5-5.3
		c5.1-3.2,10.3-5.9,16.5-6.8c6.2-0.9,12.3-2.8,18.4-4.3c1.3-0.3,2.6-0.8,3.7-1.5c9.2-6.3,19.7-7,30.3-7.9c6.9-0.6,13.8-1.7,20.8-2.6
		c3.6-0.5,7.2-1,10.8-1.4c10.6-1,21.2-2,31.8-2.9c5.9-0.5,11.8-1,17.7-1c11-0.1,22-0.2,33,0.2c11,0.4,21.9,1.5,32.8,2.3
		c0.3,0,0.7,0,1,0.1c6.4,3.1,13.5,2.5,20.2,4c6.5,1.5,12.8,3.5,19.2,5.3c1.3,0.3,2.6,0.7,3.9,1c3.6,0.7,5.8,5,9.7,4.4
		c4.1-0.7,6.8,2.4,10.3,3.2c5.1,1.1,9.4,4.4,14.6,5.6c4.8,1.1,9.4,3.4,13.9,5.4c5.1,2.3,10.1,4.9,14.7,8.3
		c5.8,4.4,12.2,7.9,18.5,11.6c4,2.4,8.4,4.2,11.1,8.3c0.5,0.8,1.4,1.5,2.3,1.8c7.1,2.6,12.2,8.1,18,12.4
		c12.8,9.5,24.8,20.1,37.3,29.9c8.6,6.7,13.2,15.6,15.6,25.9c0.6,2.8,0.2,5.4-2.1,7.3c-5,4.3-9.7,9.1-15.2,12.8
		c-7.2,4.7-15,8.4-22.7,12.6c-1.8-0.5-3.6-1-5.4-1.6c-0.7,0.5-1.4,0.7-1.7,1.2c-3.7,7.1-10.9,10.1-17,14.5c-2.4,1.7-5.1,3.3-7.8,4.5
		c-2.6,1.1-5.8,1.2-8.1,2.6c-2.5,1.5-4,4.5-6.5,5.9c-4,2.3-8.4,4.1-12.8,5.6c-8.7,3-17.2,6.9-26.4,8.3c-1.3,0.2-2.6,0.6-3.8,1.1
		c-10,4.7-20.8,6.7-31.6,8.8c-11.4,2.3-22.8,4.6-34.2,6.9c-2.6,0.5-5.3,0.8-7.9,1.2C975.5,268.3,971.3,269,966.4,269.8z
		 M1007.7,78.8c2,7.9,3.8,15.3,7.3,22.1c2.2,4.2,3.4,8.5,4.8,12.9c2.6,8.8-0.6,17.2-0.6,25.7c0,4.2-2.5,7.4-4.8,10.8
		c-0.9,1.3-1.2,3.1-1.8,4.6c-2.8,7-3.3,15.1-10,20.1c-0.2,0.1,0,0.7-0.1,1c-2.1,4.9-5.3,9.1-9,12.9c-4.2,4.3-8,8.9-12.1,13.3
		c-2,2.2-3.8,5.1-6.4,6.2c-7.6,3.1-14.5,7.9-22.7,10.1c-8,2.1-16.2,3.6-24.3,5.2c-4.5,0.9-9.2,1.5-13.8,1.7c-5,0.2-10,0-15-0.2
		c-2.3-0.1-4.6-0.6-6.8-1.2c-10.2-2.8-20.5-5.8-30.7-8.7c-1.6-0.5-3.1-1.2-4.6-2c-8.2-4.3-16.4-8.7-24.6-13.1
		c-1.7-0.9-3.4-2.1-5-3.2c-3.8-2.7-7.6-5.4-11.3-8.1c-2.4-1.8-5.2-3.4-6.8-5.7c-4.4-6.2-9.2-12.2-11.8-19.4
		c-1.9-5.3-3.2-10.8-6.5-15.5c-0.7-1-0.7-2.5-1-3.8c-1.3-6.2-2.9-12.3-3.7-18.5c-0.8-6.6-1.4-13.2,0.1-19.9c0.5-2.2,0.4-4.6,0.4-6.8
		c0-4.2-2.5-6.2-6.4-4.9c-7.8,2.8-16,5.1-23.1,9.1c-21.5,11.9-41.8,25.8-60.8,41.3c-8.2,6.7-16.4,13.4-25.1,19.5
		c-1.6,1.1-3,2.4-4.8,3.9c1.2,2,2,3.9,3.3,5.2c7.5,7.5,14.7,15.3,23.3,21.6c3.2,2.3,5.8,5.5,8.9,7.9c5.7,4.5,11.2,9.6,17.6,12.9
		c7.3,3.7,14.6,8,23,9.2c11.8,6.2,24.8,7.2,37.5,9.1c14.4,2.1,29,2.9,43.3,6.1c5.5,1.2,11.2,2.2,16.8,2c9.4-0.3,18.4,2.4,27.6,3.1
		c9.8,0.8,19.3,5,29.4,3.2c0.6-0.1,1.3-0.1,2,0.1c14.3,3.1,28.3,0.9,42.4-1.7c13.4-2.5,26.8-4.7,40.1-7.5
		c11.9-2.5,24.1-3.4,35.9-6.9c7.9-2.4,16-4.2,23.9-6.8c6-2,12-3.9,18-5.9c11.7-3.9,22.9-8.7,33.4-15.4c7.5-4.9,15.6-8.8,23.7-12.8
		c2.6-1.3,6-0.9,8.5-2.2c2.6-1.3,4.3-4.2,6.9-5.4c6.9-3.2,12.4-9,20.1-10.9c0.8-0.2,1.6-1.2,2.2-1.9c1.2-1.4,1.6-2.9,0.6-4.6
		c-0.5-0.9-1.1-1.7-1.8-2.4c-5.3-6.2-21.5-20.3-29.2-26.6c-7.4-6-14.9-12-23-17.3c-2.2-1.5-4.3-3.1-6.5-4.6
		c-9.9-6.7-19.4-13.9-30.8-18.1c-5.6-2-11-4.6-16.4-7c-11.6-5.1-23.6-9-35.7-12.5C1010.8,77.9,1009.4,78.5,1007.7,78.8z
		 M906.6,198.1c7.8,0.4,15.1-1.9,22.6-3c7.5-1.1,14.1-3.8,20.5-7.1c3.5-1.8,6.3-4.9,9.8-6.7c3.4-1.8,5.7-4.3,8.2-7
		c5.3-5.9,7.6-14.2,15-18.3c0.5-0.3,0.8-1.1,1-1.7c1.9-4.6,4.2-9,5.6-13.7c2.2-7.3,3.9-14.7,5.9-22.1c0.9-3.3,1-6.6-0.2-9.8
		c-2-5.5-1.4-11.8-4.7-16.9c0.1-5.7-3.6-9.8-5.9-14.6c-2.2-4.6-5.8-6.8-10.2-6.6c-6,0.3-11.8-1.4-17.7-1.2c-1.3,0-2.7-0.1-4-0.1
		c-5.2,0.1-6.8,2.6-4.2,6.9c0.7,1.2,1.7,2.1,2.2,3.3c1.9,3.9,4,7.7,5.3,11.8c1.7,5.4,3.2,10.8,5.8,15.8c0.9,1.7,1.2,3.8,1.3,5.8
		c0.4,7-0.7,13.8-3.2,20.5c-2.6,7-7.5,12.5-10.8,18.9c-3.2,6-7.1,11.2-14.2,12.9c-0.9,0.2-1.9,0.7-2.7,1.3
		c-6.2,4.7-13.2,5.7-20.7,5.2c-1.7-0.1-3.3-0.1-5,0.1c-9.3,0.9-18.5,0.6-27.3-3.1c-1.2-0.5-2.5-0.8-3.8-1c-8.5-1.6-15.3-6.2-21-12.4
		c-2-2.1-2.4-5.6-4.3-7.7c-5.9-6.5-8.1-14.4-9.9-22.6c-3.1-14.7-3.6-29,6.8-41.4c0.2-0.2,0.3-0.6,0.5-0.9c0.9-1.8-0.2-4.3-2.2-4.7
		c-5.5-1.3-10.5,1.1-15.6,2.1c-0.8,0.2-1.7,1.1-2.2,1.9c-2.5,4.3-5.5,8.4-7.4,13c-7.3,18-10.4,36.4-3.7,55.3
		c2.7,7.5,5,15.4,12.2,19.9c9.8,6.2,19.5,12.7,29.8,17.9C873.4,195.6,889.9,197.8,906.6,198.1z"/>
	<path class="st0" d="M1387.7,2552.8c-1,1.9-1.4,3.5-2.2,3.9c-1,0.4-2.8,0.2-3.7-0.5c-1.6-1.1-2.9-2.8-4-4.4
		c-1.1-1.6-2.4-1.7-4.2-1.8c-2.2-0.1-4.9-0.7-6.2-2.2c-2-2.2-3.7-3.6-6.7-2.5c-3.9-2.5-7.8-4.8-11.6-7.5c-3.5-2.5-6.7-5.3-10.3-8.3
		c0.6-5.3-4.2-7.7-7.4-10.2c-0.9-3.3-0.8-6.6-2.4-8.1c-3.5-3.1-2.8-7.3-4.2-10.9c-0.4-1.1-0.1-2.9,0.5-3.8c2.6-3.4,1.2-8.7,5.2-11.4
		c0.2-0.2,0.5-0.5,0.5-0.8c-0.3-7.8,4.4-13.4,7.7-19.8c6.2-12.1,5.6-12.3,11.6-17.4c1.6-1.4,3.6-1.6,5-2.7c1.3-0.9,1-3.8,2.2-5.1
		c3.7-3.8,7.7-7.3,11.6-10.9c2-1.8,4.2-3.3,6.2-5c1.8-1.6,3.3-3.3,6-2.9c0.6,0.1,1.4-0.1,1.8-0.5c6.5-6.8,15.4-8.7,23.7-11.6
		c5-1.8,10-3.4,14.6-6.2c4.2-2.5,8.7-4.4,14-4.8c4.4-0.3,8.9-2.4,13.1-4.2c4.8-2.1,9.4-4.8,14.1-7.3c0.3-0.1,0.5-0.5,0.8-0.6
		c7.4-1.4,13.8-6,21.4-6.9c1.3-0.1,2.6-0.3,3.8-0.7c8.6-3.4,17.1-6.8,25.6-10.2c1.5-0.6,3.1-1.3,4.7-1.6c2.4-0.5,5.6,0.9,6.3-3.1
		c0-0.2,0.5-0.4,0.8-0.4c7.4-0.8,14.1-3.8,20.9-6.3c11.2-4.1,22.9-6.4,34-10.8c1.5-0.6,3.2-0.7,4.8-1.1c2.9-0.7,5.8-1.3,8.6-2.3
		c7.4-2.8,14.8-5.7,22-9.2c8.3-4,16.8-7.6,26.1-9.4c4.8-0.9,9.2-3.7,13.7-5.8c6.9-3.2,13.7-6.7,21.3-8.2c4.5-4.2,11.8-2.2,16.1-6.9
		c4.1,0.7,7.6-2.1,11.4-2.4c6-0.5,11-3.2,15.2-6.8c3.3-2.8,6.8-4.1,10.7-4.5c3.1-0.3,5.8-0.9,8.2-3c0.9-0.8,2.6-1.5,3.5-1.1
		c4,1.5,7.2-3,11.2-1.4c0.5,0.2,1.3-0.3,1.8-0.7c6.9-6.2,16.2-6.9,24.2-10.8c0.9-0.4,2.2-0.3,2.8-1c4.1-4.8,10.2-4.4,15.4-6.3
		c4.6-1.7,7.6,1,10.7,3.5c0.7,0.6,1,1.7,1.6,2.5c3.3,4.9,5.4,5.3-1.6,11.6c0.5,1.9,1.1,4.1,1.7,6.1c-7.2,3.3-14.1,6.4-20.9,9.7
		c-1.4,0.7-2.8,2-3.4,3.4c-1.1,2.2-2.3,3.8-5,4.3c-1.1,0.2-2.6,1.2-3,2.2c-2.2,5.3-6.7,8.1-10.9,11.3c-2.7,2-5.4,3.9-8,6
		c-1.7,1.4-3.3,1.9-5.5,1.5c-1.1-0.2-2.8,0.5-3.4,1.4c-3.7,6-7.8,11.6-15.1,13.6c-0.8,0.2-1.5,1.3-1.8,2.2c-1.2,3.4-3.9,5.2-6.6,7.3
		c-6,4.7-12.6,8.9-17.6,14.4c-6.1,6.7-13.8,11.4-20.1,17.6c-1.2,1.2-2.4,2.4-3.8,3.2c-12.8,6.6-23,16.7-34,25.9
		c-2.9-0.5-5.7-0.9-9-1.5c-0.1,1.9-0.3,3.2-0.3,4.5s0.4,2.5,0.6,3.4c-3.6,4.3-7.6,4.8-12.5,2.7c-1.3,2-2.3,4.2-3.9,5.6
		c-1.7,1.5-4.3,1.9-6,3.4c-1.6,1.5-2.5,3.7-3.8,5.9c-4,0.8-8.9,1-10.1,7c-1.8-1.3-3.2-2.2-4.4-3.1c-0.8,0.2-1.5,0.3-2,0.6
		c-2.8,2-4,6.1-8.3,6.2c-2,2.7-4.4,4.9-7.4,6.5c-0.6,0.3-0.3,2.1-0.5,3.9c-2.3,1.5-5.3,3.5-8,5.3c-2.4-0.8-4.3-1.4-6.8-2.2
		c-0.6,1.6-1.1,3-1.8,5c-1.6,0.4-3.9,0.6-5.8,1.6c-2,1.1-3.4,3.1-5.3,4.4c-2.5,1.6-0.6,4.4-2,6.6c-1.5-0.8-2.9-2.1-4.1-1.9
		c-1.4,0.2-3.1,1.3-4.1,2.5c-1.8,2.4-3.2,5-4.8,7.5c-1.7,2.1-5.7-2.5-6.5,2.2c-2.3,1.1-4.7,2.1-6.8,3.4c-2.5,1.6-4.7,3.7-7.1,5.4
		c-1.3,0.9-2.9,2-4.4,2.1c-3.3,0-5.4,2.3-8,3.4c-3.1,1.3-4.7,3.4-6.5,5.8c-3.5,4.6-9.3,6.3-13.4,10c-6.7,1.4-11.4,6.4-17.2,9.4
		c-10.6,5.5-20.8,11.8-31.1,17.8c-0.6,0.3-1.3,0.4-1.8,0.9c-7.2,7.2-16.7,7.6-25.9,8.7c-5.6,0.7-11.2,1.2-16.8,1.6
		C1391.6,2557.3,1391.6,2557.1,1387.7,2552.8z"/>
	<path class="st0" d="M1656.4,2610.2c-1.6,0.5-3.4-1.1-4.9,1.6c0.6,0.9,1.5,2.2,2.6,3.8c-5.2,3.3-6.9,9.2-10.6,13.8
		c-3.8,4.7-6.2,10.1-8.5,15.5c-1.4,3.3-3.7,6.1-5.8,9.4c-0.9-0.1-1.9-0.5-2.8-0.3c-2.4,0.4-2.9,1.2-2.3,3.3c0.1,0.3,0.3,0.6,0.5,0.9
		c0.3,0.6,0.7,1.1,1.3,2c-2,1.3-4.4,2.3-6,4.1c-1.8,1.9-2.8,4.5-4.2,6.7c-1.6,2.5-3.2,5-4.9,7.4c-2.4,3.6-4.9,7.1-5.8,11.4
		c-1.4,6.6-4.5,12.5-9,17.5c-4.6,5-7.4,11.1-10.2,17.1c-2.3,5.2-5.1,10-8.6,14.4c-4.4,5.8-8.8,11.6-13.4,17.3
		c-2.5,3.1-3,7.5-6.9,9.6c-0.9,0.5-1.6,2.3-1.6,3.5c-0.2,6.4-4.5,11-7.4,16.1c-3.3,5.7-7.1,11.3-11.2,16.5
		c-4.1,5.1-7.1,11.1-12.5,15.3c-2.3,1.8-4.7,4.6-3.7,8.6c0.4,1.6-1.2,2.8-3.2,2.8c-0.4,0-1.4,1.4-1.3,1.9c0.9,4-2.4,1.9-3.7,2.6
		c-1.1,2-2.3,4-3.2,6.1c-0.5,1.1-1.1,2.6-0.8,3.7c1.3,4.1-1.5,7-3,9.9c-3.1,5.8-7.4,10.9-11.1,16.3c-1.4,2.1-2.8-0.3-4.3-0.1
		c-0.3,1.4-0.3,3-1,4c-1.4,1.7-3.9,2.7-4.7,4.5c-0.8,1.9,0.1,4.5-0.3,6.7c-0.3,1.5-1.5,3-2.5,4.2c-1.5,1.8-3.1,3.5-4.9,5
		c-5.3,4.6-9.9,9.6-12.2,16.4c-0.5,1.6-1.4,2.9-3.6,2.8c-1.5,0-2.4,1.4-2.1,2.8c0.8,3.1-1,5.1-2.9,7c-5.8,5.6-12,10.4-19.4,14.1
		c-3.4-2.9-7.7-4.8-9.5-9.7c-1.1-3-3.8-5.3-7.4-6c-2.5-0.5-3.7-2.8-3.5-5.4c0.2-2.3,0.4-4.6,1-6.8c4.2-15.3,8.5-30.6,13.4-45.8
		c2.5-7.8,3.2-16.3,7.7-23.5c-0.2-4.4,1.4-8.4,2.7-12.4c1.3-4,2.3-8.1,3.6-12.2c1.3-4.1,2.9-8.1,4.1-12.3c0.7-2.2,0.8-4.5,1.3-6.8
		c0.6-3.2,0.8-6.7,2.1-9.6c2.7-5.8,4.1-11.8,5.2-18c0.8-4.2,2.4-8.2,3.7-12.4c0.5-1.6,1-3.2,1.1-4.8c0.1-5.8,1.9-11,3.9-16.3
		c1.1-2.9,3-6.2,1.2-9.8c-0.3-0.7,0-1.9,0.3-2.8c1.7-3.6,3-7.6,5.4-10.6c3.1-3.9,3-8.2,3.7-12.6c0.3-1.6-0.4-3.5,0.2-4.9
		c3.5-8.1,3.4-16.9,5.3-25.2c0.5-2.2,1.3-4.4,2.1-6.6c2.8-7,6.3-13.7,6.2-21.6c0-1.2,1.1-2.3,1.6-3.6c0.8-2.1,1.5-4.3,2.2-6.5
		c0.5-1.6,0.5-4,1.5-4.5c4-2.2,3.3-5.9,3.9-9.4c0.7-3.9,1-7.6,3.2-11.3c1.9-3.2,2.1-7.6,2.8-11.5c0.7-3.6,1.8-7,3.9-10.1
		c1.2-1.8,1.8-4.2,2.5-6.3c2.7-7.5,4.5-15.3,10.5-21.2c1.1-1.1,2.3-3,2.1-4.3c-0.5-4.2,1.6-6.9,4.2-9.6c2.3-2.4,4.2-5,4.3-8.7
		c0-1.3,1.5-3.4,2.7-3.7c3-0.8,4.5-2.3,4.5-5.4c5.8-4.4,7.9-12.1,14.5-16c4.2-2.5,6.4-7.7,11.2-9.6c3.6-5.5,10.1-7.1,14.8-11
		c4-3.4,9.2-2.1,13.7-3.9c2.3-0.9,5.2-0.7,7.8-1c1.3-0.1,2.8-0.8,3.9-0.3c5,2.2,10.5,1.5,15.6,2.8c7.1,1.7,14.5,2.6,20.3,7.8
		c8,1.8,12.2,8.8,18.6,13c1.3,0.9,2,2.6,2.9,4c1.2,2,2.1,4.3,3.6,6c6.2,7.2,7.1,16.1,8.4,24.9c0.1,1,0.1,2-0.2,3
		c-0.8,2.5-2.1,4.8-2.5,7.3c-0.4,2.2,0.3,4.6,0.4,6.9c0,0.6,0,1.6-0.4,1.9c-5.7,3.8-3.2,10.4-5.1,15.4c-1.7,4.6-2.5,9.6-4.8,14.1
		c-0.8,1.4-1.3,3.1-1.4,4.7C1660.8,2599.9,1658.4,2605,1656.4,2610.2z"/>
	<path class="st0" d="M486.2,2038.8c2-2.1,3.7-4,5.6-6c-0.4-1-0.4-2.2-1.1-2.8c-1.7-1.5-3.6-2.8-5.5-4.1c1.5-2.7,2.9-5.2,4.4-8
		c-3-3.9-4.2-8.1-3.9-13c0.5-6.9,0.8-14.1-1.4-20.8c-1.4-4.2,2-7.8,0.5-12.2c-1.4-3.8-0.1-8.5-0.4-12.8c-0.3-4.4,0.2-8.6,1.2-12.8
		c0.5-1.9,0.7-4,0.5-5.9c-0.5-4.7,0.6-9.2,1.1-13.8c0.5-4.2-1.4-8.6-1-12.8c0.6-6-0.4-11.9-0.1-17.8c0.4-10.3,1.2-20.6,1.8-30.8
		c0.4-6,0.5-11.9,2.9-17.6c1.9-4.4,1.2-9.2,0.5-13.8c-1.1-7.9-2.2-15.7-3-23.6c-0.2-2.2,0.5-4.6,1-6.8c1.2-4.8,2.9-9.5,3.2-14.6
		c0.2-2.3,2.6-4.4,4.1-6.8c-0.2-2.9-0.4-6.2-0.7-9.4c1.3-0.3,3.2-0.5,3.3-0.8c1.5-14,7.4-26.7,11.6-39.9c0.4-1.3,1-2.5,1.1-3.8
		c0.3-4.7,2.9-8,6.2-11c1.5-1.3,3-2.7,3.9-4.4c4.3-8.6,12.4-11.6,20.7-14.2c3.1-0.9,6.2-1.1,9.7-0.5c5.1,0.9,10.3,2.3,15.7,1.2
		c2.8-0.6,5.6,0.8,6.6,3.3c1.2,2.9,3.3,3.8,6,4.5c4.2,1.1,7.7,3.8,11.4,6c6.6,3.9,11.3,9.8,17.2,14.5c4.2,3.3,5.8,8.9,7.4,13.8
		c1.7,5,2.6,10.3,3.3,15.6c0.5,3.2,0,6.6,0,9.8c0,1.6-0.3,3.3,0.1,4.9c1.2,4.7,0.8,9.1-1.6,13.3c-0.4,0.7-0.1,1.8,0.1,2.7
		c0.2,0.9,1.2,2.1,0.9,2.6c-2.5,4.4-0.9,9-1.1,13.6c-0.4,8.6-1.8,17.1-2.8,25.7c-0.3,2.6-0.6,5.3-0.9,7.9c-0.2,1.7,0.3,3.7-0.5,4.9
		c-5.4,8.1-2.4,17.4-4.1,26.4c-0.8,0.5-1.9,1.2-3.7,2.3c0,2.1,0.3,4.8-0.1,7.3c-0.4,2.2-1.8,4.3-2.4,6.5c-0.6,2.1-0.1,4.6-1,6.5
		c-1.2,2.4,0.4,3.7,1.1,5.4c0.5,1.2,0.7,2.6,0.7,3.9c0,7.7-1.1,15.3-5.5,21.8c-2.5,3.8-0.8,8.5-3.5,12c0.4,6.9-1.8,13-6,18.7
		c2.8,3.1,2.5,6.3,2,10.2c-0.9,7.5-3.1,14.1-7.2,20.3c-1,1.6-1,3-0.5,4.7c1,3.1-2.1,6.3,0.1,9.6c0.3,0.4-0.8,1.7-1.1,2.6
		c-0.6,1.5-1.6,3.1-1.5,4.5c0.4,5.8-1.7,10.3-6,13.4c0.2,7.1,1.5,13.3-1.8,19.7c-2.2,4.2-2.3,9.6-3,14.5c-0.5,3.7-1.5,7-4,9.9
		c-2.7,3.1-3.8,6.8-2.4,11.1c1,2.9,0.9,6-1.5,8.4c-1.8,1.8-2.2,4-2,6.4c0.3,4.4,0.2,8.7-2.8,12.4c-0.4,0.5-0.8,1.2-0.7,1.8
		c0.8,7-4.2,12.6-4.5,19.2c-0.1,3.6-4.2,5.1-3.6,9c0.5,3-0.1,6.5-1.1,9.4c-0.8,2.1-2.4,3.6-0.7,6.1c0.5,0.8-0.1,2.5-0.5,3.7
		c-2.3,8-4.7,15.9-7,23.9c-0.6,2.2-0.9,4.6-1.5,6.8c-0.8,2.9-1,6.2-2.7,8.5c-6.4,8.6-8.2,18.6-9.3,28.8c-0.4,3.7-2.9,5.8-4.9,8.4
		c-3.4,4.5-7.9,6.1-13.2,4.6c-4.9-1.4-9.4-3.6-10.6-9.4c-0.3-1.3-0.2-3.2-1-3.8c-4.1-2.9-3-7.1-2.8-10.9c0.2-3.3,0.9-6.1-1.8-9
		c-1.2-1.2-0.9-4.1,0.8-5.5c2.5-2.1,2.4-4.4,1.7-7.2c-0.4-1.9-0.6-4-0.1-5.8c1-3.1-3.5-4.7-1.6-8.4c1.1-2,0.3-5.3-0.4-7.8
		c-1.2-4.4-1.3-8.4,1.8-12.2c-1.3-0.8-2.1-1.3-3.4-2.1c0.4-0.8,1-1.6,1.7-2.9c-4.2-2.1-5.3-5.7-5.1-10.3c0.4-7.5,0.7-15.1,0.1-22.6
		c-0.2-2.9-0.6-6,1.5-8.6c1.6-1.9,1.4-3.5-0.4-5.2c-0.3-0.3-0.3-1.3,0-1.7c1.3-2,1.5-3.7-0.7-5.1c-3.6-2.4-3.2-5.8-1.4-8.8
		c1.5-2.6,1.5-4.7,0.9-7.5c-1.1-5.4-1.8-10.8-0.7-16.6C488.7,2052.8,488.6,2045.7,486.2,2038.8z M590.8,1905.9
		c-0.2,0.9-0.5,2.2-0.6,3.4c0,0.5,0.7,1.5,0.9,1.4c0.8-0.2,2.1-0.7,2.2-1.2c0.3-2.6,0.4-5.2,0.2-7.7c0-0.5-1.3-1.1-2.1-1.4
		c-0.2-0.1-1.1,0.8-1.1,1.3C590.3,1903,590.6,1904.3,590.8,1905.9z M566.9,2041.2c-0.5,0-1-0.1-1.1,0.1c-0.7,0.9-1.8,1.9-1.8,2.8
		c0.1,0.9,1.4,1.7,2.2,2.5c0.5-1,1.3-1.9,1.5-3C567.8,2042.9,567.2,2042,566.9,2041.2z M493.5,2020.8c1.7,0.3,2.9,0.8,3.9,0.6
		c0.6-0.1,1.5-1.6,1.3-2.1c-0.5-1.3-1.7-1.9-3.1-1.2C494.9,2018.5,494.5,2019.4,493.5,2020.8z"/>
	<path class="st0" d="M717.7,2864.3c-2.1-4.4-6.4-7-10.5-9.8c-3-2.1-5.9-4.3-8.7-6.6c-1-0.8-2.4-1.7-2.7-2.8
		c-1.6-5.1-4.5-9.5-7.1-14c0.1-7.5-3.9-14.9-1.1-22.6c0.5-1.5,0.5-3.3,0.2-4.9c-2.6-12.4-2.9-25-3.3-37.6c-0.3-9.6-0.2-19.3-0.1-29
		c0-2.6,0.5-5.3,0.8-7.9c0.2-2.3,0.9-4.7,0.6-6.9c-1.9-13.3,0.9-26.4,0.4-39.7c-0.5-13.3,0.1-26.6,0.4-39.9c0-2.6,0.8-5.2,1-7.9
		c0.4-5.6,1-11.3,0.8-16.9c-0.5-16,0.5-31.9,2.5-47.8c0.4-3.2,0.4-6.5,0.5-9.8c0.4-13.6,2.9-27.1,5.2-40.4
		c2.4-14.3,0.9-28.5,1.9-42.8c0.7-9.9,1.1-19.9,2.4-29.7c0.5-3.3,0.8-6.5,0.9-9.8c0-2.7-0.1-5.4,0.5-8c1.9-7.9,1.6-15.9,1.9-23.8
		c0.2-4.1,0.8-7.8,2.5-11.5c3.5-7.5,6.5-15.2,9.8-22.9c2.2,0,4.2,0.4,5.9-0.1c5.4-1.6,9.7,0.1,13.8,3.5c1.8,1.5,3.6,3.1,5.6,4.1
		c4.6,2.4,7.4,5.5,6.4,11c-0.1,0.6,0.1,1.4,0.5,1.9c2.8,3.4,1.9,6.8,0,10.2c1.1,1.7,2.8,3.2,3.1,5c1.1,6.5,3.4,12.6,5.3,18.9
		c1.7,5.7,2.9,11.3,6.6,16.4c2.3,3.2,2.5,8.1,3.1,12.4c0.9,5.9,1,11.9,1.9,17.8c0.9,5.5,2.7,10.8,3.8,16.2c1.6,8.1,3,16.3,4.5,24.4
		c0.4,2.3,0.9,4.6,1.3,6.8c1.4,6.8,3.1,13.5,3.2,20.6c0.1,5.9,2.1,11.7,2.8,17.7c0.7,5.5,2.6,10.9,0.9,16.7
		c-0.6,1.9,0.2,4.8,1.3,6.6c1.8,3,2.4,6.1,3,9.4c1.9,10.1,3.7,20.2,4.1,30.6c0.3,6.9,2.2,13.7,3.5,20.6c1.3,7.1,4.4,13.9,2.9,21.4
		c-0.1,0.3-0.1,0.8,0,1c3.8,4.7,2.3,10,1.9,15.2c-0.2,1.8,0.9,3.9,1.8,5.6c1.1,2.2,1.4,4.3,0.7,6.7c-0.3,1.2-0.4,3.2,0.3,3.7
		c3.3,2.6,4.3,5.5,2.8,9.5c-0.3,0.7,0.6,1.8,0.8,2.8c0.6,2.6,1.5,4.9,4.1,6.1c-0.3,2.3-1.1,4.6-0.9,6.8c0.3,2.6,1.2,5.2,2.2,7.6
		c1.7,4.4,1.5,8.4-1.5,12.2c3.9,6,5.1,12.5,4.7,19.2c-0.1,2.2-0.9,4.5-1.4,6.7c-0.2,0.6-0.8,1.2-0.8,1.8c-0.5,3.6,4.5,7.4-0.4,10.9
		c0.3,3.9,0.2,7.8,0.9,11.6c2.3,12.3,0.3,24.2-2.7,36.1c-1.8,7.2-6.1,13.2-10.4,19.1c-2.2,2.9-4.6,5.6-6.6,8.7
		c-7.8,11.7-19.5,16.5-32.7,18.5c-4.2,0.6-8.6,0.5-12.8,0.9c-5.8,0.6-11.1-1.1-16.2-3.8c-2.6-1.4-5.2-2.9-8-3.9
		C723.3,2865.6,720.7,2865.1,717.7,2864.3z"/>
	<path class="st0" d="M465.9,2928.3c-7-0.6-12.9-1-18.9-1.5c-0.6-0.1-1.4-0.1-2,0.1c-3.7,1.6-7.6,3.2-11.5,2.4
		c-7-1.5-14.4-1.1-21.1-3.9c-2.7-1.1-5.8-1.5-8.6-2.5c-4.3-1.6-8.6-3.1-12.6-5.7c-9.7-6.3-19.5-12.5-29.6-18.3
		c-4.3-2.5-9.1-4.1-13.8-5.5c-3.9-1.2-7.5-2.5-10.5-5.4c-1.4-1.4-3.2-2.6-5-3.2c-6.3-1.9-11.7-6-18.1-7.7c-6.6-1.8-12-5.8-17.5-9.3
		c-4.5-2.9-9.6-4.1-14.1-7.1c-4.3-2.9-9.4-4.5-14.4-6.1c-5.4-1.7-10.3-4.4-15.3-6.6c-3-1.4-5.8-3.2-8.6-5
		c-8.7-5.5-17.5-10.9-27.2-14.6c-3.4-1.3-6.7-2.8-9.5-5.3c-1.2-1.1-2.8-2.1-4.3-2.4c-9.1-2.1-15.6-8.5-23-13.4
		c-8.3-5.4-16.7-10.7-25.9-14.8c-11.8-5.3-23.8-10.1-35-16.7c-5-3-10.1-6.1-15.9-7.8c-4-1.2-7.6-4.1-11.3-6.2
		c-11.5-6.7-23-13.4-34.5-20c-2.3-1.3-4.8-2.3-7.3-3.4c-2.1-7.7-4.3-15.3-6.5-23.2c1.7-1.8,3.2-3.5,4.8-5.1c1.4-1.4,3.2-2.5,4.2-4.1
		c1.3-1.9,1.8-4.8,4.3-5.1c4.5-0.4,8.2-3.7,13.2-2.2c7.9,2.3,16.2,3.6,24.5,3.5c2,0,4.3-0.1,5.9,0.7c7,3.8,14.8,3.5,22.2,4.8
		c5.3,0.9,10.4,2.1,15.4,4c8.2,3,16.9,3.4,25.4,4.7c8.9,1.3,17.6,3.1,26.1,6.1c6.5,2.3,13.4,3.7,20.1,5.6c3.2,0.9,6.5,1.6,9.5,2.9
		c4.9,2.1,9.8,4.2,15.3,3.9c0.3,0,0.7,0,1,0.1c13.9,5.5,29.3,5.6,43.1,11.6c2.7,1.2,5.8,1.2,8.7,1.8c2,0.4,4,0.5,5.8,1.4
		c4,1.9,8.2,2.4,12.6,2.7c3.3,0.2,6.6,0.8,9.7,1.9c5.3,1.9,11.3,1.4,16.1,4.7c3.4-1.3,5.6,1.4,8.3,2.4c6.9,2.5,13.7,5.2,21.2,5
		c5.3-0.1,10.3,2.3,15.7,1.1c1.7-0.4,4.1,0.4,5.7,1.4c1.6,0.9,2.5,2.8,4.2,4.7c4.2-1.7,8.6-1.1,13.1,0.2c6.6,1.9,13.8,2,20,5.8
		c1,0.6,2.6,0.4,3.9,0.6c1.3,0.2,3.1,0,3.8,0.8c5,5.4,13,4.8,18.5,9.2c3.3,2.7,8.5,1.7,11.1,6.2c0.5,1,4.2-0.2,5.5,0.9
		c5.1,4.3,11,7.2,16.7,10.5c3,1.8,5,5.2,7.6,7.8c9.5,9.4,17.1,20.1,22.9,32.1c2.2,4.7,3.5,9.3,2.3,14.4c-0.5,2.2,0.3,4.4-1.5,6.5
		c-2.2,2.5,2.2,3.9,1.6,6.1c-0.8,3.2-1.4,6.6-3.2,9.3c-1.6,2.4-4.5,4.1-2.8,7.6c-1.7,3.2-3,6.6-5.1,9.5c-3.6,5.2-7.4,10.2-11.4,15.1
		c-3.5,4.3-8.4,7-13.7,7.3C471.9,2923.6,469.1,2926,465.9,2928.3z"/>
	<path class="st0" d="M1095.1,2483.9c-1.7-0.5-2.7-1.1-3.4-0.9c-0.8,0.3-2,1.7-1.8,2.1c1.6,4-1.4,7.4-1,11.5
		c0.5,4.8-1.4,9.5-6.2,12.5c-3,1.9-4.1,5.5-3,8.8c1.6,4.9,0.1,9.1-1.9,13.4c-0.7,1.5-1.1,3.1-1.8,4.6c-1.3,2.7-0.5,7.1-5.4,7.3
		c-0.2,0,0,1.8-0.4,2.6c-1.7,3.3-1.6,7.8-6.2,9.2c-1.4,0.4-1.3,1.9-1.5,3.3c-0.1,1.9-0.4,4.3-1.6,5.5c-3.8,3.8-4.1,8.9-5.8,13.5
		c-1.4,4.1-2.6,8.2-3.8,12.4c-0.7,2.3-1.4,4.4-3.4,5.9c-0.7,0.5-1.3,1.7-1.2,2.4c0.7,5.2-2.1,8.8-5,12.6c-1.5,2-2.5,4.7-3,7.2
		c-1.5,7.5-3.2,14.9-8.3,21c-0.4,0.5-0.8,1.1-0.9,1.8c-0.9,6.1-4.1,11.1-6.9,16.4c-2.8,5.2-5.2,10.7-7.8,16.1
		c-0.3,0.6-0.7,1.2-0.8,1.8c-0.8,8.1-5.3,15-7.4,22.6c-0.5,1.9-1.3,3.8-2.2,5.5c-2.7,5-5.9,9.7-8.2,14.8
		c-3.8,8.8-9.5,16.7-11.9,26.3c-1,4-4.1,7.5-6.3,11.3c-2.5,4.3-5,8.6-7.6,12.9c-0.9,1.4-1.9,2.8-3.2,3.8c-7.7,5.8-15.5,11.8-25,14.2
		c-5.8,1.4-11.7,2.1-17.6,3.1c-1.3,0.2-2.8-0.2-4,0.3c-7.2,2.7-13-0.7-18.4-4.5c-3.6-2.5-6.9-5-11.3-6c-4.3-1.1-8-3.7-10.7-7
		c-3.6-4.3-7.7-8.2-9.8-13.7c-1.6-4.1-2-4-1.3-9.2c-4.2-3.6-5.6-5.3-4.9-9.8c0.8-4.8,0-9.1-1.4-13.6c-0.5-1.8-0.4-4,0-5.8
		c1.1-4.5,2.7-8.9,3.8-13.4c2.8-11.3,7.8-21.9,11.4-32.9c0.5-1.6,1.2-3.2,2.3-4.4c2-2,3.3-4.1,3.5-6.9c0.1-0.9,0.7-1.9,1.2-2.7
		c6.6-9.9,12.4-20.3,16.8-31.4c0.6-1.5,1.5-2.9,2.5-4.3c3.8-5.9,8.7-11.3,11.2-17.6c2.5-6.5,7.4-10.8,11.1-16.2
		c5.7-8.1,11.3-16.3,15.1-25.5c0.4-0.9,0.7-2,1.4-2.6c5.8-5.1,9.1-12.1,13.8-17.9c1-1.2,2.5-2.1,3.9-3c2.6-1.8,4.1-4.1,4.9-7.2
		c1.4-5.2,3.9-10.1,8.7-12.9c2.7-1.5,3.7-3.6,4.5-6.2c1.2-3.7,1.3-7.9,5.5-10.2c1.2-0.7,2.1-2.6,2.5-4.2c1-3.7,3.1-6.5,5.9-9
		c1.2-1.1,2.4-2.6,2.6-4.1c0.5-3.2,2.4-5.4,4.1-7.8c1.1-1.6,1.5-3.7,2.1-5.5c0.6-1.5,0.7-3.6,1.8-4.5c6.8-5.7,9.2-14.3,14.7-20.9
		c3.3-4,5.6-8.9,8.4-13.4c7.2-11.6,15.8-22.2,23.7-33.2c1-1.4,1.7-2.9,2.6-4.2c5.2-8,10.1-16.2,15.7-23.9c5.1-6.9,11.3-13,16.2-20
		c6.7-9.6,16.2-16.7,22.8-26.3c3.1-4.5,6.8-9.2,13.3-9.8c0.9-0.1,1.7-0.9,2.5-1.5c3.6-2.7,6.9-4,9.7,1.1c0.4,0.7,1.8,0.8,2.6,1.3
		c3.9,2,7.6,4.2,8.6,9c4.8,4.2,4.8,8.2,1.5,13.9c-3.2,5.6-4.3,12.4-8.7,17.5c-0.6,0.7-0.8,1.9-0.7,2.8c0.6,2.5-0.4,4.6-1.7,6.6
		c-1.6,2.6-2.4,5.1-2.4,8.3c0,2.7-2.1,5.4-3.4,8.1c-0.7,1.5-2.5,2.8-2.5,4.2c-0.1,8.2-5.2,15-6,23c-0.2,2.2-2.4,4.2-2.6,6.4
		c-0.2,3.3-5,5.9-1.6,9.7c-1.6,3.2-2.8,6.8-5,9.6c-2,2.6-2.7,4.8-2.7,8.1c0.1,3.2-0.8,6.9-2.5,9.4c-4.8,7.1-6.5,15.2-9.2,23
		C1096.4,2479.8,1095.8,2481.7,1095.1,2483.9z M1078.9,2379.3c-2.2,6.4-1.5,11.3-1,16.1c0.1,0.6,1.5,1.5,2.1,1.4
		c0.6-0.1,1.6-1.3,1.6-2c0.1-3.9,0-7.9-0.2-11.8C1081.3,2382.2,1080.4,2381.4,1078.9,2379.3z"/>
	<path class="st0" d="M1035.5,2321.9c-0.7,4.1,2.1,5.8,5.1,7.4c-2.9,5-2.9,5-7.1,2.2c-2.6-1.7-5.3-1-4.8,1.5c0.9,4.7-1.5,7.5-5,10.3
		c1.2,4.4,3.3,8.6,1.7,13.4c-1.9,6-3.5,7.8-8.9,8.8c0.1,5.6,0.1,5.6-5,10.5c-0.2-2.1-0.7-4-3.4-3.7c-0.6,0.1-1.3,0.5-1.5,1
		c-0.2,0.4,0.2,1.5,0.5,1.6c1.5,0.4,3.1,0.6,4.7,0.8c-1,1.3-1.7,3-3,3.7c-2.6,1.3-5.5,2.1-8.4,3.1c-2.7,12.3-9.1,22.5-16.8,32.7
		c-1.4-1.5-2.6-3-4.1-4.2c-0.6-0.5-2-0.6-2.6-0.1c-0.6,0.4-1.3,1.9-1,2.5c1.2,2.2,2.7,4.3,4.3,6.8c-0.4,1.1-0.9,2.6-1.5,4.4
		c-1.4-0.4-2.6-0.8-4-1.2c-1.1,2.2-1.9,4.7-3.5,6.6c-2,2.4,0.3,3.5,1.2,5.8c-2.5,1.3-5,2.6-7.5,3.9c-0.2,1.7-0.4,3.3-0.6,5.3
		c-1.5,0.4-3.1,0.9-5,1.4c-0.8,2.6-1.6,5.4-2.2,7.3c-2.3,1.3-4.2,2.1-5.6,3.2c-1.3,1-2.4,2.7-1.4,4.4c2,3.7,0.5,6.3-2,8.9
		c-1.8,1.9-4.1,3.4-3.9,6.6c0.1,1-1.4,2.1-2.2,3.2c-1.6,2.2-6,1.1-6,5.7c0,2.7-2,5.4-3.1,8c-0.1,0.2-0.4,0.3-0.8,0.6
		c-0.7-0.6-1.4-1.3-2.1-1.9c-0.7-0.6-1.5-1.2-2.1-1.8c-2.1,0.1-2.3,1.6-2.2,2.8c0.2,2.3,0.8,4.6,1.2,7.3c-1.4,1.4-2.9,3.1-4.5,4.7
		c0.1,0.6,0.2,1.3,0.4,1.9c1.5,3.2,1.5,4.7-1.1,5.3c-2.8,0.7-3,2.2-4,4.6c-2.5,6.3-2.7,13.5-7.2,19c-0.9-0.4-1.8-0.7-3.2-1.3
		c-0.7,1.8-1.9,3.6-1.9,5.3c0.1,5.8-1.2,11.1-3.9,16.2c-0.6,1.1-0.6,2.5-0.9,4c-1.8-0.8-3.2-1.4-4.7-2c-1.9,0.8-0.8,2.1-0.8,3.3
		c0,2.9-0.1,2.9-4.5,3.6c-1.8,2.3-1.6,5.1-0.6,7.4c1.2,2.8,0.5,5.2-0.6,7.6c-2.1,4.5-4.1,9.1-6.6,13.4c-0.9,1.6-3.5,2.1-4.4,3.7
		c-0.9,1.6-0.4,3.8-1,5.6c-0.6,1.9-1.7,3.6-2.7,5.3c-3.6,6-7.3,11.9-10.7,18c-2.1,3.7-4,7.4-7.8,10.1c-2.5,1.8-3.7,5.4-5.4,8.2
		c-0.7,1.1-1.2,2.4-1.9,3.5c-0.9,1.4-3.1,1.5-4.3,0.1c-0.8-1-1.4-2.2-2-3.2c-0.8-0.2-1.5-0.7-2-0.5c-3.6,1.4-7.5,2.2-10.6,0.1
		c-4-2.8-7.8-6-9.7-11c-2.2-5.8-2.3-11,0.1-17.2c3-7.9,6.8-16,6.1-25c-0.1-1.3,0.2-2.7,0.8-3.9c5.5-11.2,7.1-23.5,10.3-35.3
		c4-14.4,7.9-28.8,13.6-42.7c4-9.5,7.5-19.2,9.4-29.4c0.2-1.3,0.9-2.5,1.4-3.7c6.8-15.9,11.8-32.4,14.8-49.5c0.8-4.2,2-8.4,3.4-12.5
		c2-6,3.8-12,4.2-18.4c0.1-2.6,1.1-5.2,1.9-7.7c3.6-11.1,7.3-22.1,11-33.1c0.4-1.2,0.6-3,1.5-3.6c1.6-1,2.8-1.5,2-3.7
		c-1.2-3.4-0.4-7.2,1.7-9.5c4.1-4.7,3-10.8,5.4-15.8c0.3-11.6,5.9-21.7,9.2-32.5c1.6-5.4,3.5-10.7,5-16.1c0.6-2.1-0.2-4.8,3.1-5.4
		c0.5-0.1,1-1.8,0.8-2.7c-1.8-9.3,2.8-16.9,6.7-24.5c2.9-5.6,6.4-10.8,9.7-16.1c0.2-0.3,0.6-0.6,0.6-0.8c-0.6-7.4,5-11.7,8.4-17.2
		c4.3-7,7.5-14.7,11.2-22c3.4-6.6,7.5-12.4,14.9-15.2c3-1.1,5.5-3.4,8.2-5.1c3.4-2.1,6.7-2.7,10.4-2.4c7.3,0.7,14.6,1.4,21.8,2.1
		c1,0.1,2.4,0.1,2.8,0.8c3,4.3,8.3,3.6,12.1,5.6c11.6,6.2,24.2,11.4,30.8,24.1c0.4,0.9,0.9,1.9,1.7,2.4c8.8,5.9,8.9,15.8,11.3,24.7
		c0.4,1.7-0.5,3.9-1.1,5.7c-0.8,2.2-2,4.2-1,6.7c0.2,0.5,0.3,1.6-0.1,1.9c-5.1,4.6-3.8,10.7-2.3,15.8c1.9,6.3,0.2,11.8-3.4,15.8
		c-6,6.8-7.1,15.2-9.3,23.2c-1.1,3.9-2.1,7.7-5,10.6c-1.6,1.5-2.2,3.1-1.6,5.3c0.2,0.8-0.3,2-0.8,2.8c-1.3,1.9-3.1,3.6-4.1,5.6
		c-0.9,2-1.1,4.4-1.6,6.5c-4,1.1-7.5,1.6-11.1,0.1c0.3-0.6,0.7-1.1,1-1.7c1-1.7,2.2-3.4,0.5-5.3c-0.4-0.4-1.2-0.7-1.7-0.6
		c-1.8,0.6-2.1,2.6-0.8,5.9C1034.4,2321,1035,2321.4,1035.5,2321.9z M987,2380.7c-0.5,0.4-1.2,0.8-1.3,1.3c-0.2,1.2-0.3,2.6,0,3.8
		c0.7,2.2,2,4.1,4.4,4.6c1.3,0.3,1.5-2.4,0.1-5.8c-0.5-1.1-0.9-2.4-1.6-3.4C988.5,2380.8,987.6,2380.9,987,2380.7z M1011,2360.5
		c-1.5,1.7-2.2,2.4-2.7,3.2c-0.7,1.1-1.3,2.4,0.1,3.4c0.2,0.2,0.6,0.3,0.8,0.3c1.8,0,2-1.4,2.2-2.7
		C1011.5,2363.8,1011.3,2362.8,1011,2360.5z"/>
	<path class="st0" d="M1312.3,2919.3c1.7,0,2.7,0,3.7,0c0.2,0.2,0.7,0.4,0.7,0.6c0.4,4.2,3,7.1,5.7,10.1c1.1,1.1,0.5,3.7,0.8,6.1
		c-2.2,0.6-4.1,1.1-6,1.4c-7.5,1.2-15.1,2.3-22.6,3.3c-3.6,0.5-7.3,0.6-10.9,0.7c-5.3,0.2-10.8-0.5-15.9,0.7c-4,0.9-6.2-1-9.3-2.7
		c-4.1,2.6-8.4,5.1-13.7,2.9c-0.8-0.3-2-0.1-2.9,0.2c-9.7,3.5-20.6,1.2-30.1,5.8c-13.9,0.7-27.8,2-41.8,0.3
		c-2.6-0.3-5.3-0.6-7.8-0.1c-8.5,1.4-17,1.8-25.6,0.8c-6.5-0.8-13-1.8-19.5-1.9c-3.5-0.1-5.5-1.9-7.8-4.5c-3.6,2.5-7.7,2.7-12,1.6
		c-14.2-3.7-28.6-4.4-43.2-3.7c-4.6,0.2-9.2-0.5-13.8-0.1c-3.2,0.3-4.9-3.6-8.4-2.3c-2.4,0.9-5.2,1-7.8,1
		c-6.3-0.2-12.7,0.2-18.8-1.6c-1.6-0.4-3.5-0.9-4.9-0.4c-5.8,2.2-11.8,0.3-17.7,1.3c-5.4,0.9-11.2-0.5-16.8-0.8
		c-2.3-0.1-4.7-0.5-6.9-0.1c-8.3,1.9-16.5,1.2-24.5-1.4c-3.8-1.2-7.6-2-11.7-1.7c-3.5,0.2-7.2-1.2-10.7-1.1
		c-3.6,0.1-7.2,1.5-10.8,1.7c-4.6,0.2-9.3-0.1-14-0.5c-1.9-0.2-3.7-1.1-5.6-1.8c-1.2-0.5-2.3-1.7-3.5-1.7
		c-8.9-0.3-15.6-7.2-24.2-8.4c-0.8-0.1-1.6-1-2.3-1.7c-4.8-4.6-9.4-9.4-14.4-13.7c-3.4-2.9-5.7-6.4-7.4-10.4
		c-4.3-10.1-7.2-20.7-9.7-31.4c-1.7-7.1-1.1-14.6,4.1-20.8c1.3-1.5,2.2-3.4,2.8-5.2c1.7-5.5,5.9-8.7,10.3-11.7
		c3.3-2.2,6.4-4.7,9.8-6.9c2.7-1.8,5.1-3.8,8.3-4.9c2.7-0.9,4.8-3.5,7.2-5.2c0.8-0.6,1.8-0.8,2.8-1c1.3-0.3,2.7-0.2,3.9-0.6
		c12-4.7,24.7-4.3,37.1-5.4c3.3-0.3,6.7-0.1,9.9,0.7c7.7,1.9,15.3,4,23.4,3.6c1.6-0.1,3.2,0.8,4.8,1.1c7.8,1.1,15.3,3.5,23.5,2.8
		c7.8-0.6,15.8,0.6,23.4,2.8c1,0.3,1.9,0.8,2.9,0.9c3.9,0.4,8.1-0.1,11.8,1.1c3.6,1.1,6.6,4.1,10,5.9c2.7,1.5,9.7,2.3,13.4,1.9
		c3.3,4.2,3.2,4.3,8.4,5.6c7.3,1.9,14.5,4.6,22.2,4.4c6.7,3.9,14.8,3.4,21.7,6.8c10.3,5,21.7,6.2,32.7,8.4c4.3,0.9,8.3,1.8,12.2,3.8
		c3.1,1.6,5.8,4.6,10.1,3c0.8-0.3,2.3,0.9,3.5,1.5c4.6,2.5,8.9,5.3,14.8,4.9c3.8-0.3,7.3,2.2,11.6,1.8c3.7-0.3,7.6,1.9,11.4,3.1
		c1.9,0.6,4,1.1,5.5,2.2c6.5,5,14.8,5.7,21.7,9.9c1.8,1.1,4.5,0.4,6.7,1c5.4,1.5,10.9,3.1,16.2,4.9c3.2,1.1,6.2,2.1,9.7,2.1
		c2.7,0,5.2,0.6,7.5,2.2c1.9,1.3,4.2,2.2,6.4,2.7c6.2,1.4,11.3,4.9,16.4,8.6c5.5,4.1,11.7,6.1,18.6,6.3c3.7,0.1,7.3-0.2,11,0.1
		c2.6,0.2,5.3,0.6,7.8,1.3C1311.7,2911.3,1311.8,2911.6,1312.3,2919.3z"/>
	<path class="st0" d="M586.2,1596.9c2.8,1.9,7,3.2,9.4,7.2c0.6,1.1,1.9,1.9,3,2.6c10.5,6.7,18.5,16.1,27.3,24.8
		c6.2,6.1,12.4,11.8,20.9,14.8c5.4,1.9,9.5,6.1,13.6,9.9c2.9,2.6,2.3,7.3,6.5,9.5c3.3,1.8,5.7,5.4,8.6,8.1c0.7,0.7,1.5,1.3,2.3,1.7
		c2.2,1.1,6-2.6,6.9,2.8c0.5,3.4,5.8,2.4,7,4.7c4.3,7.6,14,8.7,18.6,15.9c0.6,1,2.2,1.5,3.3,2.1c4.1,2.4,7.6,5.1,9.9,9.5
		c1.5,2.8,4.2,5.1,6.7,7.3c2.5,2.1,5.1,4.2,7,6.9c0.7,1,2.3,2.2,3.2,2c3.7-0.7,5.6,1.1,7,4.1c0.4,0.9,0.9,1.8,1.7,2.4
		c2.1,1.5,5.7,2.4,6.4,4.4c1.9,5.4,7.1,8.8,8.4,14.5c0.1,0.5,0.9,0.8,2.1,1.6c0.1-1.6,0.2-2.8,0.3-3.9c0.6,0,1.2-0.1,1.7,0.1
		c3.7,2,2.4,5.6,2.4,8.4c2.1,2.4,4-0.5,6,0.3c4.5,4.1,10.3,7.2,11.8,14c3.6,3.3,7.1,6.8,10.9,9.9c2.7,2.2,7.1,2.2,7.8,6.7
		c3.2,1.1,5.8,3,8.3,5.3c2.9,2.7,6.3,4.9,9.4,7.4c4.2,3.3,8.4,6.5,12.4,9.9c1.2,1,1.8,2.7,2.8,4c2.1,2.9,4.2,5.9,6.2,8.8
		c2-0.6,3.5-1.1,5.5-1.7c2.1,2.7,4,5.9,8.2,6.2c1,0.1,2,1.6,2.7,2.6c1.4,2.3,2.5,4.7,4,7.4c2.6,0.6,5.4,1.2,8.7,1.8
		c-1.1,2.5-2,4.5-3.2,7.1c1,1.4,2,3.1,3.2,4.6c2.8,3.6,6.8,6.3,7.4,11.3c0.1,0.7,1.2,1.7,2,1.9c3.2,0.8,5.1,2.8,6.6,5.6
		c0.9,1.7,2.7,2.9,3.9,4.4c1.5,1.8,3.5,3.5,4.1,5.5c1.8,6.1,6.3,9.9,10.8,13.9c5,4.5,9.1,9.4,8.9,16.9c-0.1,3.5,3,6.5,2.7,10.4
		c-0.3,3.2-0.9,6.7,1,9.8c0.2,0.3,0.3,0.7,0.2,0.9c-2.2,10.9-0.9,22.7-7.8,32.4c-6.5,9.1-12.9,18.3-20.7,26.4
		c-1.3,1.4-3.1,2.4-4.8,3.4c-1.1,0.7-3,1-3.3,1.9c-1.8,5-6.3,5.5-10.3,6.9c-6.5,2.3-13,4.5-19.7,6.3c-2.1,0.6-4.7,0.6-6.9,0.1
		c-9-2-16.2-7.5-23.4-12.9c-0.8-0.6-1.3-1.5-1.8-2.4c-6.1-11.6-14.9-21.2-22.7-31.5c-10-13.3-19.2-27.1-27.8-41.4
		c-6.3-10.5-11.9-21.5-19.6-31.2c-1.8-2.3-2.9-5.1-4.3-7.8c-4-7.7-8.4-15.2-14.3-21.5c-3.2-3.4-6.5-6.6-8.8-10.8
		c-0.9-1.7-2.5-3-3.8-4.5c-2-2.2-4.9-4-5.9-6.6c-4-10.1-13.2-16.2-18.8-25c-1.8-2.9-4.8-5-6.9-8c-6.3-9.2-14.6-16.9-19-27.4
		c-0.9-2.1-2.3-4.1-3.9-5.7c-2.2-2.1-3.9-4.4-4.9-7.3c-0.6-1.8-1.8-3.6-3.2-4.9c-7.9-7.4-13.1-16.6-18-26.1
		c-0.7-1.4-0.7-3.1-0.9-4.7c-0.6-5.2-2.5-9-6.6-11.4c-4.2-2.4-6.5-5.6-5.6-10.5c0.4-2.3-0.4-4-2.3-5.1c-2.4-1.3-3.8-3.4-5.5-5.5
		c-8.9-10.8-16.7-22.3-23-34.7c-1.5-2.9-4.2-5.5-4.9-8.6c-0.8-3.4-3.8-4.4-5.2-6.8c-2-3.4-4.6-6.6-6.1-10.3
		c-2.4-6.1-6.7-10.7-11.2-15.1c-2.7-2.6-4.7-5.6-5.8-9.2c-1-3.4-0.9-5.1,1.9-7C572.3,1603.2,576.5,1596.7,586.2,1596.9z"/>
	<path class="st0" d="M1560.9,1709.5c1.8-1,2.9-1.5,4.5-2.4c3.5,3.5,7,7,10.4,10.7c2.7,2.9,5.1,6.1,7.6,9.2c2.3,2.8,5.2,5.2,5,9.4
		c0,0.8,0.7,1.9,1.3,2.5c10,8.1,18.2,18.1,26.8,27.6c4.5,4.9,8.6,10.2,12.6,15.5c10.2,13.5,21.2,26.4,32.1,39.4
		c5.1,6,11.7,11,14.6,18.8c5.1,1.1,6.6,6.2,9.9,9.3c7,6.7,12.9,14.2,18.7,22c10.6,14.5,21.4,28.9,34.4,41.4c1.4,1.4,2.7,2.9,3.9,4.5
		c8.5,11.5,16.9,23,25.5,34.4c1.4,1.8,3.1,3.5,5,4.8c3.6,2.5,6.2,5.9,9.3,8.8c4.9,4.6,8.3,10.1,12.2,15.4
		c4.3,5.8,8.9,11.6,13.9,16.8c3.5,3.6,6.7,7.3,9.4,11.6c2.7,4.2,6.1,7.8,8.9,11.9c3.7,5.5,7.2,11.2,10.7,16.8
		c1.5,2.4,1.2,4.1-0.6,6.4c-1.8,2.3-4,3.6-6.9,2.8c-0.9-0.2-1.8-0.9-2.5-1.5c-1.6-1.7-3.4-1.9-5.5-1.2c-3.7,1.3-5.6-0.2-6.6-3.8
		c-0.3-1-2-2.5-2.6-2.3c-3.9,1.1-6.6-1.2-8.8-3.5c-6.5-6.8-14-12.1-22.2-16.7c-5.3-2.9-8.8-8-10.7-13.8c-2.6-0.3-4.8-0.3-6.8-0.9
		c-1.9-0.6-3.5-1.8-5.9-3c-0.8-3.7-2.5-7.1-7.1-9.2c-5-2.3-8.8-7-14.6-8.3c-0.6-0.1-1.4-0.6-1.6-1.1c-2.1-6.9-11-7.3-13.1-14.1
		c-2.6-1.4-5.2-2.8-7.8-4.2c-2-1.1-3.9-2.3-5.9-3.5c-0.1-4.9-3.7-4.7-7.1-6.1c-3.4-1.4-6.9-3.2-9.7-6.5c-4-4.7-9.3-8.6-14.6-11.8
		c-10.2-6.2-20.8-11.7-31.2-17.7c-4.6-2.6-8.7-5.9-13.4-8.5c-5.2-2.8-10-6.6-16-7.9c-0.6-0.2-1.3-0.3-1.8-0.8
		c-6.4-5.2-12.8-10.5-19.1-15.8c-1.1-3.7-4.9-2.8-7.4-4.2c-2.7-1.6-2.3-5.5-5.7-6.6c-8.7-2.9-15.9-8.3-22.3-14.6
		c-9.5-9.4-20.4-16.7-31.3-24.3c-3.3-2.3-6.2-5.4-9.8-6.7c-5.2-2-8.9-6.4-14.2-8.2c-0.9-0.3-2.1-1-2.3-1.8
		c-2.3-6.9-10-8.5-13.8-13.9c-0.5-0.7-1.6-1.4-2.4-1.5c-4.5-0.8-7.6-3.8-11.1-6.2c-2.7-1.9-5.5-3.7-8.5-5.1
		c-6.5-2.9-11.8-7.4-17.1-12c-0.5-0.4-1.2-0.9-1.3-1.5c-1.5-7.7-8.1-11.1-13.3-15.5c-3-2.6-3.1-7.3-7.4-8.6c-1.2-0.4-2.2-1.3-3.5-2
		c-1.3-3.9-1.6-8-1.1-12.4c0.4-3.4-1.2-4.7-5.6-4.9c-2-0.1-3.1-0.8-3.8-2.4c-0.6-1.2-1.4-2.5-1.3-3.7c0.8-15.8,0.6-31.9,5.7-47.2
		c1.2-3.4,2.9-6.7,4.7-9.9c0.8-1.3,2.1-2.7,3.5-3.3c2-0.9,3.1-2.3,4.2-4.1c4.2-7,11.1-10.2,18.4-12.7c0.9-0.3,2-0.9,2.9-0.7
		c5.3,1.4,10.5-0.4,15.8-0.5c3.8-0.1,5.2,2.2,6.8,4.9c2.4-0.8,4.7-2.1,7.1-2.1c2.2-0.1,4.7,0.8,6.6,2c6.6,3.9,14,6,21,9
		c2.2,0.9,4.5,1.8,5.2,4.2c0.9,3.3,4.1,4.2,5.9,5.8c0.3,4.4,0.6,8.2,0.8,11.8c3.3,1.2,4.4-0.3,4.4-2.6c0-1.6-0.9-3.2-1.2-4.8
		c-0.3-1.5-0.4-3.1-0.8-6c3.3,2.1,6,3,7.4,4.9c2.5,3.5,6.1,5.7,8.9,8.6c2.9,2.9,6.4,4.7,9.3,7.2c2.8,2.4,5.6,4.8,7.8,7.7
		C1558.8,1703.3,1559.5,1706.2,1560.9,1709.5z"/>
	<path class="st0" d="M682.1,2466.6c-4.5,0.3-7.9,2.4-11.5,4c-7.8,3.6-16.1,6.2-24,9.5c-8.1,3.4-16.8,3.7-25.2,5.4
		c-1.6,0.3-3.5,0-4.9,0.7c-9.9,4.9-20.8,3.2-31.2,5.1c-3.9,0.7-8,0.1-11.5,2.6c-1,0.7-2.5,1.2-3.7,1.1c-10.1-0.5-19.1,6.1-29.4,4.5
		c-3.9-0.6-8-0.1-12-0.3c-4.7-0.2-9.2,0.7-13.8,2c-5.7,1.6-11.8,2.3-17.3,4.4c-10,3.7-20.3,6.1-30.7,8.3c-5.2,1.1-10.4,2.7-15.6,2.8
		c-5.5,0.1-10.3,2.5-15.6,3.2c-1,0.1-2,0.5-2.8,1c-9.1,6.1-19.7,7.7-30.1,9.8c-9.8,1.9-19.4,4.4-28.9,7.5
		c-6.3,2.1-12.6,3.7-19.5,3.2c-3.7-0.3-7.9,1-11.3,2.7c-7.8,3.9-16.4,4.8-24.6,7.1c-8.3,2.3-16.9,2.9-25.2,5.6
		c-8.4,2.7-17.7,2.5-26.4,4.6c-8.2,2-16.5,1.8-24.8,1.8c-3.4,0-6.4-0.8-9.7-1.9c-4.9-1.7-9.5-4.2-14.9-4.6c-3.1-0.2-6.1-2.3-9-4
		c-2-1.1-3.8-2.8-5.4-4.4c-7.2-7.3-13.9-15.1-19.1-23.9c-1.4-2.4-1.3-5.6-2-8.4c-1.2-4.6-1.5-9,0.5-13.6c1.9-4.2,2-9.1,4.5-13.1
		c1.2-1.9,1.5-4.5,2.9-6.2c7.8-8.9,12.4-20.3,21.9-28.1c9.5-7.9,20.1-12.3,32-14.6c4.8-0.9,9.7-2.2,14.3-3.9
		c3.2-1.2,6.2-2.2,9.6-2.1c5.4,0.1,10.5-0.9,15.7-2.2c4.7-1.2,9.8-1.2,14.4-2.5c4.6-1.3,9.2-1.1,13.8-1.2c6.3-0.1,12.6-0.1,19-0.3
		c1.6-0.1,3.2-0.7,4.9-0.8c4.3-0.3,8.5-0.4,12.8-0.6c1.9-0.1,3.9,0.3,5.8,0c5.9-0.8,11,0.9,16.1,3.7c7.2-6.3,15-4.4,22.8-1
		c5.6-3.2,5.7-2.9,10-3.3c3.2-0.3,6.3,2,9.7-0.1c3.3-2,6.9,1.1,10.6,0.4c3.2-0.6,6.6-0.1,10-0.1c12.5-0.3,25.1,1.5,37.6-0.8
		c4.1,1.6,8.3,1,12.5,1c3.9,0,7.9,0.6,11.8,0.9c5,0.4,9.9,0.7,14.9,0.9c2.3,0.1,4.8-0.4,6.9,0.2c2.7,0.7,5,1.2,7.7,0.2
		c1.4-0.5,3.3,0,4.9,0c3.9,0.1,7.8,1,11.4-1.5c1.2-0.8,3.2-0.4,4.9-0.4c4.3-0.1,8.6-0.3,12.9,0c8.5,0.6,17,1,25.3-1.5
		c0.6-0.2,1.3-0.3,2-0.1c10.8,2.5,21.8,1.4,32.7,1.9c1,0,2,0.2,2.9,0.5c9,2.9,18.3,3.4,27.4,2.7c11-0.8,21.1,7,26.2,19.1
		c0.6,1.5,1.1,3.2,2.2,4.4C681,2456.8,681.7,2460.9,682.1,2466.6z"/>
	<path class="st0" d="M1083.4,1746.6c1.5-1.8,2.3-2.4,2.6-3.3c0.3-0.8,0.4-2.1-0.1-2.6c-0.5-0.6-1.8-0.8-2.6-0.6
		c-0.9,0.2-1.9,0.8-2.4,1.6c-1.6,2.3-2.1,5.7-6.2,4.7c-1.9,2-3.9,3.6-6.9,3.4c-0.3,0-0.8-0.1-1,0.1c-7.7,6.2-18.2,5.7-26.5,10.7
		c-3.7,2.2-8,4.9-13.1,3.8c-0.6-0.1-1.6,1-2.3,1.6c-2.2,2.2-4.8,1.7-7.5,1.2c-2.8-5.1-5.8-14.8-6.6-18.2c-0.7-2.8,0.2-5.2,0.8-7.8
		c0.6-2.5,2.1-4,4.3-5.1c10.2-5,19.3-11.7,28.8-17.8c6.9-4.5,14.2-8.5,21.5-12.4c2.9-1.5,6.3-2,10.2-3.2c3.1-3.8,7.2-7.5,12.9-9.1
		c1.3-0.3,2.6-0.8,3.7-1.5c9.6-5.9,19.1-12,28.7-17.9c3.6-2.2,6.6-5.7,11.4-5.7c1,0,2.4-1,3.1-1.9c3.5-4.7,8.4-5.8,13.9-5.8
		c-0.2-2.7,0.3-4.9,3.1-6.4c8.6-4.9,17-10.1,25.6-15.2c1,0.4,2.2,0.8,3.7,1.4c3.8-8.1,12-10.4,18.8-14.4c1.2,0.9,2,1.5,2.8,2.1
		c0.5-0.2,1.4-0.4,1.4-0.8c0.9-5.1,4.7-7.7,9-10.3c1.2,0.7,2.5,1.6,4,2.1c3.1,1.1,4.9-0.1,5.5-3.6c0.2-1.3,0-2.6,0-3.6
		c3.7-3.8,7.5-6.1,12.5-6.4c2.5-0.1,4.7-4,7.7-0.5c1.1,1.2,2.4-0.1,2.6-2.7c0.1-0.6-0.1-1.3-0.2-2.6c1.2-0.6,2.8-1.1,3.9-2.1
		c4.5-3.6,11.4-3.7,14.1-9.9c4.8-2.3,9-5.4,13.2-8.7c1.9-1.5,4.8-1,7.2-2.3c2.2-1.2,4.4-0.9,5.1-4.4c0.7-3.6,4.8-4.2,7.7-5.6
		c1.6,0.6,3.1,1.2,4.5,1.8c1.9-1.3,1.7-4.5,4.8-4.6c4.1-0.1,6.1-5.1,10.6-4.9c0.6,0,1.4-1.3,2-2.1c0.4-0.5,0.7-1.1,1.2-1.6
		c5.7-7.1,8.1-8,17-6.2c0.6-0.3,1.5-0.5,1.7-1c3.5-8.7,11.6-12.2,18.7-16.9c0.8,1.3,1.7,2.6,2.6,3.9c4.1-1.9,4-5.3,4.3-8.7
		c2.7-1.7,5.5-3.4,8.3-5.1c4.7,2.1,6.8-2,9.6-4.3c5-4.1,10.7-6.5,16.8-8.4c3.4-1.1,6.5-2.8,10.4-1.4c1.5,0.5,4.3-0.2,5.4-1.4
		c4-4.4,9.3-4.9,14.4-5.3c5.9-0.5,11.9-0.2,17.9-0.1c1.3,0,2.7,0.3,3.8,0.9c3.7,1.6,7.4,2.6,11.4,3.3c3.4,0.6,6.6,3,9.8,4.8
		c0.7,0.4,1.1,1.6,1.2,2.5c0.2,2.1,1.2,2.6,3.3,2.7c5.7,0.4,8.8,3,10.4,8c0.3,0.9,0.5,2.2,1.1,2.6c4.4,2.5,4.7,7.8,8.1,11.1
		c1.4,1.3,1.6,4.2,1.8,6.5c0.5,4.6,0.7,9.3,0.9,13.9c0.1,1.6-0.1,3.3-0.4,4.8c-0.9,4.6-1.9,9.1-2.9,13.9c-1.3,0.4-2.7,0.9-4.6,1.6
		c-0.2,2.2-0.5,4.4-0.6,6.7c-0.2,2.7-0.6,5.2-2.2,7.5c-1.1,1.6-2,3.6-2.1,5.4c-0.1,4.6-2.9,7.3-6.1,9.8c-3.4,2.6-6.9,5.1-10.5,7.8
		c-1-0.4-2.2-0.9-3.8-1.7c-1,1.8-2,3.8-3.2,5.6c-1.8,2.9-4.1,5-7.9,5.2c-1.8,0.1-3.8,1.2-5.3,2.3c-9.2,6.5-18.6,12.7-28.9,17.4
		c-4.4,2-8.7,4.6-12.6,7.9c-3.5,2.9-7.4,6.8-13.1,5.6c-1.1-0.2-2.5,0.5-3.6,1c-6.4,2.8-12.7,5.5-19.8,6.4c-2.2,0.3-4.2,1.4-6.3,2.3
		c-6.5,2.8-13.3,4.5-20.2-0.4c-3,2-6,4.1-9.4,6.3c-1.4,0-3.4-0.1-5.4,0c-1.2,0.1-2.8,0.2-3.6,0.9c-3.9,3.2-8.5,3-13.4,2.8
		c-1.3,4.2-3.7,6.3-8.1,4.6c-1.1-0.4-2.9-0.8-3.8-0.3c-5.2,3.5-11.6,1.6-17.1,3.8c-1.1,0.4-2.5,0-3.8-0.1c-5.2-0.3-6,0.4-7.4,6.4
		c-3.8,1.1-3.4-3.4-6.4-4.5c-1.2,1.5-2.6,3.1-4,4.8c-1.5-0.7-3-1.3-4.7-2.1c-1.2,1.3-2.3,2.6-3.8,4.2c-1.5-3.8-2.8-7-4.1-10.2
		c-3.1,0.6-4.4,2.5-3.5,4.4c1.7,3.7-1.9,5.3-2.6,8c-0.1,0.4-1.6,0.6-2.4,0.7c-0.6,0.1-1.6-0.4-1.9-0.1c-2.5,2.5-6.1,1.7-8.9,3.1
		c-0.8,0.4-1.4,1.2-2.2,2c-1-0.4-2-0.6-2.8-1.1c-1.9-1.2-3.7-3.2-5.7-3.7c-1.5-0.3-3.3,1.4-5.1,1.9c-0.8,0.2-1.8-0.7-3-1.2
		c-3.4,4.6-7,9.2-10.4,13.8c-4.9,0-9.7,0-14.2,0c-1.3,2.5-2.3,4.5-3.2,6c-3.9,0.5-5.2-3.9-8.8-2.9c-1.3,0.3-2.9-0.6-4.4-0.8
		c-0.5,0-1,0.7-1.5,1.2c-0.5,0.5-0.8,1-1.3,1.6c-1-1-2.1-2.9-2.8-2.7c-2.3,0.4-1.4,2.4-1.1,4.6c-2.3,1.2-4.6,3.1-7.2,3.6
		c-2.8,0.4-5.7-0.6-8.6-0.9c-0.5,1.3-0.9,2.4-1.1,3c-4.1,2.5-7.8,4.7-11.4,6.8c-0.5,0.3-1.4,0.9-1.7,0.7c-4.8-2.6-7.1,1.2-10.1,3.7
		c-1.4,1.2-3.7,1.4-5.4,1.9c-1.6-1-2.9-1.8-4.4-2.7c-1.9,1.6-3.7,3.1-5.6,4.7c-1.4-0.7-2.7-1.4-4.2-2.2
		C1099,1741.1,1092.2,1744.3,1083.4,1746.6z M1162.2,1677.8c-0.4,2.2-0.9,3.4-0.8,4.7c0,2.1,1.1,3.8,3.2,4.6
		c1.8,0.7,4.3-0.8,5.7-3.2c1-1.8,0.1-7.3-1.5-8.3c-0.1-0.1-0.5,0.2-0.7,0.3c-0.4,1.4-0.9,2.7-1.3,4.1
		C1165.2,1679.4,1164.3,1678.9,1162.2,1677.8z M1222.8,1627c-2.6,0.6-3.4,2.2-2.6,3.8c1,2,2.4,3.9,3.9,5.6c1.7,2,3.2,1.6,6.2-1.3
		c-1.5-1.1-3.2-2.1-4.5-3.4C1224.5,1630.2,1223.7,1628.4,1222.8,1627z M1185.7,1703.3c3.8,0.8,6.2,1.5,8.7,1.8
		c0.6,0.1,1.7-1.1,1.8-1.8c0.2-0.7-0.4-1.9-1.1-2.3C1192.2,1699.1,1189.7,1700.5,1185.7,1703.3z M1189,1656.2c3.2-3.6,3-6,1.3-8.2
		c-1-1.4-2.3-2.2-4.3-0.2C1186.8,1650.1,1187.7,1652.7,1189,1656.2z M1253.1,1614.7c-0.2,0.5-0.8,1.3-0.7,1.6c1.5,2.7,4.6,4,6.2,2.7
		c0.2-0.2,0.4-0.5,0.4-0.8C1259,1616.1,1255.9,1614.3,1253.1,1614.7z M1149,1684.7c-0.6-1.1-0.8-1.9-1.2-2.1c-1.9-1-3.8,0-4.1,2.2
		c-0.1,0.5,0.6,1.6,0.6,1.6C1145.9,1685.8,1147.4,1685.3,1149,1684.7z"/>
	<path class="st0" d="M1152.4,2692.2c0.7-1.3,1.2-2.5,1.8-3.7c-2.9-2.2-5.7-4.6-6.5-8.5c-0.1-0.6-0.3-1.4-0.7-1.8
		c-5.9-5.7-7.5-13.9-11.5-20.7c-3.9-6.6-8-13.1-11.1-20c-2.6-5.7-7.1-10.2-9.3-16c-2.3-5.9-4.9-11.6-8-17.1
		c-3.1-5.5-6.2-11.1-8.1-17c-2.9-9.5-8.3-18.1-10.6-27.9c-1.2-5.1,0.1-9.4,3-13c2.5-3,5.8-5.5,9.1-7.7c1.8-1.3,4.2-1.8,6.4-2.4
		c1.2-0.4,2.6-0.3,4-0.3c3.2-0.1,6.2-2.4,9.7-0.5c4.2,2.3,7.9,5.4,9.7,9.7c2,4.6,4.4,8.1,9.4,9.4c0.6,0.1,1.2,0.6,1.6,1.2
		c5.9,9,15.2,14.8,22,22.9c2.6,3,4.7,6.5,7.5,9.2c2.9,2.7,6.2,4.8,8.2,8.5c0.9,1.6,3,2.5,4.6,3.7c6.9,5.2,13.4,10.6,18.9,17.5
		c6,7.5,12.7,14.3,21.3,19.3c5.9,3.4,11,8.5,15.3,14.1c3.4,4.4,6.7,9,10.3,13.2c2.1,2.5,4.9,4.4,7.3,6.6
		c8.7,8.2,17.3,16.5,25.9,24.7c1.4,1.3,3.1,2.4,4.6,3.6c1.3,1,3.2,1.8,3.7,3.1c3,6.8,9.7,9.8,14.7,14.6c2.1,2,4.3,3.9,6.2,6.2
		c3.1,3.8,5.3,8.3,10.6,10.1c2.2,0.8,3.7,3.6,5.6,5.4c4.2,3.8,8.7,7.2,12.6,11.3c5.1,5.3,8.6,11.6,10.3,19.1
		c1.2,0.4,2.4,0.9,3.7,1.2c3.5,1.1,5.8,3.3,6.3,7c0.7,4.8,3.4,7.7,7.9,9.2c1.2,0.4,2.5,1.3,3.1,2.4c2.9,6.1,8.4,10.2,11.8,15.9
		c1,1.7,2.4,3.2,2.9,5c0.8,3.1,2.6,5.3,4.5,7.7c3.3,4.2,6.2,8.6,7.6,13.9c0.3,1.3,0.6,2.8,1.5,3.6c4.5,4.4,4.6,10.2,4.8,15.8
		c0.2,6-0.2,12-0.4,18c-0.1,1.3-0.2,2.8-0.9,3.8c-3.4,5.7-6.8,11.5-10.8,16.8c-1.9,2.5-5.2,4-7.9,5.8c-4.9,3.4-9.9,6.6-14.9,9.9
		c-4.9,3.2-10.6,3.3-16.2,4c-0.8,0.1-1.7-0.8-2.6-1.2c-0.8-0.4-1.7-1.1-2.6-1.1c-25.3,2.3-34-0.7-48.4-5.8c-3.1-1.1-6.4-2.3-7-6.3
		c-6.2-5.4-9.9-12.9-17.3-17.4c-5.8-3.5-11.7-7.6-14.8-14.4c-0.6-1.3-2.2-2.2-3.4-3.3c-1.2-1.1-3.2-2-3.4-3.3
		c-0.7-3.9-3.4-6.2-5.7-9c-2.4-3-5.4-6-5.5-10.4c-0.1-3.6-4.8-4.5-5.1-8.1c-4.1-2.2-4.9-5.9-5.2-10.1c-0.1-2.1-1.1-3.8-3.7-3.9
		c-0.9-0.1-1.9-0.4-2.8-0.8c-0.5-0.2-6.9-10.8-6.9-11.4c0.1-3.9-0.3-7.5-5.3-8c-2.4-5.5-8.6-8.2-10.6-14.1c-0.7-2.1-2.3-4-3.6-5.8
		c-3.2-4.3-6.2-8.6-9.7-12.6c-3.6-4.2-5.2-9.2-6.5-14.4c-0.2-0.9,0.1-2.6-0.3-2.8c-4.2-1.8-3.9-5.3-4-8.9c0-1.2-2-2.6-3.3-3.3
		c-2.4-1.4-4-3.1-5-5.9c-1.9-4.9-3.4-10.4-6.7-14.3C1159.7,2706.2,1157.5,2698.3,1152.4,2692.2z M1223.2,2713.3
		c-0.6-0.3-1.6-1.3-2-1.1c-1.3,0.6-2.6,1.6-3.5,2.7c-0.3,0.4,0.2,1.7,0.7,2.4c0.2,0.4,1.2,0.6,1.6,0.5
		C1222,2717.2,1223.1,2715.8,1223.2,2713.3z"/>
	<path class="st0" d="M1733.4,1850c1.6-1.9,1.8-4.7,5.3-5.3c2.8-0.5,3.1-2.9,1.4-5.5c-1.3-1.9-2.6-3.9-4-5.7
		c-3.8-4.7-3.1-9.1,1.1-13.7c-0.9-2.2-1.8-4.6-3-6.9c-0.3-0.5-1.9-0.6-2.7-0.3c-0.5,0.2-0.9,1.9-0.6,2.3c1.2,1.7,2.4,3.1,1.4,5.3
		c-2.5,5.5-3.3,11.4-3.4,18c-3.9-0.5-6.4-1.9-6.9-5.8c-0.6-4.9-1.5-9.8-1.9-14.8c-0.3-3.6-0.4-7.3-0.3-11c0.4-8.7-0.4-17.2-3.2-25.5
		c-0.7-2.1-0.5-4.6-0.7-7c4.6,1.4,4.6,1.4,6.5-2.4c1.4,1,2.8,1.9,4.7,3.3c0.7-4.7,1-8.6,0.5-12.6c-0.4-3.3-3.1-4.5-6.3-2.5
		c-2.7,1.7-5,0.2-8.2,0.5c-0.7-6.8-1.5-13.6,0.7-20.2c1-2.9,1.4-5.7,0.2-8.7c-2.4-6,1-12.5-1.2-18.6c-0.1-0.3,0.1-0.7,0.2-0.9
		c3.9-5,2.6-9-2.1-12.7c-0.6-0.4-0.3-2.7,0.3-3.6c0.9-1.3,2.4-2.2,3.8-3.4c-1.6-2.2-3.9-4.1-4.5-6.4c-0.9-3.1-0.5-6.5-0.7-10.4
		c2.6,0,4.8,0.2,6.9-0.1c0.8-0.1,2-1.1,2.1-1.8c0.1-1.1-0.3-2.8-1.1-3.3c-2.1-1.5-4.5-2.6-6.4-3.6c-1.2-5.1-1.1-9.6-3-14
		c-1.6-3.6-0.6-7.8,0.2-12c2.8-0.7,5.3-1.2,7.5-1.8c0.5-0.9,1.2-1.4,1.2-1.9c-0.5-7-0.9-14-7.9-18.1c0.6-0.8,1.2-1.6,1.8-2.4
		c-0.7-7.1-5.7-12.3-8.9-18.5c2.3-1.7,2.8,1.2,4.2,1.2c1.6,0,3.2-0.1,4.8-0.3c4.8-0.6,4.7-0.7,5.4-5.8c0.2-1.2,0.7-2.4,1.4-3.5
		c1.1-1.9,2.5-3.7,3.8-5.7c-1.1-0.4-1.9-0.9-2.2-0.7c-2.9,1.6-5.7,3.4-8.9,5.4c-1.6-0.4-3.5-0.9-5.3-1.4c0.1-0.9,0-1.7,0.3-2
		c2.2-2.1,4.4-4.2,3.8-7.6c2.9,0.6,5.7,1.2,8.4,1.7c1.9-1.3,1.9-2.8,0.8-4.3c-1.4-1.9-3.5-1.4-5.5-1.2c-2.4,0.2-3.3,1.8-3.5,4.1
		c-1.6-0.5-3.3-0.8-3.6-2.9c-1.4-9-4.8-17.8-2.7-27.1c0.3-1.4-1.4-3.1,0.4-4.6c2.1-0.2,1.4,1.8,2.1,2.7c1,1.2,2.1,2.7,3.4,3.3
		c0.9,0.4,2.5-0.3,3.5-0.9c0.5-0.4,0.7-2.3,0.3-2.7c-3.4-3.1-3.4-6.8-2.6-10.9c0.3-1.3-1.2-2.9-1.8-4.4c-2,0.2-3.6,0.4-5.2,0.6
		c0-0.6-0.3-1.2-0.1-1.7c0.4-1.2,1.7-2.5,1.5-3.5c-1.2-6.1,0.9-11.8,2.4-17.8c-0.4-2.6-3.6-3.9-3.1-7.7c0.5-3.6-0.9-7.6-1.9-11.3
		c-1.8-6.6-1.2-13.1,0.5-19.6c0.4-1.5,1.1-3.7,0.4-4.7c-3.4-5-2.3-10.3-1-15.3c0.8-3.4,1.3-6.2,0-9.6c-0.9-2.4-0.3-5.3-0.8-7.9
		c-0.3-1.9-1.4-3.6-2.3-5.7c2-5.1,3.9-10.8,10.1-14c-1-2.1-1.7-3.5-2.6-5.3c0.8-1.7,1.8-3.7,2.7-5.7c-3.1-4.1-10.7-2.3-11.1-9.3
		c3.7-1.1,7.1-2.6,9-6.9c-0.6-0.8-1.4-1.7-2.4-2.8c-2.6,1.9-4.9,3.5-7.6,5.5c-0.1-8.2-0.1-8.1,3.7-11.7c0.9-0.9,1.9-1.9,2.3-3.1
		c1.7-5.5,5.9-9.4,8.6-14.3c0.6-1,2-1.5,3.3-2.3c1.7,1.9,2.9,3.9,4.7,5.1c1.8,1.2,4.6,1.2,5.1,4.2c-2.6,2.1-4.7-2.1-7.9-0.2
		c-0.4,3.5,0.4,7.1,2,10.7c1.8,0.2,3.4,0.4,5,0.6c-0.2,5.5-0.1,5.4,3.1,10.7c1,1.6,2.1,4,1.5,5.4c-1.5,4-0.3,7.1,1.9,9.4
		c-0.9,5.8-6.9,8.4-5.9,14.2c2.4,2.1,4.3-0.6,6.5-0.6c2.7,0.1,4.1-1.7,5.1-4c0.1-0.3,1.2-0.4,1.6-0.2c0.5,0.3,1.1,1.2,1,1.6
		c-0.5,1.5-1.3,2.9-1.9,4.4c-1,2.3-0.2,4.7,2,4.6c6.6-0.3,9.2,3.5,10.8,9.1c0.6,2.2,2.1,4.1,3.1,6.1c0,3-1.9,4.8-3.9,6.7
		c-1.2,1-1,2.4-0.1,3.6c0.9,1.3,2.2,1.3,3.5,0.7c0.8-0.3,1.6-0.6,3.7-1.3c-1.3,2.4-2.1,3.7-2.8,5c-2.2,3.6-2.1,4.7,0.6,7.8
		c1.5,1.7,3.2,3.4,5,5.4c-0.9,2-1.8,4-2.9,6.5c5,3.1,7.3,7.8,7.2,13.8c-0.1,2.3,0.2,4.5,0.6,6.8c0.2,1.2,0.7,2.8,1.6,3.3
		c3,1.6,4.2,4.4,4.6,7.3c0.9,6.6,4,12.5,5.4,18.9c0.6,2.9,2.1,5.5,1.1,8.8c-0.3,1.2,2.2,2.9,2.4,4.5c0.5,3.6,0.5,7.3,0.5,10.9
		c0,3.6-0.3,7.2-0.6,11c3.6,1.1,5.6,3.4,6.2,7c1.5,8.2,4.7,16,4.8,24.4c0.1,6.4,3.5,11.8,4.2,18c1,8.1,1.5,8.1-1.7,15.3
		c1.6,2.2,3.3,4.6,5,6.8c0.5,0.7,1.6,1.2,1.8,2c1.9,6.4,3.5,12.8,5.5,19.2c1,3.2-1.6,4.9-2.3,7.6c0.4,0.7,0.9,1.6,1.6,2.2
		c0.7,0.6,1.7,0.9,3,1.6c0.8,5.3,2.9,10.7-1,16.2c6,3.5,5.9,10.1,8.7,15.2c-0.7,1.5-1.4,3-2.1,4.5c0.2,0.6,0.2,1.5,0.6,1.8
		c2.4,1.9,4.3,4,4.6,7.3c0.2,2.3,0.9,4.5,1.5,6.8c0.8,2.9,1.1,6,2.5,8.5c5.7,9.5,8.1,20.2,10.9,30.6c0.6,2.2,0.8,4.6,0.8,6.9
		c0.1,3.7,0.8,6.8,2.8,10.2c2.4,4,3.7,9.2-0.2,14.4c1.4,1.2,2.9,2.3,4.4,3.5c0.9,4.1,2.1,8.3,2.7,12.5c0.4,3.2-0.7,6.8,0.4,9.6
		c1.3,3.2,0.9,6.4,1.5,9.5c0.3,1.5-0.8,3.4-0.2,4.8c1.8,4.6,0.3,8.4-2.7,11.8c3.9,6.3,6.1,12.6,4.8,19.8c-0.7,3.9-1.2,7.9-1.1,11.8
		c0.1,4.2-1.8,6-6.2,6.5c1.3,4.9-0.3,10.1,3.8,14.3c-2.4,1.7-4.5,3.1-6.9,4.7c-1.7-0.5-3.6-1-5.3-1.8c-1.3-0.6-2.1-2.6-3.9-1.9
		c-2.3,2.3,0,4.6-0.3,7.6c-1.6,1.2-3.6,2.9-5.7,4.3c-1,0.7-2.8,0.7-3.3,1.6c-2.8,5.2-8.3,5.2-12.9,6.5c-4.5,1.2-9.2,1.2-13.6-1.2
		c-1.3-0.8-3.1-1.2-4.7-1c-5.4,0.4-8.8-1.8-10.8-6.8c-0.4-1.1-1.5-1.9-2.8-3.4c-1.3,3.7,1.7,5.6,1.5,8.5c-3.2,2.7-6.8,4.3-10.1,0.1
		c-2-2.5-6-1.3-7.2-4.7c-0.9-2.6-2.9-4.4-5.1-5.9c-0.5-0.3-1.1-1.3-0.9-1.7c1.6-3.6-1.2-5.7-2.8-8c-2.2-3.3-5.8-6-7-9.5
		c-1.2-3.4-1.6-6.9-4.2-9.8c-0.8-0.9-1.1-2.4-1.2-3.7c-0.4-3.7-2.4-6.1-5.5-7.8c-2.1-1.1-2.7-2.8-0.9-5.4c1.4,0.4,2.9,0.9,4.4,1.3
		c0.7,4.6,1.2,5.3,4.7,6c0.5,0.1,1.3-0.3,1.6-0.7c0.3-0.4,0.2-1.3,0-1.7C1738.5,1850.8,1736.3,1849.5,1733.4,1850z M1723.2,1613.8
		c-2.9-3-4.8-5.3-7-7.1c-0.7-0.6-2.5-0.3-3.5,0.1c-0.6,0.2-1,1.7-0.9,2.5c0.2,1.3,0.5,2.8,1.3,3.7c3.1,3.4,4.6,7.8,7.1,11.9
		C1724.4,1621.7,1720.8,1617.1,1723.2,1613.8z M1724.7,1640.8c-1.1-0.7-1.4-0.9-1.7-0.9c-3.1,0-5.1,3.8-8.7,2.7
		c-0.4-0.1-1.6,1.3-1.7,2c-0.2,2.1-0.1,4.3-0.1,6.4c7.9,0.9,8.6,0.6,10.8-5.2C1723.9,1644.3,1724.2,1642.7,1724.7,1640.8z
		 M1704.8,1455.5c3.4-1.4,3.8-5,7.1-4.9c0.8,0,1.9-1.6,2.5-2.7c0.4-0.8,0.6-2.4,0.2-2.7c-0.9-0.7-2.4-1.2-3.4-1
		c-3.9,0.9-6.6,3-6.1,7.6C1705.2,1452.7,1704.9,1453.7,1704.8,1455.5z M1725.9,1711.1c1.8-0.9,2-2.8,1.6-4.2
		c-0.5-1.8-1.7-3.4-2.9-4.9c-1.2-1.5-3-1.2-4.1,0.3c-1.1,1.6-0.9,4.2,0.3,4.1C1724.4,1706.2,1724.2,1709.6,1725.9,1711.1z
		 M1703.5,1424.9c0.6,0.6,1.5,2.3,2.6,2.4c1.6,0.1,2.8-1.5,2.8-3.3c0-1.8-1.2-2.9-2.9-3.3
		C1704.7,1420.3,1703.4,1422.1,1703.5,1424.9z M1766.7,1671.6c0.1,0.6,0.2,1.2,0.3,1.7c1.2,0.4,2.4,0.9,3.7,1.2
		c2.2,0.5,4.1-0.4,3.8-1.7c-0.4-1.8-1.8-2.9-3.5-2.8C1769.4,1670.2,1768.1,1671,1766.7,1671.6z M1829.7,1765.8
		c-0.1-0.6-0.1-1.3-0.4-1.9c-0.3-0.5-1.1-1.2-1.4-1.1c-0.8,0.2-1.8,0.8-2.1,1.4c-0.4,0.8-0.5,1.9-0.2,2.8c0.2,0.8,1,1.8,1.7,1.9
		c0.6,0.1,1.6-0.7,2.1-1.4C1829.7,1767.3,1829.6,1766.5,1829.7,1765.8z M1745.6,1771.5c-4.6,3.8-3,6.6-2.8,9.2
		c0,0.2,0.6,0.5,0.8,0.4c0.6-0.2,1.4-0.6,1.5-0.9C1745.3,1778,1745.4,1775.8,1745.6,1771.5z M1717.5,1440.6c0-1.8,0.1-3.1-0.1-4.3
		c-0.1-0.4-1.1-1.2-1.2-1.1c-1.2,1-2.3,2-3.4,3.1c0.9,0.8,1.7,1.6,2.6,2.4C1715.6,1440.8,1716.1,1440.6,1717.5,1440.6z M1772,1649.4
		c-0.6-0.8-1.1-2-1.7-2.1c-0.7,0-1.8,0.8-2.2,1.6c-0.4,0.8-0.4,1.9-0.2,2.8c0.1,0.5,0.8,1.1,1.4,1.2c0.5,0.1,1.4-0.2,1.7-0.7
		C1771.5,1651.5,1771.7,1650.5,1772,1649.4z M1754.2,1844.4c-1.1,0.4-2.2,0.5-2.2,0.8c-0.2,1.2-0.4,2.5,0,3.6
		c0.2,0.7,1.4,1.1,2.3,1.6c0.2,0.1,0.7-0.1,0.8-0.3c0.4-0.8,1-1.8,0.8-2.6C1755.6,1846.4,1754.7,1845.4,1754.2,1844.4z
		 M1723.7,1687.5c-1.7-0.6-2.7-1.2-3.7-1.2c-0.6,0-1.6,1.2-1.5,1.7c0.1,1.5,1.3,2,2.7,1.6
		C1721.8,1689.4,1722.4,1688.6,1723.7,1687.5z M1767.7,1868.9c-1.2-0.9-2.1-1.9-3.2-2.2s-2.3,1.5-1.8,2.8c0.5,1.4,1.5,2.3,3,1.8
		C1766.3,1871,1766.8,1870,1767.7,1868.9z M1726.6,1781c-1.2,1.1-2.5,1.9-3.3,3.1c-0.3,0.5,0.1,1.7,0.4,2.4c0.1,0.2,1.3,0.2,1.7,0
		C1727.3,1785.2,1728,1783.6,1726.6,1781z"/>
	<path class="st0" d="M1647.3,2088.7c-3.1-0.4-6-0.8-9-1c-2.7-0.2-5.4-0.3-7.5,1.8c-2.3,2.4-3.4-0.9-5.6-0.9c-1.8,1.8-3.9,3.8-6,5.8
		c-1.4-0.7-2.5-1.3-3.8-2c-0.7,0.5-1.4,1.1-2.2,1.7c-3.4,2.2-4.2,1.8-4.8-2.2c-0.1-0.9-0.3-2.2-0.9-2.5c-0.6-0.4-2.1-0.2-2.6,0.4
		c-2.4,2.6-4.6,5.5-7.7,9.2c-1.4,0.7-3.8-4.9-6.7-0.8c-0.3,0.4-2.7-0.2-3.6-0.9c-3.1-2.6-6.6-2.2-10.8-1.6c0.5,1,1.1,2,1.8,3.3
		c-2.6,1.2-4.3-0.3-6-1.6c-3.1-2.3-6.5-2.4-9.1,0.3c-4.3,4.6-9.9,4.8-14.8,3.5c-5.6-1.5-10.2,1.1-15.2,1.3c-5.7,3.9-12.1,1.9-18.2,2
		c-2.2,0.1-4.5-2.3-7-3.7c-6.6,5-14.9,2.4-22.3,4.1c-1.6-1.5-3-2.8-4.3-4.1c-1.2,0.4-2.3,0.5-3.1,1c-5.6,4.2-12.1,4.8-18.8,4.9
		c-5.2,0.1-10.5,1.9-15.7-0.4c-4.5,4.5-9.8,1.8-14.9,1.9c-0.9-1.7-1.8-3.4-3-5.7c-2.9,2.4-5.4,4.5-7.8,6.4
		c-3.8,0.4-7.5,0.4-11.1,1.2s-6.4-1.4-9.9-1.1c-4.2,2.5-8.7,3.9-13.7,4.9c-6.2,1.2-12.4,0.7-18.6,1.1c-5.5,0.4-11.2-0.9-16.8-1.8
		c-1.4-0.2-2.6-1.8-3.8-2.8c-2.5-2.1-2.9-1.9-3.9,2.2c-2.5,2.2-4-3.4-7.2-0.8c-1.3,1.1-4.7-0.4-6.6,0.5c-4.4,2-6-1.2-8.2-3.9
		c-1.2,0.6-2.3,1.1-3.5,1.6c-0.8-1.3-1.7-2.6-2.8-4.3c-5.9,5.8-12.9,4.4-19.6,3.6c-0.9-0.1-2-0.6-2.7-1.2c-3.4-2.9-7.4-3.9-11.6-5.2
		c-6.8-2.1-12.3-6.7-15.6-13.1c-1.2-2.3-1.8-4.3-4.8-3.6c-2.2-4.3-7.8-5-9.7-10.2c-2.5-6.8-6.6-12.9-9.9-19.5
		c-3.3-6.7-3.2-14-3.3-21.3c4-3.4,1.3-8.8,4-12.8c2.6-3.9,5.2-7.7,8.5-10.9c1.9-1.8,3.3-4.2,5-6.2c5.9-6.6,11.9-13.2,20.3-16.9
		c1.4-0.7,3.1-1.3,4.6-1.3c4.3,0,8.6,0.5,11.3-3.9c3.3-0.8,6.1-3.2,10.3-0.8c3.1,1.7,7.2-1.2,11.3,0.2c3.1,1,6.8-2.6,10.3,0.4
		c0.3,0.3,1.7-0.6,2.6-0.9c4.4-1.9,4.4-1.9,7.8,2.9c1.1-0.3,2.5-0.3,3.6-0.9c4.4-2.3,9-2.2,13.6-1.3c2.6,0.5,4.9,1.2,7.8,0.9
		c2.3-0.2,5,1.3,7.3,2.4c3.1,1.4,6.1,2.7,9.5,1c2.3-1.1,4.6-0.1,6.7,0.9c3,1.4,5.8,3.4,8.9,3.9c2.8,0.5,5.8-0.7,8.8-1.2
		c0.3-0.1,0.7,0,1,0c2.5-0.2,3.2,1.8,4.2,3.5c3.5-0.8,7.2-3.7,10.1,1.3c1.4,2.4,4.6,1.9,6.4,1.2c5.1-2.2,8.8-0.9,12.1,3.2
		c1.7,2.1,3.9,1.9,6.3,1.9c2.4,0,3.3-4.4,5.9-2c2.1,2,4.4,0.7,6.4,1.2c1.7,0.4,3.1,2.3,4.9,3.8c1.6-0.6,3.3-1.3,5.5-2.2
		c4,1.2,8,4.2,12.9,2c1.1-0.5,2.7,0,3.9,0.3c10.8,3.1,22,4,33.1,5.4c15.1,1.9,30.3,3.2,44.8,8.3c2.5,0.9,5.2,1.3,7.8,1.3
		c6.4,0,12.6,1,18.8,2.2c16.6,3.2,33.4,5,50,7.8c12.4,2.1,25,3,37,7.3c1.5,0.6,3.3,1,4.9,0.9c8.1-0.8,14.8,3.3,22,5.8
		c1.9,0.7,3.6,1.7,4.2,3.9c1.2,4,5.2,4,7.3,3c7.9-3.6,14.8,1.1,22.1,2c2.2,0.3,3.9,2.4,3.7,5.2c-0.1,2.3,0.2,4.6,0.3,7.1
		c-2.8,2.5-4.4,6.8-9.5,5.9c-0.2,0-0.9,1.5-0.8,2.3c0.1,1.3-0.4,1.9-1.6,1.8c-3.7-0.5-5.5,3.4-8.9,3.6c-2.9,0.2-5.8,1.1-8.7,1.6
		c-1.9-1.2-3.7-3.5-6-0.9c-2.8,3.1-5.4,0.9-8-0.3c-5.5,7.3-5.9,7.4-18.1,3.1c-0.6,1-1.1,2.2-1.8,3.2c-1.5,2.2-3.4,2.4-4.8,0.6
		c-0.8-1-1.1-2.6-2.1-3.4c-2.7-2.3-5.7-4.3-8.4-6.3c-3.5,0.9-0.3,5.1-3.7,6.4C1648.6,2083.4,1648.2,2086.6,1647.3,2088.7z"/>
	<path class="st0" d="M166.4,2490.9c1.1,3.5,1.3,7.1-2,9.9c-0.4,0.4-0.8,1.3-0.6,1.8c1.5,3.8-2.1,6.8-1.2,10.5
		c0.3,1.2,0.4,3.2-0.3,3.8c-6,5.5-3.3,13.6-6.4,20.1c-2.4,5-3.9,10.4-7.1,15.2c-2.6,3.8-5.2,8-6.1,12.4c-0.6,3.1-3.6,2.7-4.3,5.2
		c0.4,0.6,0.8,1.4,1.3,2.3c0.3,0.6,0.6,1.2,0.9,1.8c-5.6,13.8-11.1,27.7-16.7,41.5c-1.6,3.9-1,7.9-0.9,11.8
		c0.2,6.6-3.8,12.1-10.2,14.1c-12.3,3.8-24.2,2.4-35.5-2.7c-3.8-5.4-3.3-11.1-2.7-16.7c0.4-3.3,0.9-6.3-0.1-9.7
		c-0.8-2.8-0.6-6-0.3-8.9c1.1-10.2,2.5-20.3,3.7-30.5c0.2-1.6,0.4-3.5-0.2-4.9c-1.5-3.6-1-7.2-0.4-10.8c1.3-8.2,0.2-16.6,2.7-24.6
		c0.4-1.2,0.2-2.6,0.2-4c-0.2-12.3,1.9-24.5,3.1-36.7c0.1-0.6,0.5-1.4,0.3-1.9c-2.6-6.5,0.3-13.2-1.3-19.8c1.2,0.1,2.1,0.2,2.9,0.3
		c0.2-0.6,0.7-1.5,0.5-1.8c-3.5-4.4-2.3-10.1-3.8-15c-0.7-2.3-0.1-5.3,0.6-7.8c0.8-3,0.8-5.7,0.5-8.7c-0.4-3.8,0.8-7.8,1.3-11.4
		c4.7-1.5,4.5-1.5,3.6-5c-0.9-3.8-1.9-7.8-1.8-11.6c0.3-9.3,1.3-18.5,5.4-27.3c-0.7-1-1.4-2-2.4-3.4c1.1-3.1,2.6-6.2,2.2-10.1
		c-0.4-3.8,1.2-7.8,1.7-11.8c0.6-4.3,1.1-8.6,1.4-12.9c0.3-3.9,2.7-7.7,0.3-11.7c0.2-6.7,1.1-13.4,4.1-19.2c1.6-3,1.3-5.4,1.2-8.4
		c-0.3-6.3-0.6-12.6,2.7-18.5c0.8-1.4,1-3.2,1.1-4.8c0.4-12.2,5.2-23.3,10-34.2c2.4-5.5,5.1-10.8,9.1-15.4c3.4-4,3.2-4.2,8.1-6.8
		c0.8-2.2-2.8-3.7-0.8-6.3c4.1-5.5,6.6-12.5,14.1-14.7c3.1-4.1,8.1-5.6,11.9-8.7c3.4-2.7,6.9-5.2,11.8-4.1c1.1,0.2,2.4-0.7,3.6-1.3
		c3-1.6,5.6-2.4,9.2-0.4c2.1,1.2,5.7-0.2,8.6-0.6c2.4-0.3,4.5,0,6.4,1.8c1.4,1.3,3.2,2.8,5,3c5.8,0.8,11,2.6,14.7,7.3
		c5.5-0.4,8.5,4.3,12.8,6.1c1.3,4,2.5,7.8,3.9,11.9c1.2-0.6,2.3-1.1,3.6-1.8c1.8,1.9,3.2,4.5,2.6,6.9c-1.2,4.7,0.3,9,1.5,13.3
		c0.9,3.3,1.3,6.4,0.4,9.7c-0.9,3.2-1.8,6.4-2.6,9.6c-1.3,4.7-3.3,9.1-2.9,14.4c0.3,3.4-2.6,7.3-1.9,10.5c0.9,4-3,6.1-2.4,9.3
		c0.8,4.1-2.3,6.8-3.1,10.2c-0.5,2.2,0.2,5-1,6.7c-3.3,4.8-3.9,10.5-6.1,15.6c-1.2,2.8-4.4,5.2-1.6,8.8c-1.6,4.4-3.1,8.7-4.7,13.1
		c-2.6,6.7-5.2,13.4-7.9,20.3c-4,4.6-8.2,9.6-12.1,14.1c0.1,1.5-0.1,2.4,0.3,2.7c4.2,4.1,4.4,8.6,1.8,13.6c-1.1,2-2.4,4-3.5,6
		c-0.5,0.8-1.4,1.9-1.2,2.4c2.2,6.2-3.2,9.7-5,14.4c-0.9,2.2-1.8,4-1,6.5c0.6,2.1,0.9,4.9,0.1,6.8c-3.2,7.2-3,15.8-9.4,21.9
		c1.5,1,2.4,1.7,3.4,2.3c-2.8,2.3-1.3,5.4-1.7,8.1c-0.3,1.8-1.6,3.5-2.5,5.2c-0.4,0.8-1.5,2-1.3,2.2c3.4,3.8-0.4,7-1.1,10.2
		C171.5,2484.5,168.8,2487.1,166.4,2490.9z"/>
	<path class="st0" d="M838.7,2302.2c-2.2-1.5-3.3-5.1-6-3c-2.5,1.9-1.6,6.2,1.1,8.5c0.5,0.4,1.2,0.6,2.1,1.1
		c-0.5,3.3-2.2,5.8-5.2,7.5c-0.7-1.2-1.4-2.3-2.3-3.8c-2.2,1.7-4.3,3.2-6.4,4.7c-0.2,1.6-0.6,2.9-0.5,4.2c0.8,7.6-3,13.3-7.9,18.5
		c-1.8,2-3.5,4-5.7,6.4c-0.8-0.6-1.8-1.2-2.7-2.1c-0.9-0.9-1.7-2-2.8-3.6c-1.4,2-2.7,3.8-4,5.8c1.2,0.7,1.9,1.3,2.8,1.7
		c1.9,1,1.9,2.5,1.3,4.2c-0.1,0.3-0.3,0.7-0.5,0.9c-3.8,3.1-6.4,7.4-9.5,11.2c-4.2,5.1-4.2,5-13.1,8.9c-2.2-3.1-4.4-6.2-7.1-10
		c0.2,0.1-0.3-0.3-0.9-0.4c-4.4-0.6-8.6-1.7-10.4-6.5c-1.3-3.7-2.3-7.2-1.5-11.5c1.3-7.4,3.1-14.2,7.8-20.2c1-1.3,2-2.9,2.1-4.5
		c0.4-5.3,3-9.2,6.3-13.2c3.4-4,5.5-9,6.6-14.4c0.7-3.5,2.4-6.8,3.7-10.2c2.7-6.8,5.7-13.4,8-20.3c1.7-5.1,3.5-10,6.2-14.6
		c5.8-9.8,9.6-20.4,14-30.8c2.8-6.7,5.6-13.4,9.1-19.9c5.7-10.5,9.3-21.9,13.2-33.3c3.3-9.7,7.8-19.1,11.8-28.5c3-7,6.2-14,9.3-21
		c0.7-1.5,1.6-3.1,1.6-4.7c0-4.3,3.5-7.1,4.4-10.8c0.9-3.7,2.8-6.5,4.6-9.7c2.3-3.9,3.1-8.6,4.6-13.3c2.1-0.4,4-2.2,3.5-4.7
		c-0.9-4.8,1.4-8.2,3.5-12.1c3-5.5,5.6-11.3,8.3-16.9c0.7,0.9,1.4,2.6,2.3,2.8c1.8,0.3,2.8-1.3,3.2-3.1c0.6-2.6,0-4.6-3.6-5.1
		c4-9.4,8-18.7,11.9-28.1c0.7-1.6,3.6-1.2,3.1-4.3c-0.2-1.5,2.5-3.5,3.9-5.2c1.2-1.5,2.5-3.1,3.7-4.6c-1.4-7.3,3.1-11.7,7.6-16.2
		c0.9-0.9,2.5-1.9,2.4-2.7c-0.7-4.3,2.9-4.6,5.7-6.4c-0.5-1-1.4-2.2-1.4-3.2c0.1-1.1,0.9-2.5,1.9-2.9c1-0.5,2.4-0.1,4-0.1
		c-0.2-1.7-0.5-2.9-0.7-4.2c0.3-0.5,0.4-1.3,0.9-1.6c3.7-2.7,7.1-5.8,11.4-7.9c4-1.9,7.1-5.9,10.8-8.8c2.1-1.6,4.3-3.1,6.8-4.1
		c6.4-2.7,13-5.1,19.5-7.6c0.6-0.2,1.4-0.3,1.9-0.7c6.9-5.2,14.4-3.4,21.8-1.6c3.8,0.9,7.6,2.1,12.2,3.4c2.6,4.4,5.7,9.6,11.6,11.3
		c0.5,2.7,0.3,5.2,1.4,6.9c1.2,1.8,3.7,2.7,5.4,3.9c0.5,5.9,1.3,11.4,5.1,16c2,2.4,0.7,5.7,1.4,8.5c-3.7,2.5-1.6,5.7-1.4,8.8
		c0.2,2.9-0.9,5.8-1.4,8.8c1.7,1.3,3.2,2.6,4.6,3.7c-1.1,2.3-3.9,3.5-2.5,6.9c0.7,1.8-0.8,4.4-1.5,6.6c-1.9,6.4-3.7,12.7-5.8,19
		c-2.8,8.2-7,15.8-11.8,23c-1.1,1.7-2.6,3.1-3.6,4.8c-1.9,3.4-4.6,5.6-8.6,6c-0.9,0.1-1.7,0.8-3,1.5c1.3,8-3.2,12.9-9.3,17.1
		c-0.8,0.5-1.3,1.5-2,2.1c-0.7,0.5-1.7,0.7-2.6,1.1c-0.2,2.8-0.4,5.5-0.5,7.3c-2.6,3.1-4.8,5.6-6.8,8.2c-0.7,0.9-1.2,2.2-1.5,3.4
		c-0.3,1.2-0.1,3.6-0.5,3.7c-4.5,1.1-3.1,6-5.8,8.5c-5.3,4.9-11.1,9.2-17,13.2c-2.5,1.7-3.9,3.4-4,6.3c-0.1,1.3-0.1,2.7-0.5,3.9
		c-0.9,2.5-1.8,5-5,5.7c-3.9,1-5.3,3.8-4.7,7.6c0.8,5.8-4.2,9.5-4.8,14.8c-5.9,1.8-5.3,7.9-8.2,12.4c-1.3-0.4-2.7-0.7-4.1-1.1
		c-0.5,1.5-1,3-1.8,5.4c-1.4-3-2.4-5.4-3.5-7.9c-5.1-1-7.6,2.8-10.4,5.9c-0.2,0.3,0,1.3,0.4,1.7c0.4,0.4,1.2,0.7,1.7,0.6
		c2.1-0.7,4.2-1.6,5.9-2.3c3.3,1.7,1.2,3.9,1.4,5.6c0.7,6.5,0.7,6.6-5.8,8.5c-1.5,0.4-1.9,1.4-2.7,2.3c-2.1,2.4-4.5,4.5-7.5,7.4
		c-0.1,1.6-0.4,4.2-0.7,7.1c-2.8,0.9-5.6,1.8-8.8,2.8c-1.2,3.6-2.4,7.3-3.6,10.9c-0.5-0.6-1.3-1.6-2.1-2.5c-0.8,0.8-2.3,1.6-2.4,2.5
		c-0.2,1.4,0.4,3,0.8,5.3c-2.5-1.6-4.3-2.9-6.2-4.1c-2,3.9-3.8,7.4-2.4,11.7c-3.5,3.1-7,6.1-10.5,9.3c0.5,2.7,1,5.3,1.5,8
		c-2.2,1.3-4.1,2.5-6.4,3.8c0,5.8-3,10.3-7.4,14.2c-3,2.6-5.4,5.8-7.8,9c-0.9,1.2-1.4,2.9-1.5,4.5c-0.1,1.7-1,2.3-2.2,2.8
		c-1.5,0.6-2,1.6-1.8,3.1c0.4,2.5-0.6,4-3.2,3.3C839.9,2297.7,839.7,2299.9,838.7,2302.2z M943.7,2144.9c-0.7-0.9-1.2-1.8-1.9-2.3
		c-1-0.6-2.4,0.9-2,2.4c0.2,0.7,1.2,1.7,1.8,1.7C942.3,2146.8,942.9,2145.7,943.7,2144.9z M988.5,2087.9c-0.3,1.7-0.8,2.8-0.6,3.8
		c0.1,0.6,1.5,1.4,2,1.2c1.3-0.4,1.8-1.7,1.2-2.9C990.7,2089.4,989.8,2089,988.5,2087.9z"/>
	<path class="st0" d="M472.2,2538.9c1.5-0.2,3.2-0.6,4.8-0.7c6.1-0.4,11.1,1.4,14.3,6.9c0.6,1.1,1.7,2.3,2.8,2.6
		c5.7,1.2,8.3,6.3,12.5,9.4c3.5,2.5,6.2,6,9.8,8.4c3.2,2.1,5.8,4.5,7.5,7.8c2.8,5.3,7.7,9.1,10,14.8c0.8,1.9,4,2.9,4.7,4.9
		c3,7.8,10.7,12.5,13.1,20.9c1.3,4.6,5.1,8.4,7.9,12.6c4.6,6.8,9.3,13.6,11.3,21.8c0.3,1.2,1.4,2.2,2.2,3.3
		c6.7,9.1,12.7,18.5,17.5,28.8c3,6.6,6.5,13,10.9,18.9c1.6,2.1,2.8,4.5,3.9,7c1.8,4.3,3.2,8.7,6.8,12c-0.1,4.8,4.1,7.3,6,11.1
		c0.8,1.5,1.8,2.8,2.6,4.2c7.4,14.5,14.7,28.9,22,43.4c2.1,4.1,4.4,8.2,4.8,13c0.1,1.9,1.5,3.6,2.3,5.4c3.9,8.8,10,16.5,11.9,26.2
		c0.2,1,0.6,1.9,1.1,2.8c11.4,19.6,18.7,41.1,28.9,61.3c2.2,4.4,3.7,9.1,6.1,15.1c-0.2,1.3-0.8,4.2-1.4,7.2c-1.4,0.9-3,1.6-4.2,2.7
		c-6.9,6.3-14.7,4.8-22.6,2.6c-3.4-4.1-9-5.4-12.1-9.9c-2.1-3-4.5-5.4-8.4-6.6c-3.4-1.1-5.7-4-8-7c-5-6.5-10.8-12.5-16.8-18.3
		c-2.4-2.4-4.3-4.8-5.6-7.9c-1.3-3.1-3-5.8-6.8-6.6c-1.7-0.4-3.5-2.1-4.3-3.7c-2.4-5.2-6.7-8.5-11.4-10.8
		c-8.9-4.3-14.3-11.7-19.3-19.5c-1.6-2.5-3.1-5-4.7-7.5c-2.2-3.3-4.9-5.9-8.4-8.1c-4.7-2.9-8.5-7.4-12.7-11.2
		c-2.9-2.7-5.5-5.9-8.8-8.1c-4.1-2.7-6.9-6.2-8.7-10.6c-3-7-8.4-12-14.1-16.5c-8.4-6.6-16.3-13.6-22.5-22.4
		c-1.7-2.4-3.4-4.9-6.8-5.5c-0.9-0.1-2.1-0.6-2.6-1.3c-5.6-7.5-14.4-11.8-19.4-19.9c-2.4-3.9-6.4-6.7-9.6-10
		c-1.4-1.4-2.6-2.9-3.9-4.4c-3.3-3.7-6.2-7.9-10-11c-3-2.4-5.1-5.2-7.1-8.2c-2.2-3.3-3.4-7.1-7.7-8.7c-1-0.4-1.5-2-2.3-3.1
		c-1.6-2.1-3.2-4.2-4.8-6.3c-1.6-2.1-3.6-4-4.9-6.3c-2.1-3.9-4.6-7.3-7.6-10.4c-2.3-2.4-3.8-5.2-5.1-8.4c-1.2-3-4-5.2-3.2-9
		c0.1-0.7-0.6-1.9-1.3-2.4c-3.9-3.2-5.1-7.5-5.4-12.4c-0.2-2.9-1-5.9-2-8.7c-2.5-6.6-3.3-13.5-3.7-20.5c-0.2-4.4,3.1-7.8,3.2-12.1
		c3.5-3.9,5.2-9.3,9.7-12.5c1.5-1.1,2.5-3,3.8-4.6c0.8-1,1.5-2.6,2.6-2.9c7-2.3,11.8-8.2,18.5-10.7c1.5-0.6,3.2-0.7,4.8-1
		c5.9-1.2,11.7-2.4,17.6-3.4c2.2-0.4,4.6-0.2,6.9-0.1c2.3,0.1,5,1.4,6.8,0.6C467.9,2533.5,469.6,2536.9,472.2,2538.9z"/>
	<path class="st0" d="M1632.4,2785.9c0.8,0.2,1.8,0.5,2.9,0.8c1.6-2.3,2.9-5.1,5.1-6.9c2.2-1.8,3-4.3,4.4-6.4
		c1.1-1.6,2.8-2.9,4.4-3.9c2.4-1.4,3.9-3.3,3.8-6.5c1.6,0.5,2.5,0.8,3.4,1.1c0.9,0.4,1.7,0.9,2.9,1.5c0.9-2.4,1.5-4.8,2.6-6.9
		c1.2-2.4,2.9-4.5,4.7-7.3c1.2,0.2,2.8,0.7,4.3,0.7c1.2,0,2.8-0.4,3.5-1.2c1.4-1.8-0.6-2.8-1.4-4.1c-0.2-0.2-0.1-0.6-0.2-0.9
		c4.9-3.4,4.9-3.4,9.6-12.1c0.8-1.4,1.9-2.8,3.2-3.7c3-2,6.1-4,9.4-5.6c3.2-1.6,7.1-2.4,6.2-7.4c2.8-2.7,4.5-6.6,9-7.5
		c1.2-0.2,3.2-2.5,3-3.3c-1.1-4.1,0.7-5.5,4.2-6.3c0.5-0.1,1.1-1.6,1-2.4c-0.3-2.4,0.9-4.3,2.6-5c5.1-2,7.5-7.3,12.3-9.7
		c1.7-0.8,3.1-2.6,4-4.3c1.6-2.7,3.6-4.7,6.1-6.4c1.4-0.9,3.1-1.9,3.6-3.3c1.9-4.9,6.9-7.1,9.2-11.5c1.5,0.5,2.8,1,3.9,1.4
		c2.1-1.4-0.1-3.1,1-5.5c-0.3,0.4,0-0.2,0.4-0.6c1.5-1.3,3-2.4,4.5-3.7c4.6-3.8,9.1-7.8,13.8-11.4c1.1-0.8,3.2-0.3,4.3-1.1
		c0.7-0.5,0.2-2.5,0.5-3.7c0.1-0.6,0.7-1.1,1.2-1.6c4-4.8,7.3-10.3,13.3-13.1c0.9-0.4,1.6-1.1,2.3-1.9c5-5.7,9.6-11.7,16.9-15.1
		c3.4-1.6,6-5.1,8.5-8.1c3.4-4,6.9-8.1,9.6-12.6c1.8-3.1,4.4-3.7,7.6-4.8c2.8,1.7,5.8,3.6,8.8,5.4c1.2-0.5,2.4-0.9,3.7-1.4
		c2.6,5.5,5,11,7.7,16.3c1.5,3,1.5,5.7-0.2,8.5c-2.2,3.7-4.6,7.3-6.8,11c-1.3,2.3-2.7,4.6-3.7,7c-0.6,1.2-0.8,2.4-2.5,2.6
		c-2.5,0.2-3.3,2.1-3.6,4.2c-1.7,13.9-8.5,25.6-16.2,36.9c-1.8,2.7-3.6,5.6-5,8.6c-2.6,5.3-4.9,10.7-7.4,16
		c-4.3,9.3-8.6,18.7-13,28.3c-1.5,0.6-4.5,0.9-4.9,2.1c-0.8,2.8-3.7,5.1-3.4,7.6c0.9,8-2.8,14.2-6.7,20.4c-0.5,0.8-1,1.8-1.7,3.1
		c-1.2,0.3-2.7,0.7-4.2,1.3c-1.5,0.6-2.8,1.6-3.9,2.2c-0.7,3.1,2.5,2.1,2.9,4.6c-0.6,1.1-1.4,2.8-2.2,4.3c-5.1,1-5.9-3.6-8.9-6.9
		c-0.6,2.4-1.3,3.5-1.2,4.6c0.3,4.7,0.4,4.7-3.2,8.4c2.1,3.4,0.1,8.2,3.8,11.4c0.9,0.8-1.1,4.7-2.6,4.6c-5.3-0.2-5.4,3.8-4.6,6.6
		c0.6,2.2,0.5,3.8-0.4,5.4c-1.6,2.9-3.9,5.5-5,8.6c-1.6,4.5-5.9,6.9-7.1,11.8c-1.2,4.7-4.3,8.9-6.7,13.2c-2.2,4.1-4.4,8.1-6.8,12.1
		c-3.8,6.2-7.8,12.3-11.8,18.6c-2.4-2.3-4.5-4.3-6.9-6.7c-0.5,1.6-1.2,2.6-1,3.4c0.4,1.6,1.3,3.1,2.1,4.5c2.1,3.9,2.3,7.6-0.6,11.2
		c-0.8,1-1.5,2.2-2.1,3.4c-1.5,3.5-3.9,5.7-7.3,7.4c-2.8,1.4-5.7,3.2-7.1,6.6c-3.7,9.3-10.3,19.6-16.1,25.4
		c-0.2,0.2-0.6,0.2-1.6,0.6c-2-1.3-4.4-2.9-6.8-4.5c-0.5,0.6-1.1,0.9-1.2,1.4c-0.1,0.6,0.2,1.3,0.3,1.9c0,0.1-9.2,14.9-9.3,15
		c-3.7,3.6-5.1,3.7-10.5,0.8c-0.6-0.3-1.2-0.4-2.3-0.8c-0.6,1-1.2,2-1.9,3.1c-1,1.8-2.8,2.4-4.1,1.1c-2.2-2.2-4-1.2-6.1-0.3
		c-2.5-1.8-4.1-5.7-8.2-3.8c-0.8,0.4-1.8,1.2-2.1,2c-0.4,1.1-0.3,2.5-0.5,4.1c-12.9-2.6-24.4-9-36.7-13.4c-0.6-0.2-1.3-0.5-1.7-1
		c-6.9-7.5-14.6-14.5-17.2-25.1c-1-4.2-0.6-7.8,2.6-11.1c-1.6-2.1-4-3.9-4.5-6.2c-0.8-3.1-0.8-6.7-0.1-9.9c1.1-4.8,2.2-9.6,4.2-14.3
		c1.5-3.5,4.5-6.7,3.9-11c-0.1-0.6,0.2-1.4,0.6-1.8c7.1-9.5,13-19.9,22-27.9c1.2-1.1,2.7-2.2,4.2-2.6c3.5-0.7,4.8-3.2,6.1-6
		c3.3-7.7,3.3-7.7,10.8-14.7c0.7-0.7,1.4-1.4,1.9-2.3C1630.8,2789.6,1631.6,2787.7,1632.4,2785.9z M1798.5,2698.7
		c-0.9,0.7-2.2,1.4-2.2,1.9c0.4,3.8,0.9,7.6,1.6,11.4c0.1,0.4,1.1,0.8,1.6,0.8c0.5,0,1.3-0.5,1.5-1
		C1802.4,2707.2,1801.8,2702.8,1798.5,2698.7z M1686.1,2899.1c-0.9-1-1.5-2-2.4-2.6c-0.3-0.2-1.7,0.7-1.9,1.3
		c-0.7,1.8,0.5,3.7,1.9,3.2C1684.5,2900.8,1685,2900,1686.1,2899.1z"/>
	<path class="st0" d="M1857.8,2365.6c-5.1,2.8-5.5,7.5-4,12.1c2.8,9,1.4,17.7-0.8,26.4c-0.8,3-1.3,5.6-0.3,8.7
		c0.7,2.4-0.2,5.2,0,7.8c0.4,5.3,0.9,10.6,1.5,16.1c-0.9,1-2,2.1-3.6,3.8c1,0.8,1.9,1.4,3,2.3c0.1,0.3,0.4,1,0.2,1.5
		c-1.3,4.6-1.2,10.1-6.7,12.4c-0.4,2.6,2.7,2.6,3.4,4.4c-0.3,0.4-0.7,1.3-0.9,1.3c-1.9-0.5-4-1.3-5.5,0.7c-1.6,2.1-3,4.5-2.1,7.4
		c0.4,1.2,1.4,2.3,1.8,3.5c0.8,2.2,0.1,2.8-3.1,3.1c-2.8,0.3-5.3,2-8.4,1.6c-0.5-0.1-2,2.2-1.7,2.9c1.3,3.2-1.8,2.8-2.9,4
		c0.2,4.5,0.4,9,0.3,13.6c0,0.4-1.5,1-2.3,1.2c-0.3,0.1-1.1-0.9-1.1-1.4c-0.1-0.9,0.4-1.9,0.4-2.9c0-0.9-0.2-1.8-0.4-3.2
		c-3.2,1.6-5.5,3.2-4.3,6.9c0.6,1.8,0.5,3.2-1.1,4.4c-0.6-0.1-1.3-0.1-1.6-0.4c-1.2-1.5-2-3.9-4.5-2.2c-1.6,1.1-1.2,2.9-0.6,4.5
		c0.6,1.6,1,3.2,1.5,4.8c2.2,7.6,2.2,7.7-3,15.5c-0.9-0.2-1.8-0.4-2.7-0.7c-1.7,7.4-1.7,7.4-9.5,16.5c-2.1-7.8-2.1-7.8-6.5-10.8
		c-1.4,4.5-3.1,8.8-4.1,13.3c-0.7,3.2-1.3,6.9-0.3,9.8c1.8,5.4,0.8,9.7-2.7,14.1c-0.8,0-1.8,0.1-2.7,0c-2-0.4-3.7,0.4-4,2.1
		c-0.9,4.1-3.2,7.9-2.8,12.4c0.4,4-1.1,5.3-4.9,5.3c-1.3,0-2.6-0.2-3.9-0.1c-2.2,0.2-4.4,0.6-7.4,1c2.5,3.1,4.6,5.6,6.9,8.4
		c-1.2,0.7-2.2,1.6-3.3,1.9c-2.7,0.6-4.6,2.5-4.5,4.7c0.2,4.4-5.3,6.1-4.2,10.5c-2.2,2.9-4.4,5.7-6.8,8.8c-1.9-1.2-3.6-2.2-5.8-3.5
		c-1.2,1.2-2.9,2.4-3.6,4c-1.5,3.3-3.5,6.9-3.4,10.3c0.2,4.5-2,6.7-4.9,9c-0.5,0.4-1,1.1-1.6,1.2c-1.7,0.3,0.1,4.6-3.5,2.9
		c-1.9-0.9-2.5,1.6-3.6,2.6c-0.3,0.2-1.1-0.1-1.6-0.3c-2.2-1.1-3.7,0.6-3.4,1.9c1.9,7-4.7,10.3-6.4,15.6c-3.4,0.8-4.2,3.5-5.2,6.5
		c-0.5,1.6-2.7,2.9-4.4,3.7c-2.9,1.4-6.1,2.3-9.2,3.4c-1.5,2.8,1.4,3.2,2.5,4.5c1.9,2.3,1.6,4.5-1.4,5.2c-2.3,0.5-3.2,1.1-3.8,3.5
		c-0.9,3.4-2.4,6.7-7.2,6.8c-1.7,0-3.2,2.2-5,2.9c-5.4,2.3-7.8,6-6.1,11.2c-5,5.6-9.6,10.7-14.6,16.3c-1.5-0.5-3.5-0.8-5.2-1.6
		c-4.2-2-8.3-4.1-12.4-6.3c-7.4-4-10.3-10.7-7.2-18.3c3.3-7.9,5.8-16.1,8.8-24.2c2.1-5.5,4.1-11.2,8.6-15.5c0.9-0.8,1.5-2.2,1.8-3.4
		c1.8-8.5,4.8-16.4,8.2-24.4c3.3-7.6,5.6-15.6,8.4-23.4c0.9-2.5,1.8-5,3.2-7.3c1.3-2.2,4.1-3.8,4.7-6.1c0.6-2.1,0.4-4.4,1.2-6.6
		c3.7-10,6.6-20.2,10.7-30c2.4-5.8,4.2-11.5,4.9-17.8c0.4-4,0.7-8.7,4.6-11.8c0.7-0.6,0.5-2.4,0.7-3.7c0.9-4.5,1.9-8.9,4-13.2
		c2.4-4.7,4-9.9,5.2-15c0.8-3.3,1.3-6.4,4.4-8.4c0.7-0.5,1.4-1.7,1.4-2.5c-0.4-7.5,5.4-13.6,4.7-21.2c2.4-5.1,4.6-10.3,7.4-15.1
		c1.4-2.4,2.4-4.6,2.3-7.4c-0.2-3.9,1-7.3,3.3-10.2c2.9-3.5,4-7.8,4.5-12c0.7-6.6,4-11.8,7.9-16.7c1.7-2.1,2.6-4.3,3.5-6.8
		c2.7-6.7,5.6-13.4,10.2-19.3c2.8-3.6,4.4-8.1,6.4-12.3c5.3-11.1,11.8-21.4,20-30.7c0.7-0.7,1.7-1.5,1.8-2.3
		c0.7-6.3,7.2-8.5,9.5-13.7c4.1-2,8.2-4.3,12.4-5.8c2.7-1,6.1-1.8,8.7-1.1c5.7,1.6,11,4.2,16.5,6.4c0.8,4.3,4.6,4.1,7.6,5.2
		c3.6,1.4,6,4.2,6.8,8c0.5,2.4,1.4,4.3,3.6,5.7c3,2,4.5,5.1,4.4,8.5c-0.1,4.2,1,7.7,3.8,10.9c0.8,0.9,0.6,2.6,0.8,3.9L1857.8,2365.6
		z M1691.9,2672.6c4.5,1.5,6.1,0.7,5.9-2.8c-0.1-1.2-0.5-2.6-1.2-3.6c-0.4-0.6-1.5-0.8-2.5-1.2c-0.7,1.8-1.4,3.3-1.9,4.8
		C1691.9,2670.7,1692,2671.7,1691.9,2672.6z M1729.4,2552.1c2.8-0.1,4.4-1.9,3.9-3.8c-0.2-0.7-1.1-1.6-1.8-1.8
		c-1.9-0.4-3.9,1.3-3.7,3.2C1727.8,2550.7,1729,2551.6,1729.4,2552.1z"/>
	<path class="st0" d="M1464.3,2687.9c-6.1,2.8-11.6,1.4-16.7,0.8c-4.8-0.6-9.4-3.1-14.3-4.8c-0.3-1.3-0.8-2.8-1.3-4.9
		c-1.2,0.1-2.5,0-3.7,0.2c-3.1,0.6-6.2,0.5-8.7-1.2c-9.1-6.1-19.4-9.9-29.1-14.7c-9.5-4.7-19.4-8.6-29.1-13c-2.1-0.9-4-2.3-6-3.5
		c-4.8-3-10-4.9-15.4-6.8c-10.3-3.5-20.9-6.1-30.3-12.1c-4.4-2.8-9.5-4.7-14.5-6.6c-6.2-2.3-11.8-6.1-18.6-6.7
		c-5.6-5-13.7-6.8-17.3-14.4c-1.5,0.9-2.6,1.6-3.3,2.1c-6.1-3.1-11.9-6.1-17.8-9.1c-1.8-0.9-3.5-1.9-5.1-3c-3.5-2.4-7-4.8-10.5-7.2
		c-4.4,1.1-7.4-2.3-11.1-3.6c-9.4-3.2-18.4-7.5-26.6-13.2c-4.9-3.4-10.2-6-15.2-9.2c-6.6-4.4-13-9.1-19.5-13.7
		c-4.1-8-13.2-12.1-16.3-20.9c-0.2-0.6-0.6-1.3-1.1-1.6c-5.4-4.1-8.4-9.9-11.2-16c-1.8-4-3.6-7.7-3.4-12.3c0.2-3.6-0.2-7.3-0.5-10.9
		c-0.5-6.1,1.6-11.8,3.2-17.6c1.1-4.1,3.9-6.9,7.8-9.1c0.3-1.5,0.7-3.1,0.9-4.8c0.4-4.1,2.5-6.9,6.4-8c3.5-0.9,5.7-3.2,7.4-6.2
		c1.5-2.6,3.6-4.7,6.6-5.8c5.3-1.9,10.6-3.9,15.9-5.8c7.7-2.8,15.5-2.2,23.3-0.3c1.6,0.4,3.2,0.5,4.8,0.9c1.9,0.5,4.5,0.5,5.6,1.7
		c4.9,5.4,12.2,6.4,18,10.1c5.6,3.4,12.2,5.2,18,8.4c5.5,3,10.2,7.1,14.4,11.9c5.9,6.6,11.4,13.7,18.2,19.7
		c9.7,8.5,18.7,17.9,27.9,27c1.7,1.6,3,3.6,4.5,5.3c3.3,3.7,6.6,7.4,9.9,11.2c3,3.5,6,7.1,9,10.6c2.6,3,5.3,5.9,8,8.9
		c6.7,7.3,14.4,13.8,20.3,21.9c1.2,1.6,2.2,3.3,3.3,4.9c0.9,1.3,1.8,2.8,3.1,3.7c9.2,6.2,17,13.8,24.1,22.3c1.2,1.5,2.6,3.1,4.3,3.9
		c6.2,3.1,10.2,8.4,14.5,13.4c2.4,2.7,4.2,6.2,7.1,8.2c8.1,5.6,13.4,13.7,19.9,20.7c0.7,0.7,1.2,1.9,2,2.1
		c5.7,1.6,7.8,6.9,11.3,10.7c1.6,1.7,3.2,3.3,4.8,5c2.5,2.6,5.6,4.7,7,8.3c0.4,1.1,1.4,2.3,2.4,2.9c5.7,3.3,7.7,8.5,8.6,14.7
		C1460.8,2684.3,1462.7,2685.7,1464.3,2687.9z M1276.5,2587.1c-2.6,7.5-2.6,7.5,1.7,9.7C1278.9,2589.2,1278.9,2589.2,1276.5,2587.1z
		"/>
	<path class="st0" d="M1857.5,2365.8c1.2,0.4,2.5,0.7,3.7,1.2c1.1,0.5,2.9,1.2,3,1.9c0.6,5.4,3.9,10,4.7,15.3
		c0.1,0.6-0.3,1.2-0.6,2.1c-2.7-0.8-5.4-1.5-8.1-2.2c-2-6.1-3-12.2-2.4-18.5L1857.5,2365.8z"/>
	<path class="st0" d="M1700.5,1412.4c-2.1-2.1-2.6-4.3-0.4-6.7C1702.2,1410.1,1702.2,1410.1,1700.5,1412.4z"/>
</g>
</svg>
